<svg width="282" height="218" viewBox="0 0 282 218" fill="none" xmlns="http://www.w3.org/2000/svg">
<path d="M259.45 98.0884H227.703C225.738 98.0884 224.146 99.6811 224.146 101.646V117.498C224.146 119.463 225.738 121.056 227.703 121.056H259.45C261.415 121.056 263.008 119.463 263.008 117.498V101.646C263.008 99.6811 261.415 98.0884 259.45 98.0884Z" fill="#60A8FF"/>
<path d="M243.577 130.035L248.614 118.11H238.546L243.577 130.035Z" fill="#60A8FF"/>
<path d="M243.463 105.631H252.549V106.961L257.003 104.393L252.549 101.817V103.147H243.463V105.631Z" fill="#223A7A"/>
<path d="M257.003 110.852H247.917V109.522L243.463 112.091L247.917 114.659V113.329H257.003V110.852Z" fill="white"/>
<path d="M237.877 113.193L237.45 113.35C236.619 112.379 235.93 111.297 235.401 110.134C234.959 108.942 234.718 107.684 234.69 106.413L235.003 106.277L233.082 101.681C232.708 101.97 232.391 102.328 232.15 102.734C231.061 104.577 231.168 107.395 232.263 110.148C233.359 112.902 234.526 115.363 236.66 116.907C237.1 117.271 237.608 117.541 238.155 117.703C238.701 117.864 239.275 117.913 239.841 117.847L237.877 113.193Z" fill="#223A7A"/>
<path d="M239.258 112.653L238.66 112.866L240.631 117.576C240.835 117.509 241.033 117.424 241.222 117.32C241.467 117.187 241.654 116.969 241.75 116.707C241.846 116.445 241.842 116.157 241.741 115.897L240.716 113.314C240.608 113.035 240.395 112.81 240.122 112.686C239.849 112.563 239.539 112.551 239.258 112.653Z" fill="#223A7A"/>
<path d="M234.569 100.849C234.303 100.947 234.046 101.069 233.801 101.211L235.765 105.907L236.426 105.637C236.7 105.519 236.917 105.3 237.034 105.026C237.151 104.752 237.157 104.443 237.052 104.164L236.021 101.56C235.92 101.275 235.712 101.04 235.441 100.907C235.169 100.774 234.856 100.753 234.569 100.849Z" fill="#223A7A"/>
<path d="M56.5006 196.376V143.383C56.5006 143.383 55.9101 129.103 63.4236 124.983C70.9371 120.864 102.556 123.069 102.556 123.069V196.354L56.5006 196.376Z" fill="#1C83FF"/>
<path d="M112.468 73.4561C112.468 73.4561 110.554 89.5076 109.814 90.831L109.102 92.1544L105.438 94.6589C105.438 94.6589 112.503 104.67 121.184 106.285C129.864 107.9 129.138 102.727 129.138 102.727L127.808 99.924L129.579 84.6196C129.579 84.6196 113.791 77.4334 112.468 73.4561Z" fill="#FF9D8C"/>
<path d="M100.834 95.982L106.576 93.4775C106.576 93.4775 110.255 99.5111 118.793 103.047C127.331 106.583 127.48 104.52 127.921 103.047C128.163 102.022 128.112 100.949 127.772 99.9522L128.405 94.8009L131.821 95.9394L143.674 191.815L113.2 193.287L100.834 95.982Z" fill="white"/>
<path d="M128.954 94.9004C128.954 94.9004 131.017 99.6604 132.931 110.852C134.845 122.044 136.609 140.878 137.051 153.834C137.492 166.791 137.762 196.375 137.762 196.375H176.183C176.624 196.375 179.278 181.804 179.278 181.804C179.278 181.804 162.515 167.424 161.647 165.069C161.057 163.504 161.356 134.403 158.851 121.005C156.347 107.608 153.109 104.911 146.321 101.56C139.327 98.1235 128.954 94.9004 128.954 94.9004Z" fill="#3E3E3F"/>
<path d="M148.975 179.513C148.88 179.513 148.79 179.475 148.723 179.408C148.656 179.342 148.619 179.251 148.619 179.157C148.619 178.104 148.427 163.148 148.249 148.683C148.071 134.218 147.879 119.269 147.879 118.209C147.879 118.115 147.916 118.024 147.983 117.958C148.05 117.891 148.14 117.854 148.235 117.854C148.329 117.854 148.419 117.891 148.486 117.958C148.553 118.024 148.59 118.115 148.59 118.209C148.59 119.262 148.783 134.218 148.96 148.676C149.138 163.134 149.33 178.097 149.33 179.157C149.329 179.251 149.29 179.34 149.224 179.406C149.158 179.473 149.068 179.511 148.975 179.513Z" fill="#8593B6"/>
<path d="M72.424 175.912L72.1323 196.375H116.879C116.879 196.375 118.793 179.007 118.06 177.385C117.327 175.763 72.424 175.912 72.424 175.912Z" fill="#3E3E3F"/>
<g style="mix-blend-mode:multiply">
<g style="mix-blend-mode:multiply">
<path d="M122.23 90.3892C124.134 91.8204 126.245 92.9528 128.491 93.7475L129.544 84.6473C129.544 84.6473 117.712 79.2256 113.699 75.1914C114.538 79.7735 116.602 85.8426 122.23 90.3892Z" fill="#8E9BBB"/>
</g>
</g>
<path d="M143.383 43.5721C145.364 47.223 146.613 51.2253 147.061 55.3547C147.652 61.8294 147.061 78.4643 141.761 85.5296C136.46 92.5948 125.396 90.5101 120.415 86.2411C115.819 82.3278 111.287 78.0019 110.113 69.4638C108.939 60.9257 112.61 44.7319 123.062 41.3451C133.514 37.9584 143.383 43.5721 143.383 43.5721Z" fill="#FF9D8C"/>
<path d="M156.667 187.126C156.667 187.126 156.147 187.126 155.357 187.126H154.753L152.134 187.055H151.508C150.583 187.055 149.794 187.147 149.054 187.105C148.897 187.105 148.669 187.105 148.484 187.105C148.406 187.111 148.328 187.111 148.25 187.105C147.907 187.027 147.578 186.897 147.275 186.721C142.282 185.45 137.157 184.767 132.006 184.686C125.432 184.686 119.533 185.162 118.573 184.358C117.612 183.554 117.022 175.28 122.635 174.739L129.537 177.357C129.537 177.357 145.297 175.486 151.074 179.748C156.852 184.01 156.667 187.126 156.667 187.126Z" fill="#FF9D8C"/>
<path d="M149.025 187.055C148.868 187.055 148.64 187.055 148.455 187.055C148.275 186.77 148.072 186.498 147.851 186.244C146.072 184.429 141.774 183.255 140.216 182.878C140.148 182.861 140.089 182.818 140.052 182.759C140.014 182.699 140.002 182.627 140.017 182.558C140.025 182.523 140.04 182.491 140.061 182.462C140.082 182.433 140.109 182.409 140.139 182.39C140.17 182.372 140.203 182.36 140.239 182.354C140.274 182.349 140.31 182.35 140.344 182.359C142.614 182.907 147.459 184.308 148.797 186.628C148.84 186.692 148.953 186.941 149.025 187.055Z" fill="#223A7A"/>
<path d="M152.127 187.019C151.921 187.019 151.707 187.019 151.501 187.019C149.558 183.462 146.385 182.466 142.458 181.199L142.223 181.121C142.19 181.11 142.159 181.092 142.133 181.069C142.106 181.046 142.085 181.018 142.069 180.986C142.054 180.955 142.044 180.921 142.042 180.886C142.04 180.851 142.044 180.816 142.056 180.783C142.067 180.75 142.084 180.719 142.107 180.693C142.13 180.666 142.159 180.645 142.19 180.629C142.221 180.614 142.255 180.604 142.29 180.602C142.325 180.6 142.36 180.604 142.394 180.616L142.621 180.694C146.769 182.003 150.113 183.07 152.127 187.019Z" fill="#223A7A"/>
<path d="M155.35 187.097H154.745C153.674 185.181 152.208 183.513 150.444 182.206C148.68 180.898 146.659 179.98 144.513 179.513C144.478 179.508 144.444 179.495 144.413 179.477C144.383 179.458 144.356 179.433 144.336 179.404C144.315 179.374 144.301 179.341 144.293 179.306C144.286 179.271 144.286 179.235 144.293 179.2C144.308 179.132 144.348 179.073 144.405 179.034C144.461 178.994 144.53 178.977 144.599 178.986C149.914 179.982 154.204 184.315 155.35 187.097Z" fill="#223A7A"/>
<path d="M113.642 62.1998C116.027 60.8289 117.95 58.7778 119.163 56.3086C120.523 53.7764 121.207 50.936 121.148 48.0622C121.148 48.0622 125.275 47.4006 131.458 49.2433C137.641 51.0861 144.977 53.5835 151.181 50.0545C157.385 46.5254 157.364 40.8547 154.347 38.4996C150.967 35.8599 144.265 37.4679 144.265 37.4679C144.265 37.4679 146.841 34.9634 145.439 33.4906C144.037 32.0178 138.964 33.9318 138.964 33.9318C138.964 33.9318 132.781 29.001 121.077 29.5916C109.373 30.1821 103.78 38.3502 103.119 47.4859C102.457 56.6217 105.766 65.736 105.766 65.736L113.642 62.1998Z" fill="#223A7A"/>
<path d="M109.522 74.7859C109.522 74.7859 110.113 77.0627 113.499 79.7166C116.071 81.5749 118.859 83.1136 121.803 84.2987L122.194 82.584C122.194 82.584 117.114 80.3783 114.759 77.9449C112.404 75.5116 112.112 74.1953 112.112 74.1953L109.522 74.7859Z" fill="#DEE1EB"/>
<path d="M122.77 81.3178C123.796 81.258 124.81 81.5705 125.624 82.1979C126.438 82.8253 126.999 83.7254 127.203 84.733C127.395 86.156 126.086 87.6929 123.026 86.3197C119.22 84.6121 120.045 81.4387 122.77 81.3178Z" fill="#223A7A"/>
<path d="M111.656 57.9304C111.656 57.9304 112.83 49.4706 118.501 43.7003C129.323 32.736 138.523 33.3977 138.523 33.3977C138.523 33.3977 138.444 31.8538 134.965 30.6727C131.721 29.5698 130.255 30.1604 130.255 30.1604C130.255 30.1604 121.347 30.8719 113.841 39.2107C106.334 47.5495 105.544 58.1581 105.544 58.1581L111.656 57.9304Z" fill="#DEE1EB"/>
<path d="M110.846 56.8992C103.731 55.6968 99.803 61.2394 99.5113 66.8603C99.2196 72.4812 103.304 76.6577 108.711 76.2522C120.928 75.2987 119.533 58.372 110.846 56.8992Z" fill="#E1F2FF"/>
<path d="M107.316 70.8159C106.422 70.8297 105.541 70.5948 104.772 70.1376C104.004 69.6803 103.377 69.0185 102.962 68.226C102.486 67.3678 102.254 66.3959 102.29 65.4153C102.327 64.4347 102.63 63.4827 103.168 62.6621C103.188 62.6331 103.213 62.6083 103.242 62.589C103.271 62.5698 103.304 62.5565 103.338 62.5499C103.373 62.5433 103.408 62.5435 103.442 62.5505C103.477 62.5576 103.509 62.5713 103.538 62.5909C103.567 62.6105 103.592 62.6357 103.611 62.6649C103.63 62.6941 103.644 62.7268 103.65 62.7612C103.657 62.7955 103.657 62.8309 103.65 62.8651C103.643 62.8994 103.629 62.9319 103.609 62.9609C103.131 63.6971 102.862 64.5493 102.831 65.4265C102.8 66.3038 103.007 67.173 103.431 67.9414C103.807 68.6733 104.387 69.2809 105.1 69.6911C105.813 70.1014 106.63 70.2968 107.451 70.2538C108.217 70.2511 108.971 70.0594 109.645 69.6957C110.318 69.3321 110.892 68.8077 111.315 68.1691C111.811 67.4025 112.123 66.5309 112.224 65.6232C112.325 64.7155 112.214 63.7967 111.898 62.9396C111.606 62.135 111.061 61.4463 110.346 60.9758C109.631 60.5054 108.783 60.2783 107.928 60.3283C107.894 60.3333 107.858 60.3314 107.824 60.3226C107.791 60.3138 107.759 60.2984 107.731 60.2772C107.703 60.256 107.68 60.2295 107.662 60.1991C107.645 60.1688 107.634 60.1353 107.629 60.1006C107.621 60.031 107.64 59.961 107.683 59.9052C107.725 59.8495 107.788 59.8124 107.857 59.8018C108.834 59.7264 109.809 59.9747 110.63 60.5084C111.452 61.042 112.075 61.8314 112.404 62.7546C112.742 63.6887 112.86 64.6882 112.749 65.6754C112.638 66.6626 112.3 67.6109 111.763 68.4466C111.293 69.1506 110.659 69.7297 109.915 70.1338C109.171 70.5379 108.341 70.7549 107.494 70.7661L107.316 70.8159Z" fill="#818FB3"/>
<path d="M102.158 93.9185C102.158 93.9185 80.6706 99.2192 73.1642 107.757C65.6578 116.295 62.1217 158.395 61.9722 166.2C61.8228 174.005 67.273 177.243 70.5103 179.448C73.7477 181.654 88.0276 185.631 99.5112 186.222C110.995 186.813 121.888 186.222 121.888 186.222C122.021 184.062 122.611 181.955 123.617 180.039C125.253 176.624 127.331 175.912 127.331 175.912L117.47 172.355C117.47 172.355 115.741 141.404 113.051 126.463C109.963 109.23 102.158 93.9185 102.158 93.9185Z" fill="#3E3E3F"/>
<path d="M137.783 167.438C137.736 167.448 137.688 167.448 137.641 167.438C137.555 167.4 137.489 167.328 137.455 167.24C137.422 167.152 137.425 167.055 137.463 166.969C139.477 162.422 141.562 153.507 142.735 147.246L142.835 146.741C143.191 144.898 143.632 142.607 142.75 141.049C142.294 140.245 141.277 138.494 140.302 136.815C139.327 135.136 138.331 133.421 138.061 132.93C137.542 131.97 139.178 129.373 141.54 125.879C142.173 124.926 142.728 124.108 143.049 123.553C143.895 122.13 143.333 120.757 142.686 119.213L142.437 118.636C141.853 117.213 141.184 115.748 140.537 114.367L139.747 112.645C139.399 111.884 139.036 111.116 138.701 110.326C136.665 105.499 134.349 100.795 131.764 96.2381C131.717 96.1558 131.704 96.0583 131.728 95.9666C131.752 95.8748 131.811 95.7961 131.892 95.7472C131.932 95.7231 131.977 95.7073 132.023 95.7008C132.069 95.6942 132.116 95.6969 132.161 95.7089C132.206 95.7208 132.249 95.7417 132.285 95.7703C132.322 95.7989 132.353 95.8346 132.376 95.8753C134.99 100.447 137.335 105.168 139.399 110.013L140.444 112.325L141.234 114.04C141.882 115.463 142.55 116.886 143.148 118.359L143.369 118.885C144.03 120.465 144.713 122.094 143.696 123.866C143.362 124.442 142.807 125.289 142.159 126.235C140.928 128.071 138.36 131.892 138.715 132.546C138.979 133.03 139.932 134.681 140.942 136.417C141.953 138.153 142.949 139.853 143.397 140.686C144.408 142.493 143.938 144.919 143.561 146.876L143.461 147.374C143.034 149.658 140.765 161.327 138.139 167.253C138.105 167.316 138.053 167.368 137.99 167.401C137.926 167.434 137.854 167.447 137.783 167.438Z" fill="#8593B6"/>
<path d="M116.822 168.691C116.775 168.691 116.729 168.682 116.686 168.664C116.643 168.645 116.605 168.618 116.573 168.584C114.894 166.898 106.833 152.931 106.228 150.305C105.9 148.882 106.726 145.218 107.523 141.689C108.142 138.957 108.782 136.132 108.604 135.371C108.327 134.225 106.263 132.525 104.271 130.91C101.859 128.939 99.3688 126.904 98.885 125.068C98.3371 122.984 98.8067 109.942 99.1198 101.311C99.2265 98.2018 99.319 95.7542 99.319 94.9075C99.319 94.8132 99.3565 94.7227 99.4232 94.656C99.4899 94.5892 99.5804 94.5518 99.6748 94.5518C99.7691 94.5518 99.8596 94.5892 99.9263 94.656C99.993 94.7227 100.031 94.8132 100.031 94.9075C100.031 95.7898 99.938 98.2516 99.8313 101.361C99.5396 109.429 99.0558 122.934 99.5752 124.919C100.002 126.527 102.507 128.576 104.719 130.39C106.932 132.205 108.988 133.855 109.294 135.228C109.515 136.153 108.91 138.786 108.22 141.874C107.508 145.168 106.633 148.889 106.925 150.177C107.516 152.746 115.463 166.456 117.078 168.114C117.111 168.147 117.138 168.185 117.156 168.228C117.174 168.271 117.183 168.317 117.183 168.363C117.183 168.41 117.174 168.456 117.156 168.498C117.138 168.541 117.111 168.58 117.078 168.612C117.043 168.642 117.002 168.665 116.958 168.678C116.914 168.692 116.868 168.696 116.822 168.691Z" fill="#8593B6"/>
<path d="M87.8851 162.579H87.8353C87.7884 162.573 87.7431 162.557 87.7023 162.534C87.6614 162.51 87.6256 162.478 87.5971 162.44C87.5686 162.403 87.548 162.359 87.5363 162.314C87.5247 162.268 87.5223 162.22 87.5293 162.173C87.7926 160.323 91.8766 123.467 92.0616 120.643C92.0682 120.548 92.112 120.461 92.1834 120.398C92.2548 120.336 92.3479 120.305 92.4423 120.312C92.5366 120.319 92.6245 120.362 92.6865 120.434C92.7486 120.505 92.7797 120.598 92.7731 120.693C92.581 123.539 88.5041 160.423 88.2337 162.273C88.2218 162.357 88.1801 162.434 88.1161 162.491C88.0521 162.547 87.9702 162.578 87.8851 162.579Z" fill="#8593B6"/>
<path d="M117.178 172.59C117.134 172.6 117.087 172.6 117.043 172.59C116.139 172.227 112.141 170.876 107.082 169.168C96.8646 165.724 82.8906 161.007 80.2082 159.627C80.1252 159.581 80.0631 159.505 80.0352 159.415C80.0073 159.325 80.0158 159.227 80.0588 159.143C80.1027 159.06 80.1773 158.998 80.2665 158.97C80.3558 158.942 80.4524 158.951 80.5355 158.993C83.1468 160.352 97.6899 165.255 107.302 168.499C112.375 170.207 116.388 171.559 117.313 171.936C117.4 171.972 117.468 172.041 117.504 172.127C117.54 172.214 117.541 172.311 117.505 172.398C117.474 172.457 117.427 172.507 117.369 172.54C117.311 172.574 117.245 172.592 117.178 172.59Z" fill="#8593B6"/>
<path d="M112.261 187.268C103.275 187.268 85.8431 185.646 72.602 180.964C72.5552 180.949 72.512 180.924 72.4747 180.892C72.4375 180.86 72.4069 180.821 72.3848 180.777C72.3626 180.733 72.3494 180.685 72.3458 180.636C72.3421 180.587 72.3482 180.538 72.3636 180.491C72.379 180.444 72.4035 180.401 72.4356 180.364C72.4677 180.327 72.5069 180.296 72.5508 180.274C72.5947 180.252 72.6426 180.239 72.6917 180.235C72.7407 180.231 72.79 180.237 72.8367 180.253C89.5642 186.172 112.966 187.183 117.32 186.208C117.367 186.198 117.415 186.197 117.462 186.205C117.509 186.214 117.554 186.231 117.595 186.257C117.635 186.283 117.67 186.316 117.697 186.355C117.724 186.395 117.744 186.439 117.754 186.486C117.764 186.532 117.765 186.581 117.757 186.628C117.749 186.675 117.731 186.72 117.705 186.76C117.679 186.8 117.646 186.835 117.607 186.863C117.568 186.89 117.523 186.909 117.477 186.92C115.753 187.197 114.007 187.314 112.261 187.268Z" fill="#8593B6"/>
<path d="M270.642 135.428L242.502 191.175L160.458 191.765L185.774 134.646L270.642 135.428Z" fill="#F6F7FA"/>
<path d="M106.007 191.416V186.955H159.114L183.554 133.372H268.508L270.642 135.435H187.667L162.273 191.373C162.273 191.373 106.007 191.267 106.007 191.416Z" fill="#D9DEE8"/>
<path d="M228.037 166.194C227.112 168.976 222.082 171.117 216.803 170.989C211.523 170.861 207.994 168.499 208.919 165.717C209.844 162.935 214.882 160.786 220.161 160.922C225.44 161.057 228.962 163.412 228.037 166.194Z" fill="#D9DEE8"/>
<path d="M162.273 191.73C162.221 191.728 162.17 191.716 162.124 191.694C162.038 191.655 161.971 191.584 161.938 191.496C161.904 191.408 161.907 191.31 161.946 191.224L187.432 135.08H270.678C270.772 135.08 270.863 135.117 270.929 135.184C270.996 135.251 271.034 135.341 271.034 135.435C271.032 135.529 270.994 135.619 270.927 135.685C270.861 135.751 270.772 135.789 270.678 135.791H187.894L162.593 191.523C162.566 191.585 162.521 191.637 162.464 191.674C162.407 191.711 162.341 191.73 162.273 191.73Z" fill="white"/>
<path d="M102.308 195.635H4.71045V217.272H102.308V195.635Z" fill="#596B9B"/>
<path d="M277.351 195.635H101.752V217.272H277.351V195.635Z" fill="#7A89AF"/>
<g style="mix-blend-mode:multiply">
<path d="M102.308 195.635H101.753H4.71045V199.613H101.753H102.308H277.352V195.635H102.308Z" fill="#BDC4D7"/>
</g>
<path d="M106.576 191.366H0V196.667H106.576V191.366Z" fill="#6F7FA9"/>
<path d="M281.62 191.366H106.021V196.667H281.62V191.366Z" fill="#9CA6C3"/>
<path d="M253.076 2.73681e-06H173.529C171.076 2.73681e-06 168.724 0.974506 166.989 2.70914C165.254 4.44377 164.28 6.79643 164.28 9.24957V46.9593C164.28 49.4125 165.254 51.7651 166.989 53.4998C168.724 55.2344 171.076 56.2089 173.529 56.2089H180.644C180.844 59.6241 180.353 64.747 177.492 71.2216C184.582 68.0053 190.576 62.7871 194.739 56.2089H253.083C255.536 56.2089 257.889 55.2344 259.623 53.4998C261.358 51.7651 262.332 49.4125 262.332 46.9593V9.24957C262.332 8.0343 262.093 6.83094 261.627 5.70827C261.162 4.58559 260.48 3.56561 259.621 2.70662C258.761 1.84762 257.74 1.16646 256.617 0.702041C255.494 0.237625 254.291 -0.000932086 253.076 2.73681e-06Z" fill="#4CA9EE"/>
<path d="M219.144 17.9871H179.691C179.171 17.9852 178.672 17.7777 178.304 17.4098C177.936 17.042 177.729 16.5436 177.727 16.0233C177.729 15.5031 177.936 15.0047 178.304 14.6368C178.672 14.2689 179.171 14.0614 179.691 14.0596H219.144C219.664 14.0614 220.162 14.2689 220.53 14.6368C220.898 15.0047 221.106 15.5031 221.108 16.0233C221.106 16.5436 220.898 17.042 220.53 17.4098C220.162 17.7777 219.664 17.9852 219.144 17.9871Z" fill="white"/>
<path d="M247.433 29.4205H178.929C178.611 29.4205 178.305 29.2938 178.079 29.0683C177.854 28.8428 177.727 28.537 177.727 28.2181C177.727 27.8992 177.854 27.5933 178.079 27.3678C178.305 27.1423 178.611 27.0156 178.929 27.0156H247.433C247.752 27.0156 248.058 27.1423 248.283 27.3678C248.509 27.5933 248.636 27.8992 248.636 28.2181C248.636 28.376 248.605 28.5323 248.544 28.6782C248.484 28.8241 248.395 28.9567 248.283 29.0683C248.172 29.18 248.039 29.2686 247.893 29.329C247.747 29.3894 247.591 29.4205 247.433 29.4205Z" fill="#D2E6FF"/>
<path d="M247.433 36.1012H178.929C178.611 36.1012 178.305 35.9745 178.079 35.749C177.854 35.5235 177.727 35.2176 177.727 34.8987C177.727 34.5798 177.854 34.274 178.079 34.0485C178.305 33.823 178.611 33.6963 178.929 33.6963H247.433C247.752 33.6963 248.058 33.823 248.283 34.0485C248.509 34.274 248.636 34.5798 248.636 34.8987C248.636 35.0566 248.605 35.213 248.544 35.3589C248.484 35.5048 248.395 35.6373 248.283 35.749C248.172 35.8606 248.039 35.9492 247.893 36.0096C247.747 36.0701 247.591 36.1012 247.433 36.1012Z" fill="#D2E6FF"/>
<path d="M232.492 43.2169H178.929C178.611 43.2169 178.305 43.0902 178.079 42.8647C177.854 42.6392 177.727 42.3334 177.727 42.0145C177.727 41.6955 177.854 41.3897 178.079 41.1642C178.305 40.9387 178.611 40.812 178.929 40.812H232.492C232.81 40.812 233.116 40.9387 233.342 41.1642C233.567 41.3897 233.694 41.6955 233.694 42.0145C233.694 42.3334 233.567 42.6392 233.342 42.8647C233.116 43.0902 232.81 43.2169 232.492 43.2169Z" fill="#D2E6FF"/>
<path d="M246.892 17.9871H228.073C227.552 17.9852 227.054 17.7777 226.686 17.4098C226.318 17.042 226.111 16.5436 226.109 16.0233C226.111 15.5031 226.318 15.0047 226.686 14.6368C227.054 14.2689 227.552 14.0614 228.073 14.0596H246.892C247.412 14.0614 247.911 14.2689 248.278 14.6368C248.646 15.0047 248.854 15.5031 248.856 16.0233C248.854 16.5436 248.646 17.042 248.278 17.4098C247.911 17.7777 247.412 17.9852 246.892 17.9871Z" fill="white"/>
<path d="M199.456 87.3159H178.09C177.304 87.3159 176.667 87.953 176.667 88.7389V103.339C176.667 104.125 177.304 104.762 178.09 104.762H199.456C200.242 104.762 200.88 104.125 200.88 103.339V88.7389C200.88 87.953 200.242 87.3159 199.456 87.3159Z" fill="#EFEFEF"/>
<path d="M188.919 98.6503C188.797 98.6478 188.68 98.6053 188.584 98.5293L176.951 88.924C176.897 88.8773 176.853 88.8204 176.82 88.7565C176.788 88.6926 176.769 88.623 176.764 88.5516C176.758 88.4802 176.767 88.4085 176.79 88.3406C176.812 88.2727 176.848 88.2098 176.894 88.1556C176.941 88.1014 176.998 88.0569 177.062 88.0248C177.126 87.9926 177.195 87.9733 177.267 87.968C177.338 87.9627 177.41 87.9715 177.478 87.994C177.546 88.0164 177.609 88.052 177.663 88.0987L188.94 97.4194L199.933 87.8496C199.986 87.8029 200.047 87.7671 200.114 87.7441C200.18 87.7212 200.251 87.7115 200.321 87.7158C200.392 87.7201 200.461 87.7382 200.524 87.7691C200.587 87.8 200.644 87.8431 200.691 87.8959C200.737 87.9487 200.773 88.0102 200.796 88.0768C200.819 88.1435 200.829 88.214 200.824 88.2844C200.82 88.3547 200.802 88.4236 200.771 88.4869C200.74 88.5503 200.697 88.6069 200.644 88.6537L189.31 98.5151C189.258 98.5633 189.196 98.6001 189.129 98.6234C189.061 98.6466 188.99 98.6558 188.919 98.6503Z" fill="#6F7FA9"/>
<path d="M177.3 104.363C177.195 104.365 177.092 104.336 177.004 104.279C176.916 104.222 176.847 104.14 176.806 104.044C176.765 103.948 176.753 103.841 176.773 103.739C176.792 103.636 176.842 103.541 176.916 103.467L185.048 94.9285C185.148 94.8286 185.284 94.7725 185.425 94.7725C185.567 94.7725 185.702 94.8286 185.802 94.9285C185.902 95.0286 185.958 95.1642 185.958 95.3056C185.958 95.447 185.902 95.5827 185.802 95.6827L177.67 104.221C177.621 104.269 177.563 104.306 177.5 104.33C177.436 104.355 177.368 104.366 177.3 104.363Z" fill="#6F7FA9"/>
<path d="M200.26 104.051C200.189 104.052 200.118 104.038 200.052 104.011C199.986 103.985 199.926 103.945 199.876 103.894L191.779 95.7761C191.679 95.676 191.623 95.5404 191.623 95.399C191.623 95.2576 191.679 95.1219 191.779 95.0219C191.828 94.9715 191.887 94.9315 191.952 94.9042C192.016 94.8769 192.086 94.8628 192.156 94.8628C192.227 94.8628 192.296 94.8769 192.361 94.9042C192.426 94.9315 192.484 94.9715 192.533 95.0219L200.637 103.14C200.738 103.241 200.794 103.378 200.794 103.521C200.794 103.663 200.738 103.8 200.637 103.901C200.588 103.95 200.529 103.989 200.464 104.014C200.399 104.04 200.33 104.053 200.26 104.051Z" fill="#6F7FA9"/>
<path d="M201.997 93.9119C205.938 93.9119 209.133 90.7169 209.133 86.7756C209.133 82.8342 205.938 79.6392 201.997 79.6392C198.055 79.6392 194.86 82.8342 194.86 86.7756C194.86 90.7169 198.055 93.9119 201.997 93.9119Z" fill="#FF5F42"/>
<path d="M201.786 83.6401C201.786 83.9935 201.692 84.308 201.504 84.5837C201.319 84.8593 201.067 85.0749 200.75 85.2305C201.119 85.3894 201.411 85.6213 201.625 85.9261C201.842 86.2309 201.951 86.5762 201.951 86.9621C201.951 87.5749 201.743 88.0629 201.328 88.4261C200.917 88.7892 200.373 88.9708 199.699 88.9708C199.018 88.9708 198.472 88.7892 198.06 88.4261C197.651 88.0597 197.447 87.5717 197.447 86.9621C197.447 86.5794 197.551 86.2341 197.758 85.9261C197.969 85.618 198.259 85.3846 198.629 85.2257C198.314 85.07 198.066 84.8544 197.885 84.5788C197.703 84.3032 197.612 83.9903 197.612 83.6401C197.612 83.0435 197.804 82.57 198.186 82.2199C198.569 81.8697 199.073 81.6946 199.699 81.6946C200.322 81.6946 200.824 81.8697 201.207 82.2199C201.593 82.57 201.786 83.0435 201.786 83.6401ZM201.051 86.9426C201.051 86.547 200.925 86.2244 200.672 85.9747C200.422 85.725 200.095 85.6002 199.689 85.6002C199.284 85.6002 198.958 85.7234 198.712 85.9698C198.468 86.2163 198.347 86.5405 198.347 86.9426C198.347 87.3447 198.465 87.6608 198.702 87.891C198.942 88.1213 199.274 88.2364 199.699 88.2364C200.121 88.2364 200.451 88.1213 200.691 87.891C200.931 87.6576 201.051 87.3414 201.051 86.9426ZM199.699 82.4339C199.346 82.4339 199.059 82.5441 198.838 82.7646C198.621 82.9818 198.512 83.2785 198.512 83.6547C198.512 84.0146 198.619 84.3064 198.833 84.5302C199.051 84.7507 199.339 84.8609 199.699 84.8609C200.059 84.8609 200.346 84.7507 200.56 84.5302C200.777 84.3064 200.886 84.0146 200.886 83.6547C200.886 83.2948 200.774 83.0013 200.55 82.7743C200.326 82.5473 200.043 82.4339 199.699 82.4339ZM203.498 85.323L203.858 81.7918H207.486V82.6235H204.621L204.407 84.5545C204.754 84.3502 205.148 84.2481 205.589 84.2481C206.234 84.2481 206.747 84.4621 207.126 84.8901C207.505 85.3149 207.695 85.8904 207.695 86.6167C207.695 87.3463 207.497 87.9219 207.102 88.3434C206.709 88.7617 206.16 88.9708 205.453 88.9708C204.827 88.9708 204.316 88.7973 203.921 88.4504C203.525 88.1034 203.3 87.6235 203.245 87.0107H204.096C204.151 87.416 204.295 87.7224 204.529 87.93C204.762 88.1342 205.07 88.2364 205.453 88.2364C205.871 88.2364 206.199 88.0937 206.435 87.8084C206.675 87.523 206.795 87.1291 206.795 86.6265C206.795 86.153 206.666 85.7737 206.406 85.4883C206.15 85.1997 205.808 85.0554 205.38 85.0554C204.988 85.0554 204.68 85.1414 204.456 85.3132L204.218 85.5078L203.498 85.323Z" fill="white"/>
<path d="M273.702 71.9331H231.993C230.422 71.9331 229.147 73.2073 229.147 74.7791V81.3036C229.147 82.8754 230.422 84.1496 231.993 84.1496H273.702C275.274 84.1496 276.548 82.8754 276.548 81.3036V74.7791C276.548 73.2073 275.274 71.9331 273.702 71.9331Z" fill="#223A7A"/>
<path d="M235.003 81.2465C234.918 81.2504 234.833 81.2345 234.755 81.1999C234.678 81.1653 234.609 81.1131 234.555 81.0473C234.497 80.979 234.453 80.8997 234.426 80.8142C234.399 80.7286 234.39 80.6385 234.398 80.5493L234.583 78.9626C234.583 78.927 234.583 78.8986 234.583 78.8843C234.583 78.8701 234.526 78.8843 234.484 78.8843L233.182 79.8235C233.113 79.8801 233.033 79.921 232.947 79.9431C232.861 79.9653 232.771 79.9682 232.683 79.9516C232.594 79.9355 232.509 79.8997 232.436 79.8467C232.362 79.7938 232.301 79.7251 232.257 79.6456C232.201 79.5643 232.166 79.4705 232.155 79.3725C232.144 79.2746 232.157 79.1754 232.193 79.0836C232.228 79.0048 232.279 78.934 232.343 78.8754C232.407 78.8167 232.481 78.7714 232.563 78.742L234.021 78.0803C234.064 78.0803 234.085 78.0803 234.085 78.0234C234.085 77.9665 234.085 77.9736 234.021 77.9594L232.563 77.3048C232.477 77.2724 232.4 77.221 232.337 77.1544C232.274 77.0879 232.227 77.0079 232.2 76.9206C232.174 76.8346 232.166 76.7443 232.175 76.6551C232.185 76.5659 232.213 76.4795 232.257 76.4012C232.302 76.3219 232.363 76.253 232.437 76.199C232.51 76.1451 232.594 76.1073 232.683 76.0881C232.858 76.0631 233.035 76.1037 233.182 76.202L234.484 77.1625C234.526 77.1625 234.555 77.1625 234.583 77.1625C234.612 77.1625 234.583 77.1198 234.583 77.0771L234.398 75.4976C234.388 75.4077 234.398 75.3167 234.426 75.2308C234.454 75.1449 234.501 75.066 234.562 74.9995C234.622 74.9322 234.697 74.8793 234.781 74.8449C234.865 74.8104 234.955 74.7952 235.046 74.8003C235.135 74.7987 235.223 74.8169 235.304 74.8538C235.385 74.8907 235.457 74.9452 235.514 75.0134C235.572 75.0816 235.613 75.1618 235.635 75.248C235.658 75.3342 235.66 75.4244 235.643 75.5118L235.465 77.0913C235.465 77.134 235.465 77.1625 235.465 77.1767C235.482 77.1861 235.5 77.191 235.519 77.191C235.538 77.191 235.556 77.1861 235.572 77.1767L236.867 76.2375C236.939 76.1809 237.021 76.1397 237.109 76.1164C237.197 76.0932 237.289 76.0884 237.379 76.1023C237.467 76.1197 237.55 76.157 237.622 76.2112C237.693 76.2655 237.752 76.3353 237.792 76.4154C237.848 76.4964 237.884 76.5898 237.897 76.6877C237.909 76.7856 237.898 76.885 237.863 76.9775C237.786 77.1326 237.654 77.2541 237.493 77.319L236.028 77.9736C235.992 77.9736 235.971 77.9736 235.971 78.0376C235.971 78.1017 235.971 78.0803 236.028 78.0946L237.493 78.7563C237.579 78.7895 237.657 78.8412 237.721 78.9075C237.785 78.9739 237.833 79.0534 237.863 79.1405C237.892 79.2268 237.9 79.3184 237.888 79.4084C237.875 79.4984 237.843 79.5844 237.792 79.6599C237.753 79.74 237.694 79.8095 237.623 79.8627C237.551 79.916 237.468 79.9513 237.379 79.9658C237.291 79.9834 237.2 79.983 237.112 79.9646C237.024 79.9463 236.941 79.9104 236.867 79.8591L235.572 78.8986C235.556 78.8892 235.538 78.8843 235.519 78.8843C235.5 78.8843 235.482 78.8892 235.465 78.8986C235.457 78.9098 235.452 78.9235 235.452 78.9377C235.452 78.9519 235.457 78.9656 235.465 78.9768L235.643 80.5635C235.66 80.6524 235.655 80.744 235.629 80.8306C235.603 80.9172 235.557 80.9964 235.494 81.0615C235.43 81.1253 235.353 81.1747 235.268 81.2066C235.184 81.2385 235.093 81.2521 235.003 81.2465Z" fill="white"/>
<path d="M243.626 81.2467C243.541 81.25 243.457 81.2338 243.379 81.1993C243.301 81.1647 243.232 81.1128 243.178 81.0475C243.121 80.9788 243.078 80.8993 243.052 80.8137C243.027 80.7281 243.019 80.6382 243.029 80.5494L243.206 78.9628C243.206 78.9272 243.206 78.8987 243.206 78.8845C243.206 78.8703 243.149 78.8845 243.107 78.8845L241.805 79.8237C241.736 79.8807 241.656 79.9219 241.57 79.944C241.484 79.9662 241.394 79.9688 241.307 79.9518C241.127 79.9003 240.976 79.7805 240.884 79.6181C240.792 79.4558 240.767 79.2639 240.816 79.0837C240.893 78.9286 241.025 78.8071 241.186 78.7422L242.651 78.0805C242.687 78.0805 242.708 78.0805 242.708 78.0236C242.708 77.9666 242.708 77.9738 242.651 77.9595L241.186 77.305C241.101 77.2704 241.025 77.2183 240.963 77.152C240.9 77.0858 240.853 77.0069 240.823 76.9207C240.777 76.7458 240.8 76.56 240.887 76.4013C240.931 76.3228 240.991 76.2544 241.064 76.2005C241.136 76.1466 241.219 76.1083 241.307 76.0883C241.481 76.0588 241.66 76.0998 241.805 76.2021L243.107 77.1627C243.149 77.1627 243.185 77.1627 243.206 77.1627C243.228 77.1627 243.206 77.12 243.206 77.0773L243.029 75.4977C243.019 75.4084 243.029 75.3182 243.056 75.2326C243.083 75.147 243.127 75.0677 243.185 74.9997C243.246 74.9332 243.321 74.8808 243.405 74.8464C243.488 74.812 243.579 74.7963 243.669 74.8005C243.756 74.7975 243.842 74.8139 243.922 74.8483C244.002 74.8827 244.074 74.9344 244.131 74.9997C244.191 75.0665 244.234 75.1463 244.258 75.2327C244.281 75.3192 244.284 75.4099 244.267 75.4977L244.089 77.0773C244.089 77.12 244.089 77.1484 244.089 77.1627C244.089 77.1627 244.146 77.1627 244.188 77.1627L245.49 76.2235C245.561 76.1661 245.644 76.1244 245.732 76.1011C245.82 76.0778 245.913 76.0734 246.003 76.0883C246.09 76.1057 246.172 76.143 246.242 76.1973C246.312 76.2516 246.369 76.3214 246.408 76.4013C246.466 76.4816 246.503 76.5751 246.516 76.6733C246.528 76.7715 246.516 76.8713 246.479 76.9634C246.402 77.1186 246.27 77.24 246.109 77.305L244.651 77.9595C244.608 77.9595 244.587 77.9809 244.587 78.0236C244.587 78.0236 244.587 78.0663 244.651 78.0805L246.109 78.7422C246.196 78.7746 246.274 78.8259 246.338 78.8924C246.402 78.9589 246.45 79.0388 246.479 79.1264C246.509 79.2124 246.519 79.3044 246.506 79.3947C246.494 79.485 246.46 79.571 246.408 79.6458C246.37 79.7254 246.313 79.7947 246.242 79.8479C246.172 79.9011 246.09 79.9367 246.003 79.9518C245.914 79.9702 245.823 79.9702 245.735 79.9518C245.647 79.9334 245.564 79.8971 245.49 79.845L244.181 78.9058C244.138 78.9058 244.11 78.9058 244.082 78.9058C244.053 78.9058 244.082 78.9485 244.082 78.9841L244.259 80.5708C244.276 80.6597 244.271 80.7512 244.245 80.8378C244.219 80.9245 244.173 81.0036 244.11 81.0688C244.046 81.1304 243.97 81.178 243.887 81.2086C243.804 81.2392 243.715 81.2522 243.626 81.2467Z" fill="white"/>
<path d="M252.257 81.2467C252.171 81.2501 252.085 81.2339 252.006 81.1994C251.927 81.1649 251.857 81.1129 251.801 81.0474C251.744 80.9788 251.701 80.8993 251.676 80.8137C251.65 80.7281 251.642 80.6382 251.652 80.5494L251.837 78.9627C251.837 78.9272 251.837 78.8987 251.837 78.8845C251.822 78.875 251.805 78.8699 251.787 78.8699C251.77 78.8699 251.752 78.875 251.737 78.8845L250.435 79.8237C250.367 79.8803 250.287 79.9211 250.201 79.9433C250.114 79.9654 250.025 79.9683 249.937 79.9517C249.848 79.9356 249.763 79.8998 249.689 79.8469C249.615 79.794 249.554 79.7253 249.51 79.6458C249.453 79.5649 249.418 79.4711 249.407 79.3729C249.395 79.2747 249.409 79.1753 249.446 79.0837C249.482 79.0049 249.533 78.9342 249.597 78.8755C249.66 78.8168 249.735 78.7715 249.816 78.7422L251.275 78.0805C251.318 78.0805 251.339 78.0805 251.339 78.0235C251.339 77.9666 251.339 77.9737 251.275 77.9595L249.816 77.3049C249.731 77.2725 249.654 77.2211 249.591 77.1546C249.528 77.088 249.481 77.008 249.453 76.9207C249.428 76.8347 249.419 76.7445 249.429 76.6552C249.439 76.566 249.466 76.4796 249.51 76.4013C249.555 76.322 249.617 76.2531 249.69 76.1992C249.764 76.1452 249.848 76.1074 249.937 76.0883C250.112 76.0632 250.289 76.1038 250.435 76.2021L251.737 77.1626C251.752 77.1721 251.77 77.1772 251.787 77.1772C251.805 77.1772 251.822 77.1721 251.837 77.1626C251.837 77.1626 251.837 77.1199 251.837 77.0772L251.652 75.4977C251.642 75.4078 251.652 75.3169 251.68 75.231C251.708 75.145 251.754 75.0662 251.816 74.9997C251.875 74.9333 251.949 74.881 252.032 74.8466C252.114 74.8121 252.203 74.7964 252.292 74.8004C252.382 74.7977 252.471 74.8152 252.553 74.8516C252.635 74.888 252.708 74.9424 252.766 75.0107C252.824 75.0791 252.866 75.1596 252.889 75.2464C252.911 75.3331 252.914 75.4239 252.897 75.5119L252.719 77.0915C252.719 77.1342 252.719 77.1626 252.719 77.1769C252.734 77.1864 252.751 77.1914 252.769 77.1914C252.787 77.1914 252.804 77.1864 252.819 77.1769L254.121 76.2377C254.192 76.1811 254.275 76.1398 254.363 76.1166C254.451 76.0933 254.543 76.0885 254.633 76.1025C254.721 76.1199 254.804 76.1571 254.876 76.2114C254.947 76.2656 255.005 76.3354 255.046 76.4155C255.102 76.4966 255.138 76.59 255.15 76.6879C255.163 76.7857 255.151 76.8851 255.117 76.9776C255.039 77.1328 254.908 77.2542 254.747 77.3192L253.281 77.9737C253.246 77.9737 253.224 77.9737 253.224 78.0378C253.224 78.1018 253.224 78.0805 253.281 78.0947L254.747 78.7564C254.833 78.7897 254.911 78.8413 254.974 78.9077C255.038 78.974 255.087 79.0535 255.117 79.1406C255.145 79.2269 255.154 79.3185 255.141 79.4085C255.129 79.4985 255.096 79.5845 255.046 79.66C255.006 79.7401 254.948 79.8097 254.876 79.8629C254.805 79.9161 254.721 79.9514 254.633 79.966C254.545 79.9835 254.454 79.9831 254.366 79.9648C254.278 79.9464 254.195 79.9105 254.121 79.8592L252.819 78.8987C252.804 78.8892 252.787 78.8841 252.769 78.8841C252.751 78.8841 252.734 78.8892 252.719 78.8987C252.711 78.9099 252.706 78.9237 252.706 78.9378C252.706 78.952 252.711 78.9658 252.719 78.977L252.897 80.5636C252.914 80.6525 252.909 80.7441 252.883 80.8307C252.857 80.9173 252.81 80.9965 252.748 81.0617C252.684 81.1254 252.607 81.1749 252.522 81.2068C252.437 81.2386 252.347 81.2522 252.257 81.2467Z" fill="white"/>
<path d="M260.88 81.2467C260.796 81.25 260.711 81.2338 260.633 81.1993C260.555 81.1647 260.487 81.1128 260.432 81.0475C260.375 80.9788 260.332 80.8993 260.307 80.8137C260.281 80.7281 260.273 80.6382 260.283 80.5494L260.461 78.9628C260.461 78.9272 260.461 78.8987 260.461 78.8845C260.461 78.8703 260.404 78.8845 260.361 78.8845L259.059 79.8237C258.991 79.8807 258.911 79.9219 258.824 79.944C258.738 79.9662 258.648 79.9688 258.561 79.9517C258.382 79.9003 258.23 79.7805 258.138 79.6181C258.046 79.4558 258.022 79.2639 258.07 79.0837C258.149 78.9521 258.269 78.8498 258.412 78.792L259.877 78.1303C259.913 78.1303 259.934 78.1303 259.934 78.0734C259.934 78.0165 259.934 78.0236 259.877 78.0093L258.412 77.3547C258.327 77.3202 258.251 77.2681 258.189 77.2018C258.126 77.1356 258.078 77.0567 258.049 76.9705C258.003 76.7956 258.026 76.6099 258.113 76.4511C258.157 76.3726 258.217 76.3042 258.29 76.2503C258.362 76.1964 258.445 76.1582 258.533 76.1381C258.707 76.1086 258.886 76.1496 259.031 76.2519L260.333 77.2124C260.375 77.2124 260.411 77.2124 260.432 77.2124C260.454 77.2124 260.432 77.1698 260.432 77.1271L260.254 75.5475C260.244 75.4582 260.252 75.3675 260.279 75.2816C260.306 75.1957 260.351 75.1166 260.411 75.0495C260.472 74.983 260.547 74.9306 260.631 74.8962C260.714 74.8618 260.804 74.8461 260.895 74.8503C260.982 74.8473 261.068 74.8637 261.148 74.8981C261.228 74.9325 261.3 74.9842 261.357 75.0495C261.417 75.1163 261.46 75.1961 261.484 75.2825C261.507 75.369 261.51 75.4597 261.492 75.5475L261.315 77.1271C261.315 77.1698 261.315 77.1982 261.315 77.2124C261.315 77.2124 261.371 77.2124 261.414 77.2124L262.716 76.2733C262.787 76.2159 262.87 76.1742 262.958 76.1509C263.046 76.1276 263.138 76.1232 263.228 76.1381C263.316 76.1555 263.398 76.1928 263.468 76.2471C263.538 76.3014 263.595 76.3712 263.634 76.4511C263.69 76.5322 263.726 76.6256 263.739 76.7235C263.751 76.8213 263.74 76.9207 263.705 77.0132C263.628 77.1684 263.496 77.2898 263.335 77.3547L261.877 78.0093C261.834 78.0093 261.813 78.0307 261.813 78.0734C261.813 78.0734 261.813 78.1161 261.877 78.1303L263.392 78.792C263.479 78.8244 263.557 78.8757 263.621 78.9422C263.685 79.0087 263.733 79.0886 263.762 79.1762C263.792 79.2622 263.801 79.3542 263.789 79.4445C263.777 79.5347 263.743 79.6208 263.691 79.6956C263.653 79.7752 263.596 79.8445 263.525 79.8977C263.455 79.9509 263.372 79.9865 263.285 80.0015C263.197 80.0199 263.106 80.02 263.018 80.0016C262.93 79.9832 262.847 79.9469 262.773 79.8948L261.471 78.9343C261.428 78.9343 261.4 78.9343 261.371 78.9343C261.343 78.9343 261.371 78.977 261.371 79.0126L261.549 80.5992C261.566 80.6881 261.561 80.7797 261.535 80.8663C261.509 80.9529 261.463 81.0321 261.4 81.0973C261.329 81.1585 261.246 81.2036 261.157 81.2294C261.067 81.2553 260.973 81.2611 260.88 81.2467Z" fill="white"/>
<path d="M269.511 81.2467C269.425 81.2506 269.339 81.2347 269.26 81.2001C269.181 81.1656 269.111 81.1133 269.056 81.0474C268.999 80.9788 268.956 80.8993 268.93 80.8137C268.904 80.7281 268.896 80.6382 268.906 80.5494L269.091 78.9627C269.091 78.9272 269.091 78.8987 269.091 78.8845C269.077 78.875 269.059 78.8699 269.042 78.8699C269.024 78.8699 269.007 78.875 268.992 78.8845L267.661 79.845C267.551 79.9187 267.42 79.957 267.288 79.9549C267.155 79.9527 267.026 79.9103 266.918 79.833C266.81 79.7558 266.728 79.6476 266.682 79.5226C266.637 79.3977 266.631 79.2619 266.665 79.1335C266.744 78.9771 266.879 78.8554 267.042 78.792L268.501 78.1303C268.544 78.1303 268.558 78.1303 268.558 78.0734C268.558 78.0164 268.558 78.0235 268.501 78.0093L267.042 77.3547C266.957 77.3223 266.88 77.2709 266.817 77.2044C266.754 77.1378 266.707 77.0578 266.679 76.9705C266.652 76.8848 266.643 76.7942 266.652 76.7047C266.662 76.6152 266.691 76.5288 266.736 76.4511C266.781 76.3726 266.841 76.3042 266.913 76.2503C266.985 76.1963 267.068 76.1581 267.156 76.1381C267.333 76.1112 267.513 76.1518 267.661 76.2519L268.963 77.2124C268.978 77.2219 268.995 77.227 269.013 77.227C269.031 77.227 269.048 77.2219 269.063 77.2124C269.063 77.2124 269.063 77.1697 269.063 77.127L268.878 75.5475C268.868 75.4576 268.878 75.3667 268.906 75.2807C268.934 75.1948 268.98 75.116 269.042 75.0495C269.101 74.9831 269.175 74.9308 269.258 74.8964C269.34 74.8619 269.429 74.8462 269.518 74.8502C269.608 74.8475 269.697 74.865 269.779 74.9014C269.861 74.9378 269.934 74.9922 269.992 75.0605C270.05 75.1289 270.092 75.2094 270.115 75.2962C270.137 75.3829 270.14 75.4737 270.123 75.5617L269.938 77.1413C269.938 77.184 269.938 77.2124 269.938 77.2267C269.953 77.2362 269.97 77.2412 269.988 77.2412C270.006 77.2412 270.023 77.2362 270.038 77.2267L271.34 76.2875C271.411 76.2309 271.494 76.1896 271.582 76.1664C271.67 76.1431 271.762 76.1383 271.852 76.1523C271.94 76.1697 272.023 76.2069 272.095 76.2612C272.166 76.3154 272.224 76.3852 272.265 76.4653C272.321 76.5464 272.357 76.6398 272.369 76.7377C272.382 76.8355 272.37 76.935 272.336 77.0274C272.257 77.1839 272.122 77.3055 271.959 77.369L270.5 78.0235C270.457 78.0235 270.443 78.0235 270.443 78.0876C270.443 78.1516 270.443 78.1303 270.5 78.1445L271.959 78.8062C272.046 78.8382 272.125 78.8892 272.191 78.9557C272.256 79.0222 272.306 79.1024 272.336 79.1904C272.364 79.2767 272.373 79.3683 272.36 79.4583C272.348 79.5483 272.315 79.6343 272.265 79.7098C272.225 79.7899 272.167 79.8595 272.095 79.9127C272.024 79.9659 271.94 80.0012 271.852 80.0158C271.764 80.0333 271.673 80.0329 271.585 80.0146C271.497 79.9962 271.414 79.9603 271.34 79.909L270.038 78.9485C270.023 78.939 270.006 78.9339 269.988 78.9339C269.97 78.9339 269.953 78.939 269.938 78.9485C269.938 78.9485 269.938 78.9912 269.938 79.0268L270.123 80.6134C270.14 80.7023 270.135 80.7939 270.109 80.8805C270.083 80.9671 270.036 81.0463 269.974 81.1115C269.843 81.215 269.677 81.2635 269.511 81.2467Z" fill="#67ACFF"/>
</svg>
