<svg width="680" height="600" viewBox="0 0 680 600" fill="none" xmlns="http://www.w3.org/2000/svg">
<path d="M527.011 547.936H249.02L173 590.357L612.135 590.451L527.011 547.936Z" fill="#D3D8F1"/>
<path d="M413.356 547.842H369.621V590.357H413.356V547.842Z" fill="#B6C4EB"/>
<path d="M315.843 590.451H253.056L287.687 547.936H330.484L315.843 590.451Z" fill="#B6C4EB"/>
<path d="M467.227 590.357H529.92L495.476 547.842L452.586 548.03L467.227 590.357Z" fill="#B6C4EB"/>
<path d="M34.5283 380.136C33.5123 381.587 32.4963 383.184 31.4803 384.635C31.0448 384.2 30.4642 383.619 30.0288 383.184C31.4803 382.168 33.0769 381.152 34.5283 380.136Z" fill="#EEF0FC"/>
<path d="M378.768 350.091C360.044 352.268 341.175 354.735 322.451 356.622C313.452 357.493 304.308 358.509 295.454 357.348C279.488 355.171 273.973 341.817 284.133 329.625C290.955 321.497 299.809 315.111 307.647 307.999C310.549 307.853 313.598 308.289 316.21 307.418C328.983 303.064 341.756 299 354.093 293.629C361.641 290.291 369.914 286.227 374.849 280.131C380.074 273.744 384.719 271.132 392.412 273.164C393.428 273.454 394.734 273.309 395.895 273.164C407.942 272.002 419.989 270.841 432.036 269.68C439.584 283.469 441.761 298.709 442.922 314.095C443.212 318.449 443.358 322.803 443.503 327.158C443.503 330.786 443.503 334.27 443.358 337.899C443.358 338.479 443.212 339.205 443.212 339.785C442.922 341.963 442.487 344.285 442.196 346.462C441.18 352.703 440.019 358.945 439.003 365.186C436.391 377.088 433.633 388.99 431.311 400.892C428.988 412.503 426.811 424.26 425.214 436.017C423.182 450.386 422.457 464.901 419.989 479.125C417.086 495.381 412.877 511.347 409.248 527.313C404.749 527.749 400.395 528.184 395.895 528.475C395.75 522.669 395.46 517.008 395.314 511.202C396.04 510.041 397.201 509.025 397.492 507.719C399.959 493.204 404.023 478.69 404.168 464.175C404.604 427.598 403.588 390.877 402.572 354.3C402.427 346.898 400.104 339.495 398.072 332.238C397.346 329.625 394.444 327.738 392.557 325.561C391.541 321.352 389.073 321.352 385.88 323.239C384.283 322.368 382.542 320.626 380.945 320.771C365.124 322.223 349.448 323.965 333.773 325.997C326.951 326.867 320.129 328.319 313.598 330.496C311.13 331.367 309.388 334.56 307.356 336.737C309.824 337.753 312.291 339.495 314.759 339.64C332.321 340.511 350.029 340.801 367.592 341.527C371.511 341.672 375.429 342.833 379.348 343.559C379.203 345.882 379.058 348.059 378.768 350.091Z" fill="#063439"/>
<path d="M420.134 165.03C420.715 177.948 423.472 190.141 432.326 200.156C433.633 213.944 425.65 238.909 425.504 238.474C423.182 237.313 421.005 235.716 418.683 235.281C399.523 231.943 388.347 219.605 382.396 202.188C379.784 194.64 378.768 186.657 377.026 178.819C377.461 174.175 377.897 169.53 378.332 164.885C380.074 164.45 381.816 163.869 383.557 163.434C384.283 168.224 383.703 173.739 385.88 177.803C388.202 182.158 392.702 187.383 397.056 188.254C400.685 188.979 407.071 185.206 409.538 181.577C412.732 176.497 413.457 169.675 415.199 163.724C416.796 164.014 418.537 164.595 420.134 165.03Z" fill="#4CA9EE"/>
<path d="M371.801 266.487C372.236 257.343 372.672 248.344 373.107 239.2C381.38 239.345 389.799 239.345 398.072 239.49C400.249 239.49 402.281 239.345 404.459 239.345C411.571 239.055 418.683 238.764 425.795 238.474C425.795 238.91 428.262 257.343 429.278 266.052C410.119 273.744 390.96 272.293 371.801 266.487Z" fill="#EE8B63"/>
<path d="M395.46 511.347C395.46 483.915 395.605 456.337 395.605 428.905C395.605 419.035 395.46 409.165 395.314 399.44C395.314 394.796 395.314 390.151 395.314 385.506C395.169 382.023 394.879 378.685 394.734 375.201C393.863 359.235 392.847 343.269 391.976 327.303C392.121 326.722 392.412 326.287 392.557 325.852C394.444 328.029 397.346 329.916 398.072 332.528C400.104 339.786 402.427 347.188 402.572 354.59C403.588 391.167 404.604 427.889 404.168 464.465C404.023 478.98 399.959 493.495 397.492 508.009C397.492 509.17 396.185 510.186 395.46 511.347Z" fill="#0A2526"/>
<path d="M425.65 238.474C418.538 238.765 411.426 239.055 404.314 239.345C402.137 239.345 400.105 239.49 397.927 239.49C389.654 239.345 381.236 239.345 372.962 239.2C370.495 230.346 366.141 219.896 365.705 201.607C369.479 193.915 373.253 186.367 377.026 178.674C378.768 186.512 379.929 194.495 382.397 202.043C388.348 219.605 399.524 231.798 418.683 235.136C421.151 235.716 423.328 237.313 425.65 238.474Z" fill="#0C88E4"/>
<path d="M342.191 108.714C341.03 103.489 340.304 102.473 343.062 94.4897C345.965 86.2164 367.156 56.897 383.122 38.4635C383.848 37.3024 384.573 36.2864 385.444 35.1252C386.46 33.2383 387.621 31.2063 388.637 29.3194C388.637 28.8839 388.637 28.5936 388.928 28.3034C389.653 25.981 390.524 23.6587 391.25 21.4815C391.54 20.3204 391.831 19.1592 392.121 18.1432C392.847 15.2403 393.718 12.1922 394.443 9.2893L394.879 5.51552C395.604 3.91892 396.766 1.74174 397.491 0.290283C398.798 0.290283 400.249 0.290283 401.555 0.290283V0.435429C402.136 1.59659 402.571 2.9029 403.152 4.06407C403.587 5.80581 403.878 7.6927 404.313 9.43445C404.749 11.1762 405.184 12.9179 405.619 14.8048C405.91 15.966 406.055 16.982 406.345 18.1432C406.781 19.3043 407.216 20.6106 407.652 21.7718L408.813 26.2713C409.393 27.5776 409.974 28.8839 410.7 30.1902C423.618 47.6077 436.535 65.1703 449.744 82.4426C456.42 91.1513 457.872 100.586 456.856 111.181C454.243 136.727 450.324 161.837 438.713 185.206C436.245 189.995 434.794 195.366 432.762 200.446C423.908 190.431 421.15 178.239 420.569 165.321C423.037 160.241 425.65 155.015 428.117 149.935C437.842 129.47 442.341 109.004 429.714 88.6839C427.682 85.3455 424.779 80.5557 422.892 77.0722C422.311 75.9111 421.585 74.7499 421.005 73.5887C419.699 71.4116 418.392 69.3795 417.231 67.2023L406.49 47.898C401.846 39.4796 396.911 39.3344 391.976 47.898C382.977 63.5737 374.558 79.3946 365.995 95.3606C363.092 100.876 362.221 107.262 363.963 113.359C366.866 121.342 369.623 130.05 372.091 139.34C374.558 148.339 376.59 157.047 378.187 165.176C378.477 169.094 378.477 174.61 376.736 180.851C373.978 190.721 368.172 196.672 365.559 201.897L342.191 108.714Z" fill="#EE8B63"/>
<path d="M371.801 266.487C390.96 272.293 410.12 273.744 429.134 266.052C430.15 267.358 431.166 268.519 432.182 269.825C420.135 270.986 408.087 272.148 396.04 273.309C394.879 273.454 393.718 273.599 392.557 273.309C384.864 271.277 380.22 273.889 374.994 280.276C369.914 286.372 361.786 290.436 354.239 293.774C341.901 299.145 329.128 303.209 316.356 307.563C313.743 308.434 310.695 307.999 307.792 308.144C316.791 303.064 325.79 297.983 334.934 293.049C342.772 288.839 351.336 285.501 358.593 280.421C363.673 276.937 367.447 271.277 371.801 266.487Z" fill="#0A2526"/>
<path d="M391.976 327.158C392.847 343.124 393.863 359.09 394.734 375.056C393.427 373.604 392.266 372.298 390.96 370.847C389.218 362.573 386.315 354.881 378.768 350.091C379.058 348.059 379.203 345.881 379.493 343.849C379.929 340.076 380.364 336.302 380.8 332.528C384.428 330.786 388.202 329.045 391.976 327.158Z" fill="#EE8B63"/>
<path d="M319.884 9.14404C319.159 12.047 318.288 15.095 317.562 17.9979C318.288 15.095 319.013 12.047 319.884 9.14404Z" fill="#F0A487"/>
<path d="M316.691 21.4814C315.965 23.8038 315.094 26.1261 314.369 28.3033C315.094 25.981 315.82 23.8038 316.691 21.4814Z" fill="#F0A487"/>
<path d="M331.06 14.5144C330.625 12.7727 330.189 11.0309 329.754 9.14404C330.189 11.0309 330.625 12.7727 331.06 14.5144Z" fill="#F0A487"/>
<path d="M314.078 29.4644C313.062 31.3512 311.901 33.3833 310.885 35.2702C311.901 33.2381 312.917 31.3512 314.078 29.4644Z" fill="#F0A487"/>
<path d="M322.932 0C322.061 1.30631 321.336 2.61262 320.465 3.91893C321.336 2.75776 322.061 1.45145 322.932 0Z" fill="#F0A487"/>
<path d="M333.092 21.4814C332.657 20.3203 332.222 19.0139 331.786 17.8528C332.222 19.1591 332.657 20.3203 333.092 21.4814Z" fill="#F0A487"/>
<path d="M328.593 3.91892C328.013 2.75776 327.577 1.45145 326.997 0.290283C327.577 1.45145 328.158 2.61261 328.593 3.91892Z" fill="#F0A487"/>
<path d="M359.885 35.1252C359.159 36.2864 358.433 37.3024 357.562 38.4636C358.288 37.4476 359.014 36.2864 359.885 35.1252Z" fill="#F0A487"/>
<path d="M335.996 29.9C335.415 28.5937 334.834 27.2874 334.254 26.1262C334.834 27.2874 335.415 28.5937 335.996 29.9Z" fill="#F0A487"/>
<path d="M409.393 527.458C411.135 530.506 412.732 533.409 414.473 536.457C415.78 538.199 417.231 539.941 418.537 541.683C419.553 542.263 420.569 542.699 421.44 543.279C423.327 544.15 425.069 545.021 426.956 545.892C428.698 546.763 430.439 547.488 432.181 548.359C433.487 548.649 434.794 548.795 435.955 549.085C437.116 549.52 438.132 549.811 439.293 550.246C439.584 551.407 439.874 552.568 440.164 553.584C437.987 554.02 435.665 555.181 433.487 554.891C422.601 553.875 411.716 552.714 400.83 551.117C392.266 549.956 391.54 548.214 393.137 536.457C394.153 533.845 395.169 531.232 396.04 528.619C400.539 528.184 405.039 527.894 409.393 527.458Z" fill="#EE8B63"/>
<path d="M357.768 548.214C356.026 547.343 354.284 546.617 352.542 545.747C354.429 546.617 356.171 547.488 357.768 548.214Z" fill="#FBBCA0"/>
<path d="M347.171 543.279C346.155 542.699 345.139 542.263 344.269 541.683C345.139 542.263 346.155 542.699 347.171 543.279Z" fill="#FBBCA0"/>
<path d="M364.879 550.101C363.718 549.666 362.702 549.376 361.541 548.94C362.702 549.376 363.863 549.666 364.879 550.101Z" fill="#FBBCA0"/>
<path d="M149.919 465.917C148.322 466.497 146.725 467.078 145.274 467.804C146.871 467.223 148.467 466.497 149.919 465.917Z" fill="#FBBCA0"/>
<path d="M380.799 332.528C380.364 336.302 379.929 340.076 379.493 343.849C375.574 343.124 371.655 341.962 367.736 341.817C350.174 341.092 332.466 340.656 314.903 339.93C312.436 339.785 309.968 338.044 307.501 337.028C309.533 334.85 311.275 331.512 313.742 330.786C320.274 328.609 327.096 327.158 333.917 326.287C349.593 324.255 365.414 322.658 381.09 321.062C382.686 320.916 384.428 322.658 386.025 323.529C382.977 324.98 379.783 326.432 376.735 327.883C374.413 328.464 372.091 329.19 369.768 329.77C369.914 330.206 369.914 330.496 370.059 330.931C372.236 330.931 374.413 330.931 376.735 330.931C378.042 331.367 379.348 331.947 380.799 332.528Z" fill="#0A2526"/>
<path d="M416.651 66.9118C423.183 74.169 418.828 84.0389 418.393 84.4744C411.571 83.3132 404.459 81.136 397.637 81.2812C392.557 81.4263 387.477 84.6195 382.542 86.3613C383.413 80.9909 383.123 75.1851 385.3 70.5404C390.38 59.7996 400.54 57.4773 412.007 63.4283C413.168 64.0089 414.329 64.8797 415.345 65.7506L416.651 66.9118Z" fill="#063439"/>
<path d="M455.404 345.156C453.082 343.995 450.76 342.834 448.438 341.672C450.76 342.834 453.082 343.995 455.404 345.156Z" fill="#64B697"/>
<path d="M418.683 137.017C416.506 139.63 414.329 142.243 412.151 145C406.2 152.403 406.926 157.483 415.2 163.579C413.458 169.675 412.877 176.352 409.539 181.432C407.217 185.06 400.83 188.979 397.056 188.108C392.702 187.238 388.202 182.012 385.88 177.658C383.703 173.594 384.284 168.078 383.558 163.289C393.863 156.612 394.299 153.854 387.041 144.565C384.864 141.807 382.977 138.904 381.09 136.146C381.816 130.341 380.365 123.954 386.17 119.455C388.348 117.713 395.605 119.31 391.396 112.633C392.992 112.343 394.879 111.327 396.04 111.907C399.959 114.229 403.443 117.713 407.652 119.455C415.78 122.648 420.134 127.873 418.683 137.017Z" fill="#EE8B63"/>
<path d="M398.072 239.49C400.249 239.49 402.281 239.345 404.458 239.345C402.281 239.345 400.104 239.49 398.072 239.49Z" fill="#6654AF"/>
<path d="M490.239 420.196C490.675 420.051 490.965 419.761 491.4 419.615C491.255 420.051 490.965 420.341 490.82 420.777L490.239 420.196Z" fill="#E5E8F6"/>
<path d="M418.682 137.017C420.134 127.728 415.924 122.503 407.506 119.164C403.297 117.568 399.958 113.939 395.894 111.617C394.878 111.036 392.846 112.052 391.25 112.343C395.459 119.019 388.202 117.423 386.024 119.164C380.219 123.664 381.67 130.05 380.944 135.856C377.751 147.758 376.59 153.274 375.429 146.452C375.429 133.679 375.284 120.906 375.574 107.988C375.719 104.505 379.493 89.1193 402.136 89.9901C428.697 91.0062 427.826 108.714 425.794 116.407C424.198 122.503 422.311 136.292 422.311 136.292C422.456 138.178 422.746 140.065 422.891 141.952C423.037 143.549 423.037 145.291 422.746 146.887C422.166 151.822 418.973 138.614 418.682 137.017Z" fill="#063439"/>
<path d="M379.8 97.5376C379.8 97.5376 376.172 91.877 382.268 85.4906C390.106 77.3624 413.764 81.5716 417.538 84.3294C419.715 85.926 424.941 89.5546 420.586 96.9571C420.586 96.8119 397.653 88.2483 379.8 97.5376Z" fill="#29E7CD"/>
<path d="M385.315 88.3936C385.956 88.3936 386.476 87.8737 386.476 87.2325C386.476 86.5912 385.956 86.0713 385.315 86.0713C384.674 86.0713 384.154 86.5912 384.154 87.2325C384.154 87.8737 384.674 88.3936 385.315 88.3936Z" fill="white"/>
<path d="M399.395 92.022C400.036 92.022 400.556 91.5022 400.556 90.8609C400.556 90.2196 400.036 89.6997 399.395 89.6997C398.753 89.6997 398.233 90.2196 398.233 90.8609C398.233 91.5022 398.753 92.022 399.395 92.022Z" fill="white"/>
<path d="M407.813 89.99C408.454 89.99 408.974 89.4702 408.974 88.8289C408.974 88.1876 408.454 87.6677 407.813 87.6677C407.172 87.6677 406.652 88.1876 406.652 88.8289C406.652 89.4702 407.172 89.99 407.813 89.99Z" fill="white"/>
<path d="M402.587 84.9097C403.229 84.9097 403.749 84.3899 403.749 83.7486C403.749 83.1073 403.229 82.5874 402.587 82.5874C401.946 82.5874 401.426 83.1073 401.426 83.7486C401.426 84.3899 401.946 84.9097 402.587 84.9097Z" fill="white"/>
<path d="M414.344 87.5225C414.986 87.5225 415.505 87.0027 415.505 86.3614C415.505 85.7201 414.986 85.2002 414.344 85.2002C413.703 85.2002 413.183 85.7201 413.183 86.3614C413.183 87.0027 413.703 87.5225 414.344 87.5225Z" fill="white"/>
<path d="M416.376 94.1995C417.017 94.1995 417.537 93.6797 417.537 93.0384C417.537 92.3971 417.017 91.8772 416.376 91.8772C415.735 91.8772 415.215 92.3971 415.215 93.0384C415.215 93.6797 415.735 94.1995 416.376 94.1995Z" fill="white"/>
<path d="M384.154 94.1995C384.796 94.1995 385.315 93.6797 385.315 93.0384C385.315 92.3971 384.796 91.8772 384.154 91.8772C383.513 91.8772 382.993 92.3971 382.993 93.0384C382.993 93.6797 383.513 94.1995 384.154 94.1995Z" fill="white"/>
<path d="M393.879 86.7969C394.52 86.7969 395.04 86.2771 395.04 85.6358C395.04 84.9945 394.52 84.4746 393.879 84.4746C393.238 84.4746 392.718 84.9945 392.718 85.6358C392.718 86.2771 393.238 86.7969 393.879 86.7969Z" fill="white"/>
</svg>
