<svg width="332" height="229" viewBox="0 0 332 229" fill="none" xmlns="http://www.w3.org/2000/svg">
<g clip-path="url(#clip0)">
<rect x="134.646" width="67.8885" height="67.8885" rx="33.9442" fill="#E9F7FF"/>
<g clip-path="url(#clip1)">
<path d="M172.222 5.68591C172.314 5.41518 173.383 2.51444 177.942 3.66023C177.942 3.66023 175.645 3.28313 174.978 4.14852C174.978 4.14852 176.839 3.37982 177.956 4.12435C179.073 4.86887 179.175 7.23297 178.976 7.94365C178.778 8.65433 177.434 10.7429 176.598 10.7139C176.279 10.7042 175.945 10.5833 175.65 10.4431C175.766 10.8299 175.863 11.2457 175.945 11.7001C176.675 15.9159 173.774 18.9955 172.367 18.1543C171.463 17.6176 170.704 19.2034 170.704 19.2034L163.428 8.76553C163.428 8.76553 169.003 2.55311 172.222 5.68591Z" fill="#2C3A64"/>
<path d="M162.025 46.2182C162.064 47.3398 160.072 51.0044 158.926 54.1711C158.191 56.2161 157.461 58.1064 157.07 59.112C156.823 59.7405 156.635 60.3835 156.499 61.041C156.161 62.7137 155.605 66.2188 155.421 71.9091C155.421 71.9864 155.416 72.0638 155.416 72.1363L165.709 72.1315L165.748 71.9043L165.975 70.6666V70.6618L165.757 65.2857L166.405 64.285L168.267 64.986L169.088 71.9043L169.113 72.1266L179.425 72.1218C179.425 72.0493 179.425 71.9719 179.425 71.8994C179.43 70.0961 179.43 68.5587 179.43 67.2486C179.434 62.7766 178.632 58.3433 177.056 54.1566C175.857 50.9754 174.087 47.6444 174.46 46.0828C174.547 45.7202 175.794 42.5488 176.384 39.5417C176.447 39.2274 176.505 38.9132 176.567 38.5989C176.582 38.6618 176.596 38.7198 176.611 38.7826C177.563 42.7663 178.811 47.9345 179.043 48.7902C179.449 50.2261 183.046 61.1667 183.046 61.1667H184.796C184.796 61.1667 183.703 50.4436 182.717 47.7073C181.731 44.9709 181.247 34.7506 180.309 30.3077C179.821 28.0016 179.052 26.9911 177.791 26.3288C177.143 25.9904 176.369 25.739 175.431 25.4537C174.842 25.2749 174.189 25.0767 173.464 24.8349C172.419 24.482 171.448 23.9454 171.153 22.8818C170.892 21.9342 170.708 20.6869 170.698 19.1882C170.698 18.8836 170.703 18.5742 170.713 18.2502L170.403 18.2986L170.108 18.3469L165.206 19.1301C165.206 19.1301 165.206 19.1882 165.211 19.2993C165.211 19.3138 165.211 19.3332 165.211 19.3525V19.3622C165.211 19.3815 165.211 19.396 165.211 19.4154C165.211 19.4492 165.211 19.4879 165.216 19.5266C165.216 19.5556 165.216 19.5846 165.216 19.6136C165.216 19.7103 165.221 19.8215 165.221 19.9423C165.221 19.9713 165.221 20.0052 165.221 20.039C165.221 20.0535 165.221 20.0729 165.221 20.0874C165.221 20.1357 165.221 20.1841 165.221 20.2373V20.2469C165.221 20.3388 165.221 20.4403 165.226 20.537C165.226 20.7497 165.226 20.9721 165.226 21.209C165.226 21.3105 165.226 21.4121 165.221 21.5136C165.221 21.5377 165.221 21.5619 165.221 21.5861C165.221 21.6876 165.216 21.7891 165.216 21.8858C165.211 22.0212 165.211 22.1566 165.206 22.2919C165.177 23.167 165.303 23.8148 165.066 24.2644C164.805 24.7527 163.427 25.1008 161.919 25.739C161.145 26.0629 160.338 26.4642 159.627 26.996C158.733 27.6631 157.988 28.543 157.659 29.742C156.456 34.1173 155.663 44.9806 154.677 47.7169C153.69 50.4533 152.598 61.1763 152.598 61.1763H154.348C154.348 61.1763 157.945 50.2357 158.336 48.8144C158.457 48.3744 158.844 46.7935 159.323 44.821C159.758 43.0177 160.27 40.8905 160.725 39.005C160.768 38.8262 160.812 38.6473 160.85 38.4732C160.874 38.9664 160.894 39.4643 160.918 39.9478C161.053 42.9017 162.001 45.4302 162.025 46.2182Z" fill="#FFB27D"/>
<path d="M165.208 19.1309C165.208 19.1309 165.266 20.7601 165.213 22.2878C168.104 22.3168 169.728 19.74 170.41 18.2993L165.208 19.1309Z" fill="#ED985F"/>
<path d="M164.187 20.5426C164.187 20.5426 171.014 20.9101 171.178 16.6556C171.343 12.4012 172.334 9.58267 167.982 9.1669C163.631 8.75113 162.718 10.3417 162.321 11.7486C161.92 13.1554 162.413 20.3396 164.187 20.5426Z" fill="#FFB27D"/>
<path d="M162.611 9.3895C163.714 8.14702 164.502 8.46126 164.937 8.86253C168.746 6.94804 171.043 10.076 171.043 10.076C171.386 13.146 173.523 14.9783 173.523 14.9783C173.523 14.9783 172.247 15.6986 169.404 14.8526C168.534 14.5963 167.775 13.9437 167.136 13.1605C168.224 15.1523 169.752 16.6123 169.752 16.6123C166.382 14.8961 165.183 10.076 165.067 9.56838C164.637 9.92614 163.781 10.7093 163.501 11.4974C163.119 12.5706 162.882 14.7945 162.234 14.693C162.239 14.6979 160.958 11.2508 162.611 9.3895Z" fill="#2C3A64"/>
<path d="M184.759 60.814C184.759 60.814 186.258 63.2458 186.316 63.9613C186.374 64.6768 186.166 67.1182 186.166 67.1182C186.166 67.1182 185.61 66.9635 185.494 65.8177C185.378 64.6719 183.618 63.9806 183.265 63.2264C182.912 62.4722 183.048 60.9107 183.048 60.9107L184.759 60.814Z" fill="#FFB27D"/>
<path d="M183.018 61.0803C183.018 61.0803 182.535 63.0335 182.743 63.691C182.951 64.3485 183.178 65.3879 183.507 65.2816C183.835 65.1752 184.116 63.2027 184.116 63.2027L183.018 61.0803Z" fill="#FFB27D"/>
<path d="M185.948 64.0195C185.967 64.1211 186.915 66.8429 186.915 66.8429C186.915 66.8429 186.131 66.8478 186.078 66.4707C186.025 66.0887 185.948 64.0195 185.948 64.0195Z" fill="#FFB27D"/>
<path d="M152.642 61.0803C152.642 61.0803 151.143 63.5121 151.085 64.2276C151.027 64.9431 151.235 67.3846 151.235 67.3846C151.235 67.3846 151.791 67.2299 151.907 66.0841C152.023 64.9383 153.783 64.247 154.136 63.4928C154.489 62.7386 154.373 61.0803 154.373 61.0803H152.642Z" fill="#FFB27D"/>
<path d="M154.387 61.3413C154.387 61.3413 154.871 63.2945 154.663 63.952C154.455 64.6095 154.228 65.6489 153.899 65.5425C153.57 65.4362 153.29 63.4637 153.29 63.4637L154.387 61.3413Z" fill="#FFB27D"/>
<path d="M151.458 64.2808C151.438 64.3823 150.491 67.1041 150.491 67.1041C150.491 67.1041 151.274 67.109 151.327 66.7319C151.375 66.3548 151.458 64.2808 151.458 64.2808Z" fill="#FFB27D"/>
<path d="M177.066 54.1719C177.066 54.1719 170.003 56.3426 158.927 54.1719C158.927 54.1719 155.779 58.7841 154.479 71.9147H165.772L166.822 65.5815L168.108 65.6008L168.862 71.9147H180.445C180.445 71.9147 180.117 60.1087 177.066 54.1719Z" fill="#4CA9EE"/>
<path d="M160.604 32.7736C160.478 34.137 160.043 35.4326 160.72 38.9909C160.778 39.2906 160.841 39.6049 160.914 39.9336C160.914 39.9336 167.687 42.1382 176.268 39.9336C176.268 39.9336 176.316 39.7934 176.394 39.5469C176.457 39.3535 176.534 39.0924 176.621 38.7878C176.974 37.5647 177.443 35.6405 177.322 34.4222C177.138 32.5271 175.862 28.7658 177.786 26.3292C177.138 25.9907 176.365 25.7393 175.427 25.4541C175.427 25.4541 173.72 30.6948 171.385 30.9703C169.055 31.2459 167 31.0864 167 31.0864C167 31.0864 164.245 31.1782 163.205 29.2831C162.432 27.8762 161.953 25.9086 161.914 25.7297C161.141 26.0536 160.333 26.4549 159.623 26.9867C159.922 27.7022 160.817 30.4869 160.604 32.7736Z" fill="#2B2B2B"/>
<path d="M154.774 26.8388C154.774 26.8336 154.779 26.8284 154.779 26.8179C154.779 26.8179 154.774 26.8231 154.774 26.8388Z" fill="white"/>
<path d="M176.94 53.8429C176.94 53.8429 177.96 55.8928 177.834 55.9315C177.713 55.9701 165.143 58.6243 158.491 55.2401L159.182 53.49C159.187 53.4852 166.052 56.4874 176.94 53.8429Z" fill="#007ECC"/>
<path d="M167.459 49.9902C167.459 50.2368 167.57 50.435 167.711 50.435C167.851 50.435 167.962 50.2368 167.962 49.9902C167.962 49.7436 167.851 49.5454 167.711 49.5454C167.57 49.5454 167.459 49.7436 167.459 49.9902Z" fill="#ED985F"/>
</g>
</g>
<g clip-path="url(#clip2)">
<rect x="46.3906" y="47.5217" width="67.8885" height="67.8885" rx="33.9442" fill="#72F5E6"/>
<g clip-path="url(#clip3)">
<path d="M70.4294 99.8883C70.4294 99.8883 73.0989 99.4894 73.1194 102.108C73.1296 103.059 72.0965 103.806 72.0556 104.839C71.9943 106.25 71.5442 110.362 71.6261 110.791C71.7079 111.231 71.3499 111.865 70.8999 111.497C70.4498 111.129 70.3169 109.942 70.0407 109.452C69.7645 108.961 68.1383 101.555 68.1178 100.052C68.0974 98.5587 70.4294 99.8883 70.4294 99.8883Z" fill="#EEA886"/>
<path d="M89.4433 98.3233C87.4079 102.67 82.4063 101.392 80.6062 99.97C78.4378 98.262 72.9453 93.5161 71.6873 90.8261C71.6873 90.8261 70.777 98.3642 70.7054 99.8575L67.5858 100.389C67.5858 100.389 67.3812 94.2218 66.0004 89.8851C64.6197 85.5484 64.323 79.3604 65.0185 78.358C65.7038 77.3659 67.7495 76.384 68.8848 76.9363C70.0201 77.4784 74.5818 80.1275 77.4253 84.0244C80.2687 87.9213 82.8052 91.0716 82.8052 91.0716L88.8296 90.5806C88.8194 90.5806 91.4787 93.9764 89.4433 98.3233Z" fill="#285173"/>
<path d="M89.9037 92.381C89.9037 92.381 91.8675 96.5029 88.8707 101.77C88.8707 101.77 88.6252 105.084 88.5945 106.322C88.5639 107.559 87.8683 112.224 88.3491 114.463C88.8298 116.703 90.3129 120.058 89.8628 123.301C89.4128 126.543 87.2444 135.932 87.7558 138.315L84.2578 138.162C84.2578 138.162 83.685 118.585 83.3782 117.89C83.0714 117.205 81.8644 115.711 81.9258 112.643C81.9974 109.574 77.6811 97.8019 77.6095 94.3243C77.5584 90.8365 89.9037 92.381 89.9037 92.381Z" fill="#285173"/>
<path d="M84.1654 51.5705C82.621 51.4068 79.1434 51.9796 78.3661 56.0504C78.3661 56.0504 78.4275 57.1653 78.6423 58.0449C78.857 58.9347 77.9263 61.4508 78.1206 61.5838C78.315 61.727 79.1434 61.9316 79.1434 61.9316C79.1434 61.9316 79.8799 64.7852 80.8618 64.8159C81.8437 64.8466 85.6076 64.3045 87.5714 60.919C89.5454 57.5539 90.4046 52.2455 84.1654 51.5705Z" fill="#EEA886"/>
<path d="M78.3765 56.0505C78.3765 56.0505 80.7904 57.912 83.2656 58.403C85.7408 58.8939 87.1829 61.5634 87.1829 61.5634C87.1829 61.5634 91.264 57.0222 88.4308 52.9923C85.5874 48.9624 78.1106 51.2433 78.3765 56.0505Z" fill="#0E2D3D"/>
<path d="M86.1194 65.2861C86.1194 65.2861 83.143 67.6591 82.0077 68.733C80.8724 69.807 77.1391 73.7448 76.7095 74.9926C76.2902 76.2404 77.3539 78.1838 78.1108 79.135C78.8063 80.0146 78.0085 81.825 78.0187 82.8989C78.029 83.9729 77.3232 91.8485 77.7937 95.367C77.9471 96.4921 86.5899 96.8808 90.2414 93.5669C90.2414 93.5669 89.9857 92.4009 88.1446 87.5834C87.5718 86.1003 88.9219 77.3144 89.6993 75.5449C90.5073 73.7755 90.047 65.5623 86.1194 65.2861Z" fill="#EEA886"/>
<path d="M86.3957 65.3071C86.2729 64.0081 86.6718 62.1978 86.6718 62.1978C86.6718 62.1978 81.834 63.9365 82.5908 64.5911C82.7852 64.765 82.9079 65.0616 82.9795 65.4196C83.1738 66.4322 82.9693 67.8846 82.9693 67.8846L81.2612 69.5927C79.727 71.3417 86.457 65.9413 86.3957 65.3071Z" fill="#EEA886"/>
<path d="M86.3953 65.3069C86.3953 65.3171 86.3953 65.3171 86.3953 65.3069C86.385 65.9922 79.7368 71.3312 81.2505 69.5925L82.9586 67.8946C82.9586 67.8946 82.9893 67.6594 83.02 67.3218C83.0609 66.8104 83.0916 66.0433 82.9689 65.4399C82.8973 65.0819 82.7847 64.775 82.5802 64.6114C81.8233 63.9568 86.6612 62.218 86.6612 62.218C86.6612 62.218 86.293 63.9057 86.3748 65.1944C86.385 65.2148 86.385 65.266 86.3953 65.3069Z" fill="#EEA886"/>
<path d="M84.2985 58.3516C84.3394 57.8709 84.9224 57.1754 85.6691 57.8811C86.426 58.5869 85.219 60.8166 84.5849 60.5609C83.961 60.3052 84.2576 58.8528 84.2985 58.3516Z" fill="#EEA886"/>
<path d="M82.5801 64.5912C82.7744 64.7651 82.9176 65.1742 82.9892 65.5322C84.8916 64.6116 85.8939 62.9547 85.9246 62.9036C84.8302 64.0389 82.5801 64.5912 82.5801 64.5912Z" fill="#A77860"/>
<path d="M83.6756 58.5156C83.6756 58.5156 84.5654 64.9082 82.4687 65.9514C82.4687 65.9514 86.8054 65.1741 88.943 62.9035C88.943 62.9035 91.9603 52.931 85.445 51.223C78.9911 49.5149 83.6756 58.5156 83.6756 58.5156Z" fill="#0E2D3D"/>
<path d="M64.7325 80.7516C64.7325 80.7516 63.904 80.7312 63.6483 80.7005C63.3926 80.6698 63.5665 81.2016 63.8631 81.3039C64.1597 81.396 64.7325 80.7516 64.7325 80.7516Z" fill="#EEA886"/>
<path d="M64.2719 84.7094C64.2719 84.7094 64.6299 84.7913 64.814 84.7504C64.814 84.7504 65.1311 84.6481 65.3561 84.5969C65.4277 84.5765 65.4891 84.5663 65.53 84.5663C65.7039 84.5458 66.0925 84.556 66.5017 84.3924C66.9108 84.2287 68.3018 83.5025 68.3018 83.5025L67.8927 82.2138L67.5858 81.191C67.5858 81.191 65.2334 80.5773 64.8345 80.6898C64.7936 80.7 64.7527 80.7103 64.722 80.7307C64.3947 80.8534 64.2003 81.0887 64.0367 81.1705C63.9753 81.2012 63.3923 81.5592 63.3719 81.7535C63.3309 82.0297 63.4128 82.2445 63.556 82.3672C63.556 82.3672 63.5048 82.9195 63.7094 83.2264C63.7094 83.2264 63.6378 83.7275 64.006 84.0446C64.006 84.0548 63.9958 84.5663 64.2719 84.7094Z" fill="#EEA886"/>
<path d="M89.73 75.5451C89.372 76.3634 88.881 78.6954 88.5231 81.1092C82.8873 81.3343 78.1415 81.9684 78.1415 81.9684C78.3256 80.966 78.6427 79.7898 78.121 79.1352C77.3641 78.184 76.3004 76.2406 76.7198 74.9928C77.1391 73.745 80.8826 69.8174 82.018 68.7332C82.2634 68.498 82.601 68.2014 82.9692 67.8843C82.9692 67.8843 82.9999 67.649 83.0305 67.3115L85.8228 65.5318L86.2013 65.2966L86.3956 65.1738C86.3956 65.225 86.4058 65.2659 86.4058 65.317V65.3272C90.0675 65.9512 90.4869 73.8166 89.73 75.5451Z" fill="white"/>
<path d="M88.3591 114.474C88.8399 116.714 90.3229 120.068 89.8729 123.311C89.4229 126.553 87.2545 135.942 87.7659 138.326L84.2679 138.172C84.2679 138.172 83.6951 118.596 83.3883 117.9C83.0814 117.215 81.8745 115.721 81.9359 112.653C81.9972 109.83 78.3662 99.6838 77.7219 95.3471V95.3369C77.5582 94.1504 77.5275 91.3274 77.6298 91.2661C77.6298 91.2661 84.2167 91.307 89.1058 90.0898C89.4842 91.1127 89.7399 91.8593 89.9138 92.3912C89.9752 92.5344 91.8162 96.5949 88.8808 101.781C88.8808 101.781 88.6353 105.094 88.6046 106.332C88.5637 107.58 87.8784 112.234 88.3591 114.474Z" fill="#285173"/>
<path d="M88.7479 68.2118C88.7479 68.2118 87.275 66.8821 85.5669 67.9663C83.8588 69.0505 83.4906 70.5438 82.9383 71.2188C82.386 71.8939 79.2153 76.875 78.9187 76.967C78.622 77.0591 76.3105 77.7239 73.6103 78.8081C70.9612 79.8718 67.5859 81.2015 67.5859 81.2015L67.3813 82.4493L68.2916 83.513C68.2916 83.513 78.8266 81.0174 81.3223 79.5241C83.7566 78.0614 87.2341 73.9907 87.2341 73.9907C87.2341 73.9907 90.906 70.329 88.7479 68.2118Z" fill="#EEA886"/>
<path d="M71.6771 90.8259C71.6771 90.8259 71.8305 87.3278 71.4214 86.2437C71.5544 86.571 72.5976 89.3121 72.884 92.6465C72.3521 91.9816 71.9328 91.3679 71.6771 90.8259Z" fill="#20415C"/>
</g>
</g>
<g clip-path="url(#clip4)">
<rect x="222.901" y="47.5217" width="67.8885" height="67.8885" rx="33.9442" fill="#CAFFF8"/>
<g clip-path="url(#clip5)">
<path d="M255.699 61.8469C255.699 61.8469 257.22 64.0105 259.1 62.2595C259.787 61.6269 259.622 60.3801 260.319 59.6558C261.282 58.6565 263.885 55.5579 264.261 55.3195C264.628 55.0811 264.839 54.3935 264.27 54.3202C263.711 54.2469 262.767 54.9619 262.235 55.0903C261.703 55.2278 255.424 59.1333 254.342 60.1417C253.269 61.1502 255.699 61.8469 255.699 61.8469Z" fill="#EEA886"/>
<path d="M244.806 92.2288C244.806 92.2288 247.208 100.461 248.702 106.75C248.702 106.75 249.463 109.831 249.784 111.279C250.004 112.306 250.82 116.303 250.041 119.246C249.537 121.125 249.463 121.905 249.491 124.407C249.528 127.176 251.233 136.876 250.747 138.883L253.35 138.782C253.35 138.782 254.524 122.216 254.817 121.63C255.102 121.043 255.991 119.787 256.165 117.202C256.898 106.43 256.44 102.469 256.504 99.5263C256.568 96.5743 244.806 92.2288 244.806 92.2288Z" fill="#EEA886"/>
<path d="M270.569 80.8882C270.569 80.8882 271.605 87.6081 272.045 88.369C272.485 89.13 273.805 91.0919 272.485 92.2928C271.165 93.4938 269.441 93.4938 269.441 93.4938C269.441 93.4938 267.773 95.5749 266.92 96.1341C266.013 96.73 260.081 99.6178 258.403 99.9295C256.726 100.25 255.965 100.333 255.965 100.333L256.249 92.2562C256.249 92.2562 258.633 91.9353 259.742 91.0185C260.851 90.1017 266.086 83.8585 266.654 82.6209C267.214 81.3649 270.569 80.8882 270.569 80.8882Z" fill="#EEA886"/>
<path d="M255.973 100.324C255.973 100.324 253.984 101.176 251.105 99.8562C248.226 98.5361 245.467 95.6574 244.743 94.2181C244.028 92.7787 239.407 78.1379 238.444 76.5152C237.482 74.8925 237.188 72.0138 238.444 70.932C239.71 69.8594 254.341 60.1416 254.341 60.1416L256.047 62.0668C256.047 62.0668 250.986 68.8326 247.209 70.6387C243.432 72.4355 242.891 72.4355 243.725 74.535C244.569 76.6344 248.162 80.1731 249.363 83.8952C250.564 87.6173 250.748 89.9918 252.059 90.606C253.379 91.2202 254.442 90.606 256.248 92.247C257.843 93.6955 255.973 100.324 255.973 100.324Z" fill="#EEA886"/>
<path d="M259.658 58.8763C259.658 58.8763 258.897 58.372 258.65 58.2437C258.402 58.1153 258.888 57.7395 259.218 57.8311C259.548 57.932 259.658 58.8763 259.658 58.8763Z" fill="#EEA886"/>
<path d="M261.685 54.9801C261.685 54.9801 262.07 55.136 262.207 55.2826C262.207 55.2826 262.436 55.576 262.611 55.7685C262.666 55.8327 262.711 55.8877 262.748 55.9152C262.895 56.0436 263.262 56.2819 263.537 56.6945C263.812 57.107 264.857 59.2981 264.857 59.2981L263.949 60.1324L263.005 60.5541C263.005 60.5541 259.924 59.3714 259.631 59.0139C259.604 58.9772 259.576 58.9406 259.549 58.9131C259.329 58.5922 259.301 58.253 259.2 58.0696C259.164 58.0055 258.861 57.3087 258.962 57.107C259.099 56.8228 259.31 56.6853 259.53 56.6578C259.53 56.6578 259.833 56.1169 260.218 55.9611C260.218 55.9611 260.475 55.4568 261.015 55.4018C261.015 55.4202 261.336 54.9343 261.685 54.9801Z" fill="#FFB490"/>
<path d="M272.495 92.2837C271.174 93.4847 269.451 93.4847 269.451 93.4847C268.076 95.199 266.444 96.8034 264.454 97.766C262.538 94.4564 259.339 91.2936 259.339 91.2936C260.567 90.5693 266.141 83.7394 266.655 82.6117C267.214 81.3741 270.579 80.8882 270.579 80.8882C270.579 80.8882 271.614 87.6081 272.055 88.3691C272.495 89.1208 273.815 91.0827 272.495 92.2837Z" fill="#285173"/>
<path d="M256.504 101.048C256.541 103.01 256.651 105.604 256.532 109.941C252.571 110.793 249.546 110.197 249.546 110.197C249.179 108.676 248.702 106.75 248.702 106.75C247.199 100.461 244.806 92.2286 244.806 92.2286C244.806 92.2286 253.818 95.5565 256.018 98.371L256.247 92.247C256.247 92.247 256.513 92.2103 256.898 92.137C258.42 95.7491 258.42 99.2328 258.42 99.2328C257.54 99.3886 256.908 99.4803 256.513 99.5353C256.504 99.7645 256.513 100.021 256.513 100.269C256.504 100.287 256.504 100.305 256.504 100.333C256.495 100.553 256.495 100.791 256.504 101.048Z" fill="#285173"/>
<path d="M258.412 99.9203C257.532 100.085 256.9 100.195 256.505 100.25C256.148 100.305 255.974 100.324 255.974 100.324C255.974 100.324 252.774 102.441 249.895 101.121C247.017 99.8011 245.467 95.6573 244.752 94.2179C244.422 93.5578 243.258 90.0924 242.011 86.3887C245.165 85.0135 248.869 82.6299 248.869 82.6299C249.061 83.0424 249.226 83.4641 249.364 83.895C250.565 87.6171 250.748 89.9916 252.068 90.6058C253.388 91.2201 254.452 90.6058 256.258 92.2469C256.258 92.2469 256.515 92.2102 256.9 92.1368C258.66 96.0973 258.412 99.9203 258.412 99.9203Z" fill="#285173"/>
<path d="M268.486 71.4824C267.258 71.9774 267.954 74.5077 267.835 79.1283C267.716 83.7488 264.306 84.5831 264.306 84.5831C264.306 84.5831 265.809 82.8137 266.112 81.191C266.414 79.5683 263.05 75.4795 264.526 72.2616C265.662 69.7772 268.642 71.3723 268.642 71.3723L268.486 71.4824Z" fill="#754836"/>
<path d="M270.66 71.4C271.825 71.29 274.428 71.7484 274.978 74.8195C274.978 74.8195 274.923 75.6538 274.749 76.3231C274.575 76.9831 275.253 78.8809 275.107 78.9909C274.96 79.0917 274.336 79.2476 274.336 79.2476C274.336 79.2476 273.759 81.3836 273.016 81.402C272.274 81.4203 269.45 80.9711 268.011 78.4133C266.562 75.8463 265.966 71.8492 270.66 71.4Z" fill="#EEA886"/>
<path d="M274.969 74.8102C274.969 74.8102 273.145 76.1854 271.275 76.5338C269.414 76.8821 268.405 80.1275 268.405 80.1275C268.405 80.1275 265.279 75.4245 267.443 72.4266C269.615 69.4379 275.208 71.1981 274.969 74.8102Z" fill="#754836"/>
<path d="M270.495 76.4874C270.467 76.1207 270.036 75.5981 269.468 76.1207C268.9 76.6433 269.78 78.3301 270.256 78.1376C270.733 77.9543 270.522 76.8633 270.495 76.4874Z" fill="#EEA886"/>
<path d="M267.654 85.5821C267.654 85.5821 265.554 85.6096 266.123 83.4643C266.938 80.3748 267.837 77.3403 268.029 76.4144C268.222 75.4793 269.78 69.346 269.441 68.8968C269.157 68.5209 267.846 66.1007 265.737 63.6529C263.62 61.1959 263.015 60.5725 263.015 60.5725L264.857 59.3074C264.857 59.3074 272.292 66.3115 272.852 67.0908C273.768 68.3743 271.036 80.8882 271.036 80.8882C271.036 80.8882 270.945 85.9488 267.654 85.5821Z" fill="#FFB490"/>
<path d="M256.504 101.928C249.83 101.039 247.914 97.8211 247.887 97.7661C252.764 101.369 256.504 100.251 256.504 100.251C256.495 100.773 256.495 101.323 256.504 101.928Z" fill="#20415C"/>
<path d="M270.76 82.7949C270.76 82.7949 271.118 86.6454 268.404 87.4705C265.681 88.2956 264.168 85.7103 266.69 83.3358C269.202 80.9614 270.76 82.7949 270.76 82.7949Z" fill="#FFB490"/>
</g>
</g>
<g clip-path="url(#clip6)">
<rect y="126.725" width="67.8885" height="67.8885" rx="33.9442" fill="#CFEFFC"/>
<g clip-path="url(#clip7)">
<path d="M41.9376 178.017C41.8464 182.209 39.9557 193.325 39.9557 193.325H39.5685L30.9806 193.006L29.9327 182.482L16.0827 181.708C15.9232 180.774 12.3013 177.06 12.3013 177.06C12.6885 176.65 13.1441 176.24 13.668 175.853C16.2194 173.917 20.183 172.163 22.6204 171.183C22.6204 171.183 25.6274 173.484 27.1308 171.616C29.6138 172.869 33.7825 174.76 38.1334 175.876C38.1334 175.99 38.2017 179.133 41.9376 178.017Z" fill="#351E01"/>
<path d="M41.9378 178.018C38.202 179.111 38.1108 175.99 38.1108 175.854C39.3409 176.172 40.5938 176.423 41.8239 176.56C41.9378 176.833 41.9606 177.334 41.9378 178.018Z" fill="#4F3519"/>
<path d="M27.1305 171.617C25.6042 173.485 22.6201 171.184 22.6201 171.184C23.9186 170.66 24.7842 170.364 24.7842 170.364C24.7842 170.364 25.6498 170.888 27.1305 171.617Z" fill="#4F3519"/>
<path d="M50.2292 160.819L44.3748 158.564L37.3815 155.876C37.2676 153.233 34.5568 148.586 34.5568 148.586C34.5568 148.586 31.846 153.233 31.7321 155.876L24.4882 157.926L17.7227 159.862C20.479 148.427 24.6021 147.561 25.4677 147.037C26.3334 146.513 31.4132 144.896 31.4132 144.896C31.5954 149.794 38.2015 148.609 37.7004 145.329C37.6776 145.329 48.8624 145.853 50.2292 160.819Z" fill="#29E7CD"/>
<path d="M43.8289 163.051C42.9405 169.908 41.8243 176.605 41.8243 176.605C40.5942 176.446 39.3413 176.195 38.1112 175.899C33.7603 174.783 29.5916 172.892 27.1086 171.639C25.628 170.888 24.7396 170.386 24.7396 170.386C24.8307 169.771 24.7623 166.651 24.6484 162.983C27.177 161.912 30.4572 160.113 34.5348 157.106C38.4757 159.953 41.5281 161.821 43.8289 163.051Z" fill="#29E7CD"/>
<path d="M24.5114 157.948C24.3291 156.536 24.2608 155.101 24.1925 153.689C24.1241 152.253 24.1013 150.841 24.1697 149.406C24.3519 150.818 24.4203 152.253 24.4886 153.666C24.5342 155.078 24.5569 156.513 24.5114 157.948Z" fill="#06846F"/>
<path d="M34.5573 148.609V157.106C30.4569 160.09 27.1995 161.89 24.6709 162.983C19.8644 165.033 17.7231 164.464 17.7231 164.464C16.9486 162.915 17.7231 159.908 17.7231 159.908L24.5115 157.972L31.7554 155.921C31.8465 153.256 34.5573 148.609 34.5573 148.609Z" fill="#FC8E7B"/>
<path d="M50.2295 165.284C50.2295 165.284 48.521 165.512 43.8284 163.029C41.5049 161.821 38.4752 159.953 34.5571 157.083V148.609C34.5571 148.609 37.2679 153.256 37.3818 155.899L50.2523 160.842C50.2295 160.819 51.004 163.735 50.2295 165.284Z" fill="#F89077"/>
<path d="M30.9811 193.007C30.9811 193.121 30.9811 194.214 30.571 193.963C30.161 193.69 27.678 186.196 27.678 186.196C27.678 186.196 15.6276 187.494 10.1377 187.061C2.23318 182.414 10.5705 178.291 12.279 177.084C12.279 177.084 15.901 180.797 16.0604 181.731L29.9104 182.505L30.9811 193.007Z" fill="#FB8C80"/>
<path d="M15.3085 181.799C15.3085 181.799 12.3927 183.781 10.502 183.599L15.3085 181.799Z" fill="#D06C6D"/>
<path d="M26.7441 183.097C26.7441 183.097 29.2499 182.505 29.3182 184.396L26.7441 183.097Z" fill="#D06C6D"/>
<path d="M13.6455 175.876C13.6455 175.876 17.0169 179.316 17.7003 181.139L13.6455 175.876Z" fill="#4F3519"/>
<path d="M16.6069 177.084C16.6069 177.084 23.5547 178.815 25.9694 181.822L16.6069 177.084Z" fill="#4F3519"/>
<path d="M23.8276 175.261C27.0168 177.676 29.3403 181.366 29.3403 181.366L23.8276 175.261Z" fill="#4F3519"/>
<path d="M27.7007 173.302C27.7007 173.302 28.293 178.086 29.5686 178.952L27.7007 173.302Z" fill="#4F3519"/>
<path d="M19.6821 158.199C19.9783 157.949 20.3427 157.789 20.7072 157.675C21.0717 157.561 21.4589 157.493 21.8462 157.448C22.2334 157.402 22.6207 157.379 23.008 157.379C23.3952 157.379 23.7825 157.402 24.1697 157.448L24.033 157.698C23.6913 157.311 23.3041 156.946 22.9168 156.605C22.7118 156.445 22.5068 156.286 22.3018 156.149C22.074 156.012 21.8462 155.899 21.5728 155.876C21.8462 155.83 22.1195 155.921 22.3473 156.035C22.5979 156.149 22.8257 156.286 23.0535 156.445C23.2813 156.605 23.4863 156.764 23.6913 156.946C23.8964 157.129 24.0786 157.311 24.2608 157.516L24.5342 157.812L24.1469 157.766C23.7825 157.721 23.3952 157.721 23.008 157.698C22.6207 157.698 22.2562 157.698 21.869 157.721C21.14 157.744 20.3883 157.835 19.6821 158.199Z" fill="#06846F"/>
<path d="M38.8172 136.968C38.7944 137.06 38.7488 137.151 38.7261 137.242C38.7033 137.31 38.6577 137.401 38.6349 137.47C38.5894 137.561 38.5666 137.652 38.521 137.743C38.4755 137.834 38.4299 137.925 38.3844 138.016C37.906 139.041 37.2909 139.975 37.2909 139.975C37.2909 139.975 36.8126 141.069 36.1064 139.429C34.9219 139.132 33.0084 139.292 32.8034 139.429C32.5983 139.565 32.3705 140.522 31.7783 140.226C31.7555 140.203 31.7327 140.203 31.7099 140.18C30.9582 139.679 30.4798 137.151 30.3432 136.353C30.3432 136.331 30.3432 136.285 30.3204 136.262C30.3204 136.239 30.3204 136.194 30.2976 136.171C30.2976 136.376 30.2748 136.581 30.2748 136.786C30.252 137.902 30.3204 138.882 30.4571 139.748C30.7304 141.388 31.2543 142.572 31.915 143.347C33.1678 144.805 34.8763 144.873 36.152 144.144C36.5848 143.893 36.972 143.529 37.2682 143.119C37.9743 142.139 38.3616 140.795 38.5894 139.634C38.7944 138.495 38.84 137.515 38.8172 137.128C38.8172 137.037 38.8172 136.968 38.8172 136.968ZM35.8331 140.818C35.3775 141.615 34.3979 141.798 34.3979 141.798C34.3979 141.798 33.4184 141.638 32.9628 140.818C32.5072 140.021 33.5323 139.953 33.6462 140.021C33.7601 140.066 33.874 140.34 34.3752 140.363H34.4207C34.9219 140.34 35.0358 140.089 35.1497 140.021C35.2636 139.953 36.2886 140.021 35.8331 140.818Z" fill="#F1F2F2"/>
<path d="M35.833 140.818C35.3774 141.616 34.3978 141.798 34.3978 141.798C34.3978 141.798 33.4183 141.638 32.9627 140.818C32.5071 140.021 33.5322 139.953 33.6461 140.021C33.76 140.067 33.8739 140.34 34.3751 140.363H34.4206C34.9218 140.34 35.0357 140.089 35.1496 140.021C35.2635 139.953 36.2886 140.021 35.833 140.818Z" fill="#D7766B"/>
<path d="M33.6235 140.841C33.6235 140.841 34.2614 141.251 35.2409 140.932" stroke="#BF666A" stroke-width="0.3047" stroke-miterlimit="10" stroke-linecap="round"/>
<path d="M38.8853 136.718C38.8625 136.809 38.8397 136.9 38.8169 136.991C38.7942 137.083 38.7486 137.174 38.7258 137.265C38.703 137.333 38.6575 137.424 38.6347 137.493C38.5891 137.584 38.5664 137.675 38.5208 137.766C38.4752 137.857 38.4297 137.948 38.3841 138.039C37.9058 139.064 37.2907 139.998 37.2907 139.998C37.2907 139.998 36.8123 141.092 36.1062 139.452C34.9216 139.156 33.0081 139.315 32.8031 139.452C32.5981 139.588 32.3703 140.545 31.778 140.249C30.9124 139.839 30.2974 136.126 30.2974 136.126C30.6618 133.005 32.4386 131.251 34.5344 131.251C36.7668 131.251 38.7942 133.506 38.8853 136.718Z" fill="#FF8B80"/>
<path d="M31.3906 144.896L31.9146 143.37C33.1674 144.828 34.8759 144.896 36.1516 144.167C36.5844 143.916 36.9716 143.552 37.2678 143.142L37.6778 145.329C38.179 148.609 31.5729 149.816 31.3906 144.896Z" fill="#F5908C"/>
<path d="M30.4568 139.771C28.4066 138.358 28.9989 136.217 30.2745 136.809C30.2517 137.948 30.3201 138.928 30.4568 139.771Z" fill="#D06C6D"/>
<path d="M38.5894 139.634C38.7944 138.495 38.8399 137.515 38.8172 137.128C39.7739 136.194 40.8445 137.857 38.5894 139.634Z" fill="#D06C6D"/>
<path d="M31.1855 136.376C31.1855 136.012 32.279 135.716 33.623 135.716" stroke="#F1F2F2" stroke-width="0.45705" stroke-miterlimit="1" stroke-linecap="round"/>
<path d="M37.8827 136.376C37.8827 136.012 36.7893 135.716 35.4453 135.716" stroke="#F1F2F2" stroke-width="0.45705" stroke-miterlimit="1" stroke-linecap="round"/>
<path d="M32.188 137.174C32.5525 137.538 33.1675 137.538 33.532 137.174" stroke="#D06C6D" stroke-width="0.3047" stroke-miterlimit="10" stroke-linecap="round"/>
<path d="M35.9468 137.174C36.3113 137.538 36.9263 137.538 37.2908 137.174" stroke="#D06C6D" stroke-width="0.3047" stroke-miterlimit="10" stroke-linecap="round"/>
<path d="M38.2245 220.41C37.8145 220.638 31.0945 220.433 30.8212 220.228C30.5478 220.023 30.8667 215.855 30.8667 215.855C30.7756 210.342 32.3702 199.499 32.1196 198.907C31.869 198.314 32.1196 193.007 32.1196 193.007L38.3612 193.257C38.3612 193.257 37.9512 195.376 37.9967 196.446C38.0423 197.517 38.3612 200.319 36.9944 206.037C34.1014 213.098 34.557 216.697 34.5115 217.563C34.5115 218.451 39.2952 219.795 38.2245 220.41Z" fill="#FB8C80"/>
<path d="M34.5569 148.609L34.6025 152.846C34.6025 153.552 34.6253 154.258 34.6253 154.965C34.6025 155.671 34.6025 156.377 34.5569 157.083H34.5342C34.4886 156.377 34.4886 155.671 34.4658 154.965C34.4658 154.258 34.4658 153.552 34.4886 152.846L34.5569 148.609Z" fill="#BF666A"/>
</g>
</g>
<g clip-path="url(#clip8)">
<rect x="263.635" y="126.725" width="67.8885" height="67.8885" rx="33.9442" fill="#D5EFFF"/>
<g clip-path="url(#clip9)">
<path d="M297.625 150.935C300.079 150.916 302.213 149.699 303.337 147.901C303.206 147.845 303.075 147.789 302.962 147.752C302.738 147.508 302.532 147.265 302.382 147.04C301.82 146.197 301.783 145.205 301.783 144.812C301.783 144.418 301.801 143.257 301.895 143.07C301.989 142.864 302.307 141.366 302.307 141.366C302.307 141.366 302.419 141.347 302.569 141.31C302.794 141.254 303.112 141.16 303.243 140.973C303.468 140.673 303.524 140.467 303.468 139.999C303.412 139.512 303.711 139.231 303.768 138.782C303.824 138.351 303.861 137.752 303.543 137.621C303.356 137.546 303.299 137.527 303.281 137.527C303.262 137.359 303 133.988 302.607 133.258C302.213 132.509 300.977 131.273 299.667 130.673C299.049 130.392 298.262 130.28 297.607 130.243C296.951 130.28 296.165 130.392 295.547 130.673C294.236 131.273 293 132.509 292.607 133.258C292.214 133.988 291.951 137.359 291.933 137.527C291.914 137.527 291.858 137.546 291.671 137.621C291.352 137.733 291.39 138.332 291.446 138.782C291.502 139.212 291.802 139.512 291.745 139.999C291.689 140.467 291.745 140.673 291.97 140.973C292.101 141.16 292.42 141.254 292.644 141.31C292.813 141.328 292.925 141.347 292.925 141.347C292.925 141.347 293.244 142.864 293.337 143.051C293.431 143.257 293.45 144.4 293.45 144.793C293.45 145.186 293.412 146.179 292.85 147.021C292.701 147.246 292.495 147.508 292.27 147.733C292.157 147.77 292.026 147.826 291.895 147.883C293.019 149.699 295.154 150.916 297.625 150.935Z" fill="#F5C48F"/>
<path d="M285.023 188.78C284.91 188.518 284.798 188.293 284.723 188.125C284.685 188.237 284.667 188.256 284.704 188.069L283.899 188.162L283.749 187.9C283.543 187.563 282.569 185.859 282.532 185.016V184.848C282.345 179.511 282.008 177.17 281.745 176.159L280.884 172.751L281.502 171.421C281.764 171.065 284.573 167.283 285.097 163.444C285.116 163.388 285.135 163.332 285.154 163.238C285.154 163.219 285.135 163.182 285.135 163.163C285.135 163.163 285.416 162.414 285.603 161.253C285.697 160.654 285.772 159.98 285.809 159.231C285.884 156.965 285.416 154.062 283.3 151.534C281.633 152.527 279.742 154.193 279.33 156.703V156.74C279.33 156.852 278.88 159.455 277.925 161.384L277.869 161.478C277.85 161.496 276.259 163.5 274.985 173.256C275.023 173.575 275.772 181.252 278.056 184.885L279.592 187.9L280.94 190.803L282.289 192.488L283.244 193.237C285.453 191.533 285.322 189.735 285.023 188.78Z" fill="#F5C48F"/>
<path d="M284.742 188.125C284.742 188.125 284.742 188.106 284.742 188.125C284.723 188.087 284.723 188.069 284.723 188.069C284.686 188.256 284.686 188.237 284.742 188.125Z" fill="#191918"/>
<path d="M285.809 159.231C285.791 159.98 285.697 160.673 285.603 161.253C285.397 162.433 285.135 163.163 285.135 163.163C285.135 163.182 285.154 163.201 285.154 163.238C285.36 163.837 285.678 165.111 285.678 165.148C285.716 165.672 285.791 165.86 285.978 166.103C286.165 166.347 286.203 166.384 286.427 167.17C286.671 167.957 286.97 169.343 286.952 169.549C286.933 169.773 287.008 170.223 287.176 171.009C287.326 171.777 287.176 171.683 287.12 172.152C287.064 172.601 287.12 172.976 287.176 173.762C287.232 174.549 287.101 175.504 287.026 175.953C286.952 176.384 286.858 176.402 286.952 176.796C287.026 177.17 286.914 178.35 286.97 178.893C287.026 179.436 286.783 181.252 286.596 181.927C286.39 182.601 285.566 185.11 285.678 185.316C285.716 185.372 285.716 185.428 285.697 185.503C285.697 185.503 291.127 186.702 297.625 186.758C304.123 186.702 309.554 185.503 309.554 185.503C309.535 185.428 309.535 185.372 309.573 185.316C309.685 185.11 308.861 182.619 308.655 181.927C308.449 181.252 308.224 179.417 308.281 178.893C308.337 178.35 308.224 177.189 308.299 176.796C308.374 176.421 308.299 176.402 308.224 175.953C308.149 175.522 308 174.567 308.075 173.762C308.131 172.976 308.187 172.601 308.131 172.152C308.075 171.702 307.906 171.796 308.075 171.009C308.224 170.242 308.318 169.773 308.299 169.549C308.281 169.324 308.58 167.957 308.824 167.17C309.067 166.384 309.104 166.328 309.273 166.103C309.46 165.86 309.535 165.672 309.573 165.148C309.573 165.092 309.891 163.837 310.097 163.238C310.097 163.219 310.116 163.182 310.116 163.163C310.116 163.163 309.835 162.414 309.648 161.253C309.554 160.673 309.46 159.998 309.442 159.231C309.367 156.965 309.835 154.062 311.951 151.534C311.951 151.534 311.951 151.534 311.97 151.515C310.584 150.748 309.348 150.354 309.048 150.28C308.337 149.886 304.91 148.538 303.337 147.901C302.232 149.699 300.097 150.916 297.625 150.935C295.172 150.916 293.038 149.699 291.914 147.901C290.341 148.519 286.914 149.886 286.203 150.28C285.903 150.373 284.667 150.748 283.281 151.515C283.281 151.515 283.281 151.515 283.3 151.534C285.416 154.062 285.884 156.965 285.809 159.231Z" fill="#4CA9EE"/>
<path d="M309.421 159.231C309.44 159.961 309.534 160.654 309.627 161.253C309.833 162.433 310.095 163.163 310.095 163.163C310.095 163.182 310.077 163.2 310.077 163.238C310.095 163.313 310.114 163.388 310.133 163.444C310.657 167.264 313.447 171.047 313.728 171.421L314.346 172.751L313.485 176.159C313.223 177.189 312.886 179.511 312.698 184.848V185.016C312.661 185.859 311.687 187.563 311.481 187.9L311.331 188.162L310.526 188.069C310.564 188.256 310.545 188.237 310.507 188.125C310.433 188.293 310.32 188.518 310.208 188.78C309.908 189.735 309.777 191.533 312.024 193.237L312.979 192.488L314.328 190.803L315.676 187.9L317.211 184.885C319.515 181.252 320.264 173.575 320.282 173.256C319.009 163.5 317.417 161.496 317.399 161.478L317.342 161.384C316.369 159.455 315.938 156.834 315.938 156.74V156.703C315.526 154.212 313.616 152.545 311.968 151.534C309.833 154.062 309.365 156.965 309.421 159.231Z" fill="#F5C48F"/>
<path d="M312.119 215.297C313.448 214.997 314.722 214.622 315.827 214.136L314.16 206.458C313.991 205.147 313.617 202.544 313.261 201.72C312.793 200.615 312.624 199.885 312.662 199.099C312.699 198.312 312.587 196.121 312.456 195.597C312.362 195.222 312.1 194.136 312.006 193.237C309.778 191.533 309.89 189.736 310.19 188.78C310.302 188.443 310.415 188.219 310.471 188.125C310.359 187.825 310.078 186.87 310.022 186.702C309.759 185.99 309.572 185.691 309.535 185.503C309.535 185.503 304.104 186.702 297.606 186.758C291.108 186.702 285.678 185.503 285.678 185.503C285.622 185.691 285.434 185.99 285.191 186.702C285.135 186.889 284.854 187.825 284.741 188.125C284.798 188.219 284.929 188.443 285.022 188.78C285.322 189.736 285.453 191.533 283.206 193.237C283.112 194.136 282.831 195.222 282.756 195.597C282.644 196.121 282.513 198.293 282.55 199.099C282.588 199.885 282.438 200.615 281.951 201.72C281.595 202.544 281.221 205.147 281.052 206.458L279.386 214.136C280.491 214.622 281.783 214.997 283.093 215.297C284.798 215.671 287.12 216.046 290.116 216.214C290.228 216.214 290.34 216.233 290.453 216.233C290.565 216.233 290.678 216.252 290.79 216.252C290.809 216.252 290.809 216.252 290.827 216.252C291.352 216.27 291.895 216.289 292.475 216.289C292.475 215.746 293.318 210.99 293.618 210.578C293.73 210.39 293.824 210.128 293.955 209.697C294.198 208.911 294.385 208.031 294.985 206.907C295.584 205.802 296.464 203.162 296.82 202.207C297.082 201.495 297.438 201.346 297.606 201.308C297.775 201.346 298.13 201.514 298.393 202.207C298.748 203.162 299.629 205.784 300.228 206.907C300.827 208.012 301.014 208.892 301.258 209.697C301.389 210.109 301.482 210.39 301.595 210.578C301.894 210.99 302.737 215.746 302.737 216.289C303.299 216.289 303.861 216.27 304.385 216.252C304.404 216.252 304.404 216.252 304.422 216.252C304.535 216.252 304.647 216.233 304.76 216.233C304.872 216.233 304.984 216.214 305.097 216.214C308.093 216.046 310.415 215.671 312.119 215.297Z" fill="#063152"/>
<path d="M310.527 188.069C310.527 188.069 310.508 188.087 310.489 188.106C310.489 188.106 310.489 188.106 310.489 188.125C310.545 188.237 310.564 188.256 310.527 188.069Z" fill="#191918"/>
<path d="M292.494 139.512C292.494 139.512 292.326 137.939 292.401 137.059C292.475 136.179 293.037 134.512 293.037 134.512C293.262 133.37 293.711 132.509 293.711 132.509C296.09 134.793 300.846 133.258 300.846 133.258C303.262 133.744 302.962 139.007 302.962 139.007C302.962 139.007 303.168 138.014 303.655 134.831C304.142 131.666 301.951 129.868 298.674 129.157C295.397 128.426 293.487 130.524 293.487 130.524C291.108 130.58 291.333 134.194 291.558 135.168C291.783 136.16 292.494 139.512 292.494 139.512Z" fill="#3F2727"/>
<path d="M302.851 139.999C302.626 141.235 301.502 142.845 300.341 142.883C299.18 142.939 298.6 142.19 297.701 142.134C296.802 142.19 296.222 142.939 295.061 142.883C293.9 142.827 292.776 141.235 292.551 139.999C292.476 139.662 291.952 146.666 297.682 146.778C303.431 146.666 302.907 139.662 302.851 139.999ZM297.682 144.194C296.165 144.194 296.109 143.819 296.109 143.819C296.109 143.819 296.914 143.389 297.682 143.389C298.45 143.389 299.255 143.819 299.255 143.819C299.255 143.819 299.218 144.194 297.682 144.194Z" fill="#3F2727"/>
</g>
</g>
<path d="M242.1 227.531H100.145C96.17 227.531 92.8906 224.301 92.8906 220.277V131.287C92.8906 127.313 96.1203 124.033 100.145 124.033H242.15C246.125 124.033 249.404 127.263 249.404 131.287V220.277C249.355 224.301 246.125 227.531 242.1 227.531Z" fill="#1A2E35"/>
<path d="M247.02 228.923H95.1763C90.307 228.923 86.332 224.948 86.332 220.078V219.88H255.864V220.078C255.864 224.948 251.889 228.923 247.02 228.923Z" fill="#1A2E35"/>
<path d="M244.734 128.157H97.1143V215.507H244.734V128.157Z" fill="url(#paint0_linear)"/>
<path d="M155.694 219.88L157.831 223.209H187.395L189.382 219.88H155.694Z" fill="#375A64"/>
<path d="M249.355 219.929H92.8906V220.426H249.355V219.929Z" fill="#375A64"/>
<path d="M160.366 110.27C160.068 114.295 158.13 122.145 166.577 124.878C175.024 127.611 167.024 101.873 164.192 101.128C161.41 100.382 160.366 110.27 160.366 110.27Z" fill="url(#paint1_linear)"/>
<path d="M161.16 111.909C159.123 111.114 158.527 113.748 159.471 115.686C160.415 117.673 161.806 118.716 163.297 118.269C164.788 117.872 161.16 111.909 161.16 111.909Z" fill="url(#paint2_linear)"/>
<path d="M182.924 111.909C184.961 111.114 185.557 113.748 184.613 115.686C183.669 117.673 182.278 118.716 180.787 118.269C179.346 117.872 182.924 111.909 182.924 111.909Z" fill="url(#paint3_linear)"/>
<path d="M188.985 186.589C188.985 186.589 219.891 186.937 225.605 196.328C231.269 205.719 227.791 208.998 218.152 212.476C208.562 215.954 177.21 214.861 174.427 214.861C171.645 214.861 153.459 214.762 148.64 211.78C143.87 208.75 129.46 199.508 129.46 199.508C129.46 199.508 143.572 188.825 155.298 186.54C167.024 184.353 188.985 186.589 188.985 186.589Z" fill="white"/>
<path d="M179.295 205.917C168.762 204.675 155.942 203.979 147.545 211.085C147.943 211.333 148.34 211.581 148.639 211.78C153.408 214.811 171.594 214.861 174.426 214.861C175.072 214.861 177.308 214.91 180.488 214.96C177.954 212.973 178.153 209.246 179.295 205.917Z" fill="url(#paint4_linear)"/>
<path opacity="0.6" d="M179.295 205.917C168.762 204.675 155.942 203.979 147.545 211.085C147.943 211.333 148.34 211.581 148.639 211.78C153.408 214.811 171.594 214.861 174.426 214.861C175.072 214.861 177.308 214.91 180.488 214.96C177.954 212.973 178.153 209.246 179.295 205.917Z" fill="url(#paint5_linear)"/>
<path opacity="0.6" d="M179.295 205.917C168.762 204.675 155.942 203.979 147.545 211.085C147.943 211.333 148.34 211.581 148.639 211.78C151.023 213.271 156.787 214.066 162.302 214.463C166.973 211.234 172.737 209.594 178.6 208.849C178.699 207.905 178.948 206.911 179.295 205.917Z" fill="url(#paint6_linear)"/>
<path d="M225.554 196.328C219.89 186.937 188.935 186.589 188.935 186.589C188.935 186.589 166.973 184.353 155.247 186.589C143.521 188.825 129.41 199.557 129.41 199.557C129.41 199.557 141.931 207.557 147.496 211.134C155.893 204.029 168.713 204.725 179.246 205.967C178.153 209.296 177.954 213.022 180.439 215.06C190.724 215.209 210.748 215.209 218.101 212.526C227.741 209.047 231.268 205.768 225.554 196.328Z" fill="#4CA9EE"/>
<path d="M150.031 136.952C147.198 139.187 146.006 144.802 145.559 150.665C145.112 156.478 144.317 171.583 143.522 171.782C139.298 172.925 130.702 185.794 125.634 188.278L128.615 192.203C128.615 192.203 145.261 184.701 149.931 178.142C154.602 171.583 154.651 153.199 154.651 153.199C154.651 153.199 155.844 157.77 156.192 156.926C157.484 153.746 159.62 140.38 160.316 132.977C160.365 132.977 152.465 135.063 150.031 136.952Z" fill="url(#paint7_linear)"/>
<path d="M155.446 155.336C154.154 153.1 154.85 148.877 154.85 148.877C154.85 148.877 154.9 151.311 155.446 152.106L160.415 133.027L155.446 155.336Z" fill="url(#paint8_linear)"/>
<path d="M194.202 136.952C197.034 139.187 198.227 144.802 198.674 150.665C199.121 156.478 199.916 171.583 200.711 171.782C204.934 172.925 211.543 184.303 216.66 186.787L213.729 190.564C213.729 190.564 198.972 184.701 194.351 178.142C189.68 171.583 189.631 153.199 189.631 153.199C189.631 153.199 188.438 157.77 188.041 156.926C186.749 153.746 184.612 140.38 183.917 132.977C183.867 132.977 191.817 135.063 194.202 136.952Z" fill="url(#paint9_linear)"/>
<path d="M185.606 167.161C186.501 162.59 188.836 159.609 188.786 155.336C188.24 153.001 183.818 132.977 183.818 132.977L181.781 131.933L172.092 132.977L162.403 131.933L160.365 132.977C160.365 132.977 155.943 152.951 155.397 155.336C155.347 159.51 157.633 162.491 158.577 166.963C167.222 171.136 177.16 171.087 185.606 167.161Z" fill="#29E7CD"/>
<path opacity="0.14" d="M157.979 164.677C158.228 165.422 158.427 166.168 158.576 166.963C167.221 171.136 177.159 171.087 185.605 167.161C186.4 162.988 188.438 160.106 188.785 156.379C182.575 164.727 169.01 166.466 157.979 164.677Z" fill="url(#paint10_linear)"/>
<path d="M186.749 180.875C186.152 178.738 185.506 175.509 185.506 173.074C185.208 170.789 185.357 168.9 185.656 167.161C177.159 171.087 167.271 171.136 158.626 166.963C158.974 168.702 159.123 170.689 158.825 173.074C158.825 176.155 158.129 179.186 157.334 181.571C166.228 186.589 178.699 187.235 186.749 180.875Z" fill="url(#paint11_linear)"/>
<path opacity="0.5" d="M185.457 173.025C185.159 170.739 185.308 168.851 185.606 167.112C183.47 168.106 181.234 168.851 178.948 169.348C177.11 178.689 166.626 182.465 157.334 181.322C157.334 181.422 157.285 181.471 157.285 181.571C166.179 186.589 178.65 187.235 186.699 180.875C186.153 178.739 185.457 175.509 185.457 173.025Z" fill="url(#paint12_linear)"/>
<path d="M186.75 180.875C178.7 187.235 166.577 186.589 157.335 181.571C156.391 184.552 155.298 186.589 155.298 186.589C155.298 186.589 159.968 192.204 172.142 192.204C184.315 192.204 188.986 186.589 188.986 186.589C188.986 186.589 187.743 184.602 186.75 180.875Z" fill="#29E7CD"/>
<path d="M181.83 131.983C174.675 129.449 177.408 120.356 177.408 120.356H172.141H166.576C166.576 120.356 169.408 129.151 162.403 131.983C162.403 131.983 159.819 149.473 172.092 150.069C184.414 149.473 181.83 131.983 181.83 131.983Z" fill="url(#paint13_linear)"/>
<path opacity="0.9" d="M181.83 131.983C174.675 129.449 177.408 120.356 177.408 120.356H172.141H166.576C166.576 120.356 167.669 123.735 166.825 127.014C169.806 132.927 175.371 137.2 182.029 137.349C182.178 134.318 181.83 131.983 181.83 131.983Z" fill="url(#paint14_linear)"/>
<path d="M161.558 100.929C161.558 100.929 160.763 106.643 161.21 111.91C161.408 114.245 162.203 117.823 163.098 120.307C163.992 122.791 167.619 126.518 171.048 126.617C174.476 126.716 179.345 123.884 181.234 118.717C183.022 113.897 182.724 101.724 182.724 101.724C182.724 101.724 180.289 95.0162 172.141 95.1156C164.092 95.3143 161.558 100.929 161.558 100.929Z" fill="url(#paint15_linear)"/>
<path opacity="0.5" d="M182.774 101.773C182.774 101.773 180.339 95.0655 172.191 95.1649C169.855 95.2146 167.967 95.7115 166.477 96.4071C166.924 98.1958 167.868 99.8355 169.06 100.978C174.526 107.09 184.761 115.487 177.855 123.735C179.246 122.443 180.488 120.803 181.234 118.766C183.022 113.947 182.774 101.773 182.774 101.773Z" fill="url(#paint16_linear)"/>
<path d="M188.836 155.336C190.128 153.1 189.432 148.877 189.432 148.877C189.432 148.877 189.382 151.311 188.836 152.106L183.867 133.027L188.836 155.336Z" fill="url(#paint17_linear)"/>
<path d="M163.446 103.115C163.694 106.692 157.781 112.009 160.862 113.35C160.862 113.35 158.676 112.754 159.023 110.618C159.371 108.481 159.57 107.487 159.023 105.947C158.477 104.407 158.378 100.978 161.16 98.5437L163.446 103.115Z" fill="url(#paint18_linear)"/>
<path d="M160.862 113.351C160.663 113.301 160.564 113.202 160.415 113.102C160.216 113.053 160.067 112.953 159.918 112.854C160.415 113.202 160.862 113.351 160.862 113.351Z" fill="url(#paint19_linear)"/>
<path d="M163.445 103.115L161.16 98.4944C161.11 98.5441 161.06 98.5937 161.06 98.5937C163.396 103.165 159.57 107.19 159.52 112.456C159.669 112.605 159.818 112.755 159.918 112.854C160.067 112.953 160.265 113.003 160.414 113.102C158.427 111.463 163.694 106.494 163.445 103.115Z" fill="url(#paint20_linear)"/>
<path opacity="0.5" d="M172.142 150.069C172.142 150.069 172.092 148.429 171.148 147.535C171.148 147.535 172.142 148.032 173.483 147.535C173.483 147.535 172.39 148.38 172.49 150.069H172.142Z" fill="url(#paint21_linear)"/>
<path opacity="0.2" d="M139.05 198.166C139.05 198.166 145.36 195.086 157.285 198.216C169.21 201.346 169.955 200.899 171.893 200.104C173.781 199.309 174.874 196.477 174.874 196.477C174.874 196.477 173.383 197.52 169.21 198.415C163.844 199.558 152.167 192.204 139.05 198.166Z" fill="url(#paint22_linear)"/>
<path opacity="0.2" d="M210.4 198.266C197.183 200.7 183.867 206.017 183.867 206.017C183.867 206.017 186.55 196.228 210.4 198.266Z" fill="url(#paint23_linear)"/>
<path d="M157.335 198.216C148.292 194.34 134.479 199.557 134.479 199.557C139.944 191.309 155.298 186.589 155.298 186.589C155.298 186.589 135.572 187.533 126.579 193.148C117.635 198.762 117.834 203.979 123.746 209.892C128.715 214.861 153.062 211.432 160.565 210.24C156.391 206.961 156.49 203.333 157.335 198.216Z" fill="#4CA9EE"/>
<path d="M197.332 197.719C194.948 197.918 193.358 195.284 190.376 196.477C187.445 197.669 185.259 199.21 183.619 198.464C181.979 197.719 179.147 194.837 176.216 195.831C173.284 196.825 173.98 198.961 171.942 200.154C170.352 201.048 163.694 199.657 157.335 198.266C155.446 202.986 156.192 208.302 160.614 210.339C162.005 210.141 162.85 209.992 162.85 209.992C162.85 209.992 175.222 207.905 178.899 207.458C182.625 207.01 190.128 203.532 192.761 202.191C195.395 200.899 198.823 201.446 200.314 200.8C201.854 200.104 199.717 197.471 197.332 197.719Z" fill="url(#paint24_linear)"/>
<path opacity="0.6" d="M158.378 198.414C158.03 198.315 157.682 198.265 157.335 198.166C155.446 202.886 156.192 208.203 160.614 210.24C162.005 210.041 162.85 209.892 162.85 209.892C162.85 209.892 166.676 209.246 170.75 208.6C165.135 207.905 159.62 204.079 158.378 198.414Z" fill="url(#paint25_linear)"/>
<path d="M177.408 127.611C179.395 132.232 183.022 136.753 178.898 140.529C178.898 140.529 181.233 139.635 182.028 136.107C183.917 138.84 177.159 145.498 183.171 150.119C183.171 150.119 180.438 146.691 183.271 144.256C185.01 142.765 188.339 135.561 186.749 128.406C185.109 121.251 181.233 118.816 181.233 118.816C181.233 118.816 180.24 121.4 178.948 122.692C177.656 123.984 176.911 124.58 176.911 124.58C176.911 124.58 176.911 126.468 177.408 127.611Z" fill="#000077"/>
<path d="M177.06 126.368C177.159 126.816 177.259 127.263 177.408 127.611C179.395 132.231 183.022 136.753 178.898 140.529C178.898 140.529 181.234 139.635 182.029 136.107C183.917 138.84 177.159 145.498 183.172 150.119C183.172 150.119 180.439 146.69 183.271 144.256C183.668 143.908 184.116 143.262 184.612 142.417C188.091 134.765 180.141 132.977 177.06 126.368Z" fill="url(#paint26_linear)"/>
<path d="M163.445 103.115C163.445 103.115 167.271 107.736 175.718 109.077C175.718 109.077 171.097 107.189 169.607 104.308C169.607 104.308 172.638 106.792 178.352 108.332C184.066 109.872 180.737 114.99 181.333 119.412C181.929 123.835 183.668 122.692 181.78 126.617C179.892 130.542 181.233 132.977 181.233 132.977C181.233 132.977 180.786 128.406 183.171 126.617C185.506 124.779 183.569 120.903 183.171 118.071C182.774 115.239 185.357 113.052 185.159 106.891C184.96 100.68 180.687 95.0658 175.768 94.0224C170.899 92.9293 162.8 93.7739 161.259 98.5439L163.445 103.115Z" fill="#000077"/>
<path d="M172.39 105.202C173.732 105.202 175.371 105.252 176.912 104.556C172.887 105.202 165.335 102.469 161.31 98.6931L163.496 103.115C163.496 103.115 167.322 107.736 175.769 109.078C175.769 109.078 171.148 107.19 169.657 104.308C169.657 104.308 172.688 106.792 178.402 108.332C184.116 109.873 180.787 114.99 181.384 119.413C181.483 120.058 181.582 120.555 181.682 121.003C179.148 118.419 192.911 106.742 172.39 105.202Z" fill="#000077"/>
<path d="M122.752 188.08C120.019 186.738 119.821 188.428 118.678 188.08C117.535 187.732 116.641 186.838 115.846 187.384C115.051 187.931 115.945 189.272 117.187 189.521C117.187 189.521 116.74 190.564 116.144 190.564C115.498 190.564 114.554 190.316 114.256 192.005C114.007 193.694 115.15 196.527 117.187 196.725C119.224 196.924 122.355 197.719 123.249 196.725C124.143 195.732 127.025 192.552 128.963 191.906L125.733 188.179C125.684 188.179 124.889 189.173 122.752 188.08Z" fill="url(#paint27_linear)"/>
<path d="M114.206 192.75C114.206 192.75 113.858 189.123 114.206 188.726C114.554 188.279 115.299 188.527 115.448 189.968C115.597 191.409 116.342 194.589 116.491 194.837C116.491 194.837 115.846 188.13 116.74 187.881C117.634 187.633 117.883 189.521 118.032 190.813C118.181 192.105 118.727 195.086 119.075 195.583C119.075 195.583 118.429 189.223 119.075 188.825C119.721 188.378 120.119 189.024 120.168 189.819C120.268 190.564 120.963 194.738 121.013 194.589C121.063 194.44 121.063 190.564 121.56 190.266C122.056 189.968 122.355 190.266 122.504 190.862C122.653 191.459 122.056 193.744 123.1 194.688" fill="url(#paint28_linear)"/>
<path d="M219.145 186.49C221.927 185.198 222.076 186.838 223.219 186.49C224.362 186.142 225.256 185.248 226.051 185.794C226.846 186.341 225.952 187.682 224.71 187.931C224.71 187.931 225.157 188.974 225.753 188.974C226.399 188.974 227.343 188.726 227.641 190.415C227.89 192.105 226.747 194.937 224.71 195.135C222.673 195.334 219.542 196.129 218.648 195.135C217.754 194.142 214.872 190.962 212.934 190.316L215.667 186.341C215.717 186.291 217.406 187.285 219.145 186.49Z" fill="url(#paint29_linear)"/>
<path d="M227.741 191.161C227.741 191.161 228.089 187.533 227.741 187.136C227.393 186.689 226.648 186.937 226.499 188.378C226.35 189.819 225.605 192.999 225.456 193.247C225.456 193.247 226.101 186.54 225.207 186.291C224.313 186.043 224.064 187.931 223.915 189.223C223.766 190.515 223.22 193.496 222.872 193.993C222.872 193.993 223.518 187.633 222.872 187.235C222.226 186.788 221.828 187.434 221.779 188.229C221.679 188.974 220.984 193.148 220.934 192.999C220.884 192.85 220.884 188.974 220.387 188.676C219.891 188.378 219.592 188.676 219.443 189.272C219.294 189.869 219.891 192.154 218.847 193.098" fill="url(#paint30_linear)"/>
<defs>
<linearGradient id="paint0_linear" x1="170.924" y1="128.157" x2="170.924" y2="215.507" gradientUnits="userSpaceOnUse">
<stop stop-color="white"/>
<stop offset="1" stop-color="#E7F5FF"/>
</linearGradient>
<linearGradient id="paint1_linear" x1="166.988" y1="106.956" x2="164.124" y2="122.167" gradientUnits="userSpaceOnUse">
<stop stop-color="#000077"/>
<stop offset="0.1459" stop-color="#020087"/>
<stop offset="0.7232" stop-color="#0B00C1"/>
<stop offset="1" stop-color="#0F00D8"/>
</linearGradient>
<linearGradient id="paint2_linear" x1="159.041" y1="115.104" x2="163.661" y2="115.104" gradientUnits="userSpaceOnUse">
<stop offset="0.00537634" stop-color="#FFCDCE"/>
<stop offset="0.7473" stop-color="#FFBDBD"/>
</linearGradient>
<linearGradient id="paint3_linear" x1="185.076" y1="115.104" x2="180.457" y2="115.104" gradientUnits="userSpaceOnUse">
<stop offset="0.00537634" stop-color="#FFCDCE"/>
<stop offset="0.7473" stop-color="#FFBDBD"/>
</linearGradient>
<linearGradient id="paint4_linear" x1="182.389" y1="209.547" x2="162.286" y2="210.74" gradientUnits="userSpaceOnUse">
<stop offset="0.00537634" stop-color="#FFCDCE"/>
<stop offset="0.7473" stop-color="#FFBDBD"/>
</linearGradient>
<linearGradient id="paint5_linear" x1="182.389" y1="209.547" x2="162.286" y2="210.74" gradientUnits="userSpaceOnUse">
<stop offset="0.00537634" stop-color="#FFCDCE"/>
<stop offset="0.7473" stop-color="#FFBDBD"/>
</linearGradient>
<linearGradient id="paint6_linear" x1="181.658" y1="208.79" x2="161.949" y2="209.959" gradientUnits="userSpaceOnUse">
<stop offset="0.00537634" stop-color="#FFCDCE"/>
<stop offset="0.7473" stop-color="#FFBDBD"/>
</linearGradient>
<linearGradient id="paint7_linear" x1="125.663" y1="162.596" x2="160.389" y2="162.596" gradientUnits="userSpaceOnUse">
<stop offset="0.00537634" stop-color="#FFCDCE"/>
<stop offset="0.7473" stop-color="#FFBDBD"/>
</linearGradient>
<linearGradient id="paint8_linear" x1="154.644" y1="144.161" x2="160.389" y2="144.161" gradientUnits="userSpaceOnUse">
<stop offset="0.00537634" stop-color="#FFCDCE"/>
<stop offset="0.7473" stop-color="#FFBDBD"/>
</linearGradient>
<linearGradient id="paint9_linear" x1="216.622" y1="161.782" x2="183.865" y2="161.782" gradientUnits="userSpaceOnUse">
<stop offset="0.00537634" stop-color="#FFCDCE"/>
<stop offset="0.7473" stop-color="#FFBDBD"/>
</linearGradient>
<linearGradient id="paint10_linear" x1="157.979" y1="163.23" x2="188.788" y2="163.23" gradientUnits="userSpaceOnUse">
<stop stop-color="#E657FF"/>
<stop offset="0.1646" stop-color="#BF47F8"/>
<stop offset="0.5755" stop-color="#6121E7"/>
<stop offset="0.863" stop-color="#2609DC"/>
<stop offset="1" stop-color="#0F00D8"/>
</linearGradient>
<linearGradient id="paint11_linear" x1="157.31" y1="176.219" x2="186.728" y2="176.219" gradientUnits="userSpaceOnUse">
<stop offset="0.00537634" stop-color="#FFCDCE"/>
<stop offset="0.7473" stop-color="#FFBDBD"/>
</linearGradient>
<linearGradient id="paint12_linear" x1="157.311" y1="176.321" x2="186.729" y2="176.321" gradientUnits="userSpaceOnUse">
<stop offset="0.00537634" stop-color="#FFCDCE"/>
<stop offset="0.7473" stop-color="#FFBDBD"/>
</linearGradient>
<linearGradient id="paint13_linear" x1="162.2" y1="135.184" x2="182.055" y2="135.184" gradientUnits="userSpaceOnUse">
<stop offset="0.00537634" stop-color="#FFCDCE"/>
<stop offset="0.7473" stop-color="#FFBDBD"/>
</linearGradient>
<linearGradient id="paint14_linear" x1="166.581" y1="128.802" x2="182.053" y2="128.802" gradientUnits="userSpaceOnUse">
<stop offset="0.00537634" stop-color="#FFCDCE"/>
<stop offset="0.7473" stop-color="#FFBDBD"/>
</linearGradient>
<linearGradient id="paint15_linear" x1="161.065" y1="110.89" x2="182.765" y2="110.89" gradientUnits="userSpaceOnUse">
<stop offset="0.00537634" stop-color="#FFCDCE"/>
<stop offset="0.7473" stop-color="#FFBDBD"/>
</linearGradient>
<linearGradient id="paint16_linear" x1="166.473" y1="109.439" x2="182.765" y2="109.439" gradientUnits="userSpaceOnUse">
<stop offset="0.00537634" stop-color="#FFCDCE"/>
<stop offset="0.7473" stop-color="#FFBDBD"/>
</linearGradient>
<linearGradient id="paint17_linear" x1="189.611" y1="144.161" x2="183.865" y2="144.161" gradientUnits="userSpaceOnUse">
<stop offset="0.00537634" stop-color="#FFCDCE"/>
<stop offset="0.7473" stop-color="#FFBDBD"/>
</linearGradient>
<linearGradient id="paint18_linear" x1="161.392" y1="101.91" x2="159.562" y2="111.629" gradientUnits="userSpaceOnUse">
<stop stop-color="#000077"/>
<stop offset="0.1459" stop-color="#020087"/>
<stop offset="0.7232" stop-color="#0B00C1"/>
<stop offset="1" stop-color="#0F00D8"/>
</linearGradient>
<linearGradient id="paint19_linear" x1="160.419" y1="113.029" x2="160.382" y2="113.229" gradientUnits="userSpaceOnUse">
<stop stop-color="#000077"/>
<stop offset="0.1459" stop-color="#020087"/>
<stop offset="0.7232" stop-color="#0B00C1"/>
<stop offset="1" stop-color="#0F00D8"/>
</linearGradient>
<linearGradient id="paint20_linear" x1="162.1" y1="102.004" x2="160.292" y2="111.61" gradientUnits="userSpaceOnUse">
<stop stop-color="#000077"/>
<stop offset="0.1459" stop-color="#020087"/>
<stop offset="0.7232" stop-color="#0B00C1"/>
<stop offset="1" stop-color="#0F00D8"/>
</linearGradient>
<linearGradient id="paint21_linear" x1="171.153" y1="148.771" x2="173.481" y2="148.771" gradientUnits="userSpaceOnUse">
<stop offset="0.00537634" stop-color="#FFCDCE"/>
<stop offset="0.7473" stop-color="#FFBDBD"/>
</linearGradient>
<linearGradient id="paint22_linear" x1="139.066" y1="198.245" x2="174.904" y2="198.245" gradientUnits="userSpaceOnUse">
<stop stop-color="#E657FF"/>
<stop offset="0.1646" stop-color="#BF47F8"/>
<stop offset="0.5755" stop-color="#6121E7"/>
<stop offset="0.863" stop-color="#2609DC"/>
<stop offset="1" stop-color="#0F00D8"/>
</linearGradient>
<linearGradient id="paint23_linear" x1="212.414" y1="200.842" x2="195.821" y2="201.826" gradientUnits="userSpaceOnUse">
<stop stop-color="#E657FF"/>
<stop offset="0.1646" stop-color="#BF47F8"/>
<stop offset="0.5755" stop-color="#6121E7"/>
<stop offset="0.863" stop-color="#2609DC"/>
<stop offset="1" stop-color="#0F00D8"/>
</linearGradient>
<linearGradient id="paint24_linear" x1="156.337" y1="202.927" x2="200.829" y2="202.927" gradientUnits="userSpaceOnUse">
<stop offset="0.00537634" stop-color="#FFCDCE"/>
<stop offset="0.7473" stop-color="#FFBDBD"/>
</linearGradient>
<linearGradient id="paint25_linear" x1="156.337" y1="204.236" x2="170.691" y2="204.236" gradientUnits="userSpaceOnUse">
<stop offset="0.00537634" stop-color="#FFCDCE"/>
<stop offset="0.7473" stop-color="#FFBDBD"/>
</linearGradient>
<linearGradient id="paint26_linear" x1="176.988" y1="122.959" x2="189.208" y2="161.324" gradientUnits="userSpaceOnUse">
<stop stop-color="#000077"/>
<stop offset="0.1459" stop-color="#020087"/>
<stop offset="0.7232" stop-color="#0B00C1"/>
<stop offset="1" stop-color="#0F00D8"/>
</linearGradient>
<linearGradient id="paint27_linear" x1="125.572" y1="188.527" x2="114.055" y2="195.255" gradientUnits="userSpaceOnUse">
<stop offset="0.00537634" stop-color="#FFCDCE"/>
<stop offset="0.7473" stop-color="#FFBDBD"/>
</linearGradient>
<linearGradient id="paint28_linear" x1="118.401" y1="188.873" x2="118.657" y2="194.709" gradientUnits="userSpaceOnUse">
<stop offset="0.00537634" stop-color="#FFCDCE"/>
<stop offset="0.7473" stop-color="#FFBDBD"/>
</linearGradient>
<linearGradient id="paint29_linear" x1="216.339" y1="186.899" x2="227.856" y2="193.627" gradientUnits="userSpaceOnUse">
<stop offset="0.00537634" stop-color="#FFCDCE"/>
<stop offset="0.7473" stop-color="#FFBDBD"/>
</linearGradient>
<linearGradient id="paint30_linear" x1="223.51" y1="187.244" x2="223.255" y2="193.08" gradientUnits="userSpaceOnUse">
<stop offset="0.00537634" stop-color="#FFCDCE"/>
<stop offset="0.7473" stop-color="#FFBDBD"/>
</linearGradient>
<clipPath id="clip0">
<rect x="134.646" width="67.8885" height="67.8885" rx="33.9442" fill="white"/>
</clipPath>
<clipPath id="clip1">
<rect width="36.4285" height="68.7475" fill="white" transform="matrix(-1 0 0 1 186.914 3.39429)"/>
</clipPath>
<clipPath id="clip2">
<rect x="46.3906" y="47.5217" width="67.8885" height="67.8885" rx="33.9442" fill="white"/>
</clipPath>
<clipPath id="clip3">
<rect width="27.1761" height="92.7383" fill="white" transform="translate(63.3623 50.916)"/>
</clipPath>
<clipPath id="clip4">
<rect x="222.901" y="47.5217" width="67.8885" height="67.8885" rx="33.9442" fill="white"/>
</clipPath>
<clipPath id="clip5">
<rect width="37.5144" height="89.0829" fill="white" transform="translate(237.609 54.3108)"/>
</clipPath>
<clipPath id="clip6">
<rect y="126.725" width="67.8885" height="67.8885" rx="33.9442" fill="white"/>
</clipPath>
<clipPath id="clip7">
<rect width="43.7824" height="89.2734" fill="white" transform="translate(6.78857 131.251)"/>
</clipPath>
<clipPath id="clip8">
<rect x="263.635" y="126.725" width="67.8885" height="67.8885" rx="33.9442" fill="white"/>
</clipPath>
<clipPath id="clip9">
<rect width="45.3357" height="120.502" fill="white" transform="translate(274.947 128.988)"/>
</clipPath>
</defs>
</svg>
