<svg width="322" height="229" viewBox="0 0 322 229" fill="none" xmlns="http://www.w3.org/2000/svg">
<rect x="113.4" y="5.12231" width="96.6" height="89.6" rx="18.2" fill="#FFF5F8"/>
<g clip-path="url(#clip0)">
<path d="M180.26 39.1615C180.26 29.6402 172.532 21.9224 163.01 21.9224C162.205 21.9224 161.411 21.976 160.627 22.0834C152.158 23.1568 145.6 30.3916 145.6 39.1615C145.6 47.4912 151.514 54.4362 159.372 56.0356V67.1133H151.611V73.9939H159.372V80.8852H166.252V73.9939H174.013V67.1133H166.252V56.1C174.228 54.5865 180.26 47.5771 180.26 39.1615ZM162.989 49.4985C157.289 49.4985 152.652 44.8613 152.652 39.1615C152.652 33.4616 157.289 28.8244 162.989 28.8244C168.689 28.8244 173.326 33.4616 173.326 39.1615C173.326 44.8613 168.689 49.4985 162.989 49.4985Z" fill="#F06292"/>
</g>
<rect x="169.4" y="105.922" width="96.6" height="89.6" rx="18.2" fill="url(#paint0_linear)"/>
<path d="M237.999 145.776C237.999 135.488 229.649 127.149 219.362 127.149C218.492 127.149 217.634 127.207 216.787 127.323C207.636 128.483 200.55 136.3 200.55 145.776C200.55 154.776 206.94 162.279 215.43 164.008V175.977H207.045V183.411H215.43V190.857H222.864V183.411H231.249V175.977H222.864V164.077C231.481 162.442 237.999 154.868 237.999 145.776ZM219.338 156.944C213.18 156.944 208.17 151.934 208.17 145.776C208.17 139.617 213.18 134.607 219.338 134.607C225.497 134.607 230.507 139.617 230.507 145.776C230.507 151.934 225.497 156.944 219.338 156.944Z" fill="#F06292"/>
<path d="M204.842 156.28C212.364 163.803 224.544 163.803 232.066 156.28C238.648 149.698 239.467 139.521 234.511 132.054L243.726 122.839V131.235L249.6 125.361V111.522H235.772L229.898 117.396H238.294L229.069 126.611C221.59 121.655 211.424 122.474 204.842 129.056C197.32 136.578 197.32 148.758 204.842 156.28ZM226.624 134.499C231.126 139.001 231.126 146.335 226.624 150.838C222.121 155.34 214.787 155.34 210.285 150.838C205.782 146.335 205.782 139.001 210.285 134.499C214.787 129.985 222.11 129.985 226.624 134.499Z" fill="#64B5F6"/>
<rect x="225.4" y="5.12231" width="96.6" height="89.6" rx="18.2" fill="#E6F4FF"/>
<g clip-path="url(#clip1)">
<path d="M251.427 71.508C259.996 80.0771 273.87 80.0771 282.439 71.508C289.937 64.0101 290.87 52.4167 285.224 43.9107L295.721 33.4136V42.9782L302.413 36.2867V20.5222H286.661L279.969 27.2136H289.534L279.024 37.7107C270.506 32.0652 258.925 32.9977 251.427 40.4957C242.858 49.0647 242.858 62.939 251.427 71.508ZM276.239 46.6956C281.368 51.8244 281.368 60.1793 276.239 65.3081C271.11 70.4369 262.756 70.4369 257.627 65.3081C252.498 60.1793 252.498 51.8244 257.627 46.6956C262.756 41.5542 271.098 41.5542 276.239 46.6956Z" fill="#64B5F6"/>
</g>
<g clip-path="url(#clip2)">
<path d="M67.9583 198.441C67.9583 198.441 70.6283 202.891 72.3447 206.515C74.0612 210.138 74.7605 221.2 74.7605 221.2C74.7605 221.2 47.8059 227.939 34.5828 227.939C21.2962 227.939 18.1176 223.806 18.1176 223.806C18.1176 223.806 17.4183 206.451 18.7533 202.255C20.0248 198.06 23.0763 194.881 23.0763 194.881C23.0763 194.881 66.2418 195.453 67.9583 198.441Z" fill="#1F227C"/>
<path d="M0.572266 109.758C0.572266 109.758 1.08084 151.97 3.94159 164.557C3.94159 164.557 11.8881 181.468 21.2968 186.045C30.7055 190.622 24.9204 160.807 24.9204 160.807L12.651 119.802L0.572266 109.758Z" fill="#4284CC"/>
<path d="M34.2658 7.85163C42.403 5.24517 64.4626 9.18665 68.6584 16.1796C72.8541 23.1725 70.7562 30.6105 70.4384 33.2805C70.1205 36.0141 68.2134 44.0242 68.3405 45.8042C68.5312 47.5843 69.4848 48.7921 69.4848 50.2543C69.4848 51.7165 63.1911 68.5631 55.6896 73.6489C55.6896 73.6489 48.4424 73.0132 42.0216 69.4531C42.0216 69.4531 40.2416 80.0697 40.1144 86.3633C40.1144 86.3633 27.4 88.7155 23.5856 86.3633C23.5856 86.3633 29.3707 70.1524 29.6886 66.2745C30.0064 62.333 20.2163 44.7235 18.9449 40.5278C17.6099 36.3956 20.1527 12.4288 34.2658 7.85163Z" fill="url(#paint1_linear)"/>
<path d="M70.5648 32.5811C70.5648 32.5811 64.0804 43.2612 62.364 46.0584C60.5839 48.8556 54.5446 57.8828 53.4003 61.3793C52.1924 64.9393 51.3024 67.8636 51.366 69.0715C51.4295 70.2794 54.1631 72.8223 55.6889 73.7123C55.6889 73.7123 47.2973 72.6951 42.0208 69.5165L41.5758 72.568C41.5758 72.568 32.9936 74.8566 27.5264 74.6659C27.5264 74.6659 29.6878 68.0544 30.0057 64.685L53.591 31.3096L71.2005 28.1946L70.5648 32.5811Z" fill="url(#paint2_linear)"/>
<path d="M78.1312 20.8204C76.1605 26.9869 70.884 30.5469 70.884 30.5469L71.1383 28.1312C68.9768 30.3562 64.5268 37.6034 63.446 40.7185C62.3017 43.8335 60.6489 47.2664 60.6489 47.2664C60.6489 47.2664 60.3946 42.1806 59.1231 40.4642C57.8517 38.8113 54.5459 38.4299 53.7195 38.8113C52.893 39.1292 50.7952 40.9092 49.2059 44.2149C47.6165 47.5207 49.2059 55.0858 49.2059 55.0858C49.2059 55.0858 47.4894 59.8537 42.3401 63.223C37.1907 66.5924 30.7699 68.881 30.7699 68.881C30.7699 68.881 28.0363 58.9637 24.6034 54.0686C21.8062 50.1272 17.9283 42.2442 17.9283 42.2442L16.4026 41.9899C15.7669 34.997 20.0262 23.6175 20.0262 23.6175C19.3269 22.9182 16.5933 19.4218 17.1654 17.451C17.7376 15.4167 29.4349 5.49945 35.9828 3.02013C42.4672 0.540816 53.7195 0.604388 54.5459 1.4944C55.3088 2.38441 56.3895 4.73658 56.4531 4.86373C56.2624 4.73658 55.6266 4.10086 54.9274 3.91014C54.2281 3.65585 51.3037 3.91014 51.3037 3.91014C51.3037 3.91014 52.003 4.41872 56.7074 5.49945C61.3481 6.64375 69.4854 6.64375 69.4854 6.64375C74.444 10.3945 77.0505 17.2603 77.8769 19.8668C78.0676 20.4389 78.1312 20.8204 78.1312 20.8204Z" fill="#231F20"/>
<path d="M102.097 127.368C102.097 127.368 101.461 118.086 100.508 113.064C100.508 113.064 98.0284 113.509 95.1676 110.902C92.3069 108.232 88.6833 103.909 87.6026 102.384C86.5218 100.794 82.7711 98.1879 81.8175 96.9801C80.8639 95.7722 80.3553 94.1193 80.7368 93.4836C81.1182 92.9114 82.7711 92.8479 83.5339 94.0557C84.2332 95.2636 86.3947 97.9972 87.4118 98.6329C88.3654 99.2687 89.1283 97.8701 88.6197 97.0436C88.1111 96.2172 85.1232 91.7671 83.9154 89.3514C82.7075 86.8721 82.7075 85.0285 83.0889 83.757C83.4704 82.4856 84.4875 82.4856 85.3775 83.1213C86.2675 83.6935 89.1919 89.4785 91.4805 91.8943C93.7055 94.31 88.6833 79.307 89.0011 75.6834C89.3826 72.1233 93.8326 66.9104 93.8326 66.9104C93.8326 66.9104 97.8377 70.6612 99.6177 75.3019C101.398 79.9427 102.415 86.5542 103.623 89.6057C104.831 92.7207 106.293 92.7207 106.293 92.7207C106.293 92.7207 107.882 91.3221 107.755 90.0507C107.755 90.0507 106.166 87.1264 105.975 83.757C105.721 80.3241 108.963 77.6541 110.934 78.2898C110.934 78.2898 109.853 85.6642 110.934 91.195C112.014 96.7258 113.604 99.2687 113.604 101.176C113.604 103.083 108.327 109.504 108.2 111.157C108.073 112.873 111.188 126.096 111.188 126.096C111.188 126.096 103.941 128.194 102.097 127.368Z" fill="url(#paint3_linear)"/>
<path d="M81.5629 107.597C81.5629 107.597 93.7687 109.631 101.016 110.457C101.016 110.457 108.39 85.3463 112.777 65.4482L111.633 63.6682C111.633 63.6682 99.8717 62.1425 90.018 62.3968L80.6729 105.626L81.5629 107.597Z" fill="#868687"/>
<path d="M117.482 151.97C117.418 152.606 116.973 154.259 116.337 156.293C114.812 160.743 112.142 166.973 110.107 167.418C107.12 168.117 96.948 160.87 94.0236 158.137C91.1629 155.403 84.7421 146.121 82.0085 143.833C79.2749 141.608 68.3405 137.984 68.3405 137.984C68.3405 137.984 65.289 146.63 64.3354 156.42C64.1447 158.709 64.0811 161.506 64.1447 164.494C64.3354 174.347 65.7976 186.045 65.7976 186.045C65.7976 186.045 44.7552 193.673 20.6613 189.16C20.6613 189.16 11.3797 170.66 6.23039 147.774C1.08103 124.888 0.445312 105.562 0.445312 103.846C0.445312 102.511 6.86611 96.0901 12.3333 91.7671C14.0498 90.3686 15.7026 89.2243 16.9741 88.5885C16.9741 88.5885 19.7077 81.9135 21.9963 78.1627V78.0991C21.9963 78.0991 26.3192 79.0527 33.0579 78.862C39.7965 78.6077 44.3737 78.0991 44.3737 78.0991C44.3737 78.0991 49.0781 85.9821 50.1588 89.2243C50.1588 89.2243 51.2395 90.0507 52.8924 91.2586C56.1982 93.6743 61.6654 97.5522 65.0347 99.2051C65.5433 99.4594 65.9883 99.6501 66.4333 99.8408C67.2597 100.159 68.0862 100.413 68.9762 100.667C72.8541 101.812 76.9227 102.574 77.4949 103.274C78.1942 104.1 83.0256 112.301 84.4878 115.988C85.95 119.612 91.0993 129.847 94.0236 134.233C95.5494 136.522 97.9651 138.366 99.8723 139.51C101.525 140.527 102.86 141.099 102.86 141.099C102.86 141.099 102.86 140.908 102.797 140.527C102.797 140.463 102.797 140.336 102.797 140.209C102.797 140.146 102.797 140.018 102.797 139.955C102.606 137.285 102.097 130.61 101.652 126.923C101.652 126.795 101.589 126.668 101.589 126.541C101.589 126.414 101.525 126.287 101.525 126.16C101.525 126.033 101.525 125.905 101.462 125.778C101.462 125.715 101.462 125.651 101.462 125.588V125.524C101.462 125.46 101.462 125.46 101.462 125.46C100.889 121.964 100.572 120.947 100.572 120.947C100.572 120.947 98.6644 118.213 98.6644 117.705C98.6644 117.132 102.288 114.208 104.831 113.763C107.374 113.255 108.772 113.763 108.772 113.763C108.772 113.763 111.061 127.495 113.795 135.568C116.465 143.388 117.609 149.999 117.482 151.97Z" fill="#4498CC"/>
<path d="M42.9751 67.2283C42.9751 67.2283 50.5402 72.3776 55.6895 73.7126C55.6895 73.7126 47.0437 72.8226 42.0215 69.5169C42.0215 69.5169 42.6572 67.7368 42.9751 67.2283Z" fill="#BF5B71"/>
<path d="M58.0419 41.6084C58.0419 41.6084 55.1811 42.2441 53.719 45.4863C51.8118 49.6185 52.384 53.1785 53.1468 55.5307C53.1468 55.5307 52.7654 50.8264 54.3547 47.2663C56.0076 43.7699 58.0419 41.6084 58.0419 41.6084Z" fill="url(#paint4_linear)"/>
<path d="M55.2444 44.7871C55.2444 44.7871 56.1344 47.1392 55.2444 50.1907C54.5451 52.5429 53.1465 52.7972 53.1465 52.7972C53.1465 52.7972 54.1001 53.4965 55.6258 52.1614C57.6601 50.3814 56.8337 43.1978 56.8337 43.1978L55.2444 44.7871Z" fill="url(#paint5_linear)"/>
<path d="M58.6138 39.9557C58.6138 39.9557 54.6088 42.2443 53.2102 43.8336C51.8116 45.4229 50.2858 51.7801 50.2858 51.7801C50.2858 51.7801 49.0144 47.5208 49.3323 45.0414C49.6501 42.5621 52.638 39.6378 53.7188 38.8749C53.7188 38.8114 57.7238 38.9385 58.6138 39.9557Z" fill="url(#paint6_linear)"/>
<path d="M52.065 55.5308C52.065 55.5308 53.9086 56.9293 55.1164 56.2301C55.1164 56.2301 54.6078 58.1372 53.2093 58.1372C51.8107 58.1372 52.065 55.5308 52.065 55.5308Z" fill="url(#paint7_linear)"/>
<path d="M52.0024 58.8367C52.0024 58.8367 50.0317 57.2474 49.2052 55.0859C49.2052 55.0859 46.7895 59.3453 45.2002 60.9982C45.2638 60.9982 49.1417 59.536 52.0024 58.8367Z" fill="#BF5B71"/>
<path opacity="0.69" d="M116.336 156.293C114.81 160.743 112.14 166.973 110.106 167.482C107.118 168.181 96.9464 160.934 94.0221 158.2C91.1614 155.466 84.7406 146.185 82.007 143.896C79.2734 141.671 68.3389 138.048 68.3389 138.048C68.3389 138.048 65.2875 146.694 64.3339 156.484C64.1432 158.772 64.0796 161.569 64.1432 164.557L57.5317 159.662L52.0645 108.232L59.566 99.9679L65.1603 99.2051C65.6689 99.4594 66.1139 99.6501 66.5589 99.8408C67.3854 100.159 68.2118 100.413 69.1018 100.667C69.1018 100.667 66.3682 104.1 65.4146 108.296C64.461 112.492 67.2582 122.091 67.2582 122.091L76.5398 131.182L86.902 135.759C86.902 135.759 71.3268 134.488 70.9454 134.361C71.3904 134.615 83.4691 141.544 84.3591 142.371C85.2492 143.197 105.465 159.154 110.297 159.535C110.297 159.535 108.517 147.901 107.627 145.231C106.737 142.561 102.986 140.972 102.986 140.972C102.986 140.972 102.986 140.781 102.922 140.4C102.922 140.336 102.922 140.209 102.922 140.082C102.922 140.018 102.922 139.891 102.922 139.828C102.732 137.094 102.159 130.228 101.778 126.795C101.778 126.668 101.714 126.541 101.714 126.414C101.714 126.287 101.651 126.16 101.651 126.033C101.651 125.905 101.651 125.778 101.587 125.651C101.587 125.588 101.587 125.524 101.587 125.46V125.397C101.842 126.668 104.13 137.412 104.512 138.747C104.893 140.209 108.517 145.104 110.551 148.156C112.458 151.144 116.336 156.293 116.336 156.293Z" fill="#4284CC"/>
<path d="M69.9293 197.17C69.9293 197.17 58.677 201.493 44.8818 201.493C31.0866 201.493 19.3258 200.666 18.5629 199.395C17.8 198.187 20.5972 194.627 20.9151 194.246C20.9151 194.246 20.6608 193.546 20.1522 192.338C17.355 185.345 7.69205 160.934 6.03917 152.542C4.132 142.688 -0.318051 104.227 -0.063762 103.147C0.190527 102.129 0.826249 101.621 0.826249 101.621C3.87772 97.6157 14.8757 88.7156 14.8757 88.7156C14.8757 88.7156 15.13 87.6985 15.575 87.5077C16.0836 87.3806 17.6093 86.7449 17.6093 86.7449L16.8465 88.5249C16.8465 88.5249 17.1643 89.6692 20.2794 90.2413C23.3944 90.8135 36.9988 91.7671 41.8939 90.8771C46.789 89.9871 49.3954 87.5077 49.3954 87.5077C49.3954 87.5077 51.1119 86.8084 51.4933 87.5077C51.8747 88.1435 51.4933 89.4149 51.4933 89.4149C51.4933 89.4149 56.3884 93.8014 59.122 95.0093C61.8556 96.2171 67.5771 96.8529 67.5771 96.8529C68.5307 98.6964 68.8485 100.604 68.8485 100.604C68.8485 100.604 64.3349 102.129 63.5085 103.528C62.682 104.99 56.5791 128.385 58.7406 138.683C60.3934 146.376 64.7799 151.843 64.7799 151.843L65.2249 149.173L67.7042 152.161C67.7042 152.161 66.7506 156.484 66.2421 162.777C65.7335 169.007 68.8485 191.957 68.8485 191.957C70.6286 193.546 69.9293 197.17 69.9293 197.17Z" fill="#6CE5E5"/>
<path opacity="0.69" d="M69.9282 197.17C69.9282 197.17 58.6759 201.493 44.8807 201.493C31.0856 201.493 19.3247 200.666 18.5618 199.395C17.799 198.187 20.5961 194.627 20.914 194.245C20.7869 194.5 19.8333 196.28 20.1511 197.106C20.469 198.06 40.8757 200.031 50.4751 199.013C50.4751 199.013 32.802 197.297 22.8847 193.483C21.1683 192.847 19.8333 191.448 19.1976 189.795C15.5739 180.705 7.56383 160.044 6.10167 152.478C4.19451 142.625 -0.255551 104.164 -0.001262 103.083C0.253027 102.066 0.888749 101.557 0.888749 101.557C3.94022 97.5521 14.9382 88.652 14.9382 88.652C14.9382 88.652 15.1925 87.6348 15.6375 87.4441C15.6375 87.4441 15.7011 89.987 16.2732 90.8134C16.909 91.6399 26.6991 94.1192 32.5477 93.9285C38.2056 93.7377 50.7929 89.6691 51.5558 89.4148C50.8565 89.7327 41.5114 93.992 39.2228 94.5642C36.8071 95.1999 25.4276 97.1071 19.9604 96.8528C14.4932 96.5985 1.71519 101.621 1.71519 101.621C1.71519 101.621 0.888749 121.201 2.98663 130.864C4.83023 139.319 10.2974 155.657 12.9039 162.141C15.4468 168.626 21.359 188.905 23.584 190.558C25.8091 192.211 54.0351 195.898 58.5488 188.015C63.0624 180.132 62.0452 152.86 62.0452 152.86C62.0452 152.86 57.2137 142.243 56.2602 133.343C55.3066 124.443 61.8545 98.5692 67.6396 96.8528C68.5932 98.6964 68.911 100.604 68.911 100.604C68.911 100.604 64.3974 102.129 63.571 103.528C62.7445 104.99 56.6416 128.385 58.8031 138.683C60.4559 146.376 64.8424 151.843 64.8424 151.843L65.2874 149.173L67.7667 152.161C67.7667 152.161 66.8131 156.484 66.3046 162.777C65.796 169.007 68.911 191.957 68.911 191.957C70.6275 193.546 69.9282 197.17 69.9282 197.17Z" fill="#30B7B3"/>
<path d="M44.2461 92.657C44.2461 92.657 57.787 102.002 62.682 103.337C62.682 103.337 64.8435 97.9335 67.6407 96.8527C67.6407 96.8527 61.7285 96.217 59.8213 95.2634C57.9141 94.3099 51.5569 89.4148 51.5569 89.4148C51.5569 89.4148 45.3268 92.212 44.2461 92.657Z" fill="#6CE5E5"/>
<path d="M111.633 63.668C111.633 63.668 101.906 104.354 100.317 107.724L80.6729 105.562L90.018 62.333C90.018 62.333 104.067 62.2694 111.633 63.668Z" fill="#CCCCCC"/>
<path d="M90.2097 65.321C88.9383 66.5924 81.5639 102.638 81.7546 103.528C82.0089 104.418 99.5548 106.389 100.445 105.562C101.271 104.736 109.981 67.8639 109.981 66.4017C109.917 65.5117 90.8454 64.6852 90.2097 65.321Z" fill="#E6E7E8"/>
<path d="M107.882 111.093C107.882 111.093 103.75 108.741 103.051 103.21C102.351 97.6157 103.941 95.0728 104.513 94.31C105.085 93.5471 107.373 91.5128 107.501 89.9871C107.501 89.9871 105.911 87.762 105.784 84.5199C105.657 81.3412 107.183 78.9891 108.518 78.3534C109.789 77.7812 110.616 78.1626 110.616 78.1626C110.616 78.1626 109.662 84.4563 110.234 88.3978C110.87 92.3392 113.349 100.476 113.222 101.112C113.222 101.684 107.882 111.093 107.882 111.093Z" fill="url(#paint8_linear)"/>
<path opacity="0.69" d="M31.0869 185.918C31.0869 185.918 45.1364 184.455 49.5864 180.768C54.0365 177.081 57.4058 166.973 57.4058 166.973C57.4058 166.973 50.54 175.174 45.1364 178.543C39.7327 181.913 31.0869 185.918 31.0869 185.918Z" fill="#2FA0AF"/>
<path d="M77.5577 103.21C77.5577 103.21 70.1197 104.037 68.3397 107.724C68.3397 107.724 64.9068 119.612 70.0561 123.617C75.2691 127.622 95.8029 136.268 95.8029 136.268C95.8029 136.268 90.3993 128.957 86.9028 121.964C83.4063 114.971 77.5577 103.21 77.5577 103.21Z" fill="#4284CC"/>
<path d="M95.6758 63.5408C95.6758 63.5408 101.016 63.6043 104.258 63.9858L103.877 64.3672L95.7394 63.8586L95.6758 63.5408Z" fill="#F1F2F2"/>
<path d="M87.2211 75.2383L104.894 91.0678L101.716 103.21L84.9961 85.4098L87.2211 75.2383Z" fill="#E6E7E8"/>
<path d="M99.1723 113C99.1723 113 101.906 110.394 102.16 110.076C102.478 109.758 103.05 103.21 103.05 103.21L100.952 110.457L93.7051 109.504C93.7051 109.504 95.358 111.856 99.1723 113Z" fill="url(#paint9_linear)"/>
<path d="M109.345 74.6661L110.998 68.436H111.252C111.252 68.436 111.252 71.6146 109.599 74.7933L109.345 74.6661Z" fill="#F1F2F2"/>
<path d="M70.311 34.1707C70.311 34.1707 67.5774 44.1515 67.4502 45.0415C67.2595 45.9315 68.0224 50.1273 67.9588 51.3987C67.7681 55.2131 60.8387 67.9911 58.9951 70.7883C58.9951 70.7883 66.7509 61.5067 69.7388 50.1273C69.7388 50.1273 69.0395 48.4108 68.531 46.313C68.0859 44.8508 70.311 34.1707 70.311 34.1707Z" fill="url(#paint10_linear)"/>
<path d="M70.8828 30.5469L71.1371 28.1311C71.1371 28.1311 75.7779 25.2068 78.13 20.8203C78.13 20.8203 76.0957 28.004 70.8828 30.5469Z" fill="url(#paint11_linear)"/>
<path d="M51.6201 89.4148C51.6201 89.4148 53.718 91.6398 55.2437 93.547C56.7695 95.4542 59.8845 96.9799 61.601 97.107C63.3174 97.2342 67.7039 96.8527 67.7039 96.8527C67.7039 96.8527 62.5545 96.217 59.9481 95.0092C57.3416 93.8013 51.6201 89.4148 51.6201 89.4148Z" fill="#6CE5E5"/>
<path opacity="0.69" d="M2.09863 118.594C2.09863 118.594 5.21367 127.24 7.37513 129.91C9.53658 132.58 17.801 139.319 25.1118 140.781C25.1118 140.781 15.9574 135.886 10.2359 130.228C4.51438 124.57 2.09863 118.594 2.09863 118.594Z" fill="#2FA0AF"/>
<path d="M2.09863 118.594C2.09863 118.594 8.96443 126.477 15.5759 131.945C22.1875 137.412 25.1118 140.781 25.1118 140.781C25.1118 140.781 19.0724 137.475 13.6052 133.153C8.07442 128.893 6.2944 125.842 5.27724 124.252C4.26009 122.663 2.09863 118.594 2.09863 118.594Z" fill="#2FA0AF"/>
<path opacity="0.4" d="M76.4775 131.118C76.4775 131.118 73.9982 131.436 69.7389 131.118C65.4795 130.8 60.9023 129.719 60.9023 129.719C60.9023 129.719 68.976 134.17 70.8196 134.36C72.7268 134.551 86.7762 135.759 86.7762 135.759C86.7762 135.759 78.0668 131.69 76.4775 131.118Z" fill="#4284CC"/>
<path d="M68.9753 100.604L67.1953 101.303C67.1953 101.303 74.5061 102.384 75.2054 103.337C75.8411 104.291 81.1176 110.648 86.2034 122.472C91.2892 134.297 98.0278 138.111 98.0278 138.111C98.0278 138.111 93.1328 133.788 90.7806 128.575C88.4284 123.362 80.9269 106.325 77.494 102.765L68.9753 100.604Z" fill="#4284CC"/>
<path d="M44.5 79.1161C44.5 79.1161 48.6322 84.8376 49.5222 87.5076C49.5222 87.5076 46.3436 79.8154 44.5 77.7175V79.1161Z" fill="#4498CC"/>
<path d="M68.9761 192.02C68.9761 192.02 67.3868 194.372 62.0467 196.216C55.9438 198.314 50.4766 199.14 50.4766 199.14C50.4766 199.14 54.9902 198.822 61.6017 197.678C68.2132 196.534 69.9932 194.309 69.9932 194.309C69.9932 194.309 69.9932 192.656 68.9761 192.02Z" fill="#6CE5E5"/>
<path d="M39.2871 78.4803L41.5121 72.5681L40.7493 78.4803H39.2871Z" fill="url(#paint12_linear)"/>
</g>
<defs>
<linearGradient id="paint0_linear" x1="217.7" y1="105.922" x2="217.7" y2="195.522" gradientUnits="userSpaceOnUse">
<stop stop-color="#FFF5F8"/>
<stop offset="1" stop-color="#E6F4FF"/>
</linearGradient>
<linearGradient id="paint1_linear" x1="44.912" y1="87.5084" x2="44.912" y2="7.06225" gradientUnits="userSpaceOnUse">
<stop offset="0.0159875" stop-color="#FFC2A9"/>
<stop offset="1" stop-color="#FF9595"/>
</linearGradient>
<linearGradient id="paint2_linear" x1="49.3253" y1="74.6626" x2="49.3253" y2="28.1342" gradientUnits="userSpaceOnUse">
<stop offset="0.00558659" stop-color="#F48781"/>
<stop offset="1" stop-color="#EF7A8E"/>
</linearGradient>
<linearGradient id="paint3_linear" x1="96.9323" y1="127.548" x2="96.9323" y2="66.851" gradientUnits="userSpaceOnUse">
<stop offset="0.0159875" stop-color="#FFC2A9"/>
<stop offset="1" stop-color="#FF9595"/>
</linearGradient>
<linearGradient id="paint4_linear" x1="55.2449" y1="55.5282" x2="55.2449" y2="41.636" gradientUnits="userSpaceOnUse">
<stop stop-color="#DB5F69"/>
<stop offset="1" stop-color="#DC505E"/>
</linearGradient>
<linearGradient id="paint5_linear" x1="55.0937" y1="52.9052" x2="55.0937" y2="43.0828" gradientUnits="userSpaceOnUse">
<stop stop-color="#DB5F69"/>
<stop offset="1" stop-color="#DC505E"/>
</linearGradient>
<linearGradient id="paint6_linear" x1="53.9333" y1="51.7542" x2="53.9333" y2="38.8255" gradientUnits="userSpaceOnUse">
<stop stop-color="#FF9595"/>
<stop offset="0.984" stop-color="#FFC2A9"/>
</linearGradient>
<linearGradient id="paint7_linear" x1="53.5524" y1="58.1782" x2="53.5524" y2="55.5282" gradientUnits="userSpaceOnUse">
<stop offset="0.0159875" stop-color="#FFC2A9"/>
<stop offset="1" stop-color="#FF9595"/>
</linearGradient>
<linearGradient id="paint8_linear" x1="108.104" y1="111.097" x2="108.104" y2="78.0682" gradientUnits="userSpaceOnUse">
<stop offset="0.0159875" stop-color="#FFC2A9"/>
<stop offset="1" stop-color="#FF9595"/>
</linearGradient>
<linearGradient id="paint9_linear" x1="98.3881" y1="112.999" x2="98.3881" y2="103.184" gradientUnits="userSpaceOnUse">
<stop stop-color="#FF817F"/>
<stop offset="1" stop-color="#CF6074"/>
</linearGradient>
<linearGradient id="paint10_linear" x1="64.6298" y1="70.7646" x2="64.6298" y2="34.1865" gradientUnits="userSpaceOnUse">
<stop offset="0.0159875" stop-color="#FFC2A9"/>
<stop offset="1" stop-color="#FF9595"/>
</linearGradient>
<linearGradient id="paint11_linear" x1="74.5128" y1="30.5634" x2="74.5128" y2="20.8368" gradientUnits="userSpaceOnUse">
<stop stop-color="#382763"/>
<stop offset="1" stop-color="#5B38AE"/>
</linearGradient>
<linearGradient id="paint12_linear" x1="40.4081" y1="78.4972" x2="40.4081" y2="72.5539" gradientUnits="userSpaceOnUse">
<stop offset="0.0159875" stop-color="#FFC2A9"/>
<stop offset="1" stop-color="#FF9595"/>
</linearGradient>
<clipPath id="clip0">
<rect width="34.6607" height="58.9629" fill="white" transform="translate(145.6 21.9224)"/>
</clipPath>
<clipPath id="clip1">
<rect width="57.4" height="57.4" fill="white" transform="translate(245 20.5222)"/>
</clipPath>
<clipPath id="clip2">
<rect width="117.481" height="227.08" fill="white" transform="translate(0 0.922363)"/>
</clipPath>
</defs>
</svg>
