<svg width="193" height="252" viewBox="0 0 193 252" fill="none" xmlns="http://www.w3.org/2000/svg">
<path d="M192.011 90.8032H114.795V251.6H192.011V90.8032Z" fill="#BEE3FF"/>
<path d="M192.01 90.803H134.239V251.6H192.01V90.803Z" fill="#4CA9EE"/>
<path d="M77.2156 180.481H0V251.593H77.2156V180.481Z" fill="#DCF0FF"/>
<path d="M77.2154 180.481H19.4443V251.592H77.2154V180.481Z" fill="#4CA9EE"/>
<path d="M41.293 108.521L59.6509 133.53L81.6233 142.454C81.6233 142.454 83.7658 143.372 87.0335 142.316C90.3013 141.26 92.3821 133.206 81.1146 137.422L64.7528 128.058L48.2909 102.062L41.293 108.521Z" fill="#FFC397" stroke="black" stroke-width="0.0770692" stroke-miterlimit="10"/>
<path d="M160.643 235.739L161.645 244.81C161.645 244.81 145.992 244.995 144.705 244.81C143.418 244.625 143.233 241.142 150.963 240.756C153.06 240.656 154.239 235.338 154.239 235.338L160.643 235.739Z" fill="white" stroke="black" stroke-width="0.0770692" stroke-miterlimit="10"/>
<path d="M168.812 76.0287L177.498 74.0635C177.498 74.0635 179.386 89.223 179.348 90.4946C179.309 91.7663 175.949 92.3212 174.731 84.8686C174.4 82.8494 169.113 82.2868 169.113 82.2868L168.812 76.0287Z" fill="white" stroke="black" stroke-width="0.0770692" stroke-miterlimit="10"/>
<path d="M126.1 80.699L128.143 89.3693C128.143 89.3693 112.999 91.3962 111.727 91.3731C110.455 91.3499 109.87 87.9897 117.315 86.7104C119.334 86.3636 119.85 81.0689 119.85 81.0689L126.1 80.699Z" fill="white" stroke="black" stroke-width="0.0770692" stroke-miterlimit="10"/>
<path d="M130.254 235.739L131.256 244.81C131.256 244.81 115.604 244.995 114.317 244.81C113.029 244.625 112.844 241.142 120.575 240.756C122.671 240.656 123.85 235.338 123.85 235.338L130.254 235.739Z" fill="white" stroke="black" stroke-width="0.0770692" stroke-miterlimit="10"/>
<path d="M153.837 131.426L166.315 134.039L174.161 156.574C174.161 156.574 177.22 160.72 176.419 164.342C175.617 167.965 168.404 164.766 169.937 157.583L161.645 140.497L150.886 138.385L153.837 131.426Z" fill="#FFC397" stroke="black" stroke-width="0.0770692" stroke-miterlimit="10"/>
<path d="M120.343 146.778L109.669 153.753L88.1823 143.364C88.1823 143.364 83.6584 140.882 81.6623 137.753C79.6662 134.624 86.7257 132.482 90.4559 139.665L108.398 145.884L117.499 139.765L120.343 146.778Z" fill="#FFC397" stroke="black" stroke-width="0.0770692" stroke-miterlimit="10"/>
<path d="M135.164 166.978L119.974 203.902L121.029 237.034H131.58L131.788 208.333L143.603 185.336L150.986 238.09H162.169C162.169 238.09 160.026 225.604 158.585 205.805C157.291 188.118 159.641 174.785 154.154 161.914L135.164 166.978Z" fill="black"/>
<path d="M113.746 141.337C113.746 141.337 123.033 133.954 124.929 132.474C126.825 130.994 139.911 125.931 142.447 126.987C144.982 128.043 160.674 131.881 160.674 131.881L158.138 140.744L147.51 140.274L157.005 165.383L131.68 170.654L124.505 146.385L118.178 149.553L113.746 141.337Z" fill="#29E7CD"/>
<path d="M133.861 118.733L135.603 130.817C134.015 132.489 132.32 132.89 130.54 132.374L128.374 124.019C128.374 124.019 125.322 126.663 123.904 125.037C122.478 123.411 121.669 114.871 121.669 114.871C121.669 114.871 130.401 109.176 133.861 118.733Z" fill="#FFC397" stroke="black" stroke-width="0.0770692" stroke-miterlimit="10"/>
<path d="M121.861 115.889C117.514 116.937 119.626 111.211 123.688 111.82C123.688 111.82 122.871 109.176 126.131 108.567C129.391 107.959 132.635 113.245 132.635 113.245C132.635 113.245 134.462 111.82 135.479 114.872C136.497 117.924 134.262 123.411 134.262 123.411L130.47 118.818C130.47 118.818 131.009 127.881 125.314 128.69C119.618 129.507 122.871 121.777 122.871 121.777C122.871 121.777 125.715 120.96 127.549 118.725C129.391 116.498 127.757 114.463 121.861 115.889Z" fill="#000048"/>
<path d="M130.478 116.852C130.478 116.852 132.412 115.457 133.167 117.068C133.923 118.679 130.647 120.983 130.647 120.983" fill="#FFC397"/>
<path d="M130.478 116.852C130.478 116.852 132.412 115.457 133.167 117.068C133.923 118.679 130.647 120.983 130.647 120.983" stroke="black" stroke-width="0.0770692" stroke-miterlimit="10"/>
<path d="M140.227 51.7671C140.227 51.7671 118.702 50.9194 116.382 56.6225C114.062 62.3179 118.917 84.4753 118.917 84.4753L129.044 83.4194L127.564 65.6935C127.564 65.6935 151.202 66.3255 156.473 61.894C161.745 57.4625 154.153 39.3127 154.153 39.3127L140.227 51.7671Z" fill="black"/>
<path d="M121.762 139.233L124.505 146.408" stroke="#131930" stroke-width="0.0770692" stroke-miterlimit="10"/>
<path d="M141.175 139.233L147.51 140.289" stroke="black" stroke-width="0.0770692" stroke-miterlimit="10"/>
<path d="M142.37 8.64688L154.817 5.89551L171.248 23.1975C171.248 23.1975 176.419 28.654 174.94 32.0297C173.452 35.4284 169.082 30.1338 167.811 25.8487L153.221 13.6949L142.547 16.2074L142.37 8.64688Z" fill="#FFC397" stroke="black" stroke-width="0.0770692" stroke-miterlimit="10"/>
<path d="M120.937 29.5173L113.739 53.5629L95.2345 71.2965C95.2345 71.2965 93.4542 73.3928 89.7471 73.3157C82.834 73.177 80.8765 66.3178 93.0611 66.2176L106.356 51.8674L113.423 28.6233L120.937 29.5173Z" fill="#FFC397" stroke="black" stroke-width="0.0770692" stroke-miterlimit="10"/>
<path d="M58.8803 104.837L84.2052 95.9741L93.23 72.3909C93.23 72.3909 94.07 70.3254 92.9911 67.2195C91.9198 64.1137 85.6772 65.1618 88.4209 72.9689L79.766 88.7912L56.7686 96.5983L58.8803 104.837Z" fill="#FFC397" stroke="black" stroke-width="0.0770692" stroke-miterlimit="10"/>
<path d="M108.035 43.3822C108.035 43.3822 113.885 26.7814 115.01 24.6543C116.135 22.5272 127.418 9.38693 130.162 9.30986C132.905 9.22508 148.789 6.26562 148.789 6.26562L150.13 15.3829L140.25 19.3366L158.061 39.2127L140.335 51.8752L124.081 37.5249L117.106 44.438L108.035 43.3822Z" fill="#29E7CD"/>
<path d="M117.676 6.78947L124.297 15.3673C124.297 17.6871 122.093 20.3305 120.266 20.5926L114.802 13.8953C114.802 13.8953 113.16 17.5406 111.195 16.6466C109.23 15.7526 104.968 8.30003 104.968 8.30003C104.968 8.30003 110.586 -0.493568 117.676 6.78947Z" fill="#FFC397" stroke="black" stroke-width="0.0770692" stroke-miterlimit="10"/>
<path d="M105.569 9.1325C102.04 11.8762 101.608 5.7954 105.562 4.67019C105.562 4.67019 103.735 2.59703 106.448 0.701126C109.161 -1.19478 112.583 1.32539 112.583 1.32539C112.583 1.32539 114.617 -0.400963 116.806 1.95735C118.987 4.31567 118.918 8.70862 118.918 8.70862L114.486 7.44468C114.486 7.44468 113.877 8.25391 112.798 8.70862C112.76 8.73174 110.355 5.41005 105.569 9.1325Z" fill="#000048"/>
<path d="M113.815 6.46603C113.815 6.46603 115.002 4.40057 116.351 5.55661C117.7 6.71265 115.673 10.1653 115.673 10.1653" fill="#FFC397"/>
<path d="M113.815 6.46603C113.815 6.46603 115.002 4.40057 116.351 5.55661C117.7 6.71265 115.673 10.1653 115.673 10.1653" stroke="black" stroke-width="0.0770692" stroke-miterlimit="10"/>
<path d="M51.0657 89.3077L48.2373 100.005C49.1544 102.186 52.2757 103.804 54.1023 103.319L56.5916 94.849C56.5916 94.849 59.5819 97.6312 61.077 96.005C62.5722 94.3789 64.576 83.5198 64.576 83.5198C64.576 83.5198 54.8498 79.6433 51.0657 89.3077Z" fill="#FFC397" stroke="black" stroke-width="0.0770692" stroke-miterlimit="10"/>
<path d="M116.358 28.9702L125.984 39.2127" stroke="#131930" stroke-width="0.0770692" stroke-miterlimit="10"/>
<path d="M134.046 20.9781L140.25 19.3289" stroke="black" stroke-width="0.0770692" stroke-miterlimit="10"/>
<path d="M157.953 39.1047C157.953 39.1047 165.336 46.488 164.704 53.6631C164.072 60.8382 146.554 73.7088 146.554 73.7088L171.032 74.7647V83.6276C171.032 83.6276 140.011 85.9474 133.26 82.5718C126.509 79.1961 144.659 49.0235 144.659 49.0235L157.953 39.1047Z" fill="black"/>
<path d="M11.8299 165.182L3.14419 163.217C3.14419 163.217 1.25599 178.377 1.29453 179.648C1.33306 180.92 4.69328 181.475 5.91097 174.022C6.24237 172.003 11.5293 171.44 11.5293 171.44L11.8299 165.182Z" fill="white" stroke="black" stroke-width="0.0770692" stroke-miterlimit="10"/>
<path d="M54.2105 171.54L53.1777 180.388C53.1777 180.388 68.4528 180.673 69.7091 180.496C70.9653 180.326 71.1657 176.928 63.6283 176.504C61.586 176.388 60.4685 171.194 60.4685 171.194L54.2105 171.54Z" fill="white" stroke="black" stroke-width="0.0770692" stroke-miterlimit="10"/>
<path d="M42.7344 112.035L56.4065 130.833L62.7724 124.351L56.1598 105.153L42.7344 112.035Z" fill="white" stroke="black" stroke-width="0.0770692" stroke-miterlimit="10"/>
<path d="M44.8467 138.493C44.8467 138.493 62.5726 143.241 64.8924 148.936C67.2122 154.631 63.1815 174.569 63.1815 174.569L53.0546 173.513L54.5574 154.947C54.5574 154.947 31.9762 148.828 26.7046 144.397C21.4331 139.965 27.1285 131.634 27.1285 131.634L44.8467 138.493Z" fill="#000048"/>
<path d="M23.3208 131.426C23.3208 131.426 15.9376 138.809 16.5696 145.984C17.2015 153.16 34.7194 166.03 34.7194 166.03L10.2422 164.55V173.413C10.2422 173.413 41.2625 178.269 48.0138 174.893C54.7651 171.517 36.6153 141.345 36.6153 141.345L23.3208 131.426Z" fill="#000048"/>
<path d="M22.373 132.69L46.6421 95.9741L66.6878 93.2305L71.9594 103.573L59.7208 106.949L44.7385 138.601C44.7462 138.601 27.8604 142.393 22.373 132.69Z" fill="white" stroke="black" stroke-width="0.0770692" stroke-miterlimit="10"/>
<path d="M48.6766 90.4636C48.6766 90.4636 44.5225 76.7761 56.0906 77.7395C67.6587 78.7029 64.7147 83.5351 64.7147 83.5351C64.7147 83.5351 59.6666 90.7411 56.5684 87.3038C53.4703 83.8665 56.291 93.2073 51.2969 92.1591C51.2969 92.1591 48.3066 101.708 40.1373 104.151C31.968 106.594 30.6963 113.315 30.6963 113.315C26.5962 108.205 36.9775 92.8759 48.6766 90.4636Z" fill="#000048"/>
<path d="M55.4199 86.6333C55.4199 86.6333 53.4855 85.1613 52.6686 86.7874C51.8516 88.4136 55.3506 90.849 55.3506 90.849" fill="#FFC397"/>
<path d="M55.4199 86.6333C55.4199 86.6333 53.4855 85.1613 52.6686 86.7874C51.8516 88.4136 55.3506 90.849 55.3506 90.849" stroke="black" stroke-width="0.0770692" stroke-miterlimit="10"/>
<path d="M175.757 244.904H98.541V251.601H175.757V244.904Z" fill="#4CA9EE"/>
</svg>
