<svg width="218" height="294" viewBox="0 0 218 294" fill="none" xmlns="http://www.w3.org/2000/svg">
<g clip-path="url(#clip0)">
<path d="M102.233 247.147L18.2823 247.08C8.20015 247.08 0 238.88 0 228.798L0.0672143 18.2823C0.0672143 8.20015 8.26736 0 18.3495 0L102.3 0.0672143C112.382 0.0672143 120.582 8.26736 120.582 18.3495L120.515 228.865C120.515 238.947 112.382 247.147 102.233 247.147Z" fill="#263238"/>
<path d="M102.031 7.52798H85.7653C83.6144 7.52798 81.7996 9.40998 81.7996 11.6281V14.5855C81.7996 16.8708 80.0521 18.6856 77.834 18.6856H46.1088C43.958 18.6856 42.1432 16.8036 42.1432 14.5183V11.5608C42.1432 9.27556 40.3956 7.46077 38.1775 7.39355H32.4643H18.2149C11.1574 7.39355 5.37695 13.1068 5.37695 20.2315V225.773C5.37695 232.83 11.0902 238.611 18.1477 238.611L101.964 238.678C109.021 238.678 114.802 232.965 114.802 225.84L114.869 20.3659C114.802 13.3084 109.089 7.5952 102.031 7.52798Z" fill="white"/>
<path d="M115.743 40.1948C115.743 40.262 91.0077 40.3964 60.4924 40.3964C29.9771 40.3964 5.24219 40.3292 5.24219 40.1948C5.24219 40.1276 29.9771 39.9932 60.4924 39.9932C91.0077 40.0604 115.743 40.1276 115.743 40.1948Z" fill="#263238"/>
<path d="M16.8036 32.5986C16.7364 32.5986 16.6691 32.5986 16.6019 32.5314L13.3756 29.7084C13.3084 29.6412 13.2412 29.574 13.2412 29.4396C13.2412 29.3724 13.3084 29.2379 13.3756 29.1707L16.6019 26.5493C16.7364 26.4149 16.938 26.4821 17.0724 26.6166C17.2069 26.751 17.1396 26.9526 17.0052 27.0871L14.115 29.4396L17.0052 31.9937C17.1396 32.1281 17.1396 32.3298 17.0052 32.4642C17.0052 32.5314 16.938 32.5986 16.8036 32.5986Z" fill="#263238"/>
<path d="M86.505 29.2388C86.505 29.306 76.0868 29.4404 63.2488 29.4404C50.4109 29.4404 39.9927 29.3732 39.9927 29.2388C39.9927 29.1715 50.4109 29.0371 63.2488 29.0371C76.0868 29.1043 86.505 29.1715 86.505 29.2388Z" fill="#263238"/>
<path d="M99.948 29.2382C99.948 29.9103 99.4103 30.448 98.7382 30.448C98.066 30.448 97.5283 29.9103 97.5283 29.2382C97.5283 28.566 98.066 28.0283 98.7382 28.0283C99.4103 28.0283 99.948 28.566 99.948 29.2382Z" fill="#263238"/>
<path d="M103.443 29.2382C103.443 29.9103 102.905 30.448 102.233 30.448C101.561 30.448 101.023 29.9103 101.023 29.2382C101.023 28.566 101.561 28.0283 102.233 28.0283C102.905 28.0283 103.443 28.566 103.443 29.2382Z" fill="#263238"/>
<path d="M106.938 29.2382C106.938 29.9103 106.401 30.448 105.728 30.448C105.056 30.448 104.519 29.9103 104.519 29.2382C104.519 28.566 105.056 28.0283 105.728 28.0283C106.401 28.0283 106.938 28.566 106.938 29.2382Z" fill="#263238"/>
<path d="M50.0075 85.3625C50.0075 86.169 49.6714 86.6395 49.1337 86.6395C48.8648 86.6395 48.6632 86.5051 48.5287 86.2363C48.3271 86.5051 48.0582 86.6395 47.7222 86.6395C47.1172 86.6395 46.6467 86.169 46.6467 85.4969C46.6467 84.8248 47.1172 84.3543 47.7222 84.3543C48.0582 84.3543 48.3271 84.4887 48.4615 84.6903V84.4215H49.0665V85.9674C49.0665 86.169 49.2009 86.3035 49.2681 86.3035C49.537 86.3035 49.6714 86.0346 49.6714 85.4969C49.6714 84.5559 48.9992 83.8838 47.9238 83.8838C46.8484 83.8838 46.1762 84.5559 46.1762 85.5641C46.1762 86.5723 46.8484 87.2445 47.9238 87.2445C48.1927 87.2445 48.5287 87.1773 48.7976 87.0428L48.932 87.3789C48.6632 87.5133 48.2599 87.5805 47.9238 87.5805C46.6467 87.5805 45.7729 86.7068 45.7729 85.4969C45.7729 84.287 46.6467 83.4805 47.9238 83.4805C49.2009 83.346 50.0075 84.2198 50.0075 85.3625ZM48.5287 85.4297C48.5287 84.9592 48.2599 84.7575 47.8566 84.7575C47.4533 84.7575 47.1844 85.0264 47.1844 85.4297C47.1844 85.833 47.4533 86.169 47.8566 86.169C48.2599 86.169 48.5287 85.9002 48.5287 85.4297Z" fill="#263238"/>
<path d="M75.4142 86.5723C75.4142 86.6395 70.5747 86.7739 64.5254 86.7739C58.5434 86.7739 53.6367 86.7067 53.6367 86.5723C53.6367 86.505 58.4761 86.3706 64.5254 86.3706C70.5747 86.3706 75.4142 86.4378 75.4142 86.5723Z" fill="#263238"/>
<path d="M32.4648 117.29C32.4648 117.357 31.7926 117.492 30.986 117.492C30.1795 117.492 29.5073 117.424 29.5073 117.29C29.5073 117.223 30.1795 117.088 30.986 117.088C31.7926 117.088 32.4648 117.223 32.4648 117.29Z" fill="#263238"/>
<path d="M39.5891 124.549C39.5891 124.616 35.9595 124.75 31.4562 124.75C26.9528 124.75 23.3232 124.683 23.3232 124.549C23.3232 124.414 26.9528 124.347 31.4562 124.347C35.9595 124.414 39.5891 124.482 39.5891 124.549Z" fill="#263238"/>
<path d="M65.1306 117.29C65.1306 117.357 63.0469 117.492 60.4928 117.492C57.9386 117.492 55.855 117.424 55.855 117.29C55.855 117.223 57.9386 117.088 60.4928 117.088C63.0469 117.088 65.1306 117.223 65.1306 117.29Z" fill="#263238"/>
<path d="M67.8195 124.213C67.8195 124.28 64.1228 124.415 59.485 124.415C54.9144 124.415 51.1504 124.347 51.1504 124.213C51.1504 124.146 54.8472 124.011 59.485 124.011C64.1228 124.011 67.8195 124.078 67.8195 124.213Z" fill="#263238"/>
<path d="M95.2429 117.357C95.2429 117.424 92.4871 117.559 89.0592 117.559C85.6313 117.559 82.8755 117.491 82.8755 117.357C82.8755 117.29 85.6313 117.155 89.0592 117.155C92.4199 117.222 95.2429 117.29 95.2429 117.357Z" fill="#263238"/>
<path d="M97.5278 124.482C97.5278 124.549 93.9654 124.684 89.5293 124.684C85.0931 124.684 81.5308 124.616 81.5308 124.482C81.5308 124.415 85.0931 124.28 89.5293 124.28C93.9654 124.28 97.5278 124.347 97.5278 124.482Z" fill="#263238"/>
<path d="M74.3391 145.452H28.7678C27.8268 145.452 27.0874 144.713 27.0874 143.772V133.085C27.0874 132.144 27.8268 131.404 28.7678 131.404H74.3391C75.2801 131.404 76.0194 132.144 76.0194 133.085V143.772C76.0194 144.713 75.2801 145.452 74.3391 145.452Z" fill="#4CA9EE"/>
<path d="M66.7437 138.663C66.7437 138.73 60.4255 138.865 52.6287 138.865C44.8318 138.865 38.5137 138.797 38.5137 138.663C38.5137 138.596 44.8318 138.461 52.6287 138.461C60.4928 138.461 66.7437 138.529 66.7437 138.663Z" fill="white"/>
<path d="M92.4869 145.519H81.6654C80.7916 145.519 80.0522 144.78 80.0522 143.906V132.681C80.0522 131.808 80.7916 131.068 81.6654 131.068H92.4869C93.3607 131.068 94.1 131.808 94.1 132.681V143.906C94.1 144.847 93.3607 145.519 92.4869 145.519Z" fill="#29E7CD"/>
<path d="M85.564 137.588H88.5886L87.2443 139.672L85.564 137.588Z" fill="#263238"/>
<path d="M76.0192 155.937C76.0192 156.005 68.2223 156.139 58.6107 156.139C48.999 156.139 41.2021 156.072 41.2021 155.937C41.2021 155.87 48.999 155.736 58.6107 155.736C68.2223 155.736 76.0192 155.803 76.0192 155.937Z" fill="#E0E0E0"/>
<path d="M86.1683 162.458C86.1683 162.525 74.7419 162.659 60.6269 162.659C46.5119 162.659 35.0854 162.592 35.0854 162.458C35.0854 162.323 46.5119 162.256 60.6269 162.256C74.7419 162.323 86.1683 162.39 86.1683 162.458Z" fill="#E0E0E0"/>
<path d="M115.541 173.816C115.541 173.884 91.0079 174.018 60.8287 174.018C30.5822 174.018 6.11621 173.951 6.11621 173.816C6.11621 173.682 30.5822 173.615 60.8287 173.615C91.0079 173.682 115.541 173.749 115.541 173.816Z" fill="#263238"/>
<path d="M61.9043 186.588C61.8371 186.588 61.7026 183.832 61.7026 180.404C61.7026 176.976 61.7698 174.22 61.9043 174.22C61.9715 174.22 62.1059 176.976 62.1059 180.404C62.0387 183.832 61.9715 186.588 61.9043 186.588Z" fill="#263238"/>
<path d="M55.1151 95.7139L51.956 102.906H50.6117L47.4526 95.7139H48.9314L51.3511 101.293L53.7708 95.7139H55.1151Z" fill="#4CA9EE"/>
<path d="M60.4924 100.62H56.1906C56.3251 101.427 56.9972 101.965 58.0054 101.965C58.6104 101.965 59.0809 101.763 59.4842 101.36L60.1563 102.166C59.6858 102.771 58.8792 103.04 57.9382 103.04C56.1234 103.04 54.9136 101.83 54.9136 100.217C54.9136 98.6039 56.1234 97.394 57.7366 97.394C59.3497 97.394 60.4924 98.5367 60.4924 100.217C60.4924 100.351 60.4924 100.486 60.4924 100.62ZM56.1234 99.7465H59.2153C59.0809 98.94 58.4759 98.4023 57.6694 98.4023C56.8628 98.4023 56.2579 98.94 56.1234 99.7465Z" fill="#4CA9EE"/>
<path d="M64.9286 97.394V98.6039C64.7942 98.6039 64.727 98.6039 64.6597 98.6039C63.6515 98.6039 63.0466 99.2088 63.0466 100.284V102.973H61.7695V97.4613H62.9794V98.2678C63.3155 97.6629 63.9876 97.394 64.9286 97.394Z" fill="#4CA9EE"/>
<path d="M65.8696 95.7807C65.8696 95.3774 66.2057 94.9741 66.6762 94.9741C67.1467 94.9741 67.4828 95.3102 67.4828 95.7135C67.4828 96.184 67.1467 96.5201 66.6762 96.5201C66.2057 96.5201 65.8696 96.184 65.8696 95.7807ZM66.0041 97.461H67.2811V102.973H66.0041V97.461Z" fill="#4CA9EE"/>
<path d="M71.1121 95.243C71.5826 95.243 71.9859 95.3102 72.2547 95.5118L71.9186 96.4528C71.717 96.3184 71.4481 96.2512 71.1793 96.2512C70.6416 96.2512 70.3727 96.52 70.3727 97.125V97.461H71.9186V98.4693H70.4399V102.905H69.1629V98.4693H68.2891V97.461H69.1629V97.125C69.1629 95.9823 69.835 95.243 71.1121 95.243ZM73.4646 95.7807C73.4646 95.3774 73.8006 94.9741 74.2711 94.9741C74.7416 94.9741 75.0777 95.3102 75.0777 95.7135C75.0777 96.184 74.7416 96.5201 74.2711 96.5201C73.8006 96.5201 73.4646 96.184 73.4646 95.7807ZM73.599 97.461H74.8761V102.973H73.599V97.461Z" fill="#4CA9EE"/>
<path d="M81.7316 100.62H77.4299C77.5643 101.427 78.2365 101.965 79.2447 101.965C79.8496 101.965 80.3201 101.763 80.7234 101.36L81.3955 102.166C80.925 102.771 80.1185 103.04 79.1775 103.04C77.3627 103.04 76.1528 101.83 76.1528 100.217C76.1528 98.6039 77.3627 97.394 78.9758 97.394C80.589 97.394 81.7316 98.5367 81.7316 100.217C81.7988 100.351 81.7988 100.486 81.7316 100.62ZM77.4299 99.7465H80.5218C80.3873 98.94 79.7824 98.4023 78.9758 98.4023C78.1693 98.4023 77.5643 98.94 77.4299 99.7465Z" fill="#4CA9EE"/>
<path d="M88.3859 95.3101V102.972H87.176V102.233C86.7728 102.771 86.1006 103.04 85.3613 103.04C83.7481 103.04 82.6055 101.897 82.6055 100.217C82.6055 98.5363 83.8153 97.3937 85.3613 97.3937C86.1006 97.3937 86.7055 97.6626 87.1088 98.1331V95.3101H88.3859ZM87.1088 100.217C87.1088 99.1413 86.3695 98.4691 85.4957 98.4691C84.5547 98.4691 83.8825 99.1413 83.8825 100.217C83.8825 101.292 84.6219 101.964 85.4957 101.964C86.4367 101.897 87.1088 101.292 87.1088 100.217Z" fill="#4CA9EE"/>
<path d="M37.3037 104.788C40.4219 104.788 42.9497 102.26 42.9497 99.1416C42.9497 96.0234 40.4219 93.4956 37.3037 93.4956C34.1855 93.4956 31.6577 96.0234 31.6577 99.1416C31.6577 102.26 34.1855 104.788 37.3037 104.788Z" fill="#4CA9EE"/>
<path d="M34.75 99.2086L35.4894 98.4693L36.8336 99.7464L39.5894 97.125L40.2616 97.7971L36.7664 101.158L34.75 99.2086Z" fill="white"/>
<path d="M61.5678 238.611H17.2063C10.6193 238.611 5.24219 233.234 5.24219 226.647V186.587H61.5678V238.611Z" fill="#EBEBEB"/>
<path d="M102.502 238.746L61.0303 238.611V186.587H114.936V226.311C114.936 232.965 109.156 238.746 102.502 238.746Z" fill="#EBEBEB"/>
<path d="M115.541 186.587C115.541 186.654 91.0079 186.789 60.8287 186.789C30.5822 186.789 6.11621 186.721 6.11621 186.587C6.11621 186.452 30.5822 186.385 60.8287 186.385C91.0079 186.385 115.541 186.52 115.541 186.587Z" fill="#263238"/>
<path d="M59.9548 217.035C59.9548 217.035 59.8876 217.035 59.8204 216.968C59.686 216.901 59.5515 216.767 59.4171 216.632C59.0138 216.363 58.4761 215.96 57.804 215.422C56.3925 214.347 54.376 212.801 51.9563 210.986C50.7465 210.045 49.4022 208.97 47.9235 207.894C47.1841 207.424 46.1759 207.424 45.4365 207.961C45.1004 208.23 44.7644 208.634 44.3611 208.97C44.025 209.306 43.6217 209.709 43.2857 210.045C40.3954 212.935 37.2364 216.162 33.8757 219.522C33.674 219.724 33.4724 219.926 33.2707 220.127L33.1363 220.262L33.0019 220.194C31.1199 218.783 29.3051 217.439 27.5575 216.162C26.6837 215.489 25.8099 214.885 25.0034 214.212C24.264 213.54 23.1886 213.339 22.3148 213.742C21.9115 213.944 21.5754 214.28 21.1722 214.616C20.8361 214.952 20.4328 215.288 20.0967 215.624C19.4246 216.296 18.7524 216.901 18.0803 217.506C16.8032 218.716 15.5934 219.858 14.4507 220.867C12.2326 222.883 10.4179 224.563 9.208 225.706C8.60308 226.244 8.13258 226.714 7.7965 226.983C7.66208 227.118 7.52765 227.252 7.39322 227.319C7.326 227.386 7.25879 227.454 7.25879 227.454C7.25879 227.454 7.326 227.386 7.39322 227.319C7.46043 227.252 7.59486 227.118 7.72929 226.983C8.06536 226.647 8.53586 226.177 9.14079 225.639C10.4179 224.429 12.1654 222.749 14.3163 220.732C15.3917 219.724 16.6016 218.581 17.9459 217.304C18.618 216.699 19.2902 216.094 19.9623 215.422C20.2984 215.086 20.6344 214.75 21.0377 214.414C21.2394 214.28 21.3738 214.078 21.5754 213.876C21.7771 213.675 21.9787 213.54 22.2476 213.406C22.7181 213.137 23.2558 213.07 23.7935 213.204C24.0624 213.271 24.3312 213.339 24.6001 213.473C24.8689 213.607 25.0706 213.742 25.2722 213.944C26.146 214.548 26.9526 215.221 27.8264 215.893C29.5739 217.17 31.3887 218.581 33.2707 219.926H33.0691C33.2707 219.724 33.4724 219.522 33.674 219.321C37.0347 215.96 40.1938 212.734 43.084 209.843C43.4201 209.507 43.8234 209.104 44.1594 208.768C44.4955 208.432 44.8316 208.029 45.2349 207.76C46.1087 207.155 47.2513 207.155 48.0579 207.693C49.5366 208.768 50.8809 209.843 52.0907 210.784C54.5105 212.666 56.4597 214.212 57.8712 215.355C58.5433 215.893 59.081 216.296 59.4171 216.632C59.5515 216.767 59.686 216.901 59.8204 216.968C59.9548 216.968 59.9548 217.035 59.9548 217.035Z" fill="#263238"/>
<path d="M37.976 199.559C37.9088 199.559 37.976 199.156 37.7744 198.417C37.5728 197.677 37.1023 196.602 35.9596 195.795C35.4219 195.392 34.7498 195.056 33.9432 194.922C33.1366 194.787 32.2628 194.854 31.4563 195.123C30.6497 195.392 29.8431 195.997 29.2382 196.804C28.6332 197.543 28.3644 198.551 28.2972 199.559C28.2972 200.568 28.6332 201.576 29.2382 202.315C29.7759 203.122 30.5825 203.66 31.4563 203.996C32.2628 204.332 33.1366 204.332 33.9432 204.197C34.7498 204.063 35.4219 203.727 35.9596 203.323C37.035 202.517 37.5728 201.441 37.7744 200.702C37.976 199.963 37.976 199.559 37.976 199.559C37.976 199.559 37.976 199.694 37.976 199.896C37.976 200.097 37.976 200.433 37.8416 200.769C37.7072 201.509 37.2367 202.651 36.094 203.525C35.5563 203.928 34.817 204.332 34.0104 204.466C33.2038 204.601 32.2628 204.601 31.389 204.264C30.5153 203.928 29.6415 203.323 29.0365 202.517C28.4316 201.71 28.0283 200.635 28.0283 199.559C28.0283 198.484 28.3644 197.409 29.0365 196.602C29.6415 195.795 30.5153 195.191 31.389 194.854C32.2628 194.518 33.2038 194.518 34.0104 194.653C34.817 194.787 35.5563 195.191 36.094 195.594C37.2367 196.468 37.7072 197.61 37.8416 198.35C37.9088 198.753 37.976 199.022 37.976 199.223C38.0433 199.425 37.976 199.559 37.976 199.559Z" fill="#263238"/>
<path d="M113.323 215.422C113.323 215.422 113.256 215.422 113.189 215.354C113.054 215.287 112.92 215.153 112.785 215.018C112.382 214.75 111.912 214.346 111.24 213.809C109.895 212.733 107.946 211.187 105.594 209.305C104.384 208.364 103.107 207.289 101.695 206.213C100.956 205.743 99.9475 205.81 99.2754 206.348C98.9393 206.617 98.6032 207.02 98.2671 207.356C97.9311 207.692 97.595 208.095 97.2589 208.431C94.5031 211.322 91.4785 214.548 88.2522 217.909C88.0506 218.11 87.8489 218.312 87.7145 218.514L87.5801 218.648L87.4456 218.581C85.6309 217.169 83.8833 215.825 82.2029 214.548C81.3291 213.876 80.5226 213.271 79.716 212.599C78.9766 211.927 77.9012 211.725 77.0946 212.195C76.6913 212.397 76.3553 212.8 76.0192 213.069C75.6831 213.405 75.3471 213.741 75.011 214.077C74.3388 214.75 73.6667 215.354 73.0618 215.959C71.7847 217.169 70.6421 218.312 69.5666 219.32C67.4158 221.337 65.7354 223.017 64.5256 224.16C63.9206 224.697 63.4501 225.168 63.1141 225.437C62.9796 225.571 62.8452 225.705 62.778 225.773C62.7108 225.84 62.6436 225.907 62.6436 225.907C62.6436 225.907 62.6436 225.84 62.778 225.773C62.8452 225.705 62.9796 225.571 63.1141 225.437C63.4501 225.101 63.8534 224.63 64.4583 224.092C65.6682 222.882 67.3486 221.269 69.4322 219.186C70.5076 218.177 71.6503 217.035 72.8601 215.825C73.4651 215.22 74.1372 214.615 74.8094 213.943C75.1454 213.607 75.4815 213.271 75.8176 212.935C76.0192 212.8 76.1536 212.599 76.3553 212.397C76.5569 212.195 76.7586 212.061 76.9602 211.927C77.4307 211.658 77.9684 211.59 78.5061 211.658C78.775 211.725 79.0439 211.792 79.2455 211.927C79.5144 212.061 79.716 212.195 79.9176 212.397C80.7242 213.002 81.5308 213.674 82.4046 214.346C84.0849 215.623 85.8325 217.035 87.6473 218.379H87.4456C87.6473 218.177 87.7817 217.976 87.9834 217.774C91.2096 214.413 94.2343 211.254 96.9901 208.297C97.3262 207.961 97.6622 207.558 97.9983 207.221C98.3344 206.885 98.6032 206.482 99.0737 206.213C99.8803 205.608 101.023 205.608 101.83 206.079C103.308 207.154 104.518 208.23 105.728 209.238C108.08 211.12 109.962 212.733 111.307 213.809C111.912 214.346 112.449 214.75 112.785 215.086C112.92 215.22 113.054 215.354 113.189 215.422C113.256 215.354 113.323 215.354 113.323 215.422Z" fill="#263238"/>
<path d="M90.4702 198.08C90.403 198.08 90.4702 197.677 90.2685 196.938C90.0669 196.198 89.5964 195.123 88.4538 194.316C87.916 193.913 87.2439 193.577 86.4373 193.443C85.6308 193.308 84.757 193.375 83.9504 193.644C83.1438 193.913 82.3372 194.518 81.7323 195.325C81.1274 196.064 80.8585 197.072 80.7913 198.08C80.7913 199.089 81.1274 200.097 81.7323 200.836C82.27 201.643 83.0766 202.181 83.9504 202.517C84.757 202.853 85.6308 202.853 86.4373 202.718C87.2439 202.584 87.916 202.248 88.4538 201.844C89.5292 201.038 90.0669 199.962 90.2685 199.223C90.403 198.484 90.403 198.08 90.4702 198.08C90.4702 198.08 90.4702 198.215 90.4702 198.417C90.4702 198.618 90.4702 198.954 90.3357 199.29C90.2013 200.03 89.7308 201.172 88.5882 202.046C88.0505 202.449 87.3111 202.853 86.5045 202.987C85.698 203.122 84.757 203.122 83.8832 202.785C83.0094 202.449 82.1356 201.844 81.5307 201.038C80.9257 200.231 80.5225 199.156 80.5225 198.08C80.5225 197.005 80.8585 195.93 81.5307 195.123C82.1356 194.316 83.0094 193.712 83.8832 193.375C84.757 193.039 85.698 193.039 86.5045 193.174C87.3111 193.308 88.0505 193.712 88.5882 194.115C89.7308 194.989 90.2013 196.131 90.3357 196.871C90.403 197.274 90.4702 197.543 90.4702 197.744C90.4702 197.946 90.4702 198.08 90.4702 198.08Z" fill="#263238"/>
<path d="M61.9052 80.9931C70.5174 80.9931 77.499 74.0116 77.499 65.3994C77.499 56.7872 70.5174 49.8057 61.9052 49.8057C53.2931 49.8057 46.3115 56.7872 46.3115 65.3994C46.3115 74.0116 53.2931 80.9931 61.9052 80.9931Z" fill="#F5F5F5"/>
<path d="M71.9871 77.1618C71.5166 72.3896 67.4837 68.2896 61.9049 68.2896C56.3933 68.2896 52.5621 72.4568 51.8228 77.1618C51.8228 77.1618 55.2507 80.9258 61.9049 80.8586C68.5591 80.8586 71.9871 77.1618 71.9871 77.1618Z" fill="#E0E0E0"/>
<path d="M67.958 64.2826C68.4975 60.9478 66.2314 57.807 62.8966 57.2676C59.5618 56.7281 56.4211 58.9942 55.8816 62.329C55.3421 65.6638 57.6082 68.8045 60.943 69.344C64.2778 69.8835 67.4185 67.6174 67.958 64.2826Z" fill="#E0E0E0"/>
<path d="M71.9197 76.6241C71.8525 76.6241 71.8525 75.4815 70.9787 73.7339C70.5082 72.8601 69.836 71.9191 68.7606 71.0454C67.7524 70.1716 66.4081 69.365 64.795 68.8273L64.4589 68.6928L64.7278 68.5584C65.6688 68.0207 66.6098 67.2141 67.1475 66.1387C67.7524 65.0633 68.0213 63.719 67.8196 62.4419C67.618 61.0976 66.9458 59.8206 65.9376 58.8796C64.8622 57.9386 63.4507 57.3336 61.972 57.3336C60.4932 57.3336 59.0817 57.8713 58.0063 58.8123C56.9309 59.7533 56.2587 61.0304 56.0571 62.3747C55.8555 63.719 56.1243 64.9961 56.662 66.0715C56.9309 66.6092 57.3342 67.0797 57.7375 67.483C58.1407 67.8863 58.6112 68.2224 59.0817 68.4912L59.3506 68.6928L59.0145 68.7601C57.4014 69.2306 55.9899 70.0371 55.0489 70.9781C54.0407 71.9191 53.4357 72.9274 52.9652 73.8011C52.4947 74.6749 52.2931 75.4143 52.1587 75.8848C52.0915 76.1536 52.0242 76.3553 52.0242 76.4897C52.0242 76.6241 51.957 76.6914 51.957 76.6914C51.957 76.6914 51.957 76.6241 51.957 76.4897C51.957 76.3553 52.0242 76.1536 52.0915 75.8848C52.2259 75.3471 52.4275 74.6077 52.8308 73.7339C53.2341 72.8601 53.9062 71.7847 54.9145 70.8437C55.9227 69.9027 57.267 69.0289 58.9473 68.5584L58.8801 68.8273C58.4096 68.5584 57.8719 68.2224 57.4686 67.7519C57.0653 67.3486 56.662 66.8108 56.326 66.2731C55.721 65.1305 55.4522 63.7862 55.6538 62.3747C55.8555 60.9632 56.5276 59.6189 57.6702 58.6107C58.7457 57.6025 60.2916 56.9976 61.8375 56.9976C63.3835 56.9976 64.9294 57.6025 66.0048 58.6107C67.1475 59.6189 67.8196 60.9632 68.0213 62.3747C68.2229 63.7862 67.954 65.1305 67.3491 66.2731C66.7442 67.4158 65.8032 68.2896 64.795 68.8273V68.5584C66.4753 69.0961 67.8196 69.9699 68.8278 70.9109C69.9033 71.8519 70.5754 72.8601 71.0459 73.7339C71.2475 74.2044 71.4492 74.6077 71.5164 74.9438C71.6508 75.2799 71.718 75.6159 71.718 75.8848C71.7853 76.1536 71.7853 76.2881 71.7853 76.4897C71.9197 76.5569 71.9197 76.6241 71.9197 76.6241Z" fill="#263238"/>
<path d="M77.4981 65.3995C77.4981 65.3995 77.4981 65.3323 77.4981 65.1307C77.4981 64.929 77.4981 64.7274 77.4309 64.3913C77.4309 64.2569 77.4309 64.0553 77.3637 63.8536C77.3637 63.652 77.2965 63.4503 77.2293 63.1815C77.1621 62.711 77.0949 62.1733 76.8932 61.5683C76.6244 60.3585 76.0194 58.947 75.1456 57.4683C74.2719 55.9895 72.9276 54.4436 71.18 53.0993C69.4324 51.755 67.2143 50.6796 64.6602 50.2091C62.1061 49.8058 59.2831 49.873 56.5273 50.8812C55.8551 51.0829 55.183 51.419 54.5108 51.755C53.9059 52.1583 53.2338 52.4944 52.6288 52.9649C52.0239 53.3682 51.4862 53.9059 50.8813 54.4436C50.3436 55.0485 49.8058 55.5863 49.4026 56.2584C48.4616 57.5355 47.655 58.947 47.1845 60.4929C46.714 62.0388 46.4451 63.652 46.3779 65.3323C46.3779 67.0127 46.6468 68.6258 47.1845 70.1718C47.655 71.7177 48.4616 73.1292 49.4026 74.4063C49.8731 75.0784 50.4108 75.6161 50.8813 76.2211C51.4862 76.7588 52.0239 77.2965 52.6288 77.6998C53.2338 78.1703 53.9059 78.5063 54.5108 78.9096C55.183 79.2457 55.8551 79.5818 56.5273 79.7834C59.2158 80.7916 62.1061 80.926 64.6602 80.4555C67.2143 79.985 69.4324 78.9096 71.18 77.5653C72.9276 76.2211 74.2046 74.6751 75.1456 73.1964C76.0194 71.7177 76.6244 70.3062 76.8932 69.0963C77.0949 68.4914 77.1621 67.9537 77.2293 67.4832C77.2965 67.2815 77.2965 67.0127 77.3637 66.811C77.3637 66.6094 77.3637 66.4078 77.4309 66.2733C77.4309 65.9373 77.4981 65.7356 77.4981 65.534C77.4309 65.4668 77.4981 65.3995 77.4981 65.3995C77.4981 65.3995 77.4981 65.4668 77.4981 65.6684C77.4981 65.87 77.4981 66.0717 77.4981 66.4078C77.4981 66.5422 77.4981 66.7438 77.4981 66.9455C77.4981 67.1471 77.4309 67.3488 77.4309 67.6176C77.3637 68.0881 77.2965 68.6258 77.1621 69.2308C76.8932 70.4406 76.3555 71.9193 75.4817 73.398C74.6079 74.944 73.2636 76.4899 71.5161 77.9014C69.7685 79.2457 67.4832 80.3883 64.9291 80.8588C62.3749 81.3293 59.4175 81.2621 56.6617 80.1867C55.9223 79.9851 55.3174 79.5818 54.5781 79.3129C53.9059 78.9096 53.2338 78.5735 52.6288 78.103C51.9567 77.6325 51.419 77.0948 50.8141 76.5571C50.2763 75.9522 49.7386 75.4145 49.2681 74.7423C48.3271 73.4653 47.5206 71.9865 46.9828 70.3734C46.4451 68.7603 46.1763 67.0799 46.1763 65.3995C46.1763 63.7192 46.4451 62.0388 46.9828 60.4257C47.4533 58.8125 48.3271 57.401 49.2681 56.0568C49.7386 55.3846 50.2763 54.8469 50.8141 54.242C51.419 53.7042 51.9567 53.1665 52.6288 52.696C53.2338 52.2255 53.9059 51.8222 54.5781 51.4862C55.2502 51.1501 55.9223 50.814 56.6617 50.6124C59.4175 49.537 62.3749 49.4698 64.9291 49.9403C67.5504 50.4108 69.7685 51.5534 71.5161 52.8977C73.2636 54.242 74.6079 55.8551 75.4817 57.401C76.3555 58.947 76.8932 60.3585 77.1621 61.5683C77.3637 62.1733 77.3637 62.711 77.4309 63.1815C77.4309 63.4503 77.4981 63.652 77.4981 63.8536C77.4981 64.0553 77.4981 64.2569 77.4981 64.3913C77.4981 64.7274 77.4981 64.929 77.4981 65.1307C77.4981 65.2651 77.4981 65.3995 77.4981 65.3995Z" fill="#263238"/>
<path d="M190.015 172.472C190.015 172.472 196.87 183.831 197.879 194.72C198.887 205.541 191.695 293.122 191.695 293.122H106.4C106.4 293.122 129.253 185.041 136.714 178.051L137.251 170.859L190.015 172.472Z" fill="#263238"/>
<path d="M193.712 181.143C193.712 181.143 193.779 181.681 193.712 182.689C193.645 183.697 193.443 185.176 192.905 186.991C192.367 188.806 191.359 190.956 189.746 193.107C188.939 194.183 187.931 195.258 186.721 196.199C185.512 197.14 184.167 198.014 182.689 198.888C181.21 199.761 179.664 200.568 178.051 201.576C176.505 202.584 174.892 203.66 173.615 205.139C172.338 206.617 171.262 208.432 170.59 210.449C169.918 212.465 169.515 214.616 169.178 216.834C168.842 219.052 168.708 221.337 168.372 223.69C168.036 226.042 167.633 228.395 166.759 230.747C165.885 233.033 164.541 235.251 162.659 236.931C160.777 238.679 158.491 239.956 156.139 241.031C151.434 243.182 146.46 244.593 142.293 247.08C140.209 248.357 138.394 249.903 136.983 251.785C135.571 253.667 134.698 255.818 134.025 257.902C132.681 262.136 132.076 266.438 130.934 270.269C130.799 270.74 130.665 271.21 130.53 271.681C130.396 272.151 130.194 272.622 130.06 273.092C129.656 273.966 129.32 274.84 128.917 275.714C128.514 276.587 128.043 277.327 127.573 278.066C127.304 278.402 127.035 278.805 126.833 279.142L126.43 279.679L126.027 280.15C123.943 282.838 121.591 284.855 119.305 286.333C117.02 287.812 114.937 288.82 113.122 289.425C111.307 290.03 109.895 290.366 108.887 290.568C108.417 290.635 108.013 290.702 107.745 290.77C107.476 290.837 107.341 290.837 107.341 290.837C107.341 290.837 107.476 290.837 107.745 290.77C108.013 290.702 108.35 290.635 108.887 290.568C109.895 290.366 111.307 290.03 113.055 289.358C114.802 288.686 116.953 287.678 119.171 286.199C121.389 284.72 123.742 282.637 125.825 280.015L126.229 279.545L126.565 279.007C126.833 278.671 127.035 278.268 127.304 277.932C127.774 277.192 128.245 276.386 128.648 275.579C129.119 274.773 129.455 273.899 129.791 273.025C129.925 272.555 130.127 272.084 130.261 271.681C130.396 271.21 130.53 270.74 130.665 270.269C131.74 266.438 132.345 262.204 133.689 257.902C134.361 255.751 135.302 253.6 136.714 251.651C138.125 249.769 140.007 248.089 142.091 246.811C146.326 244.257 151.232 242.846 155.937 240.695C158.29 239.62 160.508 238.342 162.323 236.662C164.137 234.982 165.549 232.831 166.355 230.613C167.229 228.328 167.633 225.975 167.969 223.69C168.305 221.337 168.506 219.052 168.775 216.834C169.111 214.616 169.515 212.465 170.187 210.381C170.926 208.365 172.001 206.55 173.279 205.004C174.623 203.525 176.236 202.383 177.782 201.375C179.395 200.434 180.941 199.56 182.42 198.753C183.898 197.879 185.243 197.073 186.453 196.065C187.662 195.124 188.603 194.048 189.477 193.04C191.09 190.889 192.099 188.806 192.704 186.991C193.308 185.176 193.51 183.697 193.577 182.756C193.645 182.286 193.645 181.882 193.645 181.614C193.645 181.278 193.712 181.143 193.712 181.143Z" fill="#455A64"/>
<path d="M196.064 189.141C196.064 189.141 196.131 189.276 196.199 189.477C196.266 189.679 196.4 190.015 196.468 190.485C196.669 191.426 196.804 192.838 196.4 194.585C195.997 196.333 195.19 198.417 193.577 200.366C192.031 202.382 189.881 204.332 187.394 206.281C184.974 208.297 182.151 210.448 180.067 213.473C178.992 215.019 178.185 216.766 177.782 218.715C177.379 220.665 177.244 222.681 177.11 224.765C176.975 226.848 176.774 228.999 176.236 231.15C175.698 233.301 174.892 235.385 173.749 237.401C171.598 241.434 168.372 245.131 164.272 247.819C160.172 250.508 155.534 251.785 151.501 253.801C149.485 254.81 147.535 256.019 145.99 257.498C144.444 259.044 143.234 260.859 142.36 262.741C140.612 266.572 139.94 270.538 138.932 274.1C138.462 275.915 137.924 277.662 137.319 279.276C136.647 280.889 135.907 282.367 134.966 283.712C134.025 285.056 133.017 286.131 131.942 287.072C131.404 287.543 130.866 287.946 130.329 288.417C129.791 288.753 129.253 289.156 128.648 289.492C126.43 290.769 124.347 291.441 122.599 291.845C120.851 292.248 119.44 292.248 118.499 292.248C118.028 292.248 117.692 292.181 117.423 292.181C117.155 292.181 117.087 292.181 117.087 292.181C117.087 292.181 117.222 292.181 117.423 292.181C117.692 292.181 118.028 292.181 118.499 292.181C119.44 292.113 120.784 292.113 122.532 291.71C124.279 291.307 126.296 290.635 128.514 289.358C129.052 289.089 129.589 288.686 130.127 288.282C130.665 287.879 131.202 287.476 131.74 287.005C132.816 286.064 133.824 284.922 134.698 283.644C135.571 282.367 136.378 280.889 136.983 279.276C137.588 277.662 138.125 275.915 138.596 274.167C139.537 270.605 140.276 266.572 141.957 262.741C142.83 260.792 144.04 258.977 145.586 257.431C147.199 255.885 149.149 254.675 151.165 253.667C155.265 251.65 159.903 250.306 163.936 247.685C167.969 245.063 171.128 241.367 173.279 237.401C174.354 235.385 175.161 233.301 175.698 231.217C176.236 229.134 176.505 226.983 176.572 224.899C176.707 222.815 176.841 220.732 177.244 218.783C177.648 216.833 178.521 215.019 179.597 213.473C181.748 210.381 184.571 208.23 187.058 206.214C189.544 204.197 191.695 202.315 193.241 200.366C194.787 198.417 195.661 196.333 196.064 194.653C196.468 192.905 196.333 191.561 196.199 190.62C196.266 189.612 196.064 189.141 196.064 189.141Z" fill="#455A64"/>
<path d="M109.492 128.245C109.492 128.245 115.003 166.423 123.539 170.12C127.841 172.002 131.269 170.389 133.622 166.087C135.974 161.785 141.956 130.598 141.956 130.598L125.422 130.195L124.817 136.378L118.431 124.481L109.492 128.245Z" fill="#936760"/>
<path d="M133.89 153.114C133.89 153.114 133.823 152.98 133.756 152.846C133.621 152.644 133.487 152.375 133.285 152.039C132.882 151.3 132.277 150.224 131.605 149.014C130.193 146.46 128.244 142.831 126.093 138.865C124.01 134.899 122.061 131.337 120.649 128.716C119.977 127.439 119.439 126.43 119.036 125.624C118.834 125.288 118.7 125.019 118.565 124.817C118.431 124.616 118.431 124.548 118.364 124.548C118.364 124.548 118.364 124.683 118.498 124.884C118.633 125.086 118.767 125.422 118.901 125.758C119.238 126.498 119.775 127.573 120.447 128.917C121.792 131.539 123.674 135.168 125.825 139.134C127.975 143.099 129.925 146.662 131.403 149.216C132.143 150.493 132.748 151.501 133.151 152.241C133.353 152.577 133.554 152.846 133.689 153.047C133.823 153.047 133.89 153.182 133.89 153.114Z" fill="#6F4C47"/>
<path d="M191.628 137.185L186.855 158.29L189.141 172.472H137.184L140.545 106.266L153.517 105.124L185.175 110.501L191.628 137.185Z" fill="#4CA9EE"/>
<path d="M178.387 110.097C178.387 110.097 191.897 108.888 198.349 118.029C202.315 123.675 207.827 136.58 207.827 136.58L189.813 139.672L178.387 110.097Z" fill="#4CA9EE"/>
<g opacity="0.3">
<path opacity="0.3" d="M186.587 137.387C184.839 133.623 180.739 131.136 176.572 131.203C175.698 131.203 174.69 131.472 174.152 132.211C173.614 133.018 173.95 134.026 174.286 134.967C174.757 136.11 175.362 137.319 176.437 137.857C177.244 138.26 178.185 138.26 179.059 138.529C180.134 138.865 181.008 139.605 181.814 140.277C182.487 140.882 183.226 141.42 183.629 142.226C183.965 142.831 184.167 143.57 184.369 144.243C185.242 147.671 185.915 154.795 186.788 158.29L187.729 155.333C187.729 152.51 187.797 149.62 187.797 146.797C187.931 143.638 187.931 140.277 186.587 137.387Z" fill="black"/>
</g>
<path d="M170.456 154.996C170.456 154.929 171.195 155.064 172.271 155.131C173.413 155.198 174.959 155.265 176.707 154.996C178.455 154.795 179.933 154.324 181.009 153.988C182.084 153.585 182.756 153.316 182.756 153.383C182.756 153.383 182.622 153.518 182.353 153.652C182.084 153.787 181.681 153.988 181.143 154.19C180.068 154.593 178.522 155.064 176.774 155.333C175.027 155.534 173.413 155.534 172.271 155.333C171.666 155.265 171.263 155.198 170.927 155.131C170.59 155.131 170.456 155.064 170.456 154.996Z" fill="#263238"/>
<path d="M147.804 155.938C147.804 155.87 155.197 157.954 164.204 160.643C173.278 163.331 180.537 165.549 180.537 165.616C180.537 165.684 173.143 163.6 164.137 160.911C155.063 158.29 147.736 156.072 147.804 155.938Z" fill="#263238"/>
<g opacity="0.3">
<path opacity="0.3" d="M170.792 155.13C172.069 157.079 174.556 158.222 176.908 157.953C179.261 157.684 181.075 156.138 181.882 153.92C178.32 155.399 174.623 155.601 170.792 155.13Z" fill="black"/>
</g>
<g opacity="0.3">
<g opacity="0.3">
<g opacity="0.3">
<g opacity="0.3">
<g opacity="0.3">
<g opacity="0.3">
<path opacity="0.3" d="M178.521 164.944L178.319 165.011C173.681 165.818 169.313 165.011 164.876 163.398C160.44 161.852 156.273 159.567 152.173 157.214C160.978 159.836 169.783 162.39 178.521 164.944Z" fill="black"/>
</g>
</g>
</g>
</g>
</g>
</g>
<path d="M140.545 106.266C140.545 106.266 132.008 107.341 128.648 114.601C125.354 121.927 122.867 130.665 122.867 130.665L140.343 134.563C140.343 134.563 143.099 119.776 143.3 114.601C143.569 108.887 143.838 106.064 140.545 106.266Z" fill="#4CA9EE"/>
<path d="M138.932 136.915C138.865 136.915 138.797 134.697 138.797 132.009C138.797 129.32 138.865 127.102 138.999 127.102C139.066 127.102 139.133 129.32 139.133 132.009C139.066 134.764 138.999 136.915 138.932 136.915Z" fill="#263238"/>
<path d="M148.409 59.4176C153.047 53.7716 159.231 50.5453 166.557 50.4109C170.657 50.3437 172.405 51.2174 175.362 52.024C178.319 52.8306 181.008 54.4437 182.756 56.9307C184.839 59.8881 186.654 63.2488 186.99 66.8784C187.393 70.5752 187.797 74.3392 187.528 78.1032C187.259 81.8672 186.251 85.6312 184.033 88.6558L174.556 90.3362C169.313 90.5378 164.003 90.6723 158.895 89.4624C153.786 88.2525 148.812 85.4968 146.057 81.0606C142.225 74.6752 143.771 65.0636 148.409 59.4176Z" fill="#263238"/>
<path d="M181.143 93.8987C181.143 93.8987 181.277 94.1003 181.68 94.3692C182.084 94.6381 182.756 94.9069 183.63 95.0413C184.503 95.1086 185.579 95.0414 186.654 94.4364C187.73 93.8315 188.536 92.7561 188.939 91.4118C189.276 90.0675 189.141 88.656 188.469 87.6478C187.864 86.6396 186.99 85.9674 186.184 85.5641C185.377 85.2281 184.638 85.0936 184.167 85.1608C183.697 85.1608 183.428 85.2953 183.428 85.2953C183.428 85.4297 184.503 85.1609 186.049 85.9002C186.789 86.3035 187.528 86.9084 188.066 87.8494C188.603 88.7904 188.738 90.0003 188.402 91.2101C188.066 92.42 187.326 93.361 186.385 93.8987C185.444 94.4364 184.503 94.5709 183.63 94.5709C182.084 94.5709 181.21 93.8315 181.143 93.8987Z" fill="#E0E0E0"/>
<path d="M139.201 86.9755C139.47 84.8247 140.545 82.741 142.427 81.5984C144.309 80.523 146.863 80.5902 148.409 82.1361L149.888 83.8837C152.24 84.8919 153.719 87.5133 153.45 90.0674C153.181 92.6215 151.232 94.8396 148.813 95.579C146.393 96.3183 143.57 95.579 141.755 93.8986C139.806 92.2183 138.932 89.5297 139.201 86.9755Z" fill="#263238"/>
<path d="M141.083 93.4282C141.15 93.4282 140.478 92.7561 140.546 91.5462C140.613 90.3363 141.487 88.7232 142.696 87.2445C143.906 85.7658 145.385 84.7576 146.528 84.2198C147.67 83.6149 148.41 83.4133 148.41 83.346C148.41 83.2788 147.603 83.4133 146.393 83.951C145.183 84.4887 143.637 85.4969 142.36 86.9756C141.688 87.715 141.218 88.5215 140.814 89.3281C140.411 90.0675 140.209 90.8741 140.209 91.5462C140.209 92.2183 140.411 92.7561 140.613 93.0249C140.882 93.361 141.083 93.4282 141.083 93.4282Z" fill="#455A64"/>
<path d="M145.654 96.251C145.788 96.251 145.183 93.3608 146.057 90.0001C146.931 86.5722 148.88 84.4213 148.746 84.2869C148.678 84.2197 148.141 84.7574 147.468 85.6984C146.796 86.6394 146.057 88.1181 145.586 89.8657C145.116 91.6132 145.116 93.2264 145.183 94.4362C145.385 95.5789 145.654 96.251 145.654 96.251Z" fill="#455A64"/>
<path d="M174.555 105.661C174.488 102.3 174.421 99.6115 174.421 99.6115C174.421 99.6115 182.15 98.7378 184.301 88.79C185.377 83.8162 185.578 75.6832 185.511 68.9618C185.444 62.9125 180.336 54.7124 172.875 54.7124L169.581 54.3091L156.878 59.3502C155.063 59.4174 153.584 60.8961 153.517 62.7781L153.114 105.19L165.347 134.966L174.152 123.069L174.555 105.661Z" fill="#936760"/>
<path d="M174.421 99.6118C174.421 99.6118 167.632 99.679 161.18 95.3101C161.18 95.3101 164.406 102.435 174.488 102.099L174.421 99.6118Z" fill="#6F4C47"/>
<path d="M155.265 79.582C155.332 78.8427 154.525 77.0279 153.786 76.8934C151.837 76.4902 148.274 76.4229 147.938 81.464C147.535 88.3199 154.458 87.3117 154.458 87.11C154.525 86.9084 155.13 82.1362 155.265 79.582Z" fill="#936760"/>
<path d="M152.778 84.4888C152.778 84.4888 152.644 84.556 152.442 84.6232C152.24 84.6904 151.904 84.7576 151.568 84.556C150.896 84.2199 150.358 83.0773 150.358 81.8002C150.358 81.1953 150.56 80.5903 150.829 80.1198C151.098 79.6493 151.434 79.3133 151.77 79.2461C152.106 79.1788 152.375 79.4477 152.442 79.5821C152.509 79.7838 152.442 79.9182 152.509 79.9182C152.509 79.9182 152.644 79.7838 152.644 79.5149C152.644 79.3805 152.576 79.1788 152.375 79.0444C152.24 78.91 151.972 78.8428 151.703 78.8428C151.165 78.8428 150.695 79.3133 150.426 79.851C150.09 80.3887 149.888 81.0608 149.888 81.733C149.821 83.1445 150.493 84.4216 151.434 84.7576C151.904 84.8921 152.308 84.8248 152.509 84.6232C152.778 84.6232 152.845 84.4888 152.778 84.4888Z" fill="#6F4C47"/>
<path d="M153.518 76.8934L155.265 78.7082C162.793 71.5163 177.379 53.5701 176.572 54.6455C176.572 54.6455 171.464 52.5618 165.885 53.5028C160.306 54.4438 149.754 57.2668 149.888 63.7866C150.022 70.3736 153.518 76.8934 153.518 76.8934Z" fill="#263238"/>
<path d="M153.652 93.8987C153.652 93.8987 153.517 94.1003 153.114 94.3692C152.711 94.6381 152.039 94.9069 151.165 95.0413C150.291 95.1086 149.216 95.0414 148.14 94.4364C147.065 93.8315 146.258 92.7561 145.855 91.4118C145.519 90.0675 145.653 88.656 146.325 87.6478C146.93 86.6396 147.804 85.9674 148.611 85.5641C149.417 85.2281 150.157 85.0936 150.627 85.1608C151.098 85.1608 151.366 85.2953 151.366 85.2953C151.366 85.4297 150.291 85.1609 148.745 85.9002C148.006 86.3035 147.266 86.9084 146.729 87.8494C146.191 88.7904 146.056 90.0003 146.393 91.2101C146.729 92.42 147.468 93.361 148.409 93.8987C149.35 94.4364 150.291 94.5709 151.165 94.5709C152.778 94.5709 153.584 93.8315 153.652 93.8987Z" fill="#E0E0E0"/>
<path d="M143.57 75.4146C143.57 75.4146 143.57 75.2802 143.704 75.0113C143.771 74.7425 143.906 74.4064 144.175 73.9359C144.645 73.0621 145.586 71.8522 146.998 70.7096C148.476 69.5669 150.426 68.6932 152.778 67.9538C155.063 67.2144 157.618 66.6095 160.172 65.5341C162.726 64.4587 165.011 63.1144 166.893 61.7701C168.842 60.3586 170.388 58.8799 171.665 57.6028C172.875 56.3257 173.816 55.1159 174.421 54.3093C174.69 53.906 174.959 53.6372 175.093 53.3683C175.228 53.1667 175.362 53.0322 175.362 53.0322C175.362 53.0322 175.295 53.1667 175.161 53.3683C175.026 53.5699 174.824 53.906 174.556 54.3765C173.951 55.1831 173.077 56.3929 171.867 57.7372C170.657 59.0815 169.044 60.5602 167.095 61.9717C165.146 63.3832 162.86 64.7275 160.306 65.8029C157.752 66.8784 155.131 67.4833 152.845 68.2227C150.56 68.8948 148.611 69.7686 147.132 70.9112C145.653 71.9867 144.78 73.1293 144.242 74.0031C143.771 74.8769 143.637 75.4146 143.57 75.4146Z" fill="#455A64"/>
<path d="M145.586 76.4897C145.586 76.4897 145.519 75.952 145.855 75.011C146.191 74.07 146.998 72.7929 148.409 71.7847C149.821 70.7092 151.904 70.0371 154.122 69.5666C156.34 69.0961 158.827 68.424 161.18 67.3485C163.599 66.2059 165.75 64.9288 167.498 63.4501C169.313 62.0386 170.724 60.4927 171.8 59.2156C172.942 57.8713 173.682 56.7287 174.219 55.9221C174.421 55.5188 174.623 55.2499 174.824 54.9811C174.959 54.7794 175.026 54.645 175.026 54.645C175.026 54.645 174.959 54.7794 174.892 54.9811C174.757 55.2499 174.555 55.586 174.354 55.9893C173.816 56.7959 173.144 58.0729 172.001 59.4172C170.926 60.7615 169.447 62.3075 167.7 63.7862C165.952 65.2649 163.734 66.6092 161.314 67.7518C158.894 68.8945 156.408 69.4994 154.189 69.9699C151.971 70.4404 149.955 71.1125 148.543 72.1207C147.132 73.129 146.325 74.2716 145.989 75.2126C145.586 75.8847 145.586 76.4897 145.586 76.4897Z" fill="#455A64"/>
<path d="M110.231 131.942C109.828 131.808 109.357 126.363 109.357 126.363C109.357 126.363 103.913 121.994 103.174 120.247C102.434 118.499 102.569 114.265 102.569 114.265L111.441 108.215C111.441 108.215 116.684 112.92 118.095 114.802C118.835 115.811 119.439 118.701 119.843 120.986C120.179 122.935 120.246 124.952 120.044 126.968L119.91 128.514C119.91 128.447 116.28 134.227 110.231 131.942Z" fill="#936760"/>
<path d="M103.51 121.322C103.51 121.322 102.838 120.717 101.695 119.508C100.553 118.231 99.2755 117.088 100.351 115.744C101.023 114.937 101.762 115.004 101.762 115.004C101.762 115.004 101.09 113.862 101.695 113.122C102.3 112.383 103.107 112.45 103.107 112.45C103.107 112.45 102.233 110.77 103.04 109.627C104.048 108.216 105.728 108.552 105.728 108.552C105.728 108.552 102.099 101.225 101.897 100.822C101.09 99.4105 101.158 97.9318 102.771 97.7301C103.376 97.6629 103.846 98.1334 105.392 100.419C106.938 102.704 109.492 106.602 109.492 106.602C109.492 106.602 112.315 108.955 113.727 110.299C115.138 111.644 118.096 114.735 118.566 115.676C119.843 118.096 119.574 121.995 119.574 121.995L109.358 126.363C109.29 126.363 104.182 121.927 103.51 121.322Z" fill="#936760"/>
<path d="M102.098 115.272C102.098 115.272 102.569 115.541 103.308 116.079C103.712 116.348 104.115 116.684 104.585 117.02C104.854 117.222 105.056 117.423 105.325 117.625C105.526 117.894 105.795 118.163 105.795 118.566C105.862 118.902 105.728 119.373 105.392 119.574C105.123 119.776 104.72 119.843 104.384 119.776C104.048 119.776 103.779 119.641 103.51 119.574C103.241 119.507 103.039 119.44 102.771 119.373C102.367 119.238 101.964 119.104 101.762 118.969C101.493 118.902 101.426 118.835 101.426 118.768C101.426 118.768 101.964 118.902 102.838 119.171C103.241 119.305 103.779 119.44 104.384 119.507C104.653 119.507 104.989 119.507 105.19 119.305C105.392 119.104 105.526 118.835 105.459 118.499C105.392 118.163 105.257 117.894 105.056 117.692C104.854 117.491 104.585 117.289 104.384 117.087C103.913 116.751 103.51 116.415 103.107 116.079C102.502 115.676 102.098 115.272 102.098 115.272Z" fill="#6F4C47"/>
<path d="M110.971 113.122C110.904 113.122 110.568 112.383 110.5 111.442C110.366 110.501 110.568 109.694 110.635 109.694C110.702 109.694 110.635 110.501 110.769 111.442C110.836 112.316 111.038 113.055 110.971 113.122Z" fill="#6F4C47"/>
<path d="M115.944 113.861C114.667 113.256 113.188 113.122 111.777 113.323C110.365 113.525 109.021 113.995 107.744 114.6C106.736 115.071 105.593 115.81 105.459 116.886C105.324 118.028 106.4 119.104 107.542 119.305C108.685 119.507 109.828 119.104 110.903 118.633C111.978 118.163 112.987 117.558 114.129 117.289" fill="#936760"/>
<path d="M114.13 117.289C114.13 117.289 113.794 117.356 113.324 117.558C112.786 117.759 112.046 118.095 111.173 118.566C110.702 118.768 110.232 119.036 109.627 119.171C109.022 119.373 108.417 119.44 107.678 119.373C107.005 119.305 106.266 118.902 105.796 118.297C105.527 118.028 105.392 117.625 105.325 117.222C105.258 116.818 105.325 116.415 105.527 116.079C105.93 115.34 106.602 114.936 107.274 114.6C107.946 114.264 108.551 113.995 109.223 113.794C110.501 113.323 111.71 113.122 112.719 113.122C113.727 113.122 114.533 113.323 115.071 113.458C115.34 113.525 115.542 113.659 115.676 113.727C115.81 113.794 115.878 113.861 115.878 113.861C115.878 113.861 115.609 113.727 115.071 113.592C114.533 113.458 113.727 113.256 112.719 113.323C111.71 113.323 110.568 113.592 109.291 114.063C108.686 114.264 108.014 114.6 107.409 114.869C106.804 115.205 106.132 115.609 105.796 116.281C105.594 116.617 105.527 116.953 105.594 117.289C105.661 117.625 105.796 117.961 105.997 118.23C106.4 118.768 107.073 119.104 107.678 119.238C108.35 119.305 108.955 119.238 109.492 119.104C110.03 118.969 110.568 118.7 111.038 118.499C111.979 118.095 112.719 117.692 113.256 117.558C113.525 117.491 113.727 117.423 113.861 117.423C114.063 117.289 114.13 117.289 114.13 117.289Z" fill="#6F4C47"/>
<path d="M102.233 115.34C103.913 116.617 105.594 118.096 107.14 119.507C107.61 119.911 108.081 120.381 108.685 120.516C109.156 120.65 109.963 119.844 110.366 119.507L104.854 113.727" fill="#936760"/>
<path d="M104.854 113.794C104.854 113.794 105.056 113.928 105.324 114.197C105.661 114.533 105.997 114.937 106.534 115.407C107.543 116.415 108.887 117.894 110.5 119.507L110.567 119.574L110.5 119.642C110.231 119.843 109.895 120.179 109.559 120.381C109.425 120.448 109.29 120.583 109.156 120.583C109.088 120.583 109.021 120.65 108.887 120.65C108.82 120.65 108.685 120.65 108.618 120.65C108.282 120.583 108.013 120.381 107.744 120.247C107.274 119.843 106.87 119.44 106.467 119.104C105.661 118.365 104.921 117.692 104.316 117.155C103.711 116.617 103.174 116.214 102.838 115.878C102.501 115.609 102.3 115.407 102.3 115.407C102.3 115.407 102.501 115.542 102.905 115.81C103.308 116.079 103.779 116.483 104.451 117.02C105.056 117.558 105.862 118.23 106.669 118.902C107.072 119.238 107.475 119.709 107.946 120.045C108.147 120.247 108.416 120.381 108.685 120.448C108.954 120.515 109.223 120.381 109.425 120.179C109.761 119.978 110.029 119.709 110.366 119.44V119.642C108.82 118.028 107.475 116.55 106.467 115.542C105.997 115.004 105.593 114.601 105.324 114.264C104.988 113.928 104.854 113.794 104.854 113.794Z" fill="#6F4C47"/>
<path d="M103.308 112.046C105.123 114.13 107.005 116.213 108.82 118.297C109.223 118.768 109.626 119.171 110.097 119.507C110.634 119.776 111.239 119.91 111.777 119.641C112.516 119.238 112.718 118.297 112.449 117.491C112.18 116.684 111.643 116.079 111.105 115.474C109.425 113.592 107.946 111.508 106.534 109.425" fill="#936760"/>
<path d="M106.601 109.291C106.601 109.291 106.669 109.358 106.736 109.492C106.87 109.627 107.005 109.828 107.139 110.097C107.475 110.635 108.013 111.307 108.685 112.181C109.357 113.055 110.164 114.063 111.105 115.205C111.575 115.743 112.113 116.281 112.449 117.087C112.584 117.491 112.718 117.894 112.651 118.297C112.584 118.701 112.449 119.171 112.113 119.44C111.777 119.776 111.306 119.843 110.836 119.776C110.433 119.709 110.029 119.507 109.693 119.305C109.021 118.768 108.618 118.163 108.08 117.625C107.139 116.55 106.265 115.541 105.526 114.735C104.854 113.928 104.249 113.256 103.846 112.786C103.644 112.584 103.51 112.382 103.375 112.248C103.241 112.114 103.241 112.046 103.241 112.046C103.241 112.046 103.308 112.114 103.442 112.248C103.577 112.382 103.711 112.584 103.913 112.786C104.383 113.256 104.921 113.928 105.66 114.735C106.4 115.541 107.274 116.55 108.215 117.625C108.685 118.163 109.156 118.768 109.761 119.238C110.097 119.44 110.433 119.642 110.836 119.709C111.239 119.776 111.643 119.709 111.911 119.44C112.18 119.171 112.382 118.768 112.382 118.432C112.449 118.028 112.382 117.692 112.18 117.289C111.844 116.55 111.306 116.012 110.836 115.474C109.895 114.399 109.088 113.323 108.416 112.45C107.744 111.576 107.274 110.836 106.938 110.299C106.803 110.03 106.669 109.828 106.601 109.694C106.669 109.425 106.601 109.291 106.601 109.291Z" fill="#6F4C47"/>
<path d="M115.071 123.607C115.071 123.607 114.802 123.741 114.399 123.741C113.995 123.741 113.39 123.674 112.785 123.473C112.18 123.204 111.71 122.868 111.441 122.532C111.172 122.196 111.038 121.994 111.105 121.994C111.172 121.927 111.71 122.8 112.853 123.271C114.062 123.741 115.071 123.54 115.071 123.607Z" fill="#6F4C47"/>
<path d="M185.512 106.064L183.563 130.463C183.495 131.337 182.756 132.009 181.882 131.942L168.238 131.068C167.364 131.001 166.692 130.194 166.759 129.32L168.977 104.922C169.044 104.048 169.784 103.443 170.657 103.443L183.966 104.317C184.907 104.384 185.579 105.123 185.512 106.064Z" fill="#29E7CD"/>
<path d="M205.004 137.118C205.004 137.118 209.104 164.608 208.902 168.305C208.768 172.002 204.601 180.202 198.955 181.009C193.309 181.815 188.066 176.707 187.864 169.918C187.73 163.197 186.856 141.823 186.856 141.823L191.023 139.537L205.004 137.118Z" fill="#936760"/>
<path d="M181.814 114.399C181.814 114.399 186.049 117.02 187.259 117.692C188.469 118.365 188.334 123.406 188.334 123.406L195.392 139.873L186.856 142.965C186.856 142.965 183.831 137.185 182.957 136.445C182.083 135.706 180.941 135.437 180.941 135.437C180.941 135.437 180.47 137.05 179.193 136.311C177.849 135.571 176.437 133.824 176.437 133.824C176.437 133.824 175.295 134.563 174.824 133.689C174.354 132.816 173.682 130.934 173.682 130.934C173.682 130.934 176.168 127.707 177.177 127.707C178.185 127.707 183.428 127.976 183.428 127.976C183.428 127.976 183.159 127.506 181.68 126.968C180.201 126.363 171.531 123.809 171.127 123.675C170.522 123.406 169.85 121.86 171.732 121.725C173.614 121.591 184.301 123.473 184.301 123.473C184.301 123.473 184.906 120.717 184.436 120.112C183.965 119.507 180.269 117.02 181.814 114.399Z" fill="#936760"/>
<path d="M176.438 133.69C176.438 133.69 176.37 133.219 176.505 132.48C176.572 132.144 176.774 131.673 177.177 131.27C177.58 130.867 178.185 130.799 178.723 130.799C179.866 130.732 180.874 130.799 181.613 130.934C182.353 131.068 182.756 131.135 182.756 131.203C182.756 131.27 180.941 131.001 178.723 131.135C178.185 131.135 177.648 131.203 177.311 131.539C176.975 131.808 176.774 132.211 176.707 132.547C176.505 133.219 176.505 133.69 176.438 133.69Z" fill="#6F4C47"/>
<path d="M178.118 134.227C178.186 134.16 178.858 134.63 179.732 134.967C180.605 135.37 181.412 135.571 181.412 135.639C181.412 135.706 180.538 135.639 179.597 135.235C178.723 134.832 178.051 134.294 178.118 134.227Z" fill="#6F4C47"/>
<path d="M183.831 123.406C183.831 123.339 184.638 123.473 185.31 124.145C185.982 124.818 186.184 125.624 186.116 125.624C186.049 125.691 185.713 124.952 185.108 124.347C184.503 123.742 183.831 123.473 183.831 123.406Z" fill="#6F4C47"/>
<path d="M111.105 270.403C111.038 270.403 114.667 254.944 119.305 235.923C123.943 216.901 127.774 201.509 127.841 201.509C127.908 201.509 124.279 216.968 119.641 235.99C115.003 255.079 111.172 270.471 111.105 270.403Z" fill="#455A64"/>
<path d="M178.319 50.4784L180.268 43.3537C178.386 40.3291 177.311 36.7667 177.311 32.9355C177.311 21.9795 186.183 13.04 197.206 13.04C208.162 13.04 217.102 21.9123 217.102 32.9355C217.102 43.8914 208.23 52.8309 197.206 52.8309C192.636 52.8309 188.401 51.285 185.041 48.6636L178.319 50.4784Z" fill="white"/>
<path d="M178.319 50.4784C178.319 50.4784 178.454 50.4112 178.79 50.344C179.126 50.2767 179.529 50.1423 180.067 50.0079C181.209 49.6718 182.89 49.2013 185.041 48.5964L184.973 48.7308C184.973 48.6636 184.973 48.6636 184.973 48.5964H185.041C187.124 50.2095 190.149 51.8899 194.115 52.4948C196.064 52.8309 198.282 52.8309 200.5 52.4276C202.718 52.0243 205.07 51.2177 207.221 49.9407C209.372 48.6636 211.389 46.8488 213.069 44.6307C214.682 42.4127 215.959 39.7913 216.497 36.9011C217.035 34.0109 216.967 30.919 216.228 27.8944C215.892 26.4157 215.22 24.9369 214.48 23.5254C213.674 22.1812 212.8 20.8369 211.657 19.627C210.582 18.4172 209.372 17.4089 208.095 16.5352C206.751 15.7286 205.407 14.922 203.928 14.4515C201.038 13.3761 198.013 13.04 195.123 13.3089C192.233 13.5777 189.477 14.5187 187.124 15.9302C184.772 17.3417 182.823 19.1565 181.277 21.1057C178.252 25.1386 177.177 29.8436 177.311 33.8092C177.445 37.7749 178.79 41.0012 180.201 43.2865V43.3537C179.529 45.639 179.059 47.3865 178.722 48.5964C178.521 49.2013 178.386 49.6718 178.319 49.9407C178.319 50.344 178.319 50.4784 178.319 50.4784C178.319 50.4784 178.319 50.344 178.454 50.0079C178.521 49.6718 178.655 49.2685 178.79 48.6636C179.126 47.4537 179.596 45.639 180.201 43.2865V43.3537C178.79 41.0684 177.445 37.8421 177.244 33.8092C177.042 29.8436 178.118 25.0714 181.209 20.9041C182.755 18.8877 184.705 17.0057 187.124 15.5942C189.477 14.1827 192.3 13.2417 195.257 12.9056C198.215 12.6367 201.306 12.9728 204.264 14.0482C205.743 14.5187 207.154 15.3253 208.498 16.1991C209.775 17.1401 211.053 18.1483 212.128 19.3582C213.271 20.568 214.144 21.9123 214.951 23.3238C215.69 24.7353 216.295 26.214 216.699 27.7599C217.505 30.7846 217.572 33.9437 216.967 36.9011C216.362 39.8585 215.085 42.5471 213.472 44.7652C211.792 46.9832 209.775 48.798 207.557 50.1423C205.339 51.4194 202.987 52.226 200.702 52.6292C198.416 53.0325 196.198 53.0325 194.249 52.6965C190.283 52.0915 187.191 50.344 185.108 48.7308L185.242 48.5964C185.242 48.5964 185.242 48.6636 185.242 48.7308C183.024 49.3357 181.344 49.739 180.201 50.0751C179.663 50.2095 179.193 50.344 178.924 50.4112C178.454 50.4784 178.319 50.4784 178.319 50.4784Z" fill="#263238"/>
<path d="M188.334 33.4058L190.62 31.0533L195.123 35.0862L203.928 26.6172L206.146 28.9025L194.787 39.5896L188.334 33.4058Z" fill="#29E7CD"/>
</g>
<defs>
<clipPath id="clip0">
<rect width="217.237" height="293.054" fill="white"/>
</clipPath>
</defs>
</svg>
