<svg width="245" height="160" viewBox="0 0 245 160" fill="none" xmlns="http://www.w3.org/2000/svg">
<g opacity="0.5" clip-path="url(#clip0)">
<path d="M103.826 75.8612H59.2682C58.6433 75.8612 58.1306 75.3485 58.1306 74.7236V11.0507C58.1306 10.4258 58.6433 9.91309 59.2682 9.91309H103.826C104.451 9.91309 104.964 10.4258 104.964 11.0507V74.7236C104.964 75.3485 104.451 75.8612 103.826 75.8612Z" fill="#4CA9EE"/>
<path d="M82.4983 58.719V75.7348C82.4983 76.3276 82.0176 76.8083 81.4088 76.8083H64.2488C63.64 76.8083 63.1593 76.3276 63.1593 75.7348V58.719C63.1593 58.1262 63.64 57.6455 64.2488 57.6455H81.4088C82.0176 57.6295 82.4983 58.1262 82.4983 58.719Z" fill="#B0D9F8"/>
<path d="M82.4342 37.7619V55.9152C82.4342 56.3799 82.0657 56.7484 81.6011 56.7484H64.1207C63.656 56.7484 63.2875 56.3799 63.2875 55.9152V37.7619C63.2875 37.2972 63.656 36.9287 64.1207 36.9287H81.6011C82.0657 36.9287 82.4342 37.2972 82.4342 37.7619Z" fill="#B0D9F8"/>
<path d="M102.654 58.3506V75.9592C102.654 76.3598 102.334 76.6803 101.933 76.6803H84.1646C83.7641 76.6803 83.4436 76.3598 83.4436 75.9592V58.3506C83.4436 57.9501 83.7641 57.6296 84.1646 57.6296H101.933C102.334 57.6296 102.654 57.9501 102.654 58.3506Z" fill="#BFE4FF"/>
<path d="M106.356 80.1411C106.356 80.5737 104.801 79.2278 104.817 78.9394C104.817 66.49 104.801 20.4097 104.801 14.0968C104.801 13.6963 104.481 13.3758 104.08 13.3758C100.059 13.3758 96.0372 13.3598 91.9996 13.3598C83.0751 13.3598 65.5466 13.3598 61.8134 13.3598C61.4128 13.3598 61.0924 13.6803 61.0924 14.0808C61.0603 20.2975 61.0123 65 61.0123 78.2505C61.0123 78.2985 61.0123 78.3306 60.9963 78.3786C60.9802 78.4588 60.9642 78.5549 60.9482 78.635C60.9001 78.8753 60.7399 79.0836 60.5156 79.1798C60.4996 79.1798 60.4835 79.1958 60.4675 79.1958C60.0029 79.372 59.5222 79.0035 59.5222 78.5229C59.5062 77.7698 59.4741 77.0488 59.4741 76.3438C59.4741 56.7484 59.4741 18.0223 59.4741 12.2863C59.4741 11.8858 59.7946 11.5653 60.1951 11.5653C67.293 11.5653 100.235 11.5653 105.635 11.5653C106.035 11.5653 106.356 11.8858 106.356 12.2863C106.356 12.3023 106.356 12.3184 106.356 12.3504C106.356 23.9987 106.356 69.0056 106.356 80.1411Z" fill="#A3D8FF"/>
<path d="M104.866 12.7831C104.85 12.7671 104.834 12.751 104.817 12.735C104.817 12.6389 104.817 12.5588 104.817 12.4626C104.882 12.5588 104.914 12.6709 104.866 12.7831Z" fill="#A3D8FF"/>
<path d="M63.2875 16.0996C63.2875 15.7952 63.5278 15.5548 63.8323 15.5548C64.6494 15.5548 65.4826 15.5388 66.2997 15.5388C71.4108 15.5388 76.522 15.5388 81.6331 15.5388C81.7293 15.5388 81.8094 15.5388 81.9055 15.5388C82.1939 15.5388 82.4182 15.7631 82.4342 16.0355C82.4342 16.0836 82.4342 16.1316 82.4342 16.1797C82.4342 20.4417 82.4342 24.7036 82.4342 28.9656C82.4342 29.1578 82.4182 29.3341 82.4022 29.5264C82.4022 29.5744 82.3862 29.6225 82.3541 29.6706C82.3221 29.7507 82.3061 29.8148 82.29 29.8949C82.1779 30.6159 81.9536 30.7601 81.2486 30.5358C80.1911 30.2153 79.1336 30.5358 78.4767 31.417C78.3485 31.5933 78.2364 31.7695 78.1883 31.9778C78.0922 32.2982 78.3325 32.6187 78.653 32.6507C79.9027 32.7629 81.2005 32.4905 82.4663 32.843C82.4663 33.7883 82.4823 34.6535 82.4503 35.5348C82.4503 35.6309 82.3862 35.679 82.3061 35.743C82.0657 35.8552 81.7934 35.8071 81.553 35.8071C75.7689 35.8071 69.9849 35.8071 64.2168 35.8071C64.0726 35.8071 63.9124 35.8232 63.7682 35.8232C63.4798 35.8071 63.2715 35.5508 63.2715 35.2624C63.2715 35.2143 63.2715 35.1502 63.2715 35.1021C63.2875 28.7733 63.2875 22.4445 63.2875 16.0996Z" fill="#FEFEFE"/>
<path d="M83.4436 28.5491C83.4436 24.5755 83.4436 20.0092 83.4436 16.0036C83.4436 15.7632 83.6359 15.5549 83.8923 15.5549C86.4879 15.5549 99.7544 15.5549 102.206 15.5549C102.446 15.5549 102.638 15.7472 102.654 15.9715C102.654 15.9875 102.654 16.0036 102.654 16.0196C102.654 22.4766 102.654 28.9336 102.654 35.3906C102.654 35.5348 102.59 35.663 102.478 35.7431C102.302 35.8553 102.11 35.8553 101.901 35.8553C98.0561 35.8713 84.0044 35.8072 83.8762 35.7912C83.6519 35.7752 83.4757 35.5829 83.4757 35.3426V32.5226C83.4757 32.3464 83.5718 32.795 83.7481 32.7309C83.9564 32.6508 84.1967 32.6668 84.437 32.6668C86.3757 32.6668 88.3144 32.6668 90.2532 32.6668C90.4454 32.6668 90.6537 32.6829 90.862 32.6508C91.0222 32.6188 91.1664 32.5066 91.2145 32.3464C91.4709 31.337 90.7659 30.1673 89.6443 29.8469C89.1156 29.7027 88.5868 29.6386 88.0741 29.8469C87.5293 30.0712 87.1128 29.9751 86.7443 29.4624C86.1354 28.6292 85.2702 28.3568 84.2768 28.4369C84.2127 28.4369 84.1326 28.469 84.0685 28.485C83.732 28.5972 83.4436 28.8535 83.4436 28.5491Z" fill="#FEFEFE"/>
<path d="M83.4276 42.2V37.7458C83.4276 37.2811 83.7961 36.9126 84.2608 36.9126H101.757C102.238 36.9126 102.622 37.2971 102.622 37.7778V46.0454C102.398 46.2857 102.11 46.3177 101.805 46.3177C101.068 46.3177 100.315 46.3177 99.5782 46.3177C99.3218 46.3177 99.0655 46.2857 98.8251 46.4619C98.5848 46.7664 98.6809 47.1349 98.6649 47.4874C98.6168 48.2404 98.4086 48.4647 97.6555 48.4808C96.8864 48.4968 96.1334 48.4968 95.3643 48.4808C95.1079 48.4808 94.8516 48.4487 94.6433 48.2564C94.451 47.7758 94.3389 47.2631 94.3389 46.7824C94.3068 44.5553 94.2588 42.3282 94.3549 40.1011C94.3549 39.9088 94.3068 39.7165 94.0344 39.5563C92.4482 39.5242 90.7819 39.5242 88.9714 39.5403C88.9233 41.0944 88.9553 42.5685 88.9393 44.0586C88.9233 46.51 88.9874 48.9775 88.9073 51.4289C89.0675 53.0632 88.9073 53.2234 87.273 53.2234C87.0166 53.2234 86.7603 53.2394 86.5039 53.2234C86.4398 53.2074 86.3757 53.1913 86.3117 53.1913C85.0299 53.1753 84.9497 53.0952 84.9658 51.7974C84.9818 50.1631 84.9017 48.5288 85.0138 46.8945C84.9017 45.4846 85.0459 44.0586 84.9337 42.6646C84.437 42.2961 83.8122 42.6326 83.4276 42.2Z" fill="#FEFEFE"/>
<path d="M86.5199 52.9031H88.6509C88.6669 52.3584 88.683 51.8617 88.699 51.3489C89.2437 50.5799 90.0929 50.1953 90.8139 49.6345C91.6952 48.9296 92.6405 48.3207 93.5538 47.6638C93.8582 47.4555 94.1786 47.087 94.6112 47.1671C94.6112 47.5837 94.6112 47.6157 94.6273 48.1605H98.4246V45.9814C98.7771 45.9975 101.709 45.9975 102.654 45.9975C102.654 47.6157 102.654 47.6958 102.654 49.2019C100.668 50.5959 99.0815 51.8136 97.0947 53.2075C95.6687 54.2009 94.2748 55.2424 92.8808 56.2838C92.6565 56.4601 92.4002 56.5883 92.1758 56.7485H84.1166C83.7641 56.7485 83.4597 56.4601 83.4597 56.0916V55.0822C84.421 54.281 85.3663 53.4479 86.5199 52.9031Z" fill="#C4E2FA"/>
<path d="M71.3948 56.7483C72.0197 56.2997 82.258 48.8173 82.4342 48.6891C82.4342 51.1245 82.4503 53.5278 82.4503 55.9312C82.1779 56.1715 81.8094 56.4599 81.521 56.7323C79.1657 56.7804 71.6031 56.7804 71.3948 56.7483Z" fill="#D5EDFF"/>
<path d="M92.0002 57.112C92.1765 56.9197 102.158 49.7096 102.479 49.5654V56.2307C102.479 56.6954 102.094 57.0799 101.63 57.0959C99.2584 57.112 92.6892 57.112 92.0002 57.112Z" fill="#CFEBFF"/>
<path d="M104.866 12.7828C104.85 12.8149 104.834 12.8309 104.817 12.8629C104.817 12.8309 104.817 12.7828 104.817 12.7508C104.817 12.6546 104.817 12.5745 104.817 12.4784C104.882 12.5585 104.914 12.6707 104.866 12.7828Z" fill="#A4B5F6"/>
<path d="M104.866 12.7828C104.85 12.8149 104.834 12.8309 104.817 12.8629C104.817 12.8309 104.817 12.7828 104.817 12.7508C104.817 12.6546 104.817 12.5745 104.817 12.4784C104.882 12.5585 104.914 12.6707 104.866 12.7828Z" fill="#AAB5F4"/>
<path d="M83.4436 28.4367C83.7961 28.3246 84.1967 28.2124 84.5812 28.1964C85.7028 28.1644 86.536 28.6611 87.0967 29.6224C87.1448 29.7025 87.1929 29.7666 87.273 29.8788C88.7471 29.1577 90.0609 29.35 91.1023 30.6799C91.5189 31.2086 91.6311 32.186 91.3106 32.939C88.715 32.939 86.0713 32.939 83.4276 32.939C83.4436 31.4009 83.4436 29.9749 83.4436 28.4367Z" fill="#A6BCCD"/>
<path d="M90.4775 57.6296C90.3974 57.6937 90.3172 57.7578 90.2371 57.8379C90.0609 57.9821 83.5237 62.7087 83.4436 62.7567V58.3826C83.4436 57.95 83.7961 57.5975 84.2287 57.5975C86.3437 57.6136 88.4106 57.6136 90.4775 57.6296Z" fill="#C4E2FA"/>
<path d="M86.5199 52.903C86.5039 52.9191 83.5558 55.1301 83.4436 55.2263C83.4436 52.7909 83.4436 50.2113 83.4436 47.7759C83.732 47.2792 84.2287 47.0068 84.6934 46.7184C84.8536 46.6062 84.9978 46.43 85.158 46.5742C85.158 48.577 85.158 50.8361 85.158 52.9191C85.6387 52.9191 86.1354 52.9191 86.5199 52.903Z" fill="#DFF1FF"/>
<path d="M77.8518 32.9392C77.7717 32.1381 77.98 31.5293 78.5087 31.0005C79.5021 30.0232 80.6237 29.8469 81.8735 30.5199C82.0657 30.1834 82.274 29.7027 82.4503 29.4143C82.4823 30.4558 82.5143 31.8016 82.4983 32.9072C81.553 32.9232 79.39 32.9392 77.8518 32.9392Z" fill="#A6BCCD"/>
<path d="M85.158 46.6223C84.9017 46.8305 83.7641 47.7598 83.4436 48.0322C83.4436 46.1576 83.4436 44.0106 83.4436 42.136C84.0204 42.136 84.5812 42.136 85.2221 42.136C85.2221 43.7382 85.158 45.1162 85.158 46.6223Z" fill="#C4E2FA"/>
<path d="M65.8991 27.78C65.9472 26.8507 66.2836 26.1778 66.9406 25.617C67.6135 25.0402 68.3986 25.1363 69.1997 25.1043C69.7445 24.2551 70.4975 23.6943 71.523 23.6142C72.5484 23.518 73.2854 24.1269 73.9744 24.7838C75.2402 24.1589 76.4739 24.0628 77.5314 25.0882C78.2684 25.8092 78.5247 26.7225 78.2043 27.796C74.1186 27.78 70.0489 27.78 65.8991 27.78Z" fill="#BEE3FF"/>
<path d="M91.0543 20.3296C91.7112 18.9356 92.7847 18.3748 94.1466 18.6312C95.3643 18.8555 96.0693 19.7047 96.3096 21.0025C97.0787 20.5859 97.8478 20.3936 98.6489 20.666C99.466 20.9544 99.9788 21.5633 100.411 22.2683C100.459 22.5887 100.507 22.8931 100.556 23.1976C100.107 23.3738 87.4813 23.4059 86.8244 23.2136C86.6001 22.2843 86.8724 21.4511 87.4973 20.7622C88.5067 19.6406 89.7244 19.6887 91.0543 20.3296Z" fill="#ACCDE6"/>
<path d="M75.1601 48.1285H68.3185V43.7864C66.6041 43.7704 64.9538 43.7864 63.2715 43.7704V37.6338C63.2715 37.2172 63.6079 36.8807 64.0245 36.8807H81.7293C82.1298 36.8807 82.4503 37.2012 82.4503 37.6017V42.088H75.1601V48.1285Z" fill="#FEFEFE"/>
<path d="M94.5952 47.1671C94.4671 47.2312 94.2107 47.4555 94.0985 47.5516C92.7046 48.561 91.3106 49.5865 89.9007 50.5959C89.5161 50.8683 89.0996 51.2047 88.683 51.4611C88.683 48.9936 88.683 46.414 88.683 43.9306C88.9874 43.3538 89.5962 43.0974 90.0769 42.7609C91.3267 41.8957 92.4803 40.9344 93.7621 40.1172C94.0024 39.957 94.2427 39.7167 94.5632 39.957C94.5632 41.5112 94.5472 43.0493 94.5792 44.6035C94.5952 45.7892 94.5952 46.7826 94.5952 47.1671Z" fill="#D5EDFF"/>
<path d="M94.5632 39.9731C94.1146 40.2775 89.2277 44.0107 88.699 44.3792C88.699 42.8251 88.683 40.8543 88.683 39.2521C90.6697 39.2521 92.5764 39.2521 94.5632 39.2521C94.5632 39.5084 94.5632 39.7327 94.5632 39.9731Z" fill="#BEE3FF"/>
<path d="M49.0596 78.8914C49.0596 78.8914 49.4601 80.6538 51.3348 80.6698C53.2094 80.6859 115.585 80.6698 115.585 80.6698C115.585 80.6698 117.683 80.7339 118.036 78.9394C118.036 78.9394 118.132 81.4229 115.729 81.503C113.486 81.5671 50.8701 81.503 50.8701 81.503C50.8701 81.503 49.1878 81.2787 49.0596 78.8914Z" fill="white"/>
<path d="M70.3694 57.6296L63.1753 62.3562V69.9829L80.4314 57.6296H70.3694Z" fill="#D5EDFF"/>
<path d="M82.5143 63.574L65.0499 76.7444H81.7933C82.1779 76.7444 82.4983 76.4239 82.4983 76.0394L82.5143 63.574Z" fill="#BFE4FF"/>
<path d="M70.2242 29.8818C70.0411 30.7871 69.914 32.5329 70.871 32.2742C71.8279 32.0155 70.8385 30.5715 70.2242 29.8818Z" fill="#006BBB"/>
<path d="M74.3547 31.5342C74.1715 32.4394 74.0445 34.1853 75.0014 33.9266C75.9584 33.6679 74.969 32.2238 74.3547 31.5342Z" fill="#006BBB"/>
<path d="M79.3112 38.9691C79.1281 39.8744 79.001 41.6202 79.958 41.3615C80.9149 41.1028 79.9255 39.6588 79.3112 38.9691Z" fill="#006BBB"/>
<path d="M94.3274 42.2422C94.1751 42.949 94.0694 44.312 94.8652 44.11C95.6611 43.9081 94.8383 42.7807 94.3274 42.2422Z" fill="#006BBB"/>
<path d="M100.11 58.764C99.9577 59.4707 99.852 60.8337 100.648 60.6318C101.444 60.4298 100.621 59.3024 100.11 58.764Z" fill="#006BBB"/>
<path d="M92.2664 51.9161C92.1141 52.6228 92.0084 53.9858 92.8042 53.7839C93.6001 53.5819 92.7773 52.4545 92.2664 51.9161Z" fill="#006BBB"/>
<path d="M98.049 68.438C97.8967 69.1448 97.7911 70.5078 98.5869 70.3058C99.3827 70.1039 98.5599 68.9765 98.049 68.438Z" fill="#006BBB"/>
<path d="M76.8329 53.8385C76.6498 54.7437 76.5227 56.4896 77.4797 56.2309C78.4366 55.9722 77.4473 54.5282 76.8329 53.8385Z" fill="#006BBB"/>
<path d="M71.0503 50.5342C70.8672 51.4394 70.7401 53.1853 71.6971 52.9266C72.654 52.6679 71.6646 51.2238 71.0503 50.5342Z" fill="#006BBB"/>
<path d="M84.7096 47.4015C84.5573 48.1083 84.4516 49.4713 85.2474 49.2693C86.0432 49.0674 85.2205 47.94 84.7096 47.4015Z" fill="#006BBB"/>
<path d="M90.4922 63.9234C90.3399 64.6301 90.2342 65.9932 91.03 65.7912C91.8259 65.5892 91.0031 64.4618 90.4922 63.9234Z" fill="#006BBB"/>
<path d="M72.7025 62.9254C72.5193 63.8307 72.3923 65.5765 73.3492 65.3178C74.3062 65.0591 73.3168 63.6151 72.7025 62.9254Z" fill="#006BBB"/>
<path d="M87.5721 64.5776C87.3889 65.4829 87.2619 67.2287 88.2188 66.97C89.1758 66.7113 88.1864 65.2673 87.5721 64.5776Z" fill="#006BBB"/>
<path d="M75.1808 69.5342C74.9976 70.4394 74.8705 72.1853 75.8275 71.9266C76.7845 71.6679 75.7951 70.2238 75.1808 69.5342Z" fill="#006BBB"/>
<path d="M95.0069 50.5342C94.8237 51.4394 94.6967 53.1853 95.6536 52.9266C96.6106 52.6679 95.6212 51.2238 95.0069 50.5342Z" fill="#006BBB"/>
<path d="M78.4851 62.9254C78.302 63.8307 78.1749 65.5765 79.1319 65.3178C80.0888 65.0591 79.0994 63.6151 78.4851 62.9254Z" fill="#006BBB"/>
<path d="M69.3981 59.6212C69.215 60.5265 69.0879 62.2723 70.0449 62.0136C71.0018 61.7549 70.0124 60.3109 69.3981 59.6212Z" fill="#006BBB"/>
<path d="M66.9199 48.8821C66.7367 49.7873 66.6097 51.5332 67.5666 51.2745C68.5236 51.0158 67.5342 49.5717 66.9199 48.8821Z" fill="#006BBB"/>
<path d="M90.0504 34.8386C89.8672 35.7439 89.7401 37.4897 90.6971 37.231C91.6541 36.9723 90.6647 35.5283 90.0504 34.8386Z" fill="#006BBB"/>
<path d="M75.0918 49.3364C74.9395 50.0431 74.8338 51.4061 75.6296 51.2042C76.4254 51.0022 75.6026 49.8748 75.0918 49.3364Z" fill="#006BBB"/>
<path d="M80.8744 65.8583C80.7221 66.5651 80.6164 67.9281 81.4122 67.7261C82.2081 67.5242 81.3853 66.3968 80.8744 65.8583Z" fill="#006BBB"/>
<path d="M70.1352 69.503C69.9829 70.2097 69.8773 71.5728 70.6731 71.3708C71.4689 71.1688 70.6461 70.0414 70.1352 69.503Z" fill="#006BBB"/>
<path d="M96.6591 30.708C96.4759 31.6132 96.3489 33.3591 97.3058 33.1004C98.2628 32.8417 97.2734 31.3977 96.6591 30.708Z" fill="#006BBB"/>
<path d="M91.7025 25.7516C91.5194 26.6568 91.3923 28.4027 92.3493 28.144C93.3062 27.8853 92.3168 26.4412 91.7025 25.7516Z" fill="#006BBB"/>
<path d="M98.3113 24.9253C98.1281 25.8305 98.001 27.5764 98.958 27.3177C99.9149 27.059 98.9256 25.6149 98.3113 24.9253Z" fill="#006BBB"/>
<path d="M86.746 38.1429C86.5629 39.0482 86.4358 40.794 87.3927 40.5353C88.3497 40.2766 87.3603 38.8326 86.746 38.1429Z" fill="#006BBB"/>
<path d="M74.3547 37.3168C74.1715 38.222 74.0445 39.9678 75.0014 39.7091C75.9584 39.4505 74.969 38.0064 74.3547 37.3168Z" fill="#006BBB"/>
<path d="M79.9007 44.1768C79.7484 44.8836 79.6427 46.2466 80.4385 46.0446C81.2343 45.8426 80.4116 44.7153 79.9007 44.1768Z" fill="#006BBB"/>
<path d="M85.6833 60.6987C85.531 61.4054 85.4253 62.7684 86.2212 62.5665C87.017 62.3645 86.1942 61.2371 85.6833 60.6987Z" fill="#006BBB"/>
<path d="M68.572 38.9691C68.3889 39.8744 68.2618 41.6202 69.2188 41.3615C70.1757 41.1028 69.1864 39.6588 68.572 38.9691Z" fill="#006BBB"/>
<rect x="63.0871" y="15.6957" width="39.6523" height="61.1306" rx="1.65218" fill="black" fill-opacity="0.1"/>
<path d="M51.1906 75.092H115.344C118.741 75.092 119.109 79.37 115.44 79.37H51.3348C48.2104 79.37 48.3867 75.092 51.1906 75.092Z" fill="#4CA9EE"/>
</g>
<path d="M60.8968 98.9502C60.8968 100.243 48.9269 101.258 34.1433 101.258C19.3597 101.258 7.38972 100.197 7.38972 98.9502C7.38972 97.6577 19.3597 96.6421 34.1433 96.6421C48.9269 96.6421 60.8968 97.6577 60.8968 98.9502Z" fill="#191D23"/>
<path d="M11.9202 144.744L11.3479 144.652C14.0662 129.926 19.1689 101.905 19.1689 100.981H19.455V100.704L19.6458 100.797C19.7889 100.935 19.9319 101.12 11.9202 144.744Z" fill="#191D23"/>
<path d="M50.4921 100.927L49.9291 101.026L58.145 144.765L58.708 144.666L50.4921 100.927Z" fill="#191D23"/>
<path d="M52.5995 113.03H17.6912V113.584H52.5995V113.03Z" fill="#191D23"/>
<path d="M9.96491 91.8874L60.4199 92.349V65.3899L9.91722 65.4361L9.96491 91.8874Z" fill="#849CD6"/>
<path d="M12.4158 90.4265L58.4834 90.3954L58.4667 67.3139L12.3991 67.3451L12.4158 90.4265Z" fill="#FFF7EF"/>
<path d="M12.425 88.6375L58.4926 88.6064L58.4921 87.914L12.4245 87.9451L12.425 88.6375Z" fill="#FFDECB"/>
<path d="M49.2441 88.6464L58.4958 88.6401L58.4953 87.9477L49.2436 87.9539L49.2441 88.6464Z" fill="#849CD6"/>
<path d="M12.4271 90.4484L58.4947 90.4172L58.4935 88.663L12.4259 88.6942L12.4271 90.4484Z" fill="#1A212B"/>
<path d="M54.6353 89.9059L54.8737 89.9058L54.873 89.0287L54.6346 89.0288L54.6353 89.9059Z" fill="#FFEFE3"/>
<path d="M54.1795 89.9064L54.418 89.9062L54.4175 89.0292L54.179 89.0293L54.1795 89.9064Z" fill="#FFEFE3"/>
<path d="M57.1436 89.9729L57.3343 89.9728L57.3335 89.0034L57.1427 89.0035L57.1436 89.9729Z" fill="#FFEFE3"/>
<path d="M56.0793 88.9792L57.0808 89.4409L56.0793 89.9487V88.9792Z" fill="#FFEFE3"/>
<path d="M51.8339 88.9792H51.6431V89.9487H51.8339V88.9792Z" fill="#FFEFE3"/>
<path d="M52.883 88.9792L51.9292 89.4409L52.9307 89.9487L52.883 88.9792Z" fill="#FFEFE3"/>
<path d="M19.3565 90.0406H21.2641C21.3594 90.0406 21.4548 89.9483 21.4548 89.856V89.1635C21.4548 89.0712 21.3594 88.9789 21.2641 88.9789H19.3565C19.2611 88.9789 19.1657 89.0712 19.1657 89.1635V89.856C19.2134 89.9945 19.2611 90.0406 19.3565 90.0406Z" fill="#FFEFE3"/>
<path d="M16.4479 89.579C16.4479 89.9021 16.7817 90.1791 17.1632 90.1791C17.5447 90.1791 17.8786 89.9021 17.8786 89.579C17.8786 89.2559 17.5447 88.9789 17.1632 88.9789C16.7817 89.025 16.4479 89.2559 16.4479 89.579Z" fill="#FFEFE3"/>
<path d="M14.8736 89.0712V89.3943H15.3028" stroke="#FFEFE3" stroke-width="0.103313" stroke-miterlimit="10" stroke-linecap="round" stroke-linejoin="round"/>
<path d="M14.5883 89.0725V89.3956H14.1591" stroke="#FFEFE3" stroke-width="0.103313" stroke-miterlimit="10" stroke-linecap="round" stroke-linejoin="round"/>
<path d="M14.8736 89.9947V89.6715H15.3028" stroke="#FFEFE3" stroke-width="0.103313" stroke-miterlimit="10" stroke-linecap="round" stroke-linejoin="round"/>
<path d="M14.5875 89.9947V89.6715H14.1583" stroke="#FFEFE3" stroke-width="0.103313" stroke-miterlimit="10" stroke-linecap="round" stroke-linejoin="round"/>
<path d="M12.3855 68.838L58.4531 68.8069L58.452 67.3297L12.3844 67.3608L12.3855 68.838Z" fill="#D6DEFF"/>
<path d="M15.1171 87.1325L57.0834 87.0863L53.1252 85.7014H17.7399L15.1171 87.1325Z" fill="#849CD6"/>
<path d="M58.4646 85.7014L12.2062 85.7476" stroke="#D6DEFF" stroke-width="0.107975" stroke-miterlimit="10"/>
<path d="M35.908 65.99C35.7172 66.1746 35.7172 66.4516 35.908 66.6363C36.0988 66.8209 36.4803 66.8209 36.671 66.6363C36.8618 66.4516 36.8618 66.1746 36.671 65.99C36.4803 65.8515 36.0988 65.8515 35.908 65.99Z" fill="#191D23"/>
<path d="M9.96523 91.8875L2.47805 98.8119H67.812L60.4202 91.8875H9.96523Z" fill="#849CD6"/>
<path d="M11.7292 92.5337L8.20024 95.9959L62.3273 95.9497L58.7983 92.5337H11.7292Z" fill="#D6DEFF"/>
<path d="M2.47805 98.8118L3.81334 99.6889H66.3813L67.6213 98.6272L2.47805 98.8118Z" fill="#191D23"/>
<path d="M13.9226 92.2106L10.2506 96.6884" stroke="#849CD6" stroke-width="0.118916" stroke-miterlimit="10"/>
<path d="M16.2124 92.1642C15.4494 93.6876 14.7818 95.2571 14.2095 96.8266" stroke="#849CD6" stroke-width="0.118916" stroke-miterlimit="10"/>
<path d="M18.6921 92.2567C18.4059 93.8724 18.0721 95.442 17.786 97.0577" stroke="#849CD6" stroke-width="0.118916" stroke-miterlimit="10"/>
<path d="M21.5052 92.1642C21.2668 93.826 21.0283 95.4879 20.7899 97.1498" stroke="#849CD6" stroke-width="0.118916" stroke-miterlimit="10"/>
<path d="M24.0338 92.2567C23.843 93.8263 23.7 95.3958 23.7 96.9653" stroke="#849CD6" stroke-width="0.118916" stroke-miterlimit="10"/>
<path d="M26.4181 92.2106C26.4181 93.7801 26.4181 95.3497 26.3227 96.9192" stroke="#849CD6" stroke-width="0.118916" stroke-miterlimit="10"/>
<path d="M29.0416 92.2567C29.137 93.7339 29.0893 95.2573 28.9939 96.7345" stroke="#849CD6" stroke-width="0.118916" stroke-miterlimit="10"/>
<path d="M31.2828 92.1642C31.5213 93.6414 31.6643 95.1648 31.7597 96.642" stroke="#849CD6" stroke-width="0.118916" stroke-miterlimit="10"/>
<path d="M33.8094 92.2567C33.9524 93.8263 34.0955 95.3496 34.2386 96.9192" stroke="#849CD6" stroke-width="0.118916" stroke-miterlimit="10"/>
<path d="M36.7668 92.2106C36.8622 93.6878 37.0052 95.2112 37.1483 96.6884" stroke="#849CD6" stroke-width="0.118916" stroke-miterlimit="10"/>
<path d="M39.2455 92.2567C39.5794 93.7339 40.0086 95.2111 40.4378 96.6884" stroke="#849CD6" stroke-width="0.118916" stroke-miterlimit="10"/>
<path d="M41.917 92.2106C42.6324 93.8263 43.3954 95.442 44.3015 97.0115" stroke="#849CD6" stroke-width="0.118916" stroke-miterlimit="10"/>
<path d="M44.2539 92.2106C45.3031 93.7801 46.2092 95.442 47.0199 97.15" stroke="#849CD6" stroke-width="0.118916" stroke-miterlimit="10"/>
<path d="M47.1148 92.1642C48.0686 93.7337 48.9747 95.3494 49.8331 96.9651" stroke="#849CD6" stroke-width="0.118916" stroke-miterlimit="10"/>
<path d="M49.7379 92.1642C50.787 93.7799 51.7885 95.3494 52.79 96.9651" stroke="#849CD6" stroke-width="0.118916" stroke-miterlimit="10"/>
<path d="M52.9805 92.1179C54.3635 93.6875 54.9357 95.6725 56.3664 97.242" stroke="#849CD6" stroke-width="0.118916" stroke-miterlimit="10"/>
<path d="M55.6517 91.9336C56.8916 93.3646 57.9884 94.888 59.0376 96.4114" stroke="#849CD6" stroke-width="0.118916" stroke-miterlimit="10"/>
<path d="M9.91722 93.2261H60.6106" stroke="#849CD6" stroke-width="0.118916" stroke-miterlimit="10"/>
<path d="M9.7742 94.1956H61.7076" stroke="#849CD6" stroke-width="0.118916" stroke-miterlimit="10"/>
<path d="M8.91636 95.1188H62.5665" stroke="#849CD6" stroke-width="0.118916" stroke-miterlimit="10"/>
<path d="M41.0591 98.1193H25.6555L26.3232 96.6421H40.4391L41.0591 98.1193Z" fill="#D6DEFF"/>
<path d="M31.1884 83.8087C30.5207 83.624 29.9008 83.347 29.2808 83.0239C29.1378 82.9316 29.0424 82.8854 28.8993 82.7931C27.2302 81.7775 26.038 80.5311 26.038 80.5311C25.9903 81.8237 25.2273 83.8548 25.2273 83.8548L23.8443 83.7163C23.8443 83.7163 23.272 79.4232 23.4628 78.2691C23.5581 77.4844 24.2258 76.3764 25.3226 76.6534C25.7041 76.7457 26.0857 76.9304 26.4195 77.115C27.7071 77.7152 28.947 78.4076 30.1392 79.1001V79.1924L30.2346 79.654L31.1884 83.8087Z" fill="#29E7CD"/>
<path d="M25.2742 83.8547L23.8912 83.7162L23.8436 84.224C23.8436 84.224 23.0805 85.0088 21.9837 85.3781C20.8868 85.7474 20.0284 85.932 20.0761 86.209C20.1238 86.486 22.699 86.1628 23.462 86.1628C24.2728 86.1628 25.1312 86.3013 25.2265 86.1167C25.3219 85.932 25.2265 84.501 25.2265 84.501L25.2742 83.8547Z" fill="#FFC6A5"/>
<path d="M43.4912 74.6225C43.1574 74.9918 42.7282 75.315 42.2513 75.4535C41.8698 75.5458 41.3929 75.592 40.9637 75.4535C40.5345 75.315 40.153 74.9918 39.9145 74.6225C39.8668 74.5302 39.5807 73.6531 39.5807 73.6531C39.2946 73.6531 39.0561 73.7454 39.0561 73.7454C39.0561 73.7454 39.0561 73.8378 38.9607 74.5302C38.8654 75.2227 38.4362 76.5614 38.4362 76.5614L36.0994 76.7922H36.004C35.9563 76.7922 35.9563 76.7922 35.9086 76.8384H35.8609C35.8133 76.8384 35.7656 76.8845 35.7179 76.8845H35.6702C35.5748 76.9307 35.4794 76.9768 35.3841 77.023C35.3364 77.023 35.3364 77.0692 35.2887 77.0692C35.3841 77.1153 35.3364 77.1615 35.2887 77.1615L35.1933 77.2077C34.9072 77.3923 34.6687 77.6231 34.478 77.8078C34.4303 77.8539 34.4303 77.9001 34.3826 77.9001C34.2872 77.9924 34.2395 78.0848 34.1918 78.1309C34.1918 78.1771 34.1918 78.1771 34.1441 78.1771C34.1441 78.2232 34.1441 78.2694 34.0965 78.3156C34.0011 78.6849 34.2395 79.2388 34.2395 79.2388L29.9952 80.6237C29.9952 80.6237 29.7091 80.4391 30.2813 78.5464C30.5198 77.7616 30.8536 77.1153 31.1397 76.6075C31.3782 76.2382 31.5689 75.9613 31.712 75.7766C31.8074 75.6381 31.9028 75.592 31.9028 75.592C31.9028 75.592 31.9028 75.592 31.9028 75.5458C31.9505 75.315 32.0935 74.3456 32.8089 73.6993C33.3334 73.1915 35.0979 72.8683 36.1948 72.6837C36.767 72.5914 37.1486 72.5452 37.1486 72.5452C37.1962 72.5452 37.1962 72.499 37.2439 72.499C37.8639 72.0374 38.913 71.5296 39.6761 71.2065C40.2006 70.9757 40.5822 70.8372 40.5822 70.8372C40.5822 70.8372 40.5822 70.8372 40.6299 70.791C40.6775 70.7449 40.7252 70.6987 40.7729 70.6987C40.916 70.6064 41.1067 70.5602 41.2498 70.6064C41.3929 70.6525 41.5359 70.7449 41.6313 70.8372C41.679 70.8833 41.7744 70.9295 41.8221 70.9757C41.8698 71.0218 41.8698 71.0218 41.9175 71.068C41.9651 71.1142 41.9651 71.1142 41.9175 71.1603C41.8221 71.2526 41.679 71.3911 41.5836 71.622C41.679 71.5758 41.9651 71.3911 42.1559 71.345C42.2036 71.345 42.2036 71.345 42.2036 71.345C42.2036 71.345 42.2036 71.345 42.2513 71.3911C42.2513 71.4373 42.299 71.4373 42.299 71.4373C42.7759 71.9451 43.3481 72.5452 43.6819 73.1915C43.6819 73.2377 43.7296 73.2377 43.7296 73.2838C43.9681 73.7454 43.825 74.2071 43.4912 74.6225Z" fill="#FFC6A5"/>
<path d="M29.9472 80.3928C29.9472 80.3928 29.6611 82.424 31.1871 83.8089" stroke="#FFF7EF" stroke-width="0.023135" stroke-miterlimit="10" stroke-linecap="round" stroke-linejoin="round"/>
<path d="M25.7034 78.5924C25.7034 78.5924 26.0849 79.608 26.1326 80.5774" stroke="#FFF7EF" stroke-width="0.0462552" stroke-miterlimit="10" stroke-linecap="round" stroke-linejoin="round"/>
<path d="M48.6408 85.517L49.3562 85.5631C49.3562 85.5631 49.8331 85.1015 50.2146 85.2862C50.8822 85.6555 53.5528 86.4402 53.362 86.6249C52.9805 86.9019 48.4978 86.671 48.4978 86.671L48.6408 85.517Z" fill="#FFC6A5"/>
<path d="M48.6404 85.5172L48.4973 86.6713C48.4973 86.6713 40.0564 87.0867 39.2457 86.9482C37.9104 86.7174 36.6228 86.2096 35.3352 85.7942C34.286 85.4249 33.1892 85.0094 32.2354 84.4554C31.7585 84.1785 31.1862 83.9015 30.8047 83.5322C30.4232 83.209 30.2801 82.6551 30.1371 82.1935C29.9463 81.6857 29.8509 80.9009 29.8986 80.3469L34.2383 79.1929C34.2383 79.1929 35.1921 79.5622 35.8121 80.6701C36.4797 81.778 36.432 82.4243 36.432 82.4243C36.432 82.4243 39.7702 84.4554 40.5333 84.6401C41.2486 84.8247 42.727 84.4554 44.9207 84.8247C45.016 84.8247 45.1591 84.8709 45.2545 84.8709C47.2574 85.2402 48.6404 85.5172 48.6404 85.5172Z" fill="#29E7CD"/>
<path d="M39.1033 73.6991C39.1033 73.6991 39.1033 73.7914 39.0079 74.4838C38.9126 75.1763 38.4834 76.515 38.4834 76.515L36.1466 76.7458H36.0512C36.0035 76.7458 36.0035 76.7458 35.9558 76.792H35.9082C35.8605 76.792 35.8128 76.8381 35.7651 76.8381H35.7174C35.622 76.8843 35.5266 76.9305 35.4313 76.9766C35.3836 76.9766 35.3836 77.0228 35.3359 77.0228C35.3836 77.1151 35.3359 77.1613 35.2882 77.1613C35.2405 77.1613 35.2405 77.2074 35.1928 77.2074C34.9067 77.3921 34.6682 77.6229 34.4775 77.8076C34.4298 77.8537 34.4298 77.8999 34.3821 77.8999C34.2867 77.9922 34.239 78.0845 34.1913 78.1307C34.1913 78.1769 34.1914 78.1769 34.1437 78.1769C34.1437 78.223 34.1437 78.2692 34.096 78.3153C34.096 78.3153 32.4269 77.946 31.3777 76.8843C31.2823 76.792 31.1869 76.6996 31.1393 76.6073C31.3777 76.238 31.5685 75.961 31.7115 75.7764C31.8069 75.6379 31.9023 75.5917 31.9023 75.5917C31.9023 75.5917 31.9023 75.5917 31.9023 75.5456C31.95 75.3148 32.093 74.3453 32.8084 73.6991C33.3329 73.1913 35.0974 72.8681 36.1943 72.6835C35.9082 72.7758 35.6697 72.8681 35.622 73.0066C35.5743 73.3759 38.0065 72.8681 39.1033 73.6991Z" fill="#29E7CD"/>
<path d="M38.5309 76.5146C38.5309 76.5146 37.291 79.9307 37.2433 80.1615C37.1957 80.3923 35.765 80.3462 35.765 80.023C35.7173 79.6999 36.0988 77.0224 36.2419 76.7455L38.5309 76.5146Z" fill="#FFC6A5"/>
<path d="M35.7169 80.0232C35.7169 80.0232 35.4308 83.6701 35.4308 84.501L36.3846 84.778C36.3846 84.778 37.0999 81.962 37.243 80.1617L35.7169 80.0232Z" fill="#FFC6A5"/>
<path d="M35.4304 84.501C35.4304 84.501 34.8104 85.3319 34.6674 85.6089C34.5243 85.8859 33.809 86.4398 34.1428 86.4398C34.4766 86.4398 35.0966 85.9782 35.0966 85.9782C35.0966 85.9782 34.7627 87.6862 35.0966 87.6862C35.4304 87.6862 36.1934 87.2708 36.2411 87.0399C36.3365 86.8091 36.4318 84.5471 36.4318 84.5471L35.4304 84.501Z" fill="#FFC6A5"/>
<path d="M35.2893 85.332C35.2893 85.332 35.0986 85.9321 35.0986 86.0245" stroke="#FF844A" stroke-width="0.023135" stroke-miterlimit="10" stroke-linecap="round" stroke-linejoin="round"/>
<path d="M35.4318 85.9783L35.3364 87.6401" stroke="#FF844A" stroke-width="0.023135" stroke-miterlimit="10" stroke-linecap="round" stroke-linejoin="round"/>
<path d="M35.812 85.9783L35.7166 87.5016" stroke="#FF844A" stroke-width="0.023135" stroke-miterlimit="10" stroke-linecap="round" stroke-linejoin="round"/>
<path d="M36.1465 85.9783L36.0989 87.2708" stroke="#FF844A" stroke-width="0.023135" stroke-miterlimit="10" stroke-linecap="round" stroke-linejoin="round"/>
<path d="M43.6815 73.1452C43.6815 73.099 44.3969 73.376 44.1584 74.0684C43.9677 74.7609 43.5862 75.084 43.5862 75.084L43.6815 73.1452Z" fill="#1A212B"/>
<path d="M43.4923 74.6227C43.1585 74.992 42.7293 75.3151 42.2524 75.4536C42.2047 75.4536 42.2047 75.4536 42.157 75.4536C42.014 75.4075 41.9186 75.3151 41.8232 75.2228C41.5371 74.9458 41.4894 74.5765 41.4417 74.2534C41.4417 74.0226 41.4417 73.7456 41.394 73.5148C41.394 73.4225 41.2986 73.2378 41.3463 73.1917C41.394 73.0993 41.6325 73.0993 41.7278 73.0532C42.3955 72.9147 43.1585 73.007 43.7785 73.3301C43.9692 73.7456 43.8262 74.2072 43.4923 74.6227Z" fill="#1A212B"/>
<path d="M41.3937 73.6999C41.3937 73.6999 41.2506 73.9769 40.8214 73.7922C40.4399 73.6076 39.9153 73.0998 39.5338 73.2844C39.1523 73.4691 38.6754 73.9769 38.9139 75.0386C38.9139 75.0386 39.1046 75.8234 40.5353 75.6387C40.5353 75.6387 40.726 76.008 41.8706 75.8234C42.9674 75.6387 43.7781 75.2233 44.0166 74.5308C44.2073 73.8384 43.8258 73.2844 43.8258 73.2844L41.966 73.4691L41.3937 73.6999Z" fill="#1A212B"/>
<path d="M40.2483 72.9143C40.2006 72.9143 40.1052 73.3298 40.1052 73.3759C40.0575 73.6991 40.2483 73.8837 40.6298 73.9761C40.9636 74.0222 41.2498 74.0222 41.4405 73.7452C41.5359 73.6067 41.5836 73.4683 41.5836 73.3298C41.5836 73.2836 41.5836 73.0528 41.4882 73.0066C41.4405 73.0066 40.2483 72.9143 40.2483 72.9143Z" fill="#FFC6A5"/>
<path d="M41.3923 73.099C41.297 73.0066 41.1539 72.9605 41.0108 72.9143C40.9631 72.9143 40.9155 72.8681 40.8678 72.822C41.2493 72.7296 41.6308 72.822 41.8692 73.099C41.9169 73.1451 41.9646 73.2374 41.9646 73.3298C41.9646 73.4221 41.8215 73.4683 41.7262 73.4683C41.5354 73.4221 41.5354 73.1913 41.3923 73.099Z" fill="#1A212B"/>
<path d="M40.3911 73.145C40.2957 73.2835 40.2481 73.422 40.3434 73.5605C40.3911 73.6528 40.4388 73.699 40.5342 73.7451C40.7249 73.8375 41.0111 73.8375 41.2018 73.699C41.3449 73.6066 41.3926 73.422 41.2972 73.2835" stroke="#1A212B" stroke-width="0.023135" stroke-miterlimit="10" stroke-linecap="round" stroke-linejoin="round"/>
<path d="M41.3449 73.3755C41.3449 73.3755 40.6773 73.1909 40.3435 73.514" stroke="#1A212B" stroke-width="0.023135" stroke-miterlimit="10" stroke-linecap="round" stroke-linejoin="round"/>
<path d="M40.6771 70.791C40.6771 70.8372 40.4863 71.068 40.3432 71.345C40.2002 71.5758 40.1525 71.8989 40.0571 72.1297C40.0571 72.1297 39.771 71.6681 39.7233 71.2065C40.2479 70.9757 40.6294 70.8372 40.6771 70.791C40.6294 70.8372 40.6771 70.8372 40.6771 70.791Z" fill="url(#paint0_linear)"/>
<path d="M43.1094 72.3144C43.1094 72.3144 43.0141 71.4835 42.9187 71.3911C42.8233 71.345 42.3464 71.4835 42.3464 71.4835L43.1094 72.3144Z" fill="#FEBE9B"/>
<path d="M43.1094 72.3144C43.1094 72.3144 43.0141 71.4835 42.9187 71.3911C42.8233 71.345 42.3464 71.4835 42.3464 71.4835L43.1094 72.3144Z" fill="url(#paint1_linear)"/>
<path d="M42.2988 71.3909C42.1558 71.4371 42.0127 71.4833 41.8696 71.5294C41.822 71.5294 41.7743 71.5756 41.7266 71.5756C41.6789 71.5756 41.6789 71.5756 41.6312 71.6218L41.5835 71.6679C41.6312 71.6679 41.965 71.4371 42.2035 71.3909C42.2512 71.3448 42.2512 71.3448 42.2988 71.3909Z" fill="url(#paint2_linear)"/>
<path d="M41.9642 71.1602C41.8688 71.2526 41.7257 71.3911 41.6304 71.6219V71.5757C41.6304 71.5295 41.6304 71.5295 41.6304 71.4834C41.6304 71.3449 41.678 71.2064 41.7734 71.1141C41.8211 71.0679 41.8688 71.0217 41.9165 70.9756C41.9642 71.0217 41.9642 71.0217 42.0119 71.0679C42.0119 71.1141 42.0119 71.1141 41.9642 71.1602Z" fill="url(#paint3_linear)"/>
<path d="M38.5316 74.2072C38.4362 74.3918 38.3408 74.5303 38.3408 74.7611C38.3408 74.9458 38.3885 75.1304 38.5793 75.2689C38.6269 75.3151 38.7223 75.3151 38.7223 75.4074C38.7223 75.4536 38.7223 75.4997 38.7223 75.5921C38.6746 75.8229 38.5793 76.0999 38.6269 76.3307C38.6746 76.5615 38.9608 76.7923 39.2469 76.7923C39.39 76.7923 39.4853 76.7 39.5807 76.7461C39.6761 76.7923 39.7715 76.8385 39.7715 76.9308C39.8192 77.0231 39.7715 77.1154 39.7715 77.2078C39.7715 77.4386 39.8192 77.7156 40.0099 77.9464C40.2007 78.131 40.4391 78.3157 40.7729 78.2695C41.0114 78.2695 41.2498 78.131 41.3929 77.9464C41.536 77.7617 41.6314 77.5771 41.7267 77.3463C41.7744 77.2078 41.8221 77.1154 41.9175 76.977C42.0129 76.8846 42.1082 76.7923 42.2513 76.7461C42.4898 76.7 42.7282 76.8846 42.9666 76.9308C43.1574 76.977 43.3482 76.8846 43.4912 76.8385C44.1112 76.5615 44.3973 75.9152 44.2542 75.3151C44.2066 75.1304 44.1112 74.9458 44.1112 74.715C44.1112 74.6226 44.1589 74.5303 44.1589 74.4842C44.2066 74.2995 44.2542 74.0687 44.2066 73.884C44.2066 73.7455 44.1589 73.6071 44.0158 73.5147C43.9204 73.4686 43.7297 73.4686 43.6343 73.5147C43.3482 73.5609 43.062 73.6994 42.8236 73.8379C42.3944 74.0687 42.0606 74.438 41.5837 74.5765C41.2021 74.6688 40.7729 74.6226 40.4391 74.3918C40.2484 74.2533 40.1053 74.1149 39.9622 73.9302C39.8669 73.7917 39.7715 73.4686 39.533 73.4224C39.1515 73.2839 38.7223 73.9302 38.5316 74.2072Z" fill="#1A212B"/>
<path d="M242.69 156.999H56.3211L75.2537 144.397H226.142L242.69 156.999Z" fill="#29E7CD"/>
<path d="M124.755 136.226C121.226 135.118 117.744 133.318 114.549 131.333C113.881 130.917 113.214 130.456 112.546 129.994C103.581 123.854 96.9996 116.191 96.9996 116.191C96.7134 123.947 92.7076 136.318 92.7076 136.318L85.2204 135.58C85.2204 135.58 82.2637 109.452 83.1698 102.481C83.7897 97.7725 87.2233 91.0788 93.3275 92.6945C95.3781 93.2485 97.3334 94.4026 99.1933 95.372C106.108 99.0189 112.785 103.22 119.318 107.467L119.413 107.928L119.986 110.837L124.755 136.226Z" fill="#1A212B"/>
<path d="M124.754 136.227C121.225 135.119 117.744 133.318 114.549 131.333C113.213 128.518 113.833 125.148 114.74 122.147C115.455 119.793 116.313 117.485 117.315 115.223C117.982 113.653 118.793 112.13 119.938 110.883L124.754 136.227Z" fill="#191D23"/>
<path d="M91.7051 136.457C92.4682 135.026 92.8497 133.41 93.2312 131.841C94.6142 125.978 95.9971 119.977 95.1387 114.068C94.7095 111.206 93.7558 108.436 93.4219 105.528C93.3266 104.882 93.2789 104.235 93.5173 103.635C93.7081 103.035 94.185 102.481 94.8526 102.343C95.5679 102.204 96.2833 102.666 96.7602 103.22C97.4755 104.051 97.8093 105.159 98.1431 106.22C98.8585 108.667 99.5738 111.067 100.289 113.514C100.528 114.345 100.766 115.176 101.195 115.915C101.672 116.792 102.34 117.576 103.007 118.315C104.009 119.469 105.01 120.623 106.203 121.639C107.443 122.701 108.778 123.531 110.161 124.362C113.499 126.347 116.885 128.194 120.366 129.902" stroke="#FFF7EF" stroke-width="0.132626" stroke-miterlimit="10" stroke-linecap="round" stroke-linejoin="round"/>
<path d="M97.238 116.515C97.0473 115.638 96.9042 114.807 96.7611 113.93C96.5704 112.73 96.4273 111.575 96.2366 110.421C96.0935 109.637 95.4258 108.021 95.7597 107.328C96.475 108.113 96.9519 109.129 97.4765 110.052C99.0979 112.96 100.767 115.961 101.005 119.285C101.053 119.7 101.053 120.069 101.005 120.485L97.238 116.515Z" fill="#191D23"/>
<path d="M92.7079 136.365L85.2207 135.626L84.9345 138.627C84.9822 138.627 80.881 143.29 74.9198 145.505C68.9587 147.721 64.2852 148.829 64.476 150.537C64.6667 152.245 78.6396 150.122 82.9316 150.214C87.2236 150.26 91.9925 150.953 92.4694 149.798C92.9463 148.644 92.4217 140.012 92.4217 140.012L92.7079 136.365Z" fill="#FFC6A5"/>
<path d="M191.519 80.3692C189.85 82.6311 187.418 84.4315 184.7 85.3086C182.506 86.001 180.121 86.0472 177.832 85.1701C175.4 84.293 173.397 82.4927 172.253 80.2307C171.967 79.7229 170.393 74.4141 170.488 74.368C168.867 74.368 167.77 74.8758 167.77 74.8758C167.77 74.8758 167.77 75.3836 167.245 79.6306C166.721 83.8775 164.527 91.8176 164.527 91.8176L151.985 93.3409L151.365 93.4333C151.222 93.4794 151.031 93.5256 150.888 93.5717C150.793 93.6179 150.697 93.6179 150.65 93.6641C150.411 93.7564 150.173 93.8487 149.982 93.9872C149.887 94.0334 149.791 94.0795 149.696 94.1257C149.219 94.3565 148.742 94.6797 148.218 95.0028C148.074 95.0951 147.931 95.1875 147.788 95.2798C147.502 95.4644 147.216 95.6952 146.93 95.8799L146.501 96.203C144.975 97.4033 143.544 98.7882 142.495 99.9884C142.304 100.219 142.113 100.404 141.97 100.635C141.541 101.189 141.207 101.65 141.064 102.066C141.016 102.204 140.969 102.343 140.921 102.481C140.873 102.712 140.826 102.989 140.778 103.266C140.397 105.574 141.446 108.99 141.446 108.99L118.46 117.346C118.46 117.346 116.838 116.284 120.081 104.605C121.464 99.7576 123.181 95.8337 124.755 92.9255C125.994 90.6173 127.139 88.8631 127.902 87.8475C128.522 87.0166 128.856 86.6011 128.856 86.6011C128.856 86.6011 128.856 86.4627 128.903 86.278C129.094 84.847 130 79.0766 133.815 74.9219C136.724 71.7367 146.215 69.7517 152.223 68.7361C155.228 68.2283 157.374 67.9975 157.374 67.9975C157.517 67.859 157.66 67.7667 157.803 67.6282C161.189 64.8584 166.864 61.8117 171.013 59.7343C173.874 58.3033 176.02 57.38 176.02 57.38C176.068 57.38 176.116 57.2877 176.163 57.2416C176.211 57.1954 176.259 57.1492 176.259 57.1031C176.497 56.8722 176.736 56.6414 177.022 56.4568C177.737 55.9952 178.738 55.672 179.645 55.9028C180.503 56.1336 181.123 56.8261 181.743 57.38C182.077 57.7032 182.411 57.9802 182.744 58.3033C182.887 58.4418 183.078 58.6264 183.221 58.7649C183.364 58.9496 183.364 59.1804 183.174 59.3189C182.601 59.8267 181.791 60.7961 181.266 62.181C181.266 62.2271 181.218 62.2733 181.218 62.3195C181.218 62.3195 181.266 62.2733 181.314 62.2271C181.791 61.904 183.317 60.8423 184.509 60.5191C184.652 60.473 184.795 60.5191 184.89 60.6576C184.938 60.7038 184.986 60.7961 185.033 60.8423C185.177 60.9807 185.272 61.1654 185.367 61.2116C188.086 64.443 190.947 67.9975 192.759 71.7829C192.854 71.9675 192.902 72.106 192.998 72.2907C194.047 75.1528 193.331 77.9687 191.519 80.3692Z" fill="#FFC6A5"/>
<path d="M181.267 62.2734C181.267 62.3196 181.219 62.3657 181.219 62.4118C181.219 62.3196 181.219 62.3196 181.267 62.2734Z" fill="url(#paint4_linear)"/>
<path d="M94.997 104.512C94.997 104.512 96.9999 110.744 97.2384 116.515" stroke="#FFF7EF" stroke-width="0.265252" stroke-miterlimit="10" stroke-linecap="round" stroke-linejoin="round"/>
<path d="M219.369 146.659L223.232 146.982C223.232 146.982 225.855 144.028 227.953 145.413C231.625 147.767 246.123 152.522 244.931 153.584C242.975 155.338 218.606 153.814 218.606 153.814L219.369 146.659Z" fill="#FFC6A5"/>
<path d="M219.369 146.659L218.606 153.768C218.606 153.768 172.92 156.399 168.533 155.476C161.379 153.999 154.274 151.045 147.454 148.459C141.684 146.29 135.914 143.705 130.763 140.242C128.14 138.488 125.184 136.826 122.942 134.611C120.844 132.533 120.033 129.302 119.222 126.532C118.316 123.347 117.649 118.684 118.03 115.407L141.445 108.39C141.445 108.39 146.548 110.606 150.077 117.299C153.606 123.993 153.511 128.055 153.511 128.055C153.511 128.055 171.68 140.427 175.638 141.443C179.549 142.412 187.561 140.427 199.34 142.597C199.96 142.689 200.532 142.828 201.152 142.92C211.93 144.951 219.369 146.659 219.369 146.659Z" fill="#1A212B"/>
<path d="M201.152 142.92C201.009 143.151 200.77 143.335 200.389 143.428C200.055 143.52 199.721 143.474 199.387 143.428C192.138 142.597 184.747 144.305 177.546 143.197C176.639 143.058 175.686 142.827 175.209 142.089C175.161 141.766 175.4 141.535 175.686 141.396C179.596 142.366 187.608 140.381 199.387 142.55C199.959 142.689 200.532 142.781 201.152 142.92Z" fill="#191D23"/>
<path d="M134.34 110.514C134.34 110.514 146.691 123.809 147.883 128.425C149.075 133.041 168.58 146.151 174.16 146.705C179.739 147.259 195.715 146.151 219.035 149.29" stroke="#FFF7EF" stroke-width="0.132626" stroke-miterlimit="10" stroke-linecap="round" stroke-linejoin="round"/>
<path d="M167.77 74.968C167.77 74.968 167.77 75.4758 167.246 79.7228C166.721 83.9698 164.527 91.9098 164.527 91.9098L151.985 93.4332L151.365 93.5255C151.222 93.5717 151.031 93.6178 150.888 93.664C150.793 93.7102 150.698 93.7102 150.65 93.7563C150.411 93.8487 150.173 93.941 149.982 94.0795C149.887 94.1256 149.791 94.1718 149.696 94.218C149.219 94.4488 148.742 94.7719 148.218 95.0951C148.075 95.1874 147.932 95.2797 147.789 95.372C147.502 95.5567 147.216 95.7875 146.93 95.9722C146.787 96.0645 146.644 96.1568 146.501 96.2953C144.975 97.4955 143.544 98.8804 142.495 100.081C142.304 100.311 142.114 100.542 141.97 100.727C141.541 101.281 141.207 101.743 141.064 102.158C141.017 102.296 140.969 102.435 140.921 102.573C140.874 102.804 140.826 103.081 140.778 103.358C140.778 103.358 131.622 101.004 126.138 94.6334C125.661 94.0795 125.184 93.5255 124.755 93.0177C125.995 90.7096 127.139 88.9554 127.902 87.9398C128.522 87.1089 128.856 86.6934 128.856 86.6934C128.856 86.6934 128.856 86.5549 128.904 86.3703C129.094 84.9392 130.001 79.1689 133.816 75.0142C136.725 71.829 146.215 69.844 152.224 68.8284C150.698 69.29 149.362 69.9363 149.171 70.7672C148.599 72.8445 161.714 69.6593 167.77 74.968Z" fill="#4CA9EE"/>
<path d="M131.955 90.6172C131.859 90.7557 131.669 90.7096 131.525 90.6634C130.286 90.2479 129.189 89.5093 128.378 88.5399C128.235 88.4014 128.092 88.1706 127.901 87.8936C128.521 87.0627 128.855 86.6472 128.855 86.6472C128.855 86.6472 128.855 86.5087 128.903 86.3241C128.95 86.4164 128.998 86.5087 128.998 86.5549C129.666 87.9398 130.81 89.0477 131.812 90.2018C131.955 90.2941 132.05 90.4788 131.955 90.6172Z" fill="#177FBF"/>
<path d="M162.571 75.7064C162.571 75.7064 165.909 76.9067 166.386 82.7232" stroke="#0B72B2" stroke-width="0.265252" stroke-miterlimit="10" stroke-linecap="round" stroke-linejoin="round"/>
<path d="M152.27 89.3245C152.174 90.7094 152.031 92.0943 151.936 93.4792L151.316 93.5715C147.692 94.5871 142.112 99.8035 141.063 102.204C141.158 100.588 141.778 99.0649 142.684 97.68C143.686 96.1566 144.973 94.864 146.356 93.6638C147.549 92.6021 148.836 91.6326 149.885 90.4324C150.887 89.2783 151.364 88.0781 151.888 86.7394C152.508 87.0164 152.317 88.6782 152.27 89.3245Z" fill="#4CA9EE"/>
<path d="M150.075 81.1997C150.075 81.1997 153.175 86.2315 151.983 93.2482" stroke="#0B72B2" stroke-width="0.265252" stroke-miterlimit="10" stroke-linecap="round" stroke-linejoin="round"/>
<path d="M152.27 89.3241C152.27 89.3241 141.826 94.9098 139.632 102.988" stroke="#0B72B2" stroke-width="0.265252" stroke-miterlimit="10" stroke-linecap="round" stroke-linejoin="round"/>
<path d="M164.478 91.9102C164.478 91.9102 157.802 112.683 157.516 114.022C157.23 115.361 149.599 115.084 149.409 113.284C149.218 111.437 151.269 95.1416 152.079 93.3412L164.478 91.9102Z" fill="#FFC6A5"/>
<path d="M149.361 113.283C149.361 113.283 147.883 135.395 147.883 140.427L152.938 142.043C152.938 142.043 156.753 125.055 157.468 113.976L149.361 113.283Z" fill="#FFC6A5"/>
<path d="M147.93 140.473C147.93 140.473 144.688 145.459 143.829 147.075C143.019 148.69 139.156 152.106 140.92 152.199C142.685 152.291 146.071 149.383 146.071 149.383C146.071 149.383 144.258 159.862 145.975 159.862C147.692 159.862 151.793 157.369 152.27 155.984C152.747 154.645 153.224 140.889 153.224 140.889L147.93 140.473Z" fill="#FFC6A5"/>
<path d="M147.024 145.459C147.024 145.459 146.118 148.967 145.975 149.752" stroke="#FF844A" stroke-width="0.132626" stroke-miterlimit="10" stroke-linecap="round" stroke-linejoin="round"/>
<path d="M147.932 149.429L147.359 159.539" stroke="#FF844A" stroke-width="0.132626" stroke-miterlimit="10" stroke-linecap="round" stroke-linejoin="round"/>
<path d="M149.933 149.429L149.409 158.569" stroke="#FF844A" stroke-width="0.132626" stroke-miterlimit="10" stroke-linecap="round" stroke-linejoin="round"/>
<path d="M151.745 149.244L151.316 157.184" stroke="#FF844A" stroke-width="0.132626" stroke-miterlimit="10" stroke-linecap="round" stroke-linejoin="round"/>
<path d="M192.522 71.3675C192.427 71.229 196.29 72.7985 195.193 77.0455C194.096 81.2925 192.141 83.2314 192.141 83.2314L192.522 71.3675Z" fill="#1A212B"/>
<path d="M172.827 88.309C172.254 89.0015 171.825 89.9709 172.111 90.8018C172.254 91.125 172.493 91.4481 172.588 91.7712C172.827 92.6945 171.968 93.4793 171.348 94.2179C170.728 94.9565 170.299 95.9721 170.633 96.8953C170.871 97.6339 171.587 98.1417 172.302 98.4187C173.256 98.8342 174.353 98.9265 175.402 98.6957C176.117 98.5572 176.785 98.234 177.5 98.2802C178.358 98.3264 179.074 98.8342 179.837 99.1573C181.506 99.8959 183.461 99.8497 185.13 99.1573C186.799 98.4649 188.182 97.1723 189.041 95.6028C189.422 94.8642 189.708 93.9409 189.422 93.1561C189.184 92.556 188.564 91.9559 188.802 91.3558C188.898 91.125 189.041 90.9403 189.184 90.7557C189.756 89.8786 189.565 88.6783 188.898 87.8012C188.23 86.9703 187.229 86.4625 186.227 86.0932C182.221 84.6622 175.736 84.7083 172.827 88.309Z" fill="#1A212B"/>
<path d="M118.031 115.407C118.031 115.407 116.409 127.871 124.755 136.272" stroke="#FFF7EF" stroke-width="0.132626" stroke-miterlimit="10" stroke-linecap="round" stroke-linejoin="round"/>
<path d="M191.518 80.3688C189.849 82.6308 187.416 84.4311 184.698 85.3082C184.507 85.2621 184.364 85.2621 184.173 85.1698C183.458 84.9389 182.791 84.4311 182.314 83.8772C180.883 82.2615 180.454 80.0457 180.311 77.9222C180.215 76.445 180.215 74.9216 180.072 73.4444C180.025 72.9366 179.595 71.8748 179.881 71.4594C180.168 70.9977 181.36 70.8131 181.884 70.6746C185.604 69.7975 189.658 70.3976 192.948 72.2903C192.996 72.2903 192.996 72.3365 193.044 72.3365C194.045 75.1524 193.33 77.9683 191.518 80.3688Z" fill="#1A212B"/>
<path d="M180.168 74.8289C180.168 74.8289 179.262 76.537 177.068 75.4752C174.875 74.4135 172.299 71.2282 170.106 72.29C167.912 73.3517 165.575 76.537 166.672 82.9075C166.672 82.9075 167.769 87.6622 175.447 86.6005C175.447 86.6005 176.544 88.724 182.553 87.6622C188.561 86.6005 192.949 83.9692 194.046 79.7222C195.143 75.4752 192.949 72.29 192.949 72.29L183.077 73.3517L180.168 74.8289Z" fill="#1A212B"/>
<path d="M173.778 70.1668C173.444 70.1206 172.92 72.6596 172.92 72.8904C172.729 74.7369 173.778 76.0294 175.638 76.3987C177.355 76.7219 178.976 76.5372 180.025 75.0139C180.55 74.2753 180.789 73.3982 180.789 72.5211C180.789 72.2903 180.693 70.7207 180.407 70.6746C180.359 70.7207 173.778 70.1668 173.778 70.1668Z" fill="#FFC6A5"/>
<path d="M180.025 71.0902C179.405 70.6285 178.737 70.2592 178.022 69.9823C177.784 69.8899 177.497 69.7515 177.354 69.5206C179.31 68.9205 181.599 69.5668 182.839 71.1363C183.125 71.5056 183.411 71.9673 183.315 72.4289C183.172 72.9829 182.552 73.306 181.98 73.2137C180.693 73.029 180.836 71.7365 180.025 71.0902Z" fill="#1A212B"/>
<path d="M174.684 71.321C174.254 72.0597 173.968 73.0291 174.35 73.8138C174.541 74.2755 174.97 74.5986 175.447 74.7833C176.496 75.2449 178.117 75.2449 179.023 74.5986C179.739 74.0447 180.025 72.9829 179.548 72.1981" stroke="#1A212B" stroke-width="0.132626" stroke-miterlimit="10" stroke-linecap="round" stroke-linejoin="round"/>
<path d="M179.788 72.7522C179.788 72.7522 176.306 71.5981 174.303 73.6754" stroke="#1A212B" stroke-width="0.132626" stroke-miterlimit="10" stroke-linecap="round" stroke-linejoin="round"/>
<path d="M176.115 57.2875C176.02 57.426 175.114 58.857 174.303 60.6112C173.635 62.1346 173.158 63.9811 172.682 65.366C172.682 65.366 171.203 62.55 170.965 59.7803C173.826 58.3492 175.972 57.426 175.972 57.426C176.02 57.426 176.067 57.3798 176.115 57.2875Z" fill="url(#paint5_linear)"/>
<path d="M189.372 66.428C189.372 66.428 188.895 61.3039 188.418 60.9346C187.989 60.5653 185.414 61.4424 185.414 61.4424L189.372 66.428Z" fill="#FEBE9B"/>
<path d="M189.372 66.428C189.372 66.428 188.895 61.3039 188.418 60.9346C187.989 60.5653 185.414 61.4424 185.414 61.4424L189.372 66.428Z" fill="url(#paint6_linear)"/>
<path d="M186.082 68.5052C186.034 68.5052 185.939 68.4591 185.939 68.4129C185.939 68.3667 185.986 68.3667 186.034 68.3667C186.94 68.1359 187.751 67.7205 188.418 67.1665C188.562 67.028 188.752 66.8895 188.991 66.8895C189.134 66.8895 189.277 66.9819 189.372 67.1203C189.706 67.6281 188.705 68.1359 188.228 68.3667C187.56 68.5514 186.797 68.6437 186.082 68.5052Z" fill="#191D23"/>
<path d="M185.032 60.8883C184.317 61.3038 183.506 61.4884 182.743 61.7192C182.457 61.8116 182.219 61.9039 181.932 62.0424C181.789 62.0885 181.646 62.1347 181.551 62.227C181.456 62.2732 181.313 62.3655 181.217 62.3655C181.408 62.227 183.22 60.9345 184.508 60.5652C184.651 60.519 184.794 60.5652 184.889 60.7037C184.937 60.796 184.985 60.8421 185.032 60.8883Z" fill="url(#paint7_linear)"/>
<path d="M183.172 59.4112C182.6 59.919 181.789 60.8884 181.264 62.2733C181.264 62.3195 181.217 62.3657 181.217 62.4118C181.217 62.4118 181.264 62.3657 181.312 62.3195C181.264 62.3657 181.217 62.4118 181.169 62.4118C181.121 62.4118 181.121 62.181 181.121 62.1348C181.074 61.9502 181.121 61.7194 181.121 61.4886C181.169 60.6576 181.455 59.8729 181.932 59.1343C182.123 58.8111 182.409 58.5341 182.695 58.3495C182.838 58.488 183.029 58.6726 183.172 58.8111C183.363 58.9958 183.315 59.2266 183.172 59.4112Z" fill="url(#paint8_linear)"/>
<path d="M187.274 66.1969C187.274 66.5662 186.988 66.8432 186.606 66.8432C186.225 66.8432 185.939 66.5662 185.939 66.1969C185.939 65.8276 186.225 65.5507 186.606 65.5507C186.988 65.5507 187.274 65.8276 187.274 66.1969Z" fill="#191D23"/>
<path d="M128 30.3152C128 31.1163 128.017 31.1323 128.82 31.1323C132.737 31.1323 136.637 31.1323 140.554 31.1323C141.292 31.1323 141.406 31.0362 141.406 30.2992C141.423 29.1936 141.406 28.0721 141.406 26.9665C141.406 23.2493 141.406 19.5321 141.406 15.8149C141.406 14.9177 141.357 14.8696 140.472 14.8696C136.604 14.8696 132.737 14.8696 128.869 14.8696C127.984 14.8696 127.984 14.8696 127.984 15.7669" fill="#82CAFF"/>
<path d="M139.735 22.9449C139.735 21.0382 139.718 19.1155 139.751 17.2088C139.751 16.7282 139.653 16.5359 139.095 16.4878C136.817 16.2795 134.556 16.4237 132.278 16.4077C131.639 16.4077 130.999 16.5359 130.36 16.4878C129.803 16.4558 129.672 16.6801 129.672 17.1768C129.688 20.7177 129.688 24.2747 129.688 27.8157C129.688 27.9759 129.688 28.1521 129.688 28.3124C129.639 29.466 129.639 29.466 130.786 29.466C133.54 29.466 136.293 29.4499 139.03 29.482C139.604 29.482 139.767 29.3378 139.767 28.777C139.718 26.8543 139.735 24.8996 139.735 22.9449Z" fill="#C7E7FF"/>
<path d="M131.868 22.945C131.819 25.0279 133.261 25.7489 134.605 25.797C136.604 25.8611 137.539 24.5793 137.653 23.0892C137.784 21.4709 136.391 20.2532 134.736 20.1571C133.245 20.0609 131.59 21.5671 131.868 22.945Z" fill="#82CAFF"/>
<path d="M126.771 59.5882C133.441 59.5882 140.112 59.5722 146.782 59.5882C147.716 59.5882 148.617 59.5081 149.322 58.8192C149.404 58.7391 149.486 58.8032 149.568 58.8192C149.814 58.0661 149.551 57.3131 148.88 56.8164C148.683 56.6722 148.486 56.56 148.208 56.3677C147.175 56.3677 146.061 56.3677 144.963 56.3677C144.75 56.3677 144.537 56.3197 144.34 56.2876C144.192 56.0633 143.963 56.0153 143.717 55.9992C142.75 55.9832 141.8 55.9832 140.833 55.9992C140.603 55.9992 140.407 56.0633 140.259 56.2556C140.128 56.2876 139.981 56.3677 139.849 56.3677C138.194 56.3677 136.555 56.3677 134.9 56.3677C134.769 56.3677 134.621 56.2876 134.49 56.2556C134.392 56.1274 134.261 56.0313 134.113 56.0313C133.278 56.0473 132.425 55.7589 131.639 56.2396C131.409 56.2876 131.196 56.3517 130.967 56.3677C129.262 56.3838 127.574 56.3677 125.87 56.3838" fill="#79BEF2"/>
<path d="M151.829 38.0861C151.977 37.7817 152.124 37.4773 152.305 37.1408C152.141 37.1087 152.026 37.0767 151.911 37.0607C151.371 37.2209 150.83 37.3811 150.305 37.5413C149.633 37.7496 149.043 38.022 148.847 38.8231C148.798 38.6789 148.748 38.5347 148.666 38.3264C147.47 38.9513 146.52 39.8165 145.618 40.7618C145.635 41.1304 145.667 41.4828 145.684 41.8674C145.487 41.7232 145.307 41.579 145.094 41.4188C144.307 42.1878 143.881 43.1332 143.307 44.1105C143.176 44.0785 143.012 44.0304 142.865 43.9823C142.701 43.9503 142.619 44.0304 142.603 44.1746C142.652 44.431 142.98 44.3669 143.094 44.5912C142.439 45.2962 142.472 46.2735 142.111 47.1067C141.865 48.052 141.947 48.9973 141.963 49.9587C141.963 50.2631 142.078 50.5355 142.324 50.7438C142.75 50.9361 143.16 51.0001 143.52 50.6316C144.176 49.5421 144.848 48.4526 145.503 47.347C145.733 46.9625 145.979 46.594 146.208 46.2095C146.061 46.0813 145.946 45.9851 145.766 45.8249C146.028 45.7929 146.225 45.7768 146.487 45.7608C146.962 45.0558 147.454 44.3188 147.962 43.5497C147.814 43.3895 147.7 43.2453 147.519 43.053C147.831 43.005 148.076 42.9729 148.388 42.9249C148.978 42.0597 149.601 41.1624 150.24 40.2491C150.141 40.1049 150.043 39.9928 149.945 39.8325C150.191 39.7685 150.404 39.7204 150.6 39.6723C151.026 39.1276 151.42 38.5988 151.829 38.0861Z" fill="#758725"/>
<path d="M142.357 46.9144C142.472 46.5459 142.603 46.1613 142.717 45.7928C142.816 45.4884 142.93 45.2 143.029 44.8956C143.225 44.7834 143.406 44.6873 143.586 44.6072C143.439 44.1105 143.029 44.2867 142.652 44.2066C142.734 44.1105 142.799 44.0464 142.865 43.9823C143.045 43.8381 143.225 43.6939 143.422 43.5176C143.258 42.316 142.881 41.2104 142.357 40.1049C142.078 40.217 141.849 40.3132 141.521 40.4413C141.685 40.0248 141.832 39.7043 141.98 39.3358C141.341 38.054 140.489 36.8844 139.374 35.875C139.243 36.0672 139.128 36.2275 138.964 36.4678C138.899 36.0352 138.866 35.7147 138.801 35.3302C137.932 34.5611 136.949 33.9042 135.687 33.5677C136.064 34.6252 136.441 35.6667 136.801 36.7081C137.096 36.8684 137.358 37.0126 137.702 37.1888C137.473 37.2689 137.326 37.317 137.08 37.3811C137.506 38.5347 137.916 39.6723 138.342 40.8419C138.669 40.9701 138.981 41.0983 139.292 41.2264C139.292 41.2745 139.292 41.3226 139.292 41.3546C139.014 41.3706 138.719 41.3867 138.44 41.4187C138.604 41.9955 139.243 42.2999 139.243 42.8607C139.472 43.1011 139.735 43.021 139.997 43.2132C140.538 43.9022 141.21 44.6392 141.242 45.7127C141.603 45.937 141.849 46.2575 142.013 46.642C142.045 46.7862 142.111 46.9785 142.357 46.9144Z" fill="#586D1B"/>
<path d="M143.537 50.6156C143.144 50.6156 142.734 50.6156 142.34 50.5996C142.045 50.3753 141.718 50.3432 141.39 50.5035C141.111 50.5515 140.849 50.6156 140.571 50.6316C139.899 50.6477 139.227 50.6316 138.506 50.6316C138.473 50.888 138.44 51.0963 138.407 51.3206C138.932 51.5289 138.915 51.9615 138.948 52.3941C139.03 53.8041 139.44 55.1019 140.276 56.2715C141.636 56.2875 142.996 56.2875 144.356 56.3036C145.159 55.3903 145.471 54.2687 145.667 53.0991C145.749 52.6184 145.782 52.1377 145.848 51.625C145.962 51.5289 146.093 51.4167 146.241 51.3046C146.241 51.1283 146.241 50.9521 146.241 50.6637C145.29 50.6477 144.422 50.6316 143.537 50.6156Z" fill="#C06515"/>
<path d="M141.374 50.5035C141.685 50.5355 142.013 50.5675 142.324 50.5996C142.308 49.5742 142.308 48.5647 142.291 47.5393C142.291 47.331 142.324 47.1227 142.341 46.9144C142.16 46.578 142.013 46.2255 141.816 45.905C141.734 45.7769 141.537 45.6967 141.357 45.5686C141.374 45.4564 141.406 45.2481 141.439 44.9918C140.947 44.2547 140.439 43.4857 139.915 42.7006C139.735 42.7807 139.587 42.8448 139.391 42.9249C139.358 42.6685 139.309 42.4602 139.259 42.1558C138.997 41.9315 138.702 41.6591 138.407 41.4027C137.784 40.9541 137.145 40.5215 136.457 40.0408C136.359 40.2972 136.309 40.4414 136.244 40.6657C136.096 40.3613 135.965 40.121 135.834 39.8325C134.966 39.464 134.048 39.1917 132.917 39.1276C133.556 39.9607 134.097 40.6817 134.638 41.4027C134.916 41.4668 135.179 41.5149 135.474 41.579C135.31 41.6911 135.195 41.7713 135.031 41.8834C135.654 42.7006 136.277 43.5017 136.899 44.3028C137.178 44.3188 137.424 44.3348 137.752 44.3669C137.555 44.5271 137.408 44.6553 137.26 44.7835C137.752 45.4564 138.211 46.0973 138.686 46.7382C138.866 46.7542 139.063 46.7702 139.309 46.8023C139.21 46.9305 139.128 47.0426 138.997 47.1868C139.8 48.2763 140.587 49.3979 141.374 50.5035Z" fill="#334B13"/>
<path d="M126.132 60.3572C133.245 60.3572 140.357 60.3572 147.454 60.3572C148.568 60.3572 149.24 59.8766 149.568 58.8351C149.568 58.6268 149.568 58.4185 149.568 58.066C148.994 59.0274 148.224 59.3478 147.208 59.3478C140.292 59.3318 133.376 59.3318 126.46 59.3478" fill="#4894CE"/>
<path d="M131.622 56.2554C132.573 56.2554 133.523 56.2554 134.49 56.2554C135.129 54.9736 135.49 53.6597 135.326 52.1697C134.998 52.1536 134.769 52.1376 134.539 52.1216C133.589 51.721 132.606 51.8492 131.639 52.0255C131.409 52.0735 131.18 52.1216 130.836 52.2017C130.819 52.41 130.754 52.6343 130.77 52.8746C130.819 54.0603 131.081 55.1819 131.622 56.2554Z" fill="#BD6415"/>
<path d="M131.622 52.0256C131.721 52.0737 131.803 52.1538 131.901 52.1538C132.786 52.1538 133.654 52.1378 134.539 52.1378C134.638 51.7052 134.769 51.2725 134.834 50.8399C134.998 49.8145 134.441 49.1576 133.376 49.0935C133.261 49.0935 133.163 49.0935 133.048 49.0935C131.835 49.1256 131.262 49.7344 131.393 50.9201C131.426 51.2886 131.54 51.6571 131.622 52.0256Z" fill="#566C1E"/>
<defs>
<linearGradient id="paint0_linear" x1="40.8895" y1="71.3692" x2="39.2911" y2="71.7186" gradientUnits="userSpaceOnUse">
<stop offset="0.00372349" stop-color="#FF844A" stop-opacity="0.5"/>
<stop offset="0.9963" stop-color="#FFA57D" stop-opacity="0"/>
</linearGradient>
<linearGradient id="paint1_linear" x1="42.535" y1="70.9802" x2="42.9549" y2="72.4949" gradientUnits="userSpaceOnUse">
<stop offset="0.00372349" stop-color="#FF844A" stop-opacity="0.5"/>
<stop offset="0.9963" stop-color="#FFA57D" stop-opacity="0"/>
</linearGradient>
<linearGradient id="paint2_linear" x1="41.9149" y1="71.365" x2="42.0098" y2="71.7306" gradientUnits="userSpaceOnUse">
<stop offset="0.00372349" stop-color="#FF844A" stop-opacity="0.5"/>
<stop offset="0.9963" stop-color="#FFA57D" stop-opacity="0"/>
</linearGradient>
<linearGradient id="paint3_linear" x1="41.8944" y1="71.3872" x2="41.4188" y2="71.1579" gradientUnits="userSpaceOnUse">
<stop offset="0.00372349" stop-color="#FF844A" stop-opacity="0.5"/>
<stop offset="0.9963" stop-color="#FFA57D" stop-opacity="0"/>
</linearGradient>
<linearGradient id="paint4_linear" x1="181.196" y1="62.2213" x2="181.268" y2="62.5025" gradientUnits="userSpaceOnUse">
<stop offset="0.00372349" stop-color="#FF844A" stop-opacity="0.5"/>
<stop offset="0.9963" stop-color="#FFA57D" stop-opacity="0"/>
</linearGradient>
<linearGradient id="paint5_linear" x1="177.436" y1="60.7254" x2="168.646" y2="62.6472" gradientUnits="userSpaceOnUse">
<stop offset="0.00372349" stop-color="#FF844A" stop-opacity="0.5"/>
<stop offset="0.9963" stop-color="#FFA57D" stop-opacity="0"/>
</linearGradient>
<linearGradient id="paint6_linear" x1="186.165" y1="58.3932" x2="188.668" y2="67.4213" gradientUnits="userSpaceOnUse">
<stop offset="0.00372349" stop-color="#FF844A" stop-opacity="0.5"/>
<stop offset="0.9963" stop-color="#FFA57D" stop-opacity="0"/>
</linearGradient>
<linearGradient id="paint7_linear" x1="182.83" y1="60.5608" x2="183.477" y2="63.0544" gradientUnits="userSpaceOnUse">
<stop offset="0.00372349" stop-color="#FF844A" stop-opacity="0.5"/>
<stop offset="0.9963" stop-color="#FFA57D" stop-opacity="0"/>
</linearGradient>
<linearGradient id="paint8_linear" x1="182.727" y1="60.7152" x2="180.205" y2="59.4997" gradientUnits="userSpaceOnUse">
<stop offset="0.00372349" stop-color="#FF844A" stop-opacity="0.5"/>
<stop offset="0.9963" stop-color="#FFA57D" stop-opacity="0"/>
</linearGradient>
<clipPath id="clip0">
<rect width="82.7877" height="69.9698" fill="white" transform="translate(49.0436 11.5653)"/>
</clipPath>
</defs>
</svg>
