<svg width="280" height="129" viewBox="0 0 280 129" fill="none" xmlns="http://www.w3.org/2000/svg">
<g clip-path="url(#clip0)">
<path d="M146.227 62.2867C146.107 67.8081 143.616 82.4517 143.616 82.4517H143.106L131.793 82.0316L130.413 68.1681L112.168 67.1479C111.958 65.9176 107.187 61.0264 107.187 61.0264C107.697 60.4862 108.297 59.9461 108.987 59.436C112.348 56.8853 117.569 54.5747 120.78 53.2844C120.78 53.2844 124.741 56.3152 126.722 53.8546C129.993 55.505 135.484 57.9956 141.215 59.466C141.185 59.616 141.275 63.757 146.227 62.2867Z" fill="#351E01"/>
<path d="M146.227 62.2866C141.305 63.727 141.185 59.616 141.185 59.4359C142.806 59.856 144.456 60.1861 146.077 60.3661C146.197 60.7262 146.257 61.3864 146.227 62.2866Z" fill="#4F3519"/>
<path d="M126.692 53.8545C124.681 56.3151 120.75 53.2844 120.75 53.2844C122.461 52.5942 123.601 52.2041 123.601 52.2041C123.601 52.2041 124.741 52.8943 126.692 53.8545Z" fill="#4F3519"/>
<path d="M157.149 39.6306L149.437 36.6598L140.225 33.1189C140.075 29.6381 136.504 23.5165 136.504 23.5165C136.504 23.5165 132.933 29.6381 132.783 33.1189L123.241 35.8196L114.299 38.3703C117.93 23.3065 123.361 22.1662 124.501 21.476C125.641 20.7859 132.333 18.6553 132.333 18.6553C132.573 25.1069 141.275 23.5466 140.615 19.2255C140.585 19.2255 155.319 19.9157 157.149 39.6306Z" fill="#29E7CD"/>
<path d="M148.717 42.5717C147.547 51.604 146.077 60.4262 146.077 60.4262C144.456 60.2161 142.806 59.886 141.185 59.4959C135.454 58.0256 129.963 55.5349 126.692 53.8845C124.741 52.8943 123.571 52.2341 123.571 52.2341C123.691 51.4239 123.601 47.3129 123.451 42.4817C126.782 41.0713 131.103 38.7007 136.474 34.7397C141.666 38.4907 145.657 40.9513 148.717 42.5717Z" fill="#29E7CD"/>
<path d="M150.548 25.6475C150.668 26.5777 150.698 27.4779 150.668 28.4082C150.668 29.3384 150.608 30.2386 150.548 31.1688C150.398 32.9993 150.188 34.8298 149.828 36.6602C149.858 34.7998 150.008 32.9693 150.158 31.1388L150.368 28.3781C150.428 27.4779 150.518 26.5777 150.548 25.6475Z" fill="#06846F"/>
<path d="M123.241 35.8499C123.001 33.9894 122.911 32.0989 122.821 30.2385C122.761 28.378 122.731 26.4875 122.791 24.597C123.031 26.4575 123.121 28.348 123.211 30.2084C123.301 32.0689 123.331 33.9594 123.241 35.8499Z" fill="#06846F"/>
<path d="M136.474 23.547V34.7398C131.073 38.6708 126.782 41.0414 123.451 42.4817C117.119 45.1824 114.299 44.4322 114.299 44.4322C113.278 42.3917 114.299 38.4307 114.299 38.4307L123.241 35.8801L132.783 33.1794C132.933 29.6685 136.474 23.547 136.474 23.547Z" fill="#FC8E7B"/>
<path d="M157.149 45.5125C157.149 45.5125 154.899 45.8126 148.717 42.5417C145.656 40.9513 141.665 38.4907 136.504 34.7098V23.547C136.504 23.547 140.075 29.6685 140.225 33.1494L157.179 39.661C157.149 39.631 158.17 43.472 157.149 45.5125Z" fill="#F89077"/>
<path d="M131.763 82.0315C131.763 82.1816 131.763 83.6219 131.223 83.2918C130.683 82.9317 127.412 73.0593 127.412 73.0593C127.412 73.0593 111.538 74.7697 104.306 74.1996C93.8936 68.078 104.876 62.6467 107.127 61.0563C107.127 61.0563 111.898 65.9475 112.108 67.1778L130.353 68.1981L131.763 82.0315Z" fill="#FB8C80"/>
<path d="M134.494 89.4434C135.754 90.7037 137.764 90.7037 139.025 89.4434" stroke="#231F20" stroke-width="0.40138" stroke-miterlimit="10"/>
<path d="M111.118 67.2677C111.118 67.2677 107.277 69.8784 104.786 69.6383L111.118 67.2677Z" fill="#D06C6D"/>
<path d="M126.212 68.9784C126.212 68.9784 129.512 68.1982 129.602 70.6888L126.212 68.9784Z" fill="#D06C6D"/>
<path d="M108.957 59.4658C108.957 59.4658 113.398 63.997 114.298 66.3976L108.957 59.4658Z" fill="#4F3519"/>
<path d="M112.828 61.0563C112.828 61.0563 121.98 63.3368 125.161 67.2978L112.828 61.0563Z" fill="#4F3519"/>
<path d="M122.341 58.6555C126.542 61.8363 129.602 66.6975 129.602 66.6975L122.341 58.6555Z" fill="#4F3519"/>
<path d="M127.442 56.075C127.442 56.075 128.222 62.3765 129.902 63.5168L127.442 56.075Z" fill="#4F3519"/>
<path d="M154.659 36.09C153.878 35.85 153.038 35.91 152.258 36.03C151.868 36.09 151.478 36.1801 151.088 36.3001C150.698 36.3901 150.308 36.5101 149.948 36.6602L149.617 36.7802L149.707 36.4201C149.947 35.3699 150.308 34.3496 150.818 33.3894C151.088 32.9092 151.358 32.4591 151.748 32.069C152.108 31.6789 152.618 31.3489 153.158 31.3188C152.618 31.4389 152.228 31.799 151.928 32.2191C151.598 32.6392 151.358 33.0893 151.148 33.5694C150.938 34.0495 150.728 34.5297 150.578 35.0098C150.398 35.4899 150.248 36 150.128 36.5101L149.857 36.2701C150.248 36.12 150.668 36.03 151.058 35.94C151.448 35.85 151.868 35.79 152.288 35.76C152.708 35.73 153.128 35.6999 153.548 35.76C153.878 35.79 154.269 35.88 154.659 36.09Z" fill="#06846F"/>
<path d="M116.909 36.1801C117.299 35.85 117.78 35.6399 118.26 35.4899C118.74 35.3399 119.25 35.2498 119.76 35.1898C120.27 35.1298 120.78 35.0998 121.29 35.0998C121.801 35.0998 122.311 35.1298 122.821 35.1898L122.641 35.5199C122.191 35.0098 121.681 34.5297 121.17 34.0795C120.9 33.8695 120.63 33.6594 120.36 33.4794C120.06 33.2993 119.76 33.1493 119.4 33.1193C119.76 33.0593 120.12 33.1793 120.42 33.3294C120.75 33.4794 121.05 33.6594 121.35 33.8695C121.651 34.0795 121.921 34.2896 122.191 34.5297C122.461 34.7697 122.701 35.0098 122.941 35.2798L123.301 35.6699L122.791 35.6099C122.311 35.5499 121.801 35.5499 121.29 35.5199C120.78 35.5199 120.3 35.5199 119.79 35.5499C118.8 35.5799 117.81 35.6999 116.909 36.1801Z" fill="#06846F"/>
<path d="M142.086 8.21298C142.056 8.33301 141.996 8.45304 141.966 8.57307C141.936 8.66309 141.876 8.78312 141.846 8.87315C141.786 8.99318 141.756 9.11321 141.696 9.23324C141.636 9.35327 141.576 9.4733 141.516 9.59333C140.885 10.9437 140.075 12.174 140.075 12.174C140.075 12.174 139.445 13.6143 138.515 11.4538C136.954 11.0637 134.434 11.2737 134.164 11.4538C133.894 11.6338 133.594 12.8942 132.813 12.5041C132.783 12.474 132.753 12.474 132.723 12.444C131.733 11.7839 131.103 8.45304 130.923 7.40278C130.923 7.37277 130.923 7.31276 130.893 7.28275C130.893 7.25274 130.893 7.19273 130.863 7.16272C130.863 7.43279 130.833 7.70285 130.833 7.97292C130.803 9.44329 130.893 10.7336 131.073 11.8739C131.433 14.0344 132.123 15.5948 132.993 16.6151C134.644 18.5356 136.894 18.6256 138.575 17.6653C139.145 17.3353 139.655 16.8551 140.045 16.315C140.975 15.0247 141.485 13.2542 141.786 11.7239C142.056 10.2235 142.116 8.93316 142.086 8.42303C142.116 8.303 142.116 8.21298 142.086 8.21298ZM138.185 13.2843C137.585 14.3345 136.294 14.5746 136.294 14.5746C136.294 14.5746 135.004 14.3645 134.404 13.2843C133.804 12.234 135.154 12.144 135.304 12.234C135.454 12.294 135.604 12.6541 136.264 12.6841H136.324C136.984 12.6541 137.134 12.324 137.284 12.234C137.404 12.144 138.785 12.234 138.185 13.2843Z" fill="#F1F2F2"/>
<path d="M138.185 13.2844C137.584 14.3347 136.294 14.5747 136.294 14.5747C136.294 14.5747 135.004 14.3647 134.404 13.2844C133.803 12.2341 135.154 12.1441 135.304 12.2341C135.454 12.2942 135.604 12.6542 136.264 12.6843H136.324C136.984 12.6542 137.134 12.3242 137.284 12.2341C137.404 12.1441 138.785 12.2341 138.185 13.2844Z" fill="#D7766B"/>
<path d="M135.244 13.3142C135.244 13.3142 136.084 13.8543 137.374 13.4342" stroke="#BF666A" stroke-width="0.40138" stroke-miterlimit="10" stroke-linecap="round"/>
<path d="M142.206 7.88295C142.176 8.00298 142.146 8.12301 142.116 8.24304C142.086 8.36307 142.026 8.4831 141.996 8.60313C141.966 8.69315 141.906 8.81318 141.876 8.90321C141.816 9.02324 141.786 9.14327 141.726 9.2633C141.666 9.38333 141.606 9.50336 141.546 9.62339C140.915 10.9737 140.105 12.204 140.105 12.204C140.105 12.204 139.475 13.6444 138.545 11.4839C136.984 11.0938 134.464 11.3038 134.194 11.4839C133.924 11.6639 133.624 12.9242 132.843 12.5341C131.703 11.994 130.893 7.10276 130.893 7.10276C131.373 2.99173 133.714 0.681152 136.474 0.681152C139.385 0.681152 142.056 3.65189 142.206 7.88295Z" fill="#FF8B80"/>
<path d="M132.333 18.6555L133.023 16.645C134.674 18.5655 136.924 18.6555 138.605 17.6952C139.175 17.3652 139.685 16.885 140.075 16.3449L140.615 19.2256C141.275 23.5467 132.543 25.1371 132.333 18.6555Z" fill="#F5908C"/>
<path d="M131.103 11.9041C128.402 10.0436 129.182 7.22289 130.863 8.00309C130.833 9.50346 130.893 10.7938 131.103 11.9041Z" fill="#D06C6D"/>
<path d="M141.786 11.724C142.056 10.2236 142.116 8.93333 142.086 8.4232C143.376 7.19289 144.756 9.38344 141.786 11.724Z" fill="#D06C6D"/>
<path d="M132.033 7.43296C132.033 6.95284 133.473 6.56274 135.244 6.56274" stroke="#F1F2F2" stroke-width="0.602071" stroke-miterlimit="1" stroke-linecap="round"/>
<path d="M140.885 7.43296C140.885 6.95284 139.445 6.56274 137.675 6.56274" stroke="#F1F2F2" stroke-width="0.602071" stroke-miterlimit="1" stroke-linecap="round"/>
<path d="M133.353 8.48315C133.833 8.96327 134.644 8.96327 135.124 8.48315" stroke="#D06C6D" stroke-width="0.40138" stroke-miterlimit="10" stroke-linecap="round"/>
<path d="M138.335 8.48315C138.815 8.96327 139.625 8.96327 140.105 8.48315" stroke="#D06C6D" stroke-width="0.40138" stroke-miterlimit="10" stroke-linecap="round"/>
<path d="M141.335 118.131C140.795 118.431 131.943 118.161 131.583 117.891C131.223 117.621 131.643 112.129 131.643 112.129C131.523 104.867 133.624 90.5838 133.293 89.8036C132.963 89.0234 133.293 82.0316 133.293 82.0316L141.516 82.3617C141.516 82.3617 140.975 85.1524 141.035 86.5628C141.095 87.9731 141.516 91.664 139.715 99.1959C135.904 108.498 136.504 113.239 136.444 114.38C136.444 115.55 142.746 117.32 141.335 118.131Z" fill="#FB8C80"/>
<path d="M139.775 120.471C139.835 119.871 139.265 119.331 138.515 119.271L139.775 120.471Z" fill="#D06C6D"/>
<path d="M138.635 120.411C138.635 119.811 138.034 119.331 137.284 119.331L138.635 120.411Z" fill="#D06C6D"/>
<path d="M137.434 120.351C137.434 119.751 136.834 119.271 136.084 119.271L137.434 120.351Z" fill="#D06C6D"/>
<path d="M136.264 120.351C136.264 119.751 135.664 119.271 134.914 119.271L136.264 120.351Z" fill="#D06C6D"/>
<path d="M136.504 23.547L136.564 29.1284C136.564 30.0586 136.594 30.9889 136.594 31.9191C136.564 32.8493 136.564 33.7796 136.504 34.7098H136.474C136.414 33.7796 136.414 32.8493 136.384 31.9191C136.384 30.9889 136.384 30.0586 136.414 29.1284L136.504 23.547Z" fill="#BF666A"/>
<path d="M196.879 61.8065V63.7569C196.699 63.967 196.519 64.2071 196.339 64.4471C196.279 64.5071 196.249 64.5672 196.189 64.6272C196.159 64.6572 196.159 64.6872 196.129 64.6872C196.069 64.7472 196.009 64.8072 195.949 64.8972C195.949 64.9272 195.919 64.9272 195.889 64.9572L195.859 64.9873C195.829 65.0173 195.799 65.0473 195.799 65.0773L195.769 65.1073C193.128 67.838 189.437 67.3879 187.937 67.0878C187.907 67.0878 187.877 67.0878 187.847 67.0578C187.787 67.0578 187.727 67.0278 187.697 67.0278H187.667C187.637 67.0278 187.637 67.0278 187.637 67.0278C187.487 66.9978 187.367 66.9677 187.307 66.9377C187.367 66.4576 187.457 65.9775 187.637 65.5574C187.667 65.4674 187.697 65.4074 187.727 65.3173H187.637V62.9167C188.777 64.2971 190.248 65.1673 191.898 65.1673C193.939 65.1073 195.739 63.817 196.879 61.8065Z" fill="#6B2C2D"/>
<path d="M212.843 81.7914L212.273 81.9715L205.371 84.042L205.011 84.132L204.591 83.2618C203.511 85.4223 203.121 100.156 203.121 100.156C191.838 103.487 180.615 100.156 180.615 100.156C181.395 95.5349 179.625 83.2618 179.625 83.2618L179.205 83.4718H179.175L172.333 81.5814L171.763 81.4313C172.933 69.3383 177.254 68.7682 178.245 68.258C179.115 67.8379 185.776 65.8274 187.277 65.4073C187.457 65.3473 187.577 65.3173 187.577 65.3173H187.727C187.697 65.4073 187.667 65.4673 187.637 65.5574C187.487 66.0075 187.367 66.4576 187.307 66.9377C187.277 67.1478 187.277 67.3878 187.277 67.5979C187.277 68.318 187.397 69.0082 187.637 69.6384C188.357 71.6489 190.158 73.0892 192.258 73.0892C194.359 73.0892 196.129 71.6489 196.879 69.6384C197.119 69.0082 197.239 68.318 197.239 67.5979C197.239 67.3878 197.239 67.1478 197.209 66.9377C197.149 66.4576 197.059 65.9775 196.879 65.5274C196.849 65.4373 196.819 65.3773 196.789 65.2873H196.909C197.029 65.3173 197.119 65.3473 197.239 65.3773C211.913 70.0285 210.383 72.249 211.073 73.4193C211.763 74.6196 212.843 81.7914 212.843 81.7914Z" fill="#4CA9EE"/>
<path d="M168.071 97.0351C168.071 97.0351 168.043 97.0351 168.071 97.0351" stroke="#1B00E9" stroke-width="0.173924" stroke-miterlimit="10"/>
<path d="M172.363 81.5513C171.763 83.1117 169.813 88.2129 169.543 90.5835C169.543 90.5835 167.112 92.2339 166.872 92.624C166.782 92.654 166.692 92.6841 166.602 92.6841C166.362 92.7141 166.152 92.654 165.972 92.504C165.942 92.504 165.942 92.474 165.912 92.474C165.011 91.8438 164.441 89.9234 164.171 89.4732C164.021 89.2932 163.661 89.1432 163.271 89.0832C163.211 89.0832 163.151 89.0832 163.091 89.0832C163.061 88.8731 162.911 88.8131 162.551 88.9631C160.69 89.6833 159.76 93.2242 159.76 93.2242C159.76 93.2242 159.88 92.294 160.42 90.6735C160.93 89.0231 159.7 90.0134 159.7 90.0134C159.7 90.0134 157.54 92.8941 158.98 94.5445C159.01 94.6045 159.07 94.6645 159.13 94.7546C159.16 94.8146 159.22 94.8446 159.28 94.9046C160.03 95.7448 161.831 97.1852 162.761 97.4552C163.841 97.7253 167.382 97.4552 167.982 97.3952H168.012H168.042C168.042 97.3952 168.042 97.3952 168.072 97.3952H172.123C172.123 97.3952 174.224 97.1852 176.114 92.474C177.885 88.0629 179.055 85.5123 179.175 83.4417L172.363 81.5513ZM162.851 94.2444C161.891 93.7643 162.371 92.1439 162.911 90.9436C163.541 91.9339 163.511 91.5438 163.571 92.8341C163.211 92.414 162.851 92.474 162.851 94.2444Z" fill="#964D51"/>
<path d="M162.911 90.9436C163.181 90.4035 163.451 89.9234 163.601 89.7133C163.871 89.3532 163.541 89.1732 163.091 89.2932C162.911 89.3532 162.731 89.4133 162.551 89.5633C162.581 89.1732 162.791 89.0532 163.091 89.0532C163.151 89.0532 163.211 89.0532 163.271 89.0532" fill="#964D51"/>
<path d="M162.911 90.9436C163.181 90.4035 163.451 89.9234 163.601 89.7133C163.871 89.3532 163.541 89.1732 163.091 89.2932C162.911 89.3532 162.731 89.4133 162.551 89.5633C162.581 89.1732 162.791 89.0532 163.091 89.0532C163.151 89.0532 163.211 89.0532 163.271 89.0532" stroke="#603913" stroke-width="0.173924" stroke-miterlimit="10"/>
<path d="M163.571 92.8641C163.901 93.2542 164.291 94.0344 164.411 94.2444C164.681 94.6945 165.011 95.2947 165.401 95.4747" fill="#964D51"/>
<path d="M163.571 92.8641C163.781 93.0441 163.931 93.2842 164.081 93.4942C164.231 93.7343 164.351 93.9744 164.471 94.1844C164.591 94.4245 164.741 94.6645 164.861 94.8746C165.011 95.0846 165.161 95.3247 165.371 95.4747C165.101 95.3847 164.921 95.1747 164.741 94.9346C164.561 94.7245 164.441 94.4845 164.291 94.2444C164.171 94.0044 164.051 93.7643 163.931 93.5242C163.841 93.3142 163.721 93.0741 163.571 92.8641Z" fill="#603913"/>
<path d="M162.851 94.2445C162.851 97.6354 164.021 97.0052 164.021 97.0052L162.851 94.2445Z" fill="#964D51"/>
<path d="M162.851 94.2446C162.881 94.5147 162.911 94.8148 162.941 95.0848C162.971 95.2349 162.971 95.3549 163.001 95.5049C163.031 95.655 163.031 95.775 163.091 95.9251C163.151 96.1951 163.241 96.4652 163.361 96.7052C163.481 96.9453 163.751 97.0953 164.021 97.0053C163.901 97.0953 163.751 97.0953 163.601 97.0653C163.451 97.0053 163.331 96.9153 163.241 96.7953C163.061 96.5552 162.971 96.2551 162.911 95.9851C162.881 95.835 162.851 95.715 162.851 95.565C162.821 95.4149 162.821 95.2649 162.821 95.1449C162.791 94.8148 162.821 94.5447 162.851 94.2446Z" fill="#603913"/>
<path d="M161.02 94.0946C160.99 93.6445 160.99 93.2844 161.02 92.9543C161.14 91.994 161.53 91.4539 161.98 90.4037C162.13 90.0436 162.341 89.7735 162.581 89.5934" fill="#964D51"/>
<path d="M161.02 94.0946C160.99 93.6445 160.99 93.2844 161.02 92.9543C161.14 91.994 161.53 91.4539 161.98 90.4037C162.13 90.0436 162.341 89.7735 162.581 89.5934" stroke="#603913" stroke-width="0.173924" stroke-miterlimit="10"/>
<path d="M205.551 83.9221C205.671 85.9926 206.842 88.5132 208.612 92.9543C210.503 97.6655 212.603 97.8756 212.603 97.8756H216.654C216.654 97.8756 216.654 97.8756 216.684 97.8756C216.684 97.8756 216.684 97.8756 216.714 97.8756H216.744C217.344 97.9356 220.885 98.2057 221.966 97.9356C222.896 97.6355 224.696 96.1952 225.446 95.385C225.506 95.3249 225.536 95.2649 225.596 95.2349C225.656 95.1449 225.716 95.0849 225.747 95.0249C227.187 93.3744 225.026 90.4937 225.026 90.4937C225.026 90.4937 223.796 89.5035 224.306 91.1539C224.816 92.8043 224.966 93.7045 224.966 93.7045C224.966 93.7045 224.036 90.1636 222.176 89.4435C221.846 89.3234 221.665 89.3835 221.635 89.5635C221.575 89.5635 221.515 89.5635 221.455 89.5635C221.065 89.6235 220.705 89.7435 220.555 89.9536C220.285 90.4037 219.715 92.3242 218.815 92.9543C218.785 92.9543 218.785 92.9844 218.755 92.9844C218.575 93.1044 218.365 93.1944 218.125 93.1644C218.035 93.1644 217.945 93.1344 217.855 93.1044C216.894 93.5245 214.614 91.1839 214.614 91.1839C214.614 88.9033 212.963 83.592 212.333 82.0316L205.551 83.9221ZM221.185 93.3144C221.275 91.9941 221.245 92.4142 221.846 91.424C222.386 92.6243 222.866 94.2447 221.906 94.7248C221.906 92.9243 221.545 92.8943 221.185 93.3144Z" fill="#964D51"/>
<path d="M221.515 89.5332C221.575 89.5332 221.635 89.5332 221.695 89.5332C221.966 89.5332 222.206 89.6232 222.236 90.0433C222.056 89.8933 221.876 89.8033 221.695 89.7733C221.245 89.6532 220.915 89.8333 221.185 90.1934C221.335 90.4034 221.605 90.8535 221.876 91.4237" fill="#964D51"/>
<path d="M221.515 89.5332C221.575 89.5332 221.635 89.5332 221.695 89.5332C221.966 89.5332 222.206 89.6232 222.236 90.0433C222.056 89.8933 221.876 89.8033 221.695 89.7733C221.245 89.6532 220.915 89.8333 221.185 90.1934C221.335 90.4034 221.605 90.8535 221.876 91.4237" stroke="#603913" stroke-width="0.173924" stroke-miterlimit="10"/>
<path d="M219.355 95.9548C219.745 95.7447 220.075 95.1746 220.345 94.7245C220.465 94.5144 220.825 93.7342 221.185 93.3441" fill="#964D51"/>
<path d="M219.355 95.9548C219.565 95.8047 219.715 95.5647 219.865 95.3546C220.015 95.1146 220.135 94.9045 220.255 94.6645C220.375 94.4244 220.495 94.1843 220.645 93.9743C220.795 93.7342 220.945 93.5242 221.155 93.3441C221.005 93.5842 220.885 93.7942 220.765 94.0343C220.645 94.2744 220.525 94.5144 220.405 94.7545C220.255 94.9945 220.135 95.2346 219.955 95.4446C219.835 95.6247 219.625 95.8648 219.355 95.9548Z" fill="#603913"/>
<path d="M220.735 97.4553C220.735 97.4553 221.906 98.1154 221.906 94.6946L220.735 97.4553Z" fill="#964D51"/>
<path d="M220.735 97.4553C221.005 97.5453 221.275 97.3953 221.395 97.1552C221.515 96.9151 221.606 96.6451 221.666 96.375C221.696 96.255 221.726 96.1049 221.726 95.9549C221.756 95.8049 221.756 95.6848 221.786 95.5348C221.816 95.2647 221.846 94.9646 221.876 94.6946C221.906 94.9646 221.936 95.2647 221.906 95.5648C221.906 95.8649 221.876 96.1349 221.816 96.435C221.756 96.7051 221.666 97.0052 221.485 97.2452C221.395 97.3652 221.275 97.4853 221.125 97.5153C221.035 97.5453 220.855 97.5453 220.735 97.4553Z" fill="#603913"/>
<path d="M222.206 90.0435C222.446 90.2236 222.656 90.4936 222.806 90.8537C223.256 91.904 223.646 92.4741 223.766 93.4044C223.796 93.7344 223.796 94.0945 223.766 94.5446" fill="#964D51"/>
<path d="M222.206 90.0435C222.446 90.2236 222.656 90.4936 222.806 90.8537C223.256 91.904 223.646 92.4741 223.766 93.4044C223.796 93.7344 223.796 94.0945 223.766 94.5446" stroke="#603913" stroke-width="0.173924" stroke-miterlimit="10"/>
<path d="M206.032 101.506C206.032 101.506 197.75 108.708 197.149 109.668C195.229 110.629 193.488 111.559 192.198 112.219C192.198 112.219 188.177 111.289 185.146 108.768C184.816 108.438 184.456 108.138 184.126 107.838C184.036 107.208 178.305 101.626 178.305 101.626C178.575 101.176 180.615 100.156 180.615 100.156C180.615 100.156 191.808 103.487 203.121 100.156C204.051 101.026 205.011 101.446 206.032 101.506Z" fill="#43484C"/>
<path d="M220.795 106.158C217.284 108.648 211.523 111.139 206.301 113.119C200.24 115.43 194.929 117.02 194.779 117.08V117.921L190.337 117.71C190.878 117.35 191.298 117.05 191.328 117.05L189.257 113.449C186.467 115.28 179.925 113.99 179.205 113.239C179.025 113.179 178.785 113.179 178.515 113.209C177.104 113.059 162.911 104.777 162.911 104.777C161.32 96.2551 169.512 97.7555 170.082 98.3856C170.683 99.0458 178.004 102.107 178.274 101.656C178.274 101.656 184.006 107.238 184.096 107.868C184.426 108.168 184.786 108.468 185.116 108.798C188.147 111.289 192.168 112.249 192.168 112.249C193.458 111.559 195.199 110.659 197.119 109.698C197.719 108.768 206.001 101.536 206.001 101.536C207.922 101.656 210.052 100.516 212.813 98.9558C217.434 95.775 224.666 100.396 220.795 106.158Z" fill="#43484C"/>
<path d="M178.515 113.179C177.735 113.269 176.834 113.659 176.654 114.32C176.054 114.05 164.471 109.999 163.271 106.188C163.121 105.677 163.001 105.197 162.941 104.747C162.941 104.747 177.134 113.059 178.515 113.179Z" fill="#43484C"/>
<path d="M191.328 117.02C191.298 117.05 190.878 117.32 190.338 117.68C189.527 118.22 188.417 118.911 187.937 119.121C187.097 119.451 182.656 119.631 178.725 119.481C174.794 119.331 176.264 115.01 176.654 114.349C176.834 113.689 177.764 113.269 178.515 113.209C178.755 113.179 178.995 113.179 179.205 113.239C179.925 113.959 186.467 115.28 189.257 113.449L191.328 117.02Z" fill="#D1D3D4"/>
<path d="M205.581 119.541C205.581 119.541 198.71 119.181 196.849 119.121C194.989 119.061 194.779 117.89 194.779 117.89V117.05C194.779 117.05 200.75 116.33 207.202 114.229C209.903 119.481 205.581 119.541 205.581 119.541Z" fill="#D1D3D4"/>
<path d="M220.795 106.158C220.615 106.428 220.405 106.698 220.165 106.998C217.074 110.329 212.003 112.669 207.202 114.23C200.75 116.33 194.779 117.05 194.779 117.05C194.929 116.99 200.24 115.4 206.302 113.089C211.523 111.109 217.284 108.618 220.795 106.158Z" fill="#43484C"/>
<path d="M190.398 113.18C195.499 110.629 208.072 103.727 211.853 104.147L190.398 113.18Z" fill="#43484C"/>
<path d="M173.684 103.307C174.884 103.247 179.565 104.027 184.096 107.868L173.684 103.307Z" fill="#43484C"/>
<path d="M192.558 102.917C192.558 102.917 191.328 109.218 192.078 110.569L192.558 102.917Z" fill="#43484C"/>
<path d="M194.749 110.028C194.749 110.028 197.599 105.257 199.91 104.537L194.749 110.028Z" fill="#43484C"/>
<path d="M197.239 67.5679C197.239 68.2881 197.119 68.9782 196.879 69.6084C196.159 71.6189 194.359 73.0593 192.258 73.0593C190.158 73.0593 188.387 71.6189 187.637 69.6084C187.397 68.9782 187.277 68.2881 187.277 67.5679C187.277 67.3578 187.277 67.1178 187.307 66.9077C187.367 66.9077 187.457 66.9677 187.637 66.9977H187.667C187.667 66.9977 187.667 66.9977 187.697 66.9977C187.727 66.9977 187.787 67.0278 187.847 67.0278C187.877 67.0278 187.907 67.0278 187.937 67.0578C189.437 67.3578 193.128 67.8079 195.769 65.0773L195.799 65.0473C195.829 65.0172 195.859 64.9872 195.859 64.9572L195.889 64.9272C195.919 64.8972 195.919 64.8972 195.949 64.8672C196.009 64.8072 196.069 64.7472 196.129 64.6572C196.159 64.6272 196.159 64.5971 196.189 64.5971C196.249 64.5371 196.279 64.4771 196.339 64.4171C196.519 64.177 196.699 63.937 196.879 63.7269V65.2573H196.789C196.819 65.3473 196.849 65.4073 196.879 65.4974C197.029 65.9475 197.149 66.3976 197.209 66.9077C197.239 67.1478 197.239 67.3578 197.239 67.5679Z" fill="#934749"/>
<path d="M185.687 58.2054C185.596 57.6352 185.566 57.0351 185.566 56.4349" stroke="#1B00E9" stroke-width="0.195889" stroke-miterlimit="10"/>
<path d="M198.26 56.4349C198.26 57.1551 198.2 57.8153 198.08 58.4754" stroke="#1B00E9" stroke-width="0.195889" stroke-miterlimit="10"/>
<path d="M198.83 54.6946C198.35 54.8747 197.87 55.2048 197.87 55.2048C197.87 55.2048 198.26 53.8844 197.87 50.3736C197.479 46.8327 194.059 47.2828 193.098 47.4328C192.108 47.5529 188.117 48.6932 187.307 48.273C186.557 48.6031 185.957 49.8334 185.747 50.6436C185.506 51.4238 185.747 54.7547 185.747 54.7547C185.506 54.6046 185.266 54.4846 185.086 54.4546C183.436 54.0945 183.706 57.5154 185.717 58.2355C185.987 60.066 186.707 61.6864 187.667 62.8867C188.807 64.267 190.278 65.1373 191.928 65.1373C193.939 65.1373 195.739 63.8469 196.909 61.8364C197.479 60.8762 197.87 59.7359 198.11 58.5056C198.83 58.1455 199.67 57.4553 199.88 56.045C200.06 54.5746 199.43 54.4846 198.83 54.6946ZM189.257 59.916C188.987 59.4058 193.759 60.186 194.689 59.916C194.689 59.916 191.658 64.5971 189.257 59.916Z" fill="#934749"/>
<path d="M191.268 54.6046C191.478 54.9047 191.508 56.3451 191.388 56.5851C191.298 56.8252 188.387 59.5559 192.618 58.6856" stroke="#3C2415" stroke-width="0.195889" stroke-miterlimit="10"/>
<path d="M198.83 54.6947C198.35 54.8747 197.87 55.2048 197.87 55.2048C197.87 55.2048 198.26 53.8845 197.87 50.3736C197.479 46.8327 194.059 47.2828 193.098 47.4329C192.108 47.5529 188.117 48.6932 187.307 48.2731C186.557 48.6032 185.957 49.8335 185.747 50.6437C185.506 51.4239 185.747 54.7547 185.747 54.7547C185.506 54.6047 185.266 54.4846 185.086 54.4546C185.086 54.4546 183.256 50.2836 185.416 47.4629C185.416 47.4629 183.196 46.3826 187.037 44.6122C187.937 44.102 188.267 43.832 188.417 43.5919C188.987 43.1718 195.439 43.1118 197.299 45.1823C198.53 44.9722 199.73 47.1328 199.31 48.3631C199.25 48.3331 200.93 48.183 198.83 54.6947Z" fill="#320C15"/>
<path d="M237.419 122.932C236.669 124.012 235.829 125.272 235.409 126.383C225.176 126.263 215.544 126.172 214.944 126.383C213.653 126.803 214.374 125.752 214.584 125.782C214.794 125.812 215.364 125.302 215.364 125.302C215.364 125.302 216.354 124.192 219.115 124.132C221.876 124.042 222.146 123.142 223.616 122.302C225.086 121.491 226.107 121.551 226.677 122.812C227.247 124.072 228.507 123.922 229.677 123.892C230.818 123.832 237.419 122.932 237.419 122.932Z" fill="#FBC893"/>
<path d="M277.089 96.1352C276.939 96.1952 274.329 97.2154 272.498 96.9454C272.948 97.0354 273.999 97.2755 274.959 97.8756C274.179 99.1659 274.899 100.306 275.169 100.636C274.359 99.7361 276.189 103.967 276.339 104.207C276.489 104.447 276.219 104.627 275.889 103.967C275.589 103.307 273.368 100.126 270.458 100.156C270.458 100.156 270.668 99.0159 270.248 97.9956C271.298 97.3055 271.298 95.9551 271.298 95.9551C271.088 96.7653 269.888 96.8854 268.807 96.5553C268.777 96.5553 268.777 96.5553 268.747 96.5253C268.717 96.5253 268.687 96.4953 268.657 96.4953C267.667 96.1652 266.827 95.445 267.037 94.5148C267.487 92.5643 270.638 94.4247 270.638 94.4247L269.707 91.9941C270.998 90.4938 271.238 89.3835 271.238 88.0332C271.928 86.9229 272.648 84.3422 272.648 84.3422C274.359 85.0624 274.419 86.8929 275.349 88.1232C276.279 89.3535 278.35 88.7833 278.35 88.7833C278.35 88.7833 278.05 90.0136 277.389 90.0136C277.029 90.0136 277.419 90.4638 277.9 90.4638C278.11 90.7638 278.32 91.0639 278.5 91.334C278.5 91.334 278.47 92.1442 276.699 92.0241C276.699 92.0241 277.659 92.5043 278.83 91.8741C279.7 93.4945 279.7 94.7548 277.87 95.7151C277.539 95.8951 277.299 96.0151 277.089 96.1352ZM268.987 94.4247C268.987 94.4247 267.487 94.4548 268.597 95.595C269.707 96.7353 270.308 95.385 270.308 95.385C270.308 95.385 268.837 95.8051 268.987 94.4247Z" fill="#FFC693"/>
<path d="M238.019 122.092C237.839 122.362 237.629 122.632 237.419 122.932C237.419 122.932 230.818 123.832 229.617 123.862C228.447 123.892 227.187 124.012 226.617 122.782C226.046 121.551 225.026 121.461 223.556 122.272C222.085 123.082 221.815 124.012 219.055 124.102C216.294 124.192 215.304 125.272 215.304 125.272C215.304 125.272 214.854 125.452 214.944 125.122C216.234 123.712 219.055 123.352 220.195 123.322C221.335 123.292 222.175 123.022 224.036 121.641C225.896 120.261 227.037 120.981 227.127 121.281C227.217 121.581 227.577 123.262 228.927 122.992C230.908 122.542 234.779 122.242 238.019 122.092Z" fill="#FFA45A"/>
<path d="M268.987 123.082C265.356 125.873 262.176 126.203 260.075 126.443C258.425 126.623 246.542 126.473 235.409 126.353C235.859 125.272 236.669 123.982 237.419 122.902C237.419 122.902 243.421 122.332 243.751 122.452C244.081 122.572 244.771 123.022 245.371 122.452C245.581 122.392 251.883 120.651 253.864 119.781C255.874 118.911 256.294 120.321 256.294 120.321C256.294 118.671 258.755 116.57 258.815 116.51C262.086 114.95 263.256 116.03 263.586 115.76C263.646 115.73 263.736 115.64 263.856 115.49C264.456 116.72 266.257 119.931 268.897 121.552C268.927 122.092 268.957 122.602 268.987 123.082Z" fill="#65B2DA"/>
<path d="M277.089 112.129C275.739 114.23 274.089 115.61 272.498 116.51C272.498 115.79 272.468 115.16 272.438 114.56C272.438 114.56 274.509 104.327 274.449 103.997C274.389 103.637 272.618 99.0458 269.918 104.297C268.867 110.359 269.588 114.77 269.588 114.77C269.197 115.13 268.987 116.36 268.897 117.891C267.697 118.131 266.737 118.101 266.347 117.951C265.417 117.62 264.696 116.06 264.366 115.01C265.597 113.629 267.847 110.719 267.937 107.928C267.157 103.517 270.398 100.156 270.398 100.156C273.308 100.126 275.529 103.307 275.829 103.967C276.129 104.627 276.429 104.447 276.279 104.207C276.129 103.967 274.299 99.736 275.109 100.636C275.139 100.666 275.139 100.666 275.139 100.696L275.169 100.726L275.199 100.756C276.039 101.776 279.16 105.918 277.089 112.129Z" fill="#65B2DA"/>
<path d="M277.089 112.129C276.609 113.569 275.859 115.1 274.749 116.72C274.389 117.23 274.059 117.71 273.698 118.19C273.278 118.761 272.828 119.301 272.408 119.781C272.438 118.67 272.468 117.53 272.468 116.51C274.119 115.64 275.739 114.229 277.089 112.129Z" fill="#458CB3"/>
<path d="M277.689 128.993C273.638 128.993 270.218 129.113 269.587 127.283C269.347 126.623 269.137 124.972 268.987 123.082C268.957 122.602 268.927 122.061 268.897 121.551C268.837 120.291 268.837 118.971 268.897 117.86C268.987 116.33 269.197 115.13 269.587 114.74C269.587 114.74 268.867 110.328 269.918 104.267C272.618 99.0456 274.389 103.607 274.449 103.967C274.509 104.327 272.438 114.53 272.438 114.53C272.468 115.1 272.498 115.76 272.498 116.48C272.498 117.5 272.468 118.641 272.438 119.751C272.288 123.322 271.988 126.833 271.988 126.833C271.988 126.833 274.989 127.493 276.999 128.063C278.56 128.573 279.49 128.993 277.689 128.993Z" fill="#FFC792"/>
<path d="M268.897 121.582C266.257 119.961 264.486 116.75 263.856 115.52C263.976 115.4 264.156 115.22 264.336 115.01C264.666 116.03 265.386 117.591 266.317 117.951C266.737 118.101 267.667 118.131 268.867 117.891C268.837 119.001 268.867 120.291 268.897 121.582Z" fill="#458CB3"/>
<path d="M278.74 91.9338C277.569 92.5639 276.609 92.0838 276.609 92.0838C278.41 92.2038 278.41 91.3936 278.41 91.3936C278.56 91.5737 278.65 91.7837 278.74 91.9338Z" fill="#8F280F"/>
<path d="M277.779 90.4634C277.779 90.4934 277.809 90.4934 277.809 90.5234C277.329 90.5234 276.939 90.0733 277.299 90.0733C277.989 90.0733 278.26 88.843 278.26 88.843C278.86 90.0733 277.779 90.4634 277.779 90.4634Z" fill="#E67D43"/>
<path d="M271.238 95.9852C271.238 95.9852 271.268 97.3355 270.188 98.0257C269.947 97.4555 269.527 96.8854 268.747 96.6153C269.827 96.9154 271.028 96.7654 271.238 95.9852Z" fill="#FE8653"/>
<path d="M279.31 127.403L276.279 127.193C276.279 127.193 276.159 127.463 276.699 127.523C277.269 127.583 277.419 127.973 276.969 128.123C274.989 127.553 271.958 126.893 271.958 126.893C271.958 126.893 272.258 123.382 272.408 119.811C272.828 119.331 273.278 118.791 273.699 118.221L273.428 124.852L279.28 126.803C279.31 126.773 280.87 127.103 279.31 127.403Z" fill="#FEA564"/>
<path d="M272.618 84.372C272.618 84.372 271.898 86.9827 271.208 88.0629C271.208 89.4433 270.938 90.5235 269.677 92.0239L270.608 94.4545C270.608 94.4545 267.427 92.594 267.007 94.5445C266.797 95.4448 267.637 96.1649 268.627 96.525C268.657 96.525 268.687 96.555 268.717 96.555C269.557 96.8851 269.767 97.8454 269.798 97.9054C269.587 97.2752 267.487 97.0952 265.356 96.435C265.296 96.405 265.236 96.375 265.146 96.345L264.786 96.255C262.146 95.3247 259.715 93.5843 260.885 89.2332C263.076 81.1012 270.518 82.3615 270.518 82.3615C273.128 80.471 272.618 84.372 272.618 84.372Z" fill="#5E0E14"/>
<path d="M265.746 97.2753L265.656 97.6054C265.536 98.0255 265.116 98.2656 264.726 98.1456L264.636 98.1156L263.826 97.9055C263.616 97.8455 263.466 97.7255 263.346 97.5454C263.256 97.3654 263.226 97.1853 263.286 96.9753L263.376 96.6452C263.496 96.2251 263.916 95.985 264.306 96.1051L264.816 96.2551C264.996 96.3151 265.206 96.3751 265.386 96.4351C265.686 96.5852 265.836 96.9453 265.746 97.2753Z" fill="#FF2867"/>
<path d="M265.656 109.998C262.206 113.899 259.235 110.419 259.235 110.419C265.506 110.118 263.046 103.187 262.536 101.266C262.056 99.4958 262.536 98.0855 263.346 97.5453C263.436 97.7254 263.616 97.8454 263.826 97.9054L264.636 98.1155C264.516 98.3256 264.456 98.5356 264.516 98.6556C264.696 99.0157 269.107 106.067 265.656 109.998Z" fill="#5E1114"/>
<path d="M270.278 95.415C270.278 95.415 269.647 96.7653 268.567 95.625C267.457 94.4847 268.957 94.4547 268.957 94.4547C268.837 95.805 270.278 95.415 270.278 95.415Z" fill="#EE8C57"/>
<path d="M277.059 96.135C275.919 96.7052 275.259 97.3053 274.899 97.8754C273.939 97.2753 272.888 97.0352 272.438 96.9452C274.299 97.1853 276.909 96.195 277.059 96.135Z" fill="#FF9154"/>
<path d="M258.815 116.51C258.725 116.57 256.294 118.671 256.294 120.321C256.294 120.321 255.844 118.911 253.863 119.781C251.883 120.651 245.581 122.392 245.371 122.452C246.182 122.182 255.424 118.671 255.424 118.671C256.744 117.65 257.884 116.96 258.815 116.51Z" fill="#458CB3"/>
<path d="M245.371 122.482C244.771 123.052 244.081 122.602 243.751 122.482C243.421 122.362 237.419 122.932 237.419 122.932C237.629 122.632 237.839 122.362 238.02 122.092C240.9 121.942 243.331 121.911 243.541 121.911C243.991 121.911 244.561 122.722 245.371 122.482Z" fill="#4393BD"/>
<path d="M47.4719 82.3317L46.4817 83.9521C39.0398 82.7518 34.3887 77.2004 34.3887 77.2004C34.4487 76.4802 34.5687 75.79 34.7188 75.1299C34.6887 75.1599 41.8605 81.3714 47.4719 82.3317Z" fill="#4CA9EE"/>
<path d="M49.4224 79.1208L47.4719 82.3316C41.8905 81.3414 34.7187 75.1598 34.7187 75.1598C36.3391 68.3181 42.3106 66.0676 45.0713 65.4074C45.9415 65.1973 46.4817 65.1373 46.4817 65.1373C36.9393 72.2191 49.4224 79.1208 49.4224 79.1208Z" fill="#A6DDFF"/>
<path d="M46.4818 83.982L46.3617 89.0533C39.58 93.0443 31.1479 92.7442 31.1479 92.7442C30.5778 91.904 29.817 90.9884 29.577 90.0882C23.8402 82.8579 34.3587 77.2303 34.3587 77.2303C34.3587 77.2303 39.0399 82.7817 46.4818 83.982Z" fill="#D89D7B"/>
<path d="M94.8838 125.572C94.8238 125.722 94.7637 125.782 94.7637 125.782C94.7637 125.782 89.8425 126.263 74.1486 126.233C58.4547 127.073 39.85 106.788 39.85 106.788C39.85 106.788 23.4659 100.486 19.4149 95.4149C19.4149 95.4149 19.2649 105.647 17.3444 108.018C16.8042 109.788 16.8042 113.329 16.8042 113.329H12.1531C12.1531 113.329 10.6827 92.5041 11.0728 91.6639C11.4629 90.8237 11.6129 79.931 29.9475 90.1635C30.1876 91.0338 30.5477 91.904 31.1478 92.7442C31.1478 92.7442 39.6099 93.0443 46.3616 89.0533V89.0233C46.5117 89.5634 47.1718 91.6039 49.4224 92.7442C54.8838 95.5049 55.2139 104.807 55.2139 104.807C56.2041 106.428 69.7375 117.56 69.7375 117.56C74.8088 116.72 85.9415 120.621 87.5019 121.011C88.7322 121.311 92.7232 121.581 94.2236 121.671C94.2236 121.671 94.2236 121.671 94.2536 121.671C94.2836 121.671 94.3736 121.671 94.4937 121.671C94.4937 121.671 94.4937 121.671 94.5237 121.671C94.7037 121.671 94.8238 121.701 94.8238 121.701C95.784 123.322 95.1839 125.002 94.8838 125.572Z" fill="#29E7CD"/>
<path d="M46.3615 89.0229C46.3317 88.9333 46.3317 88.9034 46.3317 88.9034" stroke="#5E1114" stroke-width="0.153128" stroke-miterlimit="10"/>
<path d="M68.1162 29.2481C68.1162 29.2481 68.0881 29.2481 68.1162 29.2481" stroke="#5E1114" stroke-width="0.153128" stroke-miterlimit="10"/>
<path d="M69.1374 29.6384C69.1374 29.6676 69.1374 29.6676 69.1374 29.6384" stroke="#5E1114" stroke-width="0.153128" stroke-miterlimit="10"/>
<path d="M68.1164 29.2481C68.1164 29.2481 68.0872 29.2481 68.1164 29.2481C68.0872 29.2481 68.0872 29.2481 68.1164 29.2481Z" stroke="#5E1114" stroke-width="0.153128" stroke-miterlimit="10"/>
<path d="M70.4276 29.968C70.4575 29.9382 70.4575 29.9083 70.4874 29.8784L70.5173 29.8485" stroke="#5E1114" stroke-width="0.153128" stroke-miterlimit="10"/>
<path d="M69.1374 29.6384C69.1374 29.6676 69.1374 29.6676 69.1374 29.6384C69.1374 29.6676 69.1374 29.6676 69.1374 29.6384Z" stroke="#5E1114" stroke-width="0.153128" stroke-miterlimit="10"/>
<path d="M73.7886 27.0277C73.4285 27.6578 69.0774 33.4793 71.658 31.8589C74.2387 30.2385 74.0286 31.5588 73.3384 31.8589C72.6483 32.159 70.6378 35.6698 69.4075 35.4898C68.2072 35.3097 66.8568 36.8101 66.7068 37.2302C66.5267 37.6203 63.526 46.8626 61.1254 48.6031C61.0654 48.6331 61.0054 48.6931 60.9453 48.7531C58.9949 50.5235 56.3842 58.8656 55.394 63.7569C55.1539 64.8971 55.0339 65.8574 55.0039 66.4875C54.8838 69.9384 49.4225 79.1807 49.4225 79.1807C49.4225 79.1807 36.9693 72.249 46.4817 65.1672C47.652 64.177 49.7225 60.7261 50.1727 59.7959C50.2027 59.7359 50.2627 59.5858 50.3227 59.3758C50.7728 58.1755 51.7931 54.8146 52.8133 51.8739C53.2634 50.6136 53.7135 49.4133 54.1036 48.513C54.4637 47.7028 54.7638 47.1027 55.0039 46.9226C56.1742 46.0224 64.9363 34.2295 64.8763 33.7794C64.8163 33.3292 65.3865 30.5085 66.9468 29.0382C73.4885 22.7066 68.5072 28.7681 68.1171 29.2482C76.1892 20.486 70.1276 28.408 69.2274 29.5483C76.8793 20.486 71.9581 27.7478 70.6378 29.6683C75.1989 23.2167 74.1186 26.3975 73.7886 27.0277Z" fill="#D89D7B"/>
<path d="M70.488 29.8485L70.4579 29.8786C70.4278 29.9087 70.4278 29.9387 70.3978 29.9688C70.3978 29.9989 70.3677 29.9989 70.3677 30.0289C70.3677 30.059 70.3376 30.059 70.3376 30.059" stroke="#5E1114" stroke-width="0.153128" stroke-miterlimit="10"/>
<path d="M63.3459 54.7548C63.3459 56.1951 62.9858 57.5455 62.3857 58.7458C61.0653 61.3264 58.4847 63.2169 55.3939 63.727C56.3842 58.8358 58.9648 50.5237 60.9453 48.7233C62.4457 50.3437 63.3459 52.4442 63.3459 54.7548Z" fill="#C56C83"/>
<path d="M47.2018 54.8746C46.6917 54.6345 45.3113 54.2745 45.2513 54.2745C45.1913 53.8844 45.2513 53.4643 46.0015 53.4042C45.9715 53.4042 47.0218 54.1544 47.2018 54.8746Z" fill="#BD6F6F"/>
<path d="M47.3519 54.9644C47.3219 54.9344 47.2618 54.9044 47.2018 54.8444C47.0518 54.1242 46.0015 53.3741 46.0015 53.3741C46.0015 53.3741 45.4914 52.2638 46.9918 52.5638C47.1118 53.6141 47.3519 54.9644 47.3519 54.9644Z" fill="#B7705B"/>
<path d="M54.1037 48.4832C53.7136 49.3834 53.2634 50.5837 52.8133 51.844C51.7931 54.7848 50.7428 58.1456 50.3227 59.3459C49.3024 59.4359 47.9221 59.0758 46.4817 58.3557C46.1517 58.1756 45.7916 57.9956 45.4315 57.7855C42.8808 56.2851 44.0511 54.7848 45.4315 54.7848C45.4315 54.7848 45.2814 54.5447 45.2514 54.2446C45.3115 54.2746 46.7218 54.6047 47.2019 54.8448C47.2919 54.8748 47.322 54.9048 47.352 54.9648C47.352 54.9648 47.1119 53.5845 46.9619 52.5642C47.682 52.3542 47.2319 51.634 47.2319 51.634C47.2319 51.634 45.8816 50.4037 47.8921 50.5237C49.9026 50.6437 49.9926 50.7038 51.523 49.5335C52.7833 48.5732 52.9934 48.3332 54.1037 48.4832Z" fill="#DFA183"/>
<path d="M48.5822 51.7841C48.8223 52.5342 47.592 52.6843 47.2619 51.694L48.5822 51.7841Z" fill="#DDA07F"/>
<path d="M66.4966 55.5649C66.4966 55.5649 65.4464 56.0751 65.2963 59.3759C65.2963 59.3759 64.2461 60.036 62.3556 58.7457C62.9857 57.5454 63.3158 56.1951 63.3158 54.7547C63.3458 54.7547 65.0863 54.0045 66.4966 55.5649Z" fill="#774A6A"/>
<path d="M69.3473 64.7472C64.6662 71.1988 65.0562 75.82 65.0562 75.82C65.0562 75.82 54.5236 77.7405 60.9752 67.5079C60.9752 67.5079 58.4246 69.8785 57.8244 70.2086C57.2243 70.5087 58.6647 68.4681 60.7052 66.8177C62.7457 65.1673 64.4861 63.937 65.1763 62.5567C65.8664 61.1763 65.9565 60.5162 65.3263 59.3459C65.4764 56.075 66.5266 55.5349 66.5266 55.5349C66.5266 55.5349 74.0285 58.2956 69.3473 64.7472Z" fill="#C46C84"/>
<path d="M12.7532 123.952C6.96178 123.382 8.55218 124.372 2.58068 124.372C-3.39081 123.922 2.58068 122.421 4.74122 121.881C6.90176 121.341 11.6429 117.8 12.5732 115.46C12.7832 114.98 12.5732 113.359 12.5732 113.359H16.3841C16.2941 114.86 16.3241 117.14 16.9543 119.271C18.3946 124.042 18.5747 124.522 12.7532 123.952Z" fill="#DB9F7D"/>
<path d="M110.277 125.512C109.857 125.362 108.447 124.852 105.626 125.512C103.316 126.053 97.0142 125.692 94.9136 125.572C95.1837 124.972 95.7838 123.322 94.7936 121.731C94.7936 121.731 94.6736 121.731 94.4935 121.701C95.2137 121.701 97.1642 121.521 97.6743 119.271C98.2745 116.48 101.365 117.35 101.755 117.771C102.145 118.191 105.026 121.431 106.016 121.551C107.007 121.671 107.367 121.551 111.538 124.252C115.739 126.923 110.698 125.692 110.277 125.512Z" fill="#DB9F7E"/>
<g opacity="0.21">
<path opacity="0.21" d="M31.1178 92.7443C31.928 93.8245 32.6782 94.9648 33.4284 96.0751C33.7885 96.6452 34.1786 97.1854 34.5687 97.7255C34.7787 97.9956 34.9588 98.2656 35.1688 98.5357C35.2588 98.6557 35.3789 98.8058 35.4989 98.9258C35.6189 99.0458 35.739 99.1659 35.859 99.2859C35.2588 98.9258 34.7787 98.4457 34.3286 97.9056C33.8785 97.3954 33.4884 96.8253 33.0983 96.2852C32.3481 95.1749 31.6579 94.0046 31.1178 92.7443Z" fill="black"/>
</g>
<g opacity="0.21">
<path opacity="0.21" d="M37.3593 101.956C37.5094 102.317 37.6894 102.647 37.8695 102.977C38.0495 103.307 38.2596 103.607 38.4996 103.907C38.6196 104.057 38.7097 104.207 38.8297 104.357C38.9497 104.507 39.0698 104.657 39.1898 104.807L39.5499 105.227C39.6699 105.377 39.7899 105.497 39.91 105.677C39.7299 105.587 39.5799 105.497 39.3998 105.377C39.2498 105.257 39.0698 105.137 38.9497 105.017C38.6497 104.777 38.3796 104.477 38.1395 104.147C37.8995 103.817 37.7194 103.487 37.5694 103.127C37.4494 102.737 37.3293 102.347 37.3593 101.956Z" fill="black"/>
</g>
<path d="M50.3226 59.346C50.2625 59.5261 50.2025 59.6761 50.1725 59.7661C49.7224 60.6964 47.6519 64.1472 46.4816 65.1375C46.4816 65.1375 45.9415 65.1975 45.0712 65.4076C47.7719 62.0467 46.5116 58.4758 46.4816 58.3858C47.922 59.076 49.3023 59.4361 50.3226 59.346Z" fill="#DBA07E"/>
<path d="M47.2018 54.9041V54.8748" stroke="#5E1114" stroke-width="0.153128" stroke-miterlimit="10"/>
</g>
<defs>
<clipPath id="clip0">
<rect width="280" height="128.312" fill="white" transform="translate(0 0.681152)"/>
</clipPath>
</defs>
</svg>
