<svg width="324" height="217" viewBox="0 0 324 217" fill="none" xmlns="http://www.w3.org/2000/svg">
<g clip-path="url(#clip0)">
<path d="M242.789 110.264H170.327V158.733H242.789V110.264Z" fill="#A1D6F7"/>
<path d="M147.191 171.562C147.191 171.562 143.718 187.153 142.668 186.91L140.373 186.393C139.323 186.151 141.084 170.172 141.084 170.172C141.294 168.944 142.344 168.153 143.395 168.379L145.689 168.896C146.723 169.155 147.401 170.35 147.191 171.562Z" fill="#4C321B"/>
<path d="M264.907 171.998C264.907 171.998 269.318 187.153 270.368 186.911L272.662 186.394C273.712 186.151 271.014 170.609 271.014 170.609C270.804 169.381 269.754 168.589 268.704 168.815L266.41 169.332C265.359 169.591 264.681 170.786 264.907 171.998Z" fill="#4C321B"/>
<path d="M150.94 121.348L138.903 136.066C138.354 135.63 137.659 135.371 136.9 135.371L149.631 119.764L150.94 121.348Z" stroke="#255483" stroke-width="0.31282" stroke-miterlimit="10"/>
<path d="M146.125 155.939C145.608 155.971 145.091 156.052 144.607 156.181L136.9 141.721C137.562 141.721 138.176 141.527 138.693 141.188L146.125 155.939Z" stroke="#255483" stroke-width="0.30206" stroke-miterlimit="10"/>
<path d="M245.309 109.732V158.459H240.495V113.577C240.495 112.333 239.493 111.331 238.249 111.331H174.463C173.219 111.331 172.218 112.333 172.218 113.577V158.443H168.001C168.292 157.749 168.469 156.989 168.469 156.198C168.469 154.986 168.098 153.871 167.451 152.95V109.732C167.451 108.488 168.453 107.486 169.697 107.486H243.063C244.307 107.486 245.309 108.488 245.309 109.732Z" fill="#DCE8EF"/>
<path d="M260.593 161.432L259.155 164.372L253.274 164.405L161.684 164.825V164.566C162.411 164.195 162.895 163.435 162.895 162.563V161.868C164.85 161.836 166.579 160.802 167.565 159.267C167.742 159.008 167.888 158.734 168.001 158.443H195.499C195.58 159.445 196.42 160.253 197.454 160.253H215.339C215.872 160.253 216.373 160.026 216.712 159.671C217.035 159.348 217.246 158.928 217.278 158.443H258.46C260.351 158.443 260.981 160.349 260.593 161.432Z" fill="#DDDDDD"/>
<path d="M217.294 158.443C217.262 158.928 217.052 159.348 216.729 159.671C216.373 160.026 215.889 160.253 215.355 160.253H197.47C196.452 160.253 195.596 159.461 195.515 158.443H217.294Z" fill="#99B2C7"/>
<path d="M157.758 147.844V164.825H151.521C151.44 164.825 151.36 164.825 151.279 164.809C150.148 164.679 149.259 163.726 149.259 162.563V150.122C149.259 148.878 150.277 147.861 151.521 147.861H157.758V147.844Z" fill="#EAE8E1"/>
<path d="M162.896 150.106V162.547C162.896 163.419 162.395 164.178 161.684 164.55C161.441 164.679 161.167 164.76 160.876 164.792C160.795 164.809 160.714 164.809 160.634 164.809H157.758V147.844H160.634C161.878 147.844 162.896 148.862 162.896 150.106Z" fill="#DADEDC"/>
<path d="M168.453 156.278C168.453 157.07 168.292 157.829 167.985 158.524C167.856 158.814 167.71 159.089 167.549 159.348C166.563 160.882 164.834 161.916 162.879 161.949V159.558C163.8 159.558 164.624 159.154 165.206 158.524C165.707 157.974 166.014 157.231 166.014 156.423C166.014 154.695 164.608 153.289 162.879 153.289V150.623C164.754 150.655 166.418 151.609 167.419 153.047C168.082 153.951 168.453 155.066 168.453 156.278Z" fill="#D7DCDA"/>
<path d="M151.376 150.526H160.327" stroke="#B6B7B6" stroke-width="0.30206" stroke-miterlimit="10" stroke-linecap="round"/>
<path d="M151.602 108.503L145.98 114.142L145.026 113.173L145.77 112.429L149.906 108.293L150.649 107.55L151.602 108.503Z" fill="#7091AF"/>
<path d="M149.954 108.197L145.818 112.333C145.107 111.024 145.446 109.344 146.69 108.423C147.676 107.712 148.952 107.663 149.954 108.197Z" fill="#A8BFCF"/>
<path d="M162.201 124.563C161.054 125.678 159.244 125.726 158.065 124.676L162.346 120.346C163.429 121.558 163.364 123.416 162.201 124.563Z" fill="url(#paint0_linear)"/>
<path d="M138.273 138.538C138.273 139.297 137.659 139.911 136.9 139.911C136.141 139.911 135.527 139.297 135.527 138.538C135.527 137.779 136.141 137.181 136.9 137.181C137.659 137.165 138.273 137.779 138.273 138.538Z" stroke="#423D27" stroke-width="0.387754" stroke-miterlimit="10"/>
<path d="M138.855 136.05C138.321 135.63 137.643 135.371 136.916 135.371C135.171 135.371 133.765 136.777 133.765 138.522C133.765 140.267 135.171 141.672 136.916 141.672C137.53 141.672 138.111 141.495 138.596 141.188C139.485 140.622 140.066 139.653 140.066 138.522C140.05 137.52 139.582 136.632 138.855 136.05ZM136.9 139.895C136.14 139.895 135.526 139.281 135.526 138.522C135.526 137.763 136.14 137.165 136.9 137.165C137.659 137.165 138.273 137.779 138.273 138.522C138.273 139.281 137.659 139.895 136.9 139.895Z" stroke="#6894B6" stroke-width="0.503434" stroke-miterlimit="10"/>
<path d="M151.279 164.808H138.806C138.499 164.017 138.338 163.16 138.338 162.272C138.338 158.83 140.794 155.938 144.122 155.114C144.574 155.001 145.059 154.921 145.544 154.888C145.721 154.872 145.899 154.872 146.077 154.872C147.208 154.872 148.29 155.098 149.26 155.518V162.546C149.26 163.71 150.148 164.679 151.279 164.808Z" fill="#9DB6C9"/>
<path d="M269.237 164.405C269.237 164.422 269.237 164.422 269.237 164.405" stroke="#AFDDB5" stroke-width="0.100687" stroke-miterlimit="10"/>
<path d="M165.287 117.373L162.346 120.346L158.049 124.692L155.205 127.568L150.536 121.929L149.259 120.394L144.897 115.127L152.782 107.178L165.287 117.373Z" fill="#9DB6C9"/>
<path d="M281.613 164.566H127.691V171.594H281.613V164.566Z" fill="#4C321B"/>
<g opacity="0.5">
<g opacity="0.5">
<g opacity="0.5">
<path opacity="0.5" d="M233.289 115.499V117.05C233.289 117.228 233.434 117.374 233.612 117.374H233.628C233.806 117.374 233.951 117.228 233.951 117.05V115.37L237.296 115.354V117.034C237.296 117.212 237.441 117.357 237.619 117.357H237.651C237.829 117.357 237.974 117.212 237.974 117.034V115.483L237.296 114.675L233.951 114.692L233.289 115.499Z" fill="#4CA9EE"/>
<path opacity="0.5" d="M237.312 114.659L237.99 115.467L237.974 112.979C237.974 112.801 237.829 112.656 237.651 112.656H237.635C237.457 112.656 237.312 112.801 237.312 112.979V114.659Z" fill="#29E7CD"/>
<path opacity="0.5" d="M233.289 113.011L233.305 115.499L233.984 114.675V112.995C233.984 112.817 233.838 112.672 233.661 112.672H233.628C233.434 112.672 233.273 112.817 233.289 113.011Z" fill="#29E7CD"/>
<path opacity="0.5" d="M238.313 113.641L238.33 115.871L238.927 116.581C238.976 116.517 239.008 116.452 239.008 116.355V115.337H239.347C239.525 115.337 239.671 115.192 239.671 115.014V114.982C239.671 114.804 239.525 114.659 239.347 114.659H239.024V113.641C239.024 113.463 238.879 113.318 238.701 113.318H238.685C238.459 113.318 238.313 113.463 238.313 113.641Z" fill="#29E7CD"/>
<path opacity="0.5" d="M231.625 115.014V115.047C231.625 115.224 231.77 115.37 231.948 115.37H232.271V116.388C232.271 116.469 232.303 116.549 232.368 116.614L232.95 115.903L232.934 113.673C232.934 113.496 232.788 113.35 232.61 113.35H232.594C232.417 113.35 232.271 113.496 232.271 113.673V114.691H231.932C231.77 114.691 231.609 114.837 231.625 115.014Z" fill="#29E7CD"/>
</g>
</g>
<path opacity="0.5" d="M238.33 115.871V116.356C238.33 116.533 238.475 116.679 238.653 116.679H238.669C238.766 116.679 238.847 116.63 238.911 116.566L238.33 115.871Z" fill="#4CA9EE"/>
<path opacity="0.5" d="M232.368 116.614C232.433 116.679 232.514 116.711 232.611 116.711H232.643C232.821 116.711 232.966 116.566 232.966 116.388V115.903L232.368 116.614Z" fill="#4CA9EE"/>
</g>
<path fill-rule="evenodd" clip-rule="evenodd" d="M204.143 107.259H209.523V114.319C214.402 115.24 216.277 115.515 217.327 120.879C218.151 125.063 218.781 131.235 218.781 131.235C218.781 131.235 226.714 139.055 228.846 139.749C230.979 140.444 231.302 139.378 232.336 139.491C233.37 139.604 234.517 140.121 234.905 140.105C235.293 140.089 235.583 139.911 235.406 140.363C235.228 140.816 234.856 140.799 234.226 140.751C233.596 140.703 233.241 140.913 233.079 141.155C232.966 141.333 233.677 141.591 234.291 141.72C234.291 141.704 234.533 141.43 234.711 141.333C235.002 141.171 235.309 141.139 235.309 141.123C235.373 140.751 235.39 140.315 235.535 140.137C235.81 139.765 236.133 139.879 236.133 139.879L235.907 141.688C235.907 141.688 236.23 141.446 236.65 141.349C237.07 141.236 237.151 141.543 237.151 141.543L235.341 143.304H234.081L233.451 143.772L232.869 143.546C232.595 143.74 231.48 143.982 230.963 143.805C228.119 142.884 223.87 140.202 222.674 139.62C218.991 137.843 215.646 137.261 214.661 132.98L212.141 122.074L211.834 121.089C210.589 124.013 208.651 127.277 206.567 127.277C204.353 127.277 202.511 123.593 201.445 120.539L200.976 122.074L198.456 132.98C197.471 137.261 194.126 137.843 190.442 139.62C189.247 140.202 184.998 142.884 182.154 143.805C181.637 143.966 180.506 143.724 180.248 143.546L179.666 143.772L179.036 143.304H177.776L175.966 141.543C175.966 141.543 176.047 141.236 176.467 141.349C176.887 141.462 177.21 141.688 177.21 141.688L176.984 139.879C176.984 139.879 177.323 139.782 177.582 140.137C177.727 140.315 177.744 140.751 177.808 141.123C177.808 141.139 178.099 141.171 178.406 141.333C178.584 141.43 178.826 141.704 178.826 141.72C179.44 141.591 180.151 141.333 180.038 141.155C179.876 140.913 179.521 140.703 178.891 140.751C178.261 140.799 177.889 140.816 177.711 140.363C177.533 139.911 177.824 140.089 178.212 140.105C178.6 140.121 179.747 139.604 180.781 139.491C181.815 139.378 182.138 140.444 184.271 139.749C186.403 139.055 194.336 131.235 194.336 131.235C194.336 131.235 194.982 125.063 195.79 120.879C196.921 115.095 199.038 115.272 204.159 114.319V107.259H204.143Z" fill="#E4AF94"/>
<path fill-rule="evenodd" clip-rule="evenodd" d="M204.143 107.259H209.523V113.075C208.618 113.641 207.681 113.931 207.019 113.948C206.276 113.948 205.193 113.608 204.143 112.897V107.259Z" fill="#DA9074"/>
<path fill-rule="evenodd" clip-rule="evenodd" d="M234.081 143.465C234.033 143.514 233.952 143.53 233.903 143.482C233.855 143.433 233.839 143.352 233.887 143.304C234.081 143.062 234.307 142.755 234.517 142.431C234.808 141.979 235.067 141.543 235.196 141.333C235.018 141.349 234.744 141.462 234.42 141.834C233.839 142.48 233.823 142.625 233.823 142.641C233.823 142.674 233.806 142.69 233.79 142.722L232.853 143.724C232.805 143.772 232.724 143.772 232.676 143.724C232.627 143.675 232.627 143.595 232.676 143.546L233.596 142.561C233.629 142.464 233.774 142.205 234.243 141.672C234.63 141.236 234.986 141.107 235.212 141.09C235.277 141.09 235.325 141.09 235.374 141.107C235.438 141.123 235.487 141.155 235.503 141.187C235.535 141.236 235.535 141.284 235.503 141.333C235.471 141.381 235.131 141.979 234.744 142.577C234.517 142.884 234.291 143.207 234.081 143.465Z" fill="#CB8368"/>
<path fill-rule="evenodd" clip-rule="evenodd" d="M233.693 142.803C233.644 142.852 233.58 142.868 233.515 142.835C233.467 142.787 233.451 142.722 233.483 142.658C233.499 142.625 233.515 142.609 233.531 142.593C233.451 142.512 233.257 142.399 232.998 142.528C232.53 142.771 232.077 143.207 232.077 143.207C232.045 143.239 232.013 143.239 231.98 143.239L231.512 143.191C231.447 143.191 231.399 143.126 231.399 143.062C231.399 142.997 231.463 142.949 231.528 142.949L231.948 142.997C232.077 142.884 232.481 142.512 232.885 142.318C233.467 142.028 233.79 142.528 233.79 142.528C233.822 142.577 233.822 142.658 233.758 142.69C233.79 142.674 233.79 142.674 233.693 142.803Z" fill="#CB8368"/>
<path fill-rule="evenodd" clip-rule="evenodd" d="M199.425 135.533C198.165 137.924 198.165 137.924 198.165 137.924C198.165 137.924 187.292 141.058 183.43 144.112C179.569 147.149 184.529 152.319 191.46 152.319C195.612 152.319 200.556 151.544 205.985 150.51C211.413 151.544 218.037 152.319 222.19 152.319C229.121 152.319 234.081 147.149 230.219 144.112C226.358 141.074 215.485 137.924 215.485 137.924C215.485 137.924 215.485 137.924 214.225 135.533L207.132 135.193L207.116 135.161L206.809 135.177L206.502 135.161L206.486 135.193L199.425 135.533Z" fill="#191919"/>
<path fill-rule="evenodd" clip-rule="evenodd" d="M179.23 143.304C179.278 143.352 179.262 143.433 179.214 143.482C179.165 143.53 179.084 143.514 179.036 143.465C178.826 143.223 178.6 142.9 178.39 142.577C177.986 141.979 177.646 141.381 177.614 141.333C177.582 141.284 177.598 141.236 177.614 141.187C177.646 141.155 177.679 141.123 177.743 141.107C177.792 141.09 177.84 141.09 177.905 141.09C178.115 141.107 178.47 141.236 178.874 141.672C179.343 142.189 179.472 142.464 179.521 142.561L180.441 143.546C180.49 143.595 180.49 143.675 180.441 143.724C180.393 143.772 180.312 143.772 180.264 143.724L179.327 142.722C179.311 142.706 179.294 142.674 179.294 142.641C179.294 142.641 179.278 142.48 178.697 141.834C178.373 141.462 178.083 141.349 177.921 141.333C178.05 141.543 178.309 141.979 178.6 142.431C178.81 142.738 179.02 143.062 179.23 143.304Z" fill="#CB8368"/>
<path fill-rule="evenodd" clip-rule="evenodd" d="M179.618 142.658C179.666 142.706 179.65 142.787 179.586 142.835C179.537 142.884 179.456 142.868 179.408 142.803C179.311 142.674 179.311 142.674 179.311 142.674C179.262 142.642 179.246 142.561 179.279 142.512C179.279 142.512 179.618 142.012 180.183 142.302C180.587 142.512 180.991 142.868 181.12 142.981L181.54 142.932C181.605 142.932 181.67 142.981 181.67 143.046C181.67 143.11 181.621 143.175 181.557 143.175L181.088 143.223C181.056 143.223 181.023 143.223 180.991 143.191C180.991 143.191 180.523 142.739 180.07 142.512C179.812 142.383 179.618 142.496 179.537 142.577C179.569 142.609 179.585 142.625 179.618 142.658Z" fill="#CB8368"/>
<path fill-rule="evenodd" clip-rule="evenodd" d="M200.249 115.127C200.685 116.274 199.845 118.73 199.474 120.426C199.344 121.008 198.294 122.64 198.634 123.577C201.154 130.508 201.17 130.766 200.556 131.655C199.829 132.721 199.005 135.355 197.551 137.471C202.253 141.559 211.478 141.559 216.196 137.471C214.741 135.355 213.917 132.705 213.19 131.655C212.609 130.815 212.156 130.169 214.257 124.045C214.661 122.85 214.192 121.719 213.788 120.588C213.239 119.053 213.223 116.016 213.514 115.24C213.433 115.079 211.849 114.933 211.769 114.755C211.672 114.578 211.526 121.541 206.889 121.557C202.382 121.622 202.059 114.739 202.026 114.739C201.364 114.707 200.346 114.966 200.249 115.127Z" fill="#29E7CD"/>
<path fill-rule="evenodd" clip-rule="evenodd" d="M198.714 123.771C199.522 126.016 200.071 127.551 200.411 128.618C201.59 132.301 211.882 132.996 213.013 128.214C213.239 127.261 213.611 126.016 214.176 124.336C212.14 125.403 209.701 125.354 207.261 125.354C204.418 125.354 201.122 125.548 198.714 123.771Z" fill="#27CCB0"/>
<path fill-rule="evenodd" clip-rule="evenodd" d="M206.841 88.3723C204.062 88.3723 201.8 90.0526 201.8 92.1206C201.8 94.1886 204.062 95.8689 206.841 95.8689C209.62 95.8689 211.882 94.1886 211.882 92.1206C211.882 90.0526 209.62 88.3723 206.841 88.3723Z" fill="#804E3C"/>
<path fill-rule="evenodd" clip-rule="evenodd" d="M206.841 88.3723C204.644 88.3723 202.77 89.4225 202.075 90.8766C202.754 92.3468 204.628 93.397 206.841 93.397C209.038 93.397 210.913 92.3468 211.607 90.8766C210.913 89.4225 209.038 88.3723 206.841 88.3723Z" fill="#935B47"/>
<path fill-rule="evenodd" clip-rule="evenodd" d="M202.431 144.096C201.591 143.756 201.914 143.837 201.914 143.837C201.914 143.837 202.463 141.817 200.799 141.624C199.135 141.414 197.358 142.286 195.984 141.866C194.595 141.446 194.385 140.864 193.48 140.864C192.575 140.864 192.091 141.252 192.091 141.252C192.091 141.252 191.46 140.59 190.426 141.252C189.392 141.914 189.667 142.431 189.667 142.431L191.929 142.674C191.929 142.674 195.29 144.467 196.13 144.823C196.114 144.806 201.687 144.192 202.431 144.096Z" fill="#E4AF94"/>
<path fill-rule="evenodd" clip-rule="evenodd" d="M200.573 102.638C200.621 102.994 200.67 103.333 200.718 103.656C199.797 102.848 198.989 103.171 198.989 104.464C198.989 105.676 200.298 107.049 201.219 107.049C201.978 110.603 205.403 112.348 207.035 112.332C208.699 112.316 211.931 110.539 212.674 107.033C213.562 106.855 214.693 105.595 214.693 104.48C214.693 103.301 214.015 102.929 213.175 103.495C213.207 103.236 213.255 102.945 213.288 102.654C213.514 96.8381 206.922 97.3389 206.922 97.3389C206.922 97.3389 200.346 96.8219 200.573 102.638Z" fill="#E4AF94"/>
<path fill-rule="evenodd" clip-rule="evenodd" d="M213.74 104.012C214.176 103.882 214.564 104.351 214.224 105.062C213.885 105.773 212.98 106.629 212.722 106.176C212.463 105.708 213.465 104.076 213.74 104.012Z" fill="#DA9074"/>
<path fill-rule="evenodd" clip-rule="evenodd" d="M199.942 104.012C199.506 103.882 199.119 104.351 199.458 105.062C199.797 105.773 200.702 106.629 200.96 106.176C201.219 105.708 200.217 104.076 199.942 104.012Z" fill="#DA9074"/>
<path fill-rule="evenodd" clip-rule="evenodd" d="M200.573 102.638C200.621 102.994 200.669 103.333 200.718 103.656C200.573 103.527 200.443 103.43 200.298 103.365C200.443 104.173 200.686 105.11 201.057 106.209C201.17 104.238 200.993 102.767 203.416 101.863C205.84 100.958 207.132 99.4393 207.132 99.4393C207.132 99.4393 207.617 100.57 210.186 101.233C212.754 101.895 212.496 103.931 212.431 105.789C212.367 107.404 212.383 107.889 212.399 107.986C212.399 107.986 212.399 107.986 212.399 107.97C212.447 107.485 212.981 101.701 212.674 100.392C212.577 99.9563 212.431 99.52 212.189 99.1C210.363 97.0804 206.938 97.3389 206.938 97.3389C206.938 97.3389 200.346 96.8219 200.573 102.638Z" fill="#DA9074"/>
<path fill-rule="evenodd" clip-rule="evenodd" d="M206.017 99.2129C204.644 100.489 202.511 101.329 201.849 101.685C201.719 101.749 201.622 101.992 201.558 102.299C201.025 104.69 201.396 110.377 202.656 111.896C203.319 112.687 203.319 112.687 203.319 112.687C203.319 112.687 201.025 111.944 200.621 110.167C200.298 108.745 200.265 105.045 200.281 103.607C200.12 103.381 199.975 103.236 199.861 103.22C199.458 103.171 199.458 103.171 199.458 103.171C198.634 96.2078 205.112 92.2657 210.638 95.2546C215.501 97.8881 213.998 103.171 213.998 103.171L213.465 103.834C213.465 105.401 213.433 108.81 213.126 110.151C212.722 111.928 210.428 112.671 210.428 112.671C210.428 112.671 210.428 112.671 211.09 111.88C212.528 110.135 212.447 103.931 212.512 101.346C212.512 101.346 208.134 100.328 207.164 98.4051C206.954 98.6959 206.696 99.0514 206.372 99.5037C204.773 101.636 202.075 102.315 203.529 101.669C204.482 101.249 205.403 100.295 206.017 99.2129Z" fill="#935B47"/>
<path fill-rule="evenodd" clip-rule="evenodd" d="M205.791 150.623C205.726 150.639 205.662 150.606 205.645 150.542C205.629 150.477 205.662 150.413 205.726 150.396C208.473 149.621 211.042 148.651 212.625 147.876C213.158 147.617 213.562 147.375 213.837 147.181C214.063 147.02 214.176 146.89 214.144 146.842L212.14 144.467C211.236 144.402 198.731 143.675 188.487 146.212C188.423 146.228 188.358 146.18 188.342 146.115C188.326 146.05 188.358 145.986 188.439 145.969C199.102 143.336 212.189 144.208 212.221 144.225C212.253 144.225 212.286 144.241 212.302 144.273L214.338 146.68C214.354 146.697 214.37 146.729 214.386 146.745C214.467 146.923 214.321 147.149 213.998 147.375C213.724 147.585 213.287 147.827 212.754 148.086C211.155 148.861 208.554 149.831 205.791 150.623Z" fill="#858584"/>
<path fill-rule="evenodd" clip-rule="evenodd" d="M211.979 144.273C212.819 143.934 212.496 144.015 212.496 144.015C212.496 144.015 211.946 142.011 213.611 141.801C215.275 141.591 217.052 142.464 218.425 142.044C219.815 141.624 220.025 141.042 220.929 141.042C221.834 141.042 222.319 141.43 222.319 141.43C222.319 141.43 222.949 140.767 223.983 141.43C225.017 142.092 224.742 142.609 224.742 142.609L222.48 142.852C222.48 142.852 219.572 144.516 218.732 144.871C216.971 145.598 216.099 145.388 213.885 146.503L211.979 144.273Z" fill="#E4AF94"/>
<path fill-rule="evenodd" clip-rule="evenodd" d="M215.953 145.921C215.889 145.938 215.824 145.905 215.808 145.841C215.792 145.776 215.824 145.711 215.889 145.695C222.19 143.966 227.053 146.325 227.069 146.341C227.134 146.374 227.15 146.438 227.134 146.503C227.101 146.568 227.037 146.584 226.972 146.568C226.956 146.551 222.158 144.225 215.953 145.921Z" fill="#858584"/>
<path fill-rule="evenodd" clip-rule="evenodd" d="M209.426 96.5954C206.857 97.0801 204.143 96.7732 202.123 95.8684C201.574 96.3046 201.089 96.8378 200.686 97.4356C201.526 97.5648 202.479 97.6941 203.594 97.8233C203.82 97.8556 204.062 97.8718 204.305 97.9041C206.615 98.1303 208.57 98.0495 210.202 97.8072C211.22 97.6456 212.124 97.4356 212.884 97.1932C212.544 96.7409 212.124 96.3208 211.607 95.933C210.993 96.2077 210.266 96.45 209.426 96.5954Z" fill="#A86E58"/>
<path fill-rule="evenodd" clip-rule="evenodd" d="M29.8086 186.343C86.2752 186.343 100.719 186.343 157.186 186.343L186.994 214.682C110.655 214.682 76.339 214.682 0 214.682L29.8086 186.343Z" fill="#7BCBD9"/>
<path d="M186.994 214.682H0V216.378H186.994V214.682Z" fill="#5C989E"/>
<path d="M84.7726 204.18C109.453 204.18 129.461 201.467 129.461 198.121C129.461 194.775 109.453 192.063 84.7726 192.063C60.0918 192.063 40.084 194.775 40.084 198.121C40.084 201.467 60.0918 204.18 84.7726 204.18Z" fill="#66BDCC"/>
<path fill-rule="evenodd" clip-rule="evenodd" d="M101.187 82.7483C113.709 87.2559 130.059 87.369 141.595 87.7245C151.709 88.0476 165.7 90.1802 168.786 89.5501C171.872 88.92 182.697 89.3886 183.892 89.6309C185.072 89.8733 183.731 91.0527 182.115 91.0204C180.499 90.9881 175.749 91.295 173.584 91.9736C171.403 92.6522 174.134 93.3146 176.185 93.5892C178.237 93.8639 178.512 94.6233 178.641 95.0595C178.754 95.4957 176.185 94.8979 174.214 94.9464C172.243 94.9787 168.479 95.5765 166.702 94.6717C164.924 93.767 162.711 93.3307 160.966 93.25C159.221 93.1692 146.264 96.1581 135.908 94.8171C125.551 93.4761 107.181 93.0238 99.8303 95.5926C98.2308 89.1785 96.809 85.1394 101.187 82.7483Z" fill="#FFD6C7"/>
<path fill-rule="evenodd" clip-rule="evenodd" d="M157.137 93.7345L156.798 93.7829C156.976 93.7345 157.089 93.7183 157.137 93.7345ZM154.261 94.1545C149.172 94.8654 142.079 95.6086 135.908 94.8008C125.551 93.4598 107.182 93.0074 99.8304 95.5763C99.7334 95.1885 99.6365 94.8008 99.5396 94.4292C100.347 93.6052 101.058 92.8459 101.058 92.8459C101.058 92.8459 115.599 91.2948 125.697 92.7005C134.244 93.896 148.057 94.6231 154.261 94.1545Z" fill="#FFC1AB"/>
<path fill-rule="evenodd" clip-rule="evenodd" d="M118.216 60.5979C118.297 61.3088 118.669 63.3122 118.588 64.6855C118.507 66.0749 117.602 66.7858 117.683 67.8037C117.764 68.8377 119.218 71.0188 119.121 71.4873C119.024 71.9558 117.522 72.0366 117.408 72.4405C117.295 72.8283 116.326 74.4116 116.003 74.8478C115.68 75.2841 115.324 77.8529 113.709 77.8853C112.093 77.9176 106.422 74.2177 103.853 76.4635C101.284 78.7092 100.945 83.847 101.042 85.9634C101.414 94.2517 101.301 98.4524 95.2096 100.844C88.1492 103.622 85.3865 99.3087 60.0855 108.631C64.2862 126.661 59.6816 135.887 60.3279 145.435C60.958 154.612 59.3746 187.652 60.1663 189.704C60.958 191.756 67.1297 195.31 70.2802 196.263C73.4469 197.217 77.0821 196.425 78.0353 197.927C78.9885 199.43 76.452 199.979 73.3661 199.43C70.2802 198.881 61.4265 198.638 58.7445 198.881C56.0626 199.123 52.1043 200.545 51.2318 196.91C50.3594 193.274 53.5745 192.337 53.2029 188.751C51.3288 170.849 45.9002 168.539 47.0311 149.749C47.532 141.542 40.4716 113.187 34.316 102.12C28.1443 91.0527 6.17158 67.1736 7.12481 59.7578C8.07804 52.3258 37.9512 29.8684 42.0711 22.9211C46.1749 15.9577 47.4512 5.68225 46.8211 2.67716C46.191 -0.327934 50.5371 0.786858 50.1332 3.63039C49.7454 6.47392 52.3466 9.94754 51.248 13.9866C50.1332 18.0257 52.2012 19.916 52.3628 23.3897C52.5243 26.8633 48.5337 25.2315 46.3526 27.7358C37.0626 38.4475 40.8432 47.0588 22.8127 59.2569C34.4938 65.8972 36.5618 76.0111 40.4878 76.5927C56.2726 77.8529 51.2641 92.4422 69.2785 83.8793C73.043 82.0859 79.1662 69.9686 84.2232 69.0962C89.2802 68.2237 92.9154 73.8462 94.9834 73.1999C97.0352 72.5698 99.6526 68.773 99.0871 65.8487C98.5378 62.9244 100.347 56.4457 107.149 55.0239C113.935 53.586 116.859 56.5103 118.216 60.5979Z" fill="#FFD6C7"/>
<path fill-rule="evenodd" clip-rule="evenodd" d="M112.351 77.546C110.106 76.7382 106.325 74.8479 104.176 76.2212C106.277 74.4924 105.291 70.3079 105.663 70.1302C106.034 69.9363 106.228 72.1659 107.828 74.2339C109.411 76.2696 112.254 77.5137 112.351 77.546Z" fill="#FFC1AB"/>
<path fill-rule="evenodd" clip-rule="evenodd" d="M92.8508 72.5212C93.6748 73.0544 94.3857 73.3613 94.9673 73.1836C96.5506 72.6989 98.4409 70.3562 98.9903 67.9651L102.092 68.4498C102.092 68.4498 100.089 73.7329 96.5991 74.0399C94.725 74.2176 93.5456 73.3452 92.8508 72.5212Z" fill="#FFC1AB"/>
<path fill-rule="evenodd" clip-rule="evenodd" d="M71.1205 199.171C67.1945 198.816 60.9258 198.703 58.7447 198.897C56.0628 199.139 52.1044 200.561 51.232 196.925C51.1835 196.699 51.1351 196.473 51.1189 196.263C51.1351 196.295 51.8298 197.992 56.0789 197.895C60.3765 197.798 67.1945 197.879 71.1205 199.171Z" fill="#FFC1AB"/>
<path fill-rule="evenodd" clip-rule="evenodd" d="M36.2227 29.3997C37.5152 28.1557 38.6623 27.0086 39.6155 25.9907C39.6155 25.9907 42.3782 26.7339 45.6418 28.5757C43.8646 30.7569 42.6044 32.8572 41.5543 34.9091C40.2456 35.0222 38.9046 34.7313 37.7737 32.8895C36.9982 31.6616 36.5296 30.4499 36.2227 29.3997Z" fill="#FFC1AB"/>
<path fill-rule="evenodd" clip-rule="evenodd" d="M101.042 84.4929C101.01 85.0746 101.026 85.5754 101.042 85.9793C101.414 94.2676 101.301 98.4682 95.2097 100.859C89.7326 103.024 86.8245 100.892 73.9155 104.22C66.112 96.3517 65.0457 85.5916 65.0457 85.5916C66.3059 85.1715 67.6953 84.606 69.2625 83.8467C70.8458 83.0873 72.8654 80.5023 75.0303 77.6911C76.2905 78.1596 77.9223 78.4827 79.9903 78.4827C87.4384 78.4827 91.4129 71.5032 91.4129 71.5032C92.2692 72.101 93.0286 72.6664 93.691 72.9734C92.9963 74.5729 92.14 76.7217 91.8815 78.2404C91.4129 80.9708 90.0881 86.4479 94.2403 88.0473C98.3763 89.6791 101.042 84.4929 101.042 84.4929Z" fill="#4CA9EE"/>
<path fill-rule="evenodd" clip-rule="evenodd" d="M74.4001 78.5153L74.6748 78.1599C77.1144 78.9515 79.8287 79.3554 82.446 78.7092C88.1816 77.3359 90.8312 73.523 91.7683 71.7781L92.1237 72.0204C91.122 73.8461 88.3754 77.7075 82.543 79.1131C79.7802 79.8078 76.9205 79.3554 74.4001 78.5153Z" fill="#3F86B2"/>
<path fill-rule="evenodd" clip-rule="evenodd" d="M101.026 85.6239C101.026 85.7531 101.026 85.8662 101.042 85.9632L101.058 86.4317C99.0548 88.936 96.4051 90.7132 93.3839 88.9683C87.1313 85.3815 92.1398 74.0397 92.8507 72.5049C93.0123 72.6018 93.1577 72.6988 93.3031 72.7795C92.5276 74.4437 87.8584 85.1877 93.6424 88.4997C96.5505 90.1962 99.1194 88.2089 101.026 85.6239Z" fill="#3F86B2"/>
<path fill-rule="evenodd" clip-rule="evenodd" d="M75.9028 103.735C75.7089 103.784 75.4989 103.832 75.2888 103.881C68.0185 96.3681 66.7098 87.4821 66.4998 85.0748C66.6613 85.0102 66.839 84.9455 67.0168 84.8647C67.1783 86.9651 68.3577 96.1096 75.9028 103.735Z" fill="#3F86B2"/>
<path fill-rule="evenodd" clip-rule="evenodd" d="M62.1535 107.904C61.475 108.146 60.7803 108.389 60.0694 108.663C64.27 126.694 59.6655 135.919 60.3117 145.468C60.7479 151.704 60.1502 168.991 59.9724 180.058C59.9724 180.058 57.1289 181.432 52.0719 181.335C49.7616 169.735 46.0618 165.598 47.015 149.765C47.5158 141.558 40.4555 113.203 34.2999 102.136C28.1443 91.0528 6.17158 67.1736 7.12481 59.7578C7.90032 53.7153 27.8535 37.7043 37.4504 28.2043C37.4504 28.2043 40.6655 28.6567 43.2021 31.9203L43.2182 31.9526C37.6604 40.8225 38.4036 48.7068 22.7965 59.2731C34.4776 65.9134 36.5456 76.0273 40.4716 76.609C51.7811 77.5137 52.4112 85.2526 58.486 86.4159C58.486 87.1753 58.4053 99.4056 61.7819 106.789C61.9112 107.064 62.0405 107.452 62.1535 107.904Z" fill="#4CA9EE"/>
<path fill-rule="evenodd" clip-rule="evenodd" d="M25.9632 90.0511C17.3841 78.6447 6.44624 65.041 7.12481 59.7578C7.90032 53.7153 27.8535 37.7043 37.4504 28.2043C37.4504 28.2043 40.6655 28.6567 43.2021 31.9203L43.2182 31.9526C37.6604 40.8225 38.4036 48.7068 22.7965 59.2731C26.6741 61.4866 29.5014 64.0716 31.6826 66.5597C22.3603 75.4457 25.9632 90.0511 25.9632 90.0511Z" fill="#3F86B2"/>
<path fill-rule="evenodd" clip-rule="evenodd" d="M24.1862 87.6918L22.4413 85.3976C22.2797 82.0694 22.409 77.6102 23.5722 73.2803C24.5093 69.7743 26.1249 66.333 28.8069 63.5864C29.2108 63.958 29.5986 64.3296 29.9702 64.6851C27.4982 67.2216 25.9957 70.4206 25.1232 73.6842C23.653 79.0966 23.863 84.6221 24.1862 87.6918Z" fill="#4CA9EE"/>
<path fill-rule="evenodd" clip-rule="evenodd" d="M61.588 117.807C62.7513 130.103 59.7785 137.664 60.3278 145.451C60.7641 151.687 60.1663 168.975 59.9886 180.042C59.9886 180.042 57.145 181.415 52.0881 181.318C49.7777 169.718 46.0779 165.582 47.0311 149.749C47.2088 146.76 46.3849 141.105 44.9792 134.578C59.6331 129.149 61.588 117.888 61.588 117.807Z" fill="#3F86B2"/>
<path fill-rule="evenodd" clip-rule="evenodd" d="M61.8466 122.283C61.8789 123.462 61.8628 124.593 61.8305 125.676C59.3424 129.763 54.6893 135.24 46.078 140.168C45.981 139.619 45.8841 139.069 45.771 138.504C55.8526 132.607 60.1179 126.08 61.8466 122.283Z" fill="#4CA9EE"/>
<path fill-rule="evenodd" clip-rule="evenodd" d="M89.5549 70.3238C79.134 57.3502 76.6297 47.8179 70.0864 44.0211C67.0813 42.2762 51.8297 34.0526 47.4028 32.1623C42.9759 30.272 39.5831 24.6496 36.578 25.6028C33.5729 26.556 32.4581 28.721 32.7005 29.6742C32.9428 30.6275 31.2625 31.613 32.7812 33.0832C34.2999 34.5535 34.0091 33.4871 35.3663 34.5535C36.5295 37.6878 40.504 35.1997 44.947 36.2822C48.2268 37.0739 54.14 43.4072 58.3245 46.4769C62.509 49.5628 64.6417 49.2396 65.8373 51.1461C67.0167 53.0364 79.0371 68.3204 76.6944 75.5907C77.6961 76.7217 88.1331 74.379 89.5549 70.3238Z" fill="#FFD6C7"/>
<path fill-rule="evenodd" clip-rule="evenodd" d="M32.167 31.4192C32.0539 31.9039 32.1185 32.4532 32.7648 33.0833C34.2835 34.5535 33.9927 33.4872 35.3498 34.5535C36.5131 37.6879 40.4876 35.1998 44.9306 36.2823C46.5139 36.67 48.695 38.3341 51.0054 40.2891C48.9535 37.2517 45.5445 35.4098 43.2018 35.1675C40.843 34.9251 38.0641 34.5535 35.8991 33.8427C33.718 33.1318 32.167 31.4192 32.167 31.4192Z" fill="#FFC1AB"/>
<path fill-rule="evenodd" clip-rule="evenodd" d="M102.512 67.7549C100.654 66.9794 100.735 64.3782 101.688 63.1342C102.641 61.9063 104.919 62.6818 105.146 63.8935C105.356 65.0891 105.113 67.771 104.402 70.1137C103.692 72.4402 103.239 73.4743 103.239 73.4743C105.453 69.9522 105.808 66.5755 106.131 63.9097C106.163 63.635 107.795 64.1197 108.959 62.5364C110.122 60.953 111.931 59.2566 114.71 59.8867C117.505 60.5168 118.216 60.6299 118.216 60.6299C118.555 54.5713 110.849 49.0458 104.677 50.8876C98.3922 52.7617 94.1754 59.4343 98.1176 70.1622C98.1176 70.146 101.042 70.6469 102.512 67.7549Z" fill="#A15332"/>
<path fill-rule="evenodd" clip-rule="evenodd" d="M102.512 67.7552C101.737 67.4321 101.301 66.802 101.123 66.075C97.0999 61.3573 100.8 53.3114 100.8 53.3114L101.107 52.6328C97.0029 55.6702 94.9834 61.6319 98.1339 70.1464C98.1177 70.1464 101.042 70.6472 102.512 67.7552Z" fill="#783214"/>
<path fill-rule="evenodd" clip-rule="evenodd" d="M101.85 51.033L101.527 50.4514C101.527 50.4514 99.8303 45.5883 96.5829 44.3119C93.3354 43.0356 85.6773 47.107 84.7241 47.8017C84.611 48.965 88.1815 54.7651 88.1815 54.7651C88.1815 54.7651 92.366 49.7243 94.8864 49.4335C97.633 49.1104 99.9757 51.6308 99.9757 51.6308L101.85 51.033Z" fill="#A15332"/>
<path fill-rule="evenodd" clip-rule="evenodd" d="M84.7241 47.8181C84.611 48.9814 88.1815 54.7815 88.1815 54.7815C88.1815 54.7815 92.366 49.7407 94.8864 49.4499C97.633 49.1268 99.9757 51.6472 99.9757 51.6472L100.477 51.4856C100.331 51.3079 100.186 51.114 100.008 50.9201C93.8524 44.086 88.4077 51.9057 88.4077 51.9057C87.0506 50.2093 86.7275 49.0783 84.7241 47.8181Z" fill="#783214"/>
<path fill-rule="evenodd" clip-rule="evenodd" d="M103.821 51.1463C100.864 49.2237 97.7624 51.6149 99.168 54.4746L103.821 51.1463Z" fill="#FFD261"/>
<path fill-rule="evenodd" clip-rule="evenodd" d="M63.8822 105.464C64.2053 105.82 64.787 105.545 65.3363 105.222C65.8856 104.899 67.4689 104.786 67.4689 104.786C66.0795 104.366 63.3814 104.915 63.8822 105.464Z" fill="#EBB7A4"/>
<path fill-rule="evenodd" clip-rule="evenodd" d="M75.0302 77.7074C75.5795 76.9965 76.1288 76.2856 76.6782 75.5747C78.3423 70.437 72.8168 61.3086 69.02 55.7185C82.4783 70.3401 79.8771 73.5713 79.2147 75.7525C78.8916 76.8511 78.31 77.772 77.4698 78.3052C76.5327 78.1759 75.7249 77.9659 75.0302 77.7074Z" fill="#FFC1AB"/>
<path d="M184.445 77.5122C195.482 77.5122 204.429 68.5652 204.429 57.5286C204.429 46.4919 195.482 37.5449 184.445 37.5449C173.409 37.5449 164.462 46.4919 164.462 57.5286C164.462 68.5652 173.409 77.5122 184.445 77.5122Z" fill="white"/>
<path d="M184.325 77.3553C184.196 77.3553 184.094 77.2537 184.094 77.1337V76.007C184.094 75.887 184.196 75.7854 184.316 75.7854C184.436 75.7854 184.538 75.887 184.538 76.007V77.1337C184.556 77.2537 184.455 77.3553 184.325 77.3553Z" fill="#113542"/>
<path d="M184.326 38.9578C184.197 38.9578 184.095 38.8562 184.095 38.7361V37.6003C184.095 37.4802 184.197 37.3787 184.317 37.3787C184.437 37.3787 184.538 37.4802 184.538 37.6003V38.7269C184.557 38.8562 184.455 38.9578 184.326 38.9578Z" fill="#113542"/>
<path d="M204.438 57.4915C204.438 57.6208 204.336 57.7224 204.216 57.7224H203.09C202.97 57.7224 202.868 57.6208 202.868 57.5008C202.868 57.3807 202.97 57.2791 203.09 57.2791H204.216C204.336 57.2699 204.438 57.3715 204.438 57.4915Z" fill="#113542"/>
<path d="M166.041 57.5562C166.041 57.6855 165.939 57.7871 165.819 57.7871H164.692C164.572 57.7871 164.471 57.6855 164.471 57.5655C164.471 57.4454 164.572 57.3438 164.692 57.3438H165.819C165.939 57.3346 166.041 57.4362 166.041 57.5562Z" fill="#113542"/>
<path d="M199.119 71.2513C199.027 71.3436 198.888 71.3436 198.796 71.2513L198.002 70.4478C197.918 70.3555 197.918 70.217 198.002 70.1339C198.094 70.0508 198.232 70.0508 198.316 70.1339L199.11 70.9373C199.211 71.0204 199.211 71.1681 199.119 71.2513Z" fill="#113542"/>
<path d="M172.025 44.0552C171.932 44.1476 171.794 44.1476 171.701 44.0552L170.907 43.2518C170.824 43.1595 170.824 43.0209 170.907 42.9378C171 42.8547 171.138 42.8547 171.221 42.9378L172.015 43.7412C172.108 43.8243 172.108 43.9629 172.025 44.0552Z" fill="#113542"/>
<path d="M198.528 43.298C198.62 43.3904 198.62 43.5289 198.537 43.6213L197.752 44.4247C197.669 44.517 197.522 44.517 197.438 44.4247C197.346 44.3415 197.346 44.1938 197.438 44.1107L198.223 43.3073C198.297 43.2149 198.436 43.2149 198.528 43.298Z" fill="#113542"/>
<path d="M171.692 70.7524C171.785 70.8447 171.785 70.9833 171.702 71.0756L170.907 71.879C170.824 71.9714 170.677 71.9714 170.593 71.879C170.501 71.7959 170.501 71.6481 170.593 71.565L171.388 70.7616C171.461 70.6693 171.6 70.6693 171.692 70.7524Z" fill="#113542"/>
<path d="M184.445 77.9C178.988 77.9 173.844 75.776 169.984 71.9067C166.124 68.0467 164 62.9123 164 57.4454C164 51.9785 166.124 46.8533 169.993 42.9932C173.853 39.124 178.988 37 184.445 37C189.903 37 195.047 39.124 198.907 42.9932C202.767 46.8533 204.9 51.9877 204.9 57.4546C204.9 62.9215 202.767 68.0467 198.907 71.9067C195.047 75.7668 189.912 77.9 184.445 77.9ZM184.445 37.9235C173.678 37.9235 164.923 46.6778 164.923 57.4454C164.923 68.2129 173.678 76.9673 184.445 76.9673C195.213 76.9673 203.967 68.2129 203.967 57.4454C203.977 46.6778 195.213 37.9235 184.445 37.9235Z" fill="#113542"/>
<g opacity="0.13">
<g opacity="0.13">
<path opacity="0.13" d="M184.445 77.3922C179.117 77.3922 174.112 75.3145 170.344 71.556C166.576 67.7975 164.508 62.7831 164.508 57.4548C164.508 52.1264 166.576 47.112 170.344 43.3443C174.112 39.5766 179.117 37.5081 184.445 37.5081C189.774 37.5081 194.779 39.5858 198.547 43.3443C202.314 47.1028 204.383 52.1172 204.383 57.4455C204.383 62.7739 202.305 67.779 198.547 71.5468C194.788 75.3145 189.774 77.3922 184.445 77.3922ZM184.445 38.4038C173.946 38.4038 165.404 46.9458 165.404 57.4455C165.404 67.9453 173.946 76.4873 184.445 76.4873C194.945 76.4873 203.487 67.9453 203.487 57.4455C203.487 46.9458 194.945 38.4038 184.445 38.4038Z" fill="#113542"/>
<path opacity="0.13" d="M184.445 77.4384C179.108 77.4384 174.084 75.3607 170.316 71.5837C166.539 67.8068 164.462 62.7832 164.462 57.4456C164.462 52.108 166.539 47.0844 170.316 43.3166C174.093 39.5397 179.108 37.4619 184.445 37.4619C189.783 37.4619 194.807 39.5397 198.574 43.3166C202.351 47.0936 204.429 52.108 204.429 57.4456C204.429 62.7832 202.351 67.8068 198.574 71.5745C194.807 75.3607 189.783 77.4384 184.445 77.4384ZM184.445 37.5543C179.135 37.5543 174.14 39.6228 170.381 43.3813C166.623 47.1398 164.554 52.1357 164.554 57.4456C164.554 62.7647 166.623 67.7606 170.381 71.5191C174.14 75.2776 179.135 77.3461 184.445 77.3461C189.755 77.3461 194.751 75.2776 198.51 71.5191C202.268 67.7606 204.337 62.7647 204.337 57.4548C204.337 52.1449 202.268 47.149 198.51 43.3905C194.76 39.6228 189.764 37.5543 184.445 37.5543ZM184.445 76.5335C173.918 76.5335 165.357 67.973 165.357 57.4456C165.357 46.9181 173.918 38.3577 184.445 38.3577C194.973 38.3577 203.533 46.9181 203.533 57.4456C203.533 67.973 194.973 76.5335 184.445 76.5335ZM184.445 38.45C173.973 38.45 165.45 46.9735 165.45 57.4456C165.45 67.9176 173.973 76.4411 184.445 76.4411C194.917 76.4411 203.441 67.9176 203.441 57.4456C203.441 46.9735 194.917 38.45 184.445 38.45Z" fill="black"/>
</g>
</g>
<path d="M184.316 57.6024C184.122 57.6024 183.965 57.4546 183.965 57.2607V49.4667C183.965 49.282 184.122 49.125 184.307 49.125H184.316C184.51 49.125 184.658 49.2728 184.658 49.4667V57.2514C184.667 57.4454 184.51 57.6024 184.316 57.6024Z" fill="#113542"/>
<path d="M184.316 57.9439C184.261 57.9439 184.224 57.7962 184.224 57.6023V49.8175C184.224 49.6328 184.261 49.4758 184.316 49.4758C184.362 49.4758 184.408 49.6236 184.408 49.8175V57.6023C184.408 57.7962 184.371 57.9439 184.316 57.9439Z" fill="#29E7CD"/>
<path d="M184.242 57.8054C184.371 57.6485 184.658 57.6762 184.879 57.8608L194.206 65.6087C194.428 65.7934 194.511 66.0704 194.382 66.2182V66.2274C194.252 66.3751 193.975 66.3474 193.745 66.1627L184.418 58.4149C184.196 58.2395 184.113 57.9624 184.242 57.8054Z" fill="#113542"/>
<path d="M184.741 58.1841L184.833 58.1748C184.861 58.1379 184.75 58.0732 184.953 58.2487L193.726 65.5717C193.929 65.738 194.068 65.9134 194.04 65.9504C194.012 65.9873 193.818 65.8857 193.615 65.7103L184.852 58.498C184.639 58.3226 184.713 58.221 184.741 58.1841Z" fill="#29E7CD"/>
<path d="M185.297 57.7574C185.385 57.2137 185.016 56.7014 184.472 56.6132C183.929 56.525 183.416 56.8942 183.328 57.4379C183.24 57.9816 183.609 58.4939 184.153 58.5821C184.697 58.6704 185.209 58.3011 185.297 57.7574Z" fill="#113542"/>
<path d="M184.316 58.2395C184.668 58.2395 184.953 57.9542 184.953 57.6023C184.953 57.2504 184.668 56.9651 184.316 56.9651C183.964 56.9651 183.679 57.2504 183.679 57.6023C183.679 57.9542 183.964 58.2395 184.316 58.2395Z" fill="#29E7CD"/>
</g>
<defs>
<linearGradient id="paint0_linear" x1="159.315" y1="121.635" x2="162.894" y2="125.214" gradientUnits="userSpaceOnUse">
<stop stop-color="#ABABAB"/>
<stop offset="0.0388801" stop-color="#B0B0B0"/>
<stop offset="0.4374" stop-color="#DBDBDB"/>
<stop offset="0.7486" stop-color="#F5F5F5"/>
<stop offset="0.9324" stop-color="white"/>
</linearGradient>
<clipPath id="clip0">
<rect width="323.613" height="215.494" fill="white" transform="translate(0 0.883789)"/>
</clipPath>
</defs>
</svg>
