<svg width="230" height="232" viewBox="0 0 230 232" fill="none" xmlns="http://www.w3.org/2000/svg">
<g clip-path="url(#clip0)">
<path d="M0.254828 224.515C-0.356493 223.191 0.152941 222.07 0.968036 221.102C7.3869 213.817 13.7548 206.481 20.2756 199.247C23.0265 196.14 26.8473 195.274 30.8209 194.917C31.3812 194.866 31.9416 194.866 32.8586 194.815C31.6869 194.102 30.8209 193.542 30.0058 192.981C26.185 190.383 24.1473 186.766 24.0963 182.232C24.0454 152.125 24.0454 122.068 24.0963 91.9606C24.0963 84.6248 29.7001 79.0719 37.036 79.021C48.9058 78.9701 60.8265 78.9701 72.6963 78.9701C73.2058 78.9701 73.7152 78.9191 74.1228 79.2757C73.4605 80.804 72.2888 81.0587 70.8114 80.6512C69.6907 80.1418 68.468 80.6003 67.3473 80.6003C57.2605 80.5493 47.1737 80.7021 37.0869 80.4984C31.3303 80.3965 26.8982 85.0833 25.9812 89.6172C25.5228 91.9606 25.268 94.2531 25.268 96.5965C25.268 123.647 25.268 150.698 25.268 177.749C25.268 180.042 25.6246 182.283 25.9303 184.576C26.6945 189.925 32.7567 193.796 36.985 194.051C37.6473 194.102 38.3605 194.051 39.0228 194.051C90.1699 194.051 141.317 194.051 192.464 194.051C195.979 194.051 199.189 193.287 201.991 191.096C204.742 189.008 205.913 186.155 206.474 182.844C206.932 179.94 206.83 177.036 206.83 174.132C206.83 147.947 206.881 121.763 206.779 95.5776C206.779 92.3172 206.728 89.0569 204.894 86.1021C202.602 82.4342 199.545 80.4474 195.113 80.4984C184.11 80.5493 173.055 80.4984 162.051 80.4984C161.338 80.4984 160.523 80.2946 159.962 80.9569C157.925 81.5172 156.294 80.9059 155.225 79.2757C155.836 78.7663 156.498 78.9701 157.16 78.9701C169.642 78.9701 182.174 78.9191 194.655 78.9701C202.449 78.9701 208.002 84.3191 208.002 92.0625C208.053 121.966 208.053 151.819 208.002 181.723C208.002 187.174 205.506 191.147 200.768 193.796C200.411 194 199.953 194.102 199.749 194.815C200.921 194.917 202.042 195.019 203.162 195.172C206.779 195.681 209.836 197.108 212.179 200.113C217.274 206.532 222.521 212.9 227.666 219.319C228.787 220.695 229.959 222.172 229.144 224.159C228.991 225.585 228.074 226.146 226.851 226.451C225.017 226.91 223.183 226.859 221.298 226.859C174.227 226.859 127.155 226.859 80.0322 226.859C55.7322 226.859 31.3812 226.859 7.08124 226.859C5.40011 226.859 3.76992 226.859 2.08879 226.4C1.22275 226.196 0.458602 225.636 0.254828 224.515Z" fill="#F4F4F4"/>
<path d="M71.2696 80.3963C72.2376 80.0397 73.2055 79.6321 74.1734 79.2755C78.7074 77.8491 83.2414 76.4227 87.7753 75.0472C88.998 74.6906 89.7621 73.5699 90.9847 73.3661C92.564 74.5378 93.0734 76.168 93.1244 78.0019C91.0866 80.5491 90.9847 83.5038 90.9847 86.5604C91.0357 97.5642 90.9847 108.517 90.9847 119.521C90.9847 121.355 90.9847 123.24 91.2395 125.074C91.3923 126.042 90.9338 126.806 90.2715 127.366C88.03 129.251 86.8074 131.747 85.7885 134.396C84.8715 136.893 81.2036 138.574 78.6564 137.911C78.147 137.809 77.7395 137.555 77.4848 137.096C77.3319 136.74 77.1791 136.434 77.1791 136.026C77.23 130.321 76.9244 124.666 76.8734 119.011C76.9244 117.993 76.0583 117.891 75.3961 117.585C69.3847 114.528 63.2206 111.828 57.2093 108.874C55.9866 108.262 54.764 107.651 54.5093 106.072C54.5602 99.2963 56.547 93.1831 60.6734 87.7831C62.9149 85.0831 65.4621 82.6887 68.6206 81.0076C69.4866 80.4982 70.3017 80.0906 71.2696 80.3963Z" fill="#4CA9EE"/>
<path d="M99.9511 59.9173C97.6586 56.4531 97.1492 52.3777 96.1813 48.506C94.8058 46.8758 94.9586 44.7871 94.7548 42.8513C94.5511 40.7116 94.1435 38.572 94.2454 36.4324C94.2963 35.4135 93.9907 34.4965 93.736 33.5286C93.4303 32.4588 93.1247 31.389 93.6341 30.2682C93.0737 26.6003 92.1567 22.9833 92.7171 19.2645C93.2775 15.4947 94.9077 12.3362 98.0152 10.0437C99.085 9.27956 99.3907 8.71918 97.9643 8.05691C96.5379 7.44559 96.8435 6.83427 97.9133 6.01918C107.185 -1.16384 122.825 -0.960067 131.791 6.57956C133.472 7.95503 135.051 9.48333 134.796 11.9796C134.745 12.438 135.051 12.6418 135.408 12.7947C138.311 14.1192 138.821 16.8192 139.177 19.5701C139.585 23.1871 138.21 26.4984 137.293 29.9116C136.325 35.3116 135.917 40.8135 135.204 46.2135C135.102 47.0286 134.898 47.7928 134.338 48.4041C133.93 50.238 133.523 52.072 133.064 53.906C132.555 55.9946 131.74 57.9305 130.619 59.7645C130.364 61.2928 129.244 62.2097 128.072 63.0248C124.302 65.7758 120.481 68.3739 115.54 68.4758C110.293 68.6286 106.268 65.8777 102.294 62.9739C101.327 62.2607 100.359 61.2928 99.9511 59.9173Z" fill="#825133"/>
<path d="M155.225 79.3267C156.702 79.8362 158.179 80.3965 159.708 80.906C160.472 80.6003 161.134 80.7531 161.847 81.1097C165.21 82.638 168.062 84.8286 170.253 87.8343C174.023 93.0305 175.704 98.889 176.112 105.257C176.162 107.549 174.787 108.67 172.953 109.74C167.4 112.949 161.847 116.108 156.345 119.368C155.581 119.827 154.868 120.234 154.002 120.387C153.289 120.438 152.728 120.591 152.678 121.508C152.627 122.119 152.525 122.68 151.964 123.087C148.959 123.902 142.998 120.285 141.725 117.636C141.572 117.28 141.47 116.923 141.572 116.566C141.521 105.461 141.521 94.3041 141.572 83.1984C141.572 80.6003 140.298 79.072 138.413 77.6965C138.006 75.7607 138.464 74.589 140.044 73.5192C144.832 76.0663 150.13 77.4418 155.225 79.3267Z" fill="#4CA9EE"/>
<path d="M0.254808 224.515C0.866128 225.33 1.73217 225.636 2.70009 225.687C4.07556 225.84 5.40009 225.942 6.77556 225.942C78.6567 225.942 150.487 225.942 222.368 225.942C223.794 225.942 225.221 225.993 226.596 225.687C227.666 225.483 228.634 225.076 229.245 224.159C229.755 225.789 228.685 226.961 228.023 228.234C227.055 230.578 225.119 231.291 222.776 231.291C221.706 231.291 220.687 231.291 219.617 231.291C149.825 231.291 79.9812 231.291 10.1888 231.291C9.5265 231.291 8.8133 231.24 8.15103 231.291C6.01141 231.495 4.12651 230.883 2.5982 229.355C1.32462 228.03 -0.356513 226.859 0.254808 224.515Z" fill="#4E656F"/>
<path d="M99.9509 59.9172C102.498 62.2606 105.249 64.3493 108.306 65.9795C113.96 69.0361 119.157 67.9662 124.302 64.8587C126.645 63.4323 128.683 61.6493 130.67 59.8153C130.619 64.8078 132.708 68.5776 136.936 71.1757C136.172 73.621 135.357 76.0662 133.064 77.6455C131.892 77.9002 130.772 77.9512 129.6 77.4927C128.887 76.6776 128.072 76.3719 127.002 76.4738C125.983 76.5757 124.913 76.4229 123.843 76.5247C122.06 76.6776 120.634 76.2191 119.36 74.9455C117.985 73.57 115.998 73.57 114.674 74.8945C113.247 76.321 111.668 76.7285 109.834 76.5757C108.917 76.5247 107.949 76.6266 107.083 76.5247C105.962 76.4229 105.045 76.7795 104.281 77.5436C102.243 78.1549 100.155 77.9002 98.066 77.7474C95.5698 76.2191 94.8566 73.6719 94.0415 71.1247C98.3717 68.6285 99.6962 64.553 99.9509 59.9172Z" fill="#FEB17A"/>
<path d="M93.6848 30.2679C94.7546 32.9679 95.1621 35.8208 95.264 38.7245C95.4168 41.9849 95.8753 45.1944 96.181 48.4547C94.8055 48.1491 94.2961 46.9774 94.0923 45.8566C93.43 42.0359 92.8187 38.2151 91.7999 34.4962C91.3414 32.8151 92.0546 31.2868 93.6848 30.2679Z" fill="#F1A76C"/>
<path d="M134.389 48.4549C134.796 43.9209 135.051 39.336 135.662 34.802C135.866 33.1209 136.783 31.5416 137.394 29.9624C139.483 32.7133 138.617 35.6171 137.853 38.5718C137.242 41.0171 136.885 43.5133 136.375 46.0096C136.172 47.1813 135.611 48.0473 134.389 48.4549Z" fill="#F1A76D"/>
<path d="M94.0415 71.1248C95.1113 71.4304 95.1622 72.5002 95.5698 73.2644C96.283 74.487 96.9452 75.7606 97.6075 76.9832C96.3849 78.0531 94.5 78.2059 92.8188 77.4417C91.9018 76.2191 91.3415 74.8436 90.9849 73.3663C91.8 72.2965 93.1245 71.9908 94.0415 71.1248Z" fill="#29E7CD"/>
<path d="M133.37 77.0342C134.338 75.5059 135.204 73.9776 135.815 72.2965C136.019 71.7361 136.223 71.2776 136.936 71.2267C137.853 72.0927 139.228 72.3474 139.993 73.4682C139.483 74.6399 138.974 75.8625 138.464 77.0342C136.987 78.2569 134.847 78.2569 133.37 77.0342Z" fill="#29E7CD"/>
<path d="M169.743 87.8851C168.368 86.6624 167.043 85.3888 165.668 84.2171C163.885 82.7398 161.796 81.8738 159.758 80.8549C159.402 80.3455 158.841 79.7341 160.064 79.6832C160.574 79.6832 161.032 79.6832 161.541 79.6832C172.698 79.6832 183.855 79.836 194.96 79.6322C200.972 79.5304 204.741 83.3511 206.626 87.4775C207.594 89.6172 207.594 91.9605 207.645 94.2021C207.747 122.781 207.747 151.411 207.696 179.991C207.696 184.983 206.321 189.517 201.787 192.421C199.341 194 196.692 194.866 193.789 194.866C160.523 194.866 127.308 194.866 94.0415 194.866C75.3453 194.866 56.649 194.764 37.9528 194.917C32.349 194.968 25.0641 189.67 24.8604 182.691C24.7585 179.379 24.6056 176.017 24.6056 172.706C24.6056 146.368 24.5547 120.081 24.6056 93.7436C24.6056 89.0058 26.083 84.7266 30.1075 81.7719C31.7887 80.5492 33.6226 79.6832 35.7623 79.6832C46.9189 79.6832 58.0755 79.6832 69.1811 79.6832C69.9962 79.6832 70.8113 79.5304 71.3717 80.3455C67.449 82.1285 64.2906 84.8794 61.3358 87.8851C60.4189 88.5983 59.2981 88.7002 58.1773 88.7002C51.6056 88.7002 45.0849 88.7002 38.5132 88.7002C34.4887 88.7002 33.2151 89.8719 33.2151 93.8455C33.1641 122.527 33.2151 151.259 33.2151 179.94C33.2151 180.449 33.2151 180.908 33.266 181.417C33.6226 184.117 35.049 185.442 37.8509 185.442C44.5245 185.493 51.1981 185.442 57.8717 185.493C63.883 185.544 69.8943 185.34 75.8547 185.595C76.9755 185.493 78.0962 185.493 79.166 185.493C103.008 185.493 126.849 185.493 150.741 185.493C151.862 185.493 152.983 185.493 154.053 185.595C166.789 185.391 179.525 185.544 192.26 185.493C193.228 185.493 194.247 185.544 195.215 185.442C197.406 185.187 198.679 183.913 198.934 181.723C199.036 180.857 198.985 179.991 198.985 179.125C198.985 151.055 198.985 122.934 198.985 94.8643C198.985 94.5587 198.985 94.253 198.985 93.9473C198.934 89.8209 197.864 88.7511 193.84 88.7002C186.86 88.7002 179.881 88.7002 172.851 88.7002C171.781 88.7002 170.66 88.7002 169.743 87.8851Z" fill="#EBEBEB"/>
<path d="M114.979 215.346C82.6812 215.346 50.3322 215.346 18.0341 215.346C16.7605 215.346 15.4359 215.498 14.2133 214.938C12.5322 214.174 12.2774 213.155 13.4491 211.779C16.4039 208.366 19.3586 204.953 22.2624 201.489C24.8095 198.483 28.0699 197.108 31.8907 197.108C88.0303 197.108 144.221 197.108 200.36 197.108C204.181 197.108 207.391 198.585 209.785 201.795C212.23 205.157 214.828 208.366 217.376 211.678C218.496 213.155 218.293 214.021 216.611 214.836C215.491 215.396 214.319 215.346 213.147 215.346C183.243 215.346 153.34 215.346 123.436 215.346C120.532 215.346 117.73 215.346 114.979 215.346Z" fill="#B5B5B5"/>
<path d="M92.87 223.904C83.4964 223.904 74.1738 223.904 64.8002 223.904C64.087 223.904 63.17 224.21 62.7625 223.445C62.3549 222.681 63.0172 222.07 63.4757 221.51C63.5776 221.408 63.6285 221.306 63.6794 221.204C66.6851 216.16 65.2587 216.874 71.6776 216.874C87.9794 216.823 104.23 216.874 120.532 216.874C123.181 216.874 123.334 216.874 123.538 219.421C123.996 224.566 123.64 224.006 119.615 224.006C110.7 223.904 101.785 223.904 92.87 223.904Z" fill="#CACACA"/>
<path d="M75.7018 186.206C74.581 186.257 73.4603 186.308 72.3905 186.308C60.8263 186.308 49.2622 186.308 37.698 186.308C34.1829 186.308 32.3999 184.626 32.3999 181.111C32.3999 151.717 32.3999 122.323 32.3999 92.9284C32.3999 89.4642 34.081 87.7831 37.5452 87.7831C45.4414 87.7831 53.3886 87.834 61.2848 87.885C58.2792 92.4699 56.1395 97.4114 55.5282 102.913C55.3754 104.085 55.3244 105.257 55.2735 106.428C55.5282 108.313 54.7131 109.74 53.5924 111.217C51.2999 114.477 48.8546 117.789 47.7848 121.762C45.1867 127.468 44.4225 133.479 44.6263 139.643C44.7791 145.706 47.2244 149.526 52.8792 151.513C58.2282 153.398 63.832 153.959 69.4867 153.296C71.3716 153.093 73.3075 153.042 75.1924 152.838C76.0584 152.736 76.9244 152.787 77.6376 153.449C78.5037 154.264 78.4527 155.334 78.3508 156.404C77.7395 164.096 77.0263 171.738 76.8735 179.43C76.8225 181.06 76.5169 182.742 76.5169 184.423C76.5169 185.136 76.3641 185.798 75.7018 186.206Z" fill="#E1F6FF"/>
<path d="M77.4849 153.602C72.9 153.704 68.3661 154.519 63.7812 154.315C59.7566 154.112 55.7831 153.755 51.9623 152.176C47.2755 150.291 44.3208 146.929 43.9132 141.783C43.3529 134.651 43.8114 127.672 47.1736 121.202C48.6 118.196 50.2302 115.344 52.1151 112.593C53.2359 110.962 53.7963 110.708 55.6302 111.574C58.1774 112.745 60.7755 113.917 63.3227 115.242C66.1755 116.719 69.1812 117.891 72.034 119.368C74.9887 120.896 75.2944 121.559 74.1736 124.615C73.9699 125.125 73.868 125.685 73.7661 126.246C72.5944 129.404 70.5566 132.002 67.9585 134.498C70.8114 135.415 73.3585 136.281 76.0585 136.587C76.7717 136.689 77.3831 136.74 77.9434 137.249C79.8283 137.453 81.6114 136.944 83.3944 136.434C83.9548 136.281 84.4132 135.976 84.617 135.415C85.8397 131.595 87.8774 128.283 90.8321 125.532C91.6472 123.342 93.2774 122.119 95.6208 121.915C95.8246 121.864 96.0283 121.864 96.2831 121.813C99.8491 121.712 103.415 121.355 106.981 122.017C107.491 122.323 107.796 122.832 107.898 123.444C107.898 125.583 107.185 126.296 105.147 126.602C103.211 126.908 101.174 126.347 99.3397 127.366C98.9831 127.57 98.4227 127.672 98.4227 128.181C98.4736 128.895 99.1359 128.691 99.5944 128.742C103.415 129.2 107.236 128.334 111.057 128.589C111.617 128.64 112.177 128.589 112.738 128.589C115.234 128.589 116.049 129.557 115.591 132.053C115.387 132.562 115.03 132.919 114.725 133.378C114.317 133.836 113.859 134.244 113.706 134.855C113.145 136.791 113.094 136.791 111.821 138.166C112.483 138.523 113.145 138.37 113.808 138.37C120.226 138.37 126.645 138.37 133.013 138.421C133.93 138.421 135.051 138.166 135.611 139.338C135.153 140.459 134.185 140.102 133.37 140.102C127.002 140.153 120.634 140.153 114.215 140.102C111.923 140.102 109.885 140.51 108.611 142.598C107.949 143.515 106.676 143.413 105.962 144.178C104.74 144.891 103.364 145.349 102.142 145.961C100.053 147.081 97.8623 147.896 96.3849 150.036C95.1623 151.768 92.9208 152.481 90.7812 152.481C87.1132 152.532 83.5981 153.347 79.9812 153.908C79.1151 154.01 78.3 154.061 77.4849 153.602Z" fill="#FEB986"/>
<path d="M95.468 122.374C93.4812 122.679 92.4114 124.462 90.8322 125.43C90.3228 124.411 90.3228 123.291 90.3228 122.17C90.3228 109.485 90.3228 96.7492 90.3228 84.0643C90.3228 81.5171 90.8322 79.1737 92.8699 77.4416C94.4492 76.9832 96.0794 77.1869 97.6586 76.9832C99.8492 77.0341 102.091 77.085 104.332 77.085C105.3 78.1549 105.198 79.4794 105.045 80.753C104.944 81.7718 104.077 82.0775 103.11 82.0775C101.632 82.1284 100.155 82.0265 98.6775 82.1794C97.1492 82.3832 96.385 83.1473 96.1812 84.6756C96.0794 85.4398 96.0794 86.153 96.0794 86.9171C96.0794 97.8699 96.0794 108.772 96.0794 119.725C95.9775 120.642 96.2322 121.61 95.468 122.374Z" fill="#2E4D48"/>
<path d="M73.2057 125.991C73.2057 125.787 73.1548 125.583 73.2057 125.43C74.5812 121.406 74.5812 121.406 70.7095 119.521C65.6152 117.076 60.4189 114.681 55.3756 112.134C53.9491 111.421 53.0322 111.523 52.1661 112.949C50.7906 115.293 49.2623 117.534 48.0906 119.979C47.8869 120.387 47.785 120.947 47.2246 121.1C47.5303 119.113 48.8039 117.534 49.7718 115.853C51.1473 113.459 52.7265 111.166 54.1529 108.823C54.6114 108.059 54.8661 107.142 55.2227 106.276C55.4774 106.989 56.0888 107.244 56.751 107.549C63.4756 110.759 70.251 113.917 77.0265 117.076C77.5359 117.33 77.6378 117.585 77.6378 118.044C76.3133 119.725 76.0586 121.864 75.1925 123.749C74.734 124.768 74.734 126.144 73.2057 125.991Z" fill="#29E7CD"/>
<path d="M73.2059 125.991C74.5813 124.462 74.7342 122.425 75.4983 120.642C75.9059 119.623 75.9568 118.247 77.587 118.196C77.8927 124.513 78.1983 130.83 77.9946 137.147C74.1738 137.657 70.7096 135.925 67.1946 135.008C65.9719 134.702 67.0927 134.04 67.3983 133.785C69.9964 131.696 71.8304 128.996 73.2059 125.991Z" fill="#E1F6FF"/>
<path d="M106.574 49.5756C105.606 50.085 104.842 50.7473 104.383 51.7662C103.976 52.7341 103.415 52.6322 102.651 52.1737C100.562 50.8492 99.085 49.0662 98.4228 46.7228C96.7417 40.3548 96.436 33.936 97.4039 27.4152C97.5058 26.6511 97.8115 25.836 98.1171 25.1228C99.2888 22.0152 100.359 21.2511 103.67 21.302C105.606 21.353 107.491 21.4548 109.376 21.7605C114.877 22.6775 120.227 21.6077 125.627 20.8945C129.753 20.3341 131.383 21.353 132.198 25.4794C133.574 32.4586 134.134 39.4379 132.249 46.4171C131.587 48.8115 130.161 50.5945 128.174 51.9699C127.359 52.5303 126.747 52.836 126.136 51.6643C125.117 49.7284 123.385 49.1681 121.296 49.3718C119.615 49.5247 117.985 49.7284 116.304 49.5756C113.859 49.3718 114.419 49.4737 113.502 49.3209C112.025 49.3718 111.159 48.4039 110.649 47.1303C110.14 45.8567 110.7 44.8379 111.668 44.0228C114.164 42.036 115.081 39.285 115.234 36.4831C114.827 37.1454 115.081 38.2662 114.827 39.2341C114.317 41.1699 113.145 42.5964 111.719 43.9718C110.038 45.5511 110.038 45.8567 111.108 47.9454C111.668 49.0152 111.261 49.3718 110.14 49.4228C108.917 49.4737 107.745 49.2699 106.574 49.5756Z" fill="#FEB17A"/>
<path d="M116.711 58.185C115.693 58.0831 114.623 57.9303 113.604 57.8284C111.872 58.4907 109.63 57.4718 108.306 55.3831C107.847 54.619 107.694 53.8039 107.389 52.9888C106.777 51.6133 107.593 51.7152 108.509 51.868C109.019 52.1737 109.477 52.5812 109.885 53.0397C111.923 54.7209 114.317 54.619 116.66 54.3642C117.985 54.2114 119.513 54.3642 120.532 53.0907C120.838 52.6831 121.245 52.3775 121.143 51.8171C123.334 51.3586 123.843 52.1737 123.028 54.9246C121.857 55.2812 121.5 56.5548 120.481 57.1152C119.259 57.6756 118.24 58.6944 116.711 58.185Z" fill="#B45E43"/>
<path d="M107.389 52.9889C108.917 55.2813 110.598 57.421 113.604 57.8285C113.706 59.8663 112.992 60.3757 111.108 59.6625C108.56 58.7455 107.287 56.4021 107.389 52.9889Z" fill="#F7AE7B"/>
<path d="M116.712 58.1851C119.106 57.2681 121.246 55.9945 122.621 53.6511C123.181 54.0077 122.876 54.4662 123.029 54.8228C122.672 57.2681 121.449 59.0511 119.004 59.7643C117.629 60.1209 116.61 59.9172 116.712 58.1851Z" fill="#F6AE7A"/>
<path d="M109.223 53.2436C108.714 52.887 108.764 52.2757 108.51 51.8172C112.738 52.2757 116.915 52.6833 121.093 51.7153C122.315 52.2248 121.857 52.7851 121.144 53.3455C117.17 54.4663 113.197 54.5682 109.223 53.2436Z" fill="#C1B6B0"/>
<path d="M169.743 87.8851C175.143 87.8342 180.493 87.7832 185.893 87.7323C188.847 87.7323 191.853 87.7323 194.808 87.7323C198.221 87.7832 199.851 89.4134 199.851 92.9285C199.851 97.3606 199.851 101.844 199.851 106.276C199.851 130.983 199.851 155.64 199.851 180.347C199.851 181.672 199.902 182.946 199.138 184.117C198.323 185.391 197.151 186.206 195.623 186.206C181.817 186.206 168.011 186.155 154.257 186.155C153.34 185.646 153.391 184.729 153.391 183.862C153.136 173.878 152.015 163.944 151.251 154.01C150.996 150.749 150.793 147.489 151.455 144.229C152.83 143.108 153.747 143.159 155.276 144.585C156.957 146.215 158.74 147.744 160.625 149.119C166.789 153.704 173.462 155.079 180.849 152.685C184.313 151.564 184.721 148.712 185.281 145.859C186.096 141.834 185.179 137.861 184.772 133.938C184.059 127.213 181.359 121.1 178.811 114.936C178.811 113.917 178.404 113 177.793 112.236C176.213 110.3 175.042 108.262 175.398 105.613C175.042 99.2455 173.055 93.3361 169.743 87.8851Z" fill="#E1F6FF"/>
<path d="M179.372 114.528C183.651 122.934 185.943 131.849 186.402 141.223C186.555 144.483 186.147 147.642 184.823 150.647C184.313 151.768 183.549 152.532 182.377 152.991C174.583 155.996 167.349 154.977 160.625 150.138C158.587 148.711 156.753 147.081 155.021 145.298C154.155 144.381 153.187 143.821 151.913 144.126C151.404 144.534 150.843 144.789 150.232 144.687C147.94 144.33 145.596 144.432 143.304 143.872C142.438 143.668 141.725 143.209 141.062 142.649C140.349 142.038 139.789 141.274 139.534 140.357C139.381 138.981 139.127 137.708 138.362 136.536C137.802 135.721 137.547 134.753 137.649 133.734C137.751 132.868 137.547 132.155 136.681 131.747C136.223 131.391 135.866 130.932 135.662 130.423C134.796 127.825 132.555 127.111 130.313 126.5C128.123 125.889 125.932 125.125 123.793 124.411C123.13 124.208 122.57 123.8 122.213 123.189C122.06 122.883 122.06 122.577 122.01 122.272C122.06 119.979 123.436 118.757 125.677 119.113C129.294 119.725 132.962 120.132 136.528 120.998C136.936 121.049 137.293 121.253 137.751 121.151C137.598 120.285 136.63 119.928 136.426 119.113C136.172 117.992 136.172 116.923 136.376 115.802C136.477 115.598 136.528 115.394 136.63 115.242C138.923 113.459 140.808 114.019 141.877 116.923C144.323 120.234 147.736 122.017 151.76 122.628C152.219 122.476 152.677 122.425 153.085 122.628C153.747 122.883 154.359 123.291 155.072 123.392C158.128 124.309 160.166 126.551 162.153 128.843C162.459 129.2 162.764 129.608 163.07 130.015C164.751 132.053 166.33 133.479 169.54 132.359C172.953 131.187 176.723 131.34 180.085 133.479C181.053 134.091 181.715 134.957 182.377 135.364C180.391 133.326 177.691 132.104 174.583 131.645C172.189 131.289 169.998 131.951 167.859 132.664C166.381 133.174 165.515 132.715 164.598 131.798C163.07 130.27 161.847 128.487 160.268 126.959C159.453 126.194 158.74 125.379 157.772 124.768C157.11 124.36 156.498 123.749 156.345 122.883C156.447 121.762 157.364 121.355 158.128 120.947C163.885 117.992 169.54 114.783 175.296 111.879C176.927 111.064 177.589 111.37 178.404 112.949C178.913 113.408 179.015 114.019 179.372 114.528Z" fill="#FEB986"/>
<path d="M141.979 116.923C141.673 116.719 141.317 116.515 141.113 116.261C139.992 114.885 138.77 114.376 137.139 115.445C136.273 114.834 136.528 113.866 136.528 113.051C136.528 104.493 136.528 95.8832 136.528 87.3247C136.528 86.8153 136.528 86.3568 136.528 85.8473C136.426 83.0964 135.611 82.2813 132.809 82.1794C132.555 82.1794 132.3 82.1794 132.045 82.1794C130.975 82.1285 129.6 82.4851 129.141 81.1606C128.683 79.836 128.734 78.4096 129.702 77.187C130.924 77.136 132.147 77.136 133.37 77.0851C135.051 77.0851 136.783 77.0851 138.464 77.0851C141.47 78.4096 142.336 80.7021 142.285 83.9115C142.132 94.0492 142.234 104.136 142.234 114.274C142.234 115.089 142.285 116.057 141.979 116.923Z" fill="#2E4D48"/>
<path d="M179.372 114.529C179.27 114.478 179.117 114.427 179.066 114.325C177.385 111.676 177.334 111.625 174.481 113.153C168.929 116.108 163.376 119.062 157.823 122.017C157.466 122.221 157.11 122.527 156.753 122.73C156.549 123.749 155.581 123.546 154.919 123.749C154.308 123.647 153.646 123.596 153.187 123.138C153.849 122.119 153.034 120.795 153.798 119.827C160.319 116.057 166.891 112.236 173.412 108.466C174.583 107.804 175.653 107.142 175.398 105.562C175.704 107.753 176.876 109.536 177.996 111.319C178.608 112.389 179.423 113.255 179.372 114.529Z" fill="#29E7CD"/>
<path d="M153.798 119.877C153.951 120.438 154.104 121.049 154.307 121.61C154.766 122.73 154.205 123.189 153.187 123.189C152.728 122.985 152.321 122.781 151.862 122.577C151.862 122.068 151.913 121.61 151.913 121.1C151.862 119.674 152.168 118.859 153.798 119.877Z" fill="#E1F6FF"/>
<path d="M129.702 77.1359C129.498 81.568 129.498 81.5171 133.93 81.568C137.496 81.619 137.089 81.0586 137.14 84.6756C137.14 94.9152 137.14 105.155 137.14 115.445C137.089 115.598 137.038 115.7 136.987 115.853C135.662 115.445 135.968 114.325 135.968 113.357C135.968 104.442 135.968 95.5265 135.968 86.6114C135.968 82.7907 135.56 82.1793 131.791 82.8416C123.181 84.4209 114.521 83.1982 105.911 83.5548C103.772 83.6567 101.785 82.485 99.5434 82.6888C96.9453 82.9435 96.6396 82.9944 96.6396 85.5925C96.5887 96.8001 96.6396 108.008 96.6396 119.215C96.6396 120.285 96.8943 121.457 95.8755 122.323C95.7226 122.323 95.6208 122.374 95.4679 122.374C95.4679 109.434 95.5189 96.5454 95.417 83.6058C95.417 81.8737 95.9774 81.3643 97.6076 81.4661C99.2887 81.568 100.97 81.4152 102.6 81.5171C104.026 81.619 104.485 81.0586 104.332 79.6831C104.23 78.8171 104.281 77.951 104.23 77.085C104.434 76.219 104.994 75.9133 105.86 75.9133C106.93 75.9133 107.949 75.8624 109.019 75.9642C111.057 76.1171 112.789 75.8114 114.266 74.0793C115.591 72.551 118.443 72.6529 119.768 74.1812C121.092 75.7095 122.621 76.1171 124.506 75.9642C125.677 75.8624 126.849 75.9642 128.021 75.9133C128.938 75.9642 129.498 76.2699 129.702 77.1359Z" fill="#DBDBDA"/>
<path d="M141.215 142.038C143.915 143.923 147.074 143.362 150.079 143.872C150.691 143.974 151.302 144.025 151.862 144.127C151.659 150.902 152.372 157.678 152.932 164.402C153.544 171.636 154.155 178.87 154.206 186.155C153.645 186.206 153.085 186.257 152.525 186.257C127.562 186.257 102.651 186.257 77.6889 186.257C77.0266 186.257 76.3134 186.206 75.6511 186.155C75.9568 176.068 76.67 166.032 77.4851 155.945C77.536 155.13 77.4851 154.366 77.4341 153.551C81.1021 152.787 84.77 151.921 88.4889 151.87C92.0549 151.768 95.2643 151.157 97.1492 147.693C97.3021 147.387 97.6587 147.081 97.9643 146.979C100.562 145.91 103.008 144.381 105.759 143.617C107.695 143.21 109.681 143.159 111.617 143.159C119.208 143.159 126.798 143.159 134.338 143.159C136.274 143.159 138.159 143.21 139.891 142.089C140.349 141.885 140.808 141.987 141.215 142.038Z" fill="#4CA9EE"/>
<path d="M94.8565 212.696C86.4509 212.696 78.0452 212.696 69.6395 212.646C68.8754 212.646 67.449 213.206 67.449 211.779C67.449 210.455 68.5697 210.098 69.8433 210.098C79.2169 210.098 88.6414 210.098 98.015 210.098C105.555 210.098 113.094 210.098 120.634 210.098C121.347 210.098 122.162 209.895 122.672 210.608C122.977 211.015 122.926 211.576 122.723 212.034C122.417 212.747 121.755 212.696 121.092 212.696C117.017 212.696 112.941 212.696 108.866 212.696C104.281 212.696 99.5943 212.696 94.8565 212.696Z" fill="#F3F3F3"/>
<path d="M160.472 206.736C162.56 206.736 164.7 206.787 166.789 206.736C168.164 206.685 168.928 207.194 169.438 208.519C171.119 212.798 171.119 212.747 166.585 212.747C165.974 212.747 165.362 212.696 164.751 212.747C163.375 212.9 162.611 212.289 162.407 210.964C162.204 209.691 161.491 209.232 160.217 209.334C158.485 209.436 156.753 209.385 155.021 209.334C154.46 209.334 153.9 209.283 153.391 209.13C152.626 208.977 152.27 208.417 152.321 207.602C152.372 206.736 153.034 206.736 153.696 206.736C155.938 206.736 158.179 206.736 160.472 206.736Z" fill="#F3F3F3"/>
<path d="M207.696 212.696C203.774 212.696 201.685 211.219 200.411 207.806C200.106 207.042 200.411 206.736 201.125 206.736C202.908 206.736 204.691 206.736 206.474 206.736C207.34 206.736 207.849 207.449 208.359 208.112C208.664 208.519 208.919 208.927 209.174 209.334C209.785 210.353 211.364 211.423 210.855 212.34C210.396 213.308 208.613 212.493 207.696 212.696Z" fill="#F4F4F4"/>
<path d="M30.4132 209.334C28.1208 209.334 25.8283 209.334 23.5359 209.334C23.1283 209.334 22.568 209.436 22.4661 208.927C22.4151 208.621 22.6698 208.213 22.8736 207.959C23.434 207.144 24.2491 206.787 25.268 206.787C29.7 206.787 34.183 206.787 38.6151 206.787C39.0736 206.787 39.6849 206.634 39.9396 207.144C40.2453 207.755 39.6849 208.162 39.3283 208.57C38.6661 209.283 37.851 209.385 36.934 209.385C34.7434 209.334 32.6038 209.334 30.4132 209.334Z" fill="#F3F3F3"/>
<path d="M158.587 202.304C156.447 202.304 154.257 202.304 152.117 202.304C151.098 202.304 150.436 201.896 150.487 200.776C150.487 199.706 151.302 199.706 152.066 199.706C156.142 199.706 160.217 199.706 164.293 199.706C164.7 199.706 165.159 199.808 165.566 199.961C166.279 200.266 166.585 200.878 166.432 201.591C166.33 202.355 165.668 202.253 165.108 202.253C162.917 202.355 160.726 202.355 158.587 202.304Z" fill="#F3F3F3"/>
<path d="M128.53 212.696C127.613 212.696 126.696 212.696 125.728 212.696C124.862 212.696 124.557 212.136 124.506 211.372C124.455 210.506 124.964 210.149 125.779 210.149C127.562 210.149 129.345 210.149 131.128 210.149C132.147 210.149 132.504 210.811 132.555 211.728C132.555 212.747 131.791 212.696 131.128 212.747C130.262 212.747 129.396 212.696 128.53 212.696Z" fill="#F2F2F2"/>
<path d="M53.1851 210.098C53.8474 210.098 54.5606 210.047 55.2228 210.098C55.7832 210.149 56.5983 209.844 56.7002 210.761C56.8021 211.627 56.2926 212.493 55.4776 212.595C53.3379 212.747 51.1983 212.696 49.0077 212.696C48.3455 212.696 48.2945 212.187 48.4983 211.627C48.9059 210.557 49.67 210.098 50.7908 210.149C51.5549 210.149 52.37 210.098 53.1851 210.098Z" fill="#F1F1F1"/>
<path d="M147.634 210.149C148.551 210.149 149.468 210.098 150.385 210.149C151.353 210.2 151.556 210.913 151.556 211.728C151.556 212.594 150.945 212.696 150.283 212.696C148.551 212.696 146.819 212.696 145.138 212.696C144.17 212.696 143.66 212.136 143.558 211.219C143.456 210.098 144.322 210.149 145.087 210.098C145.902 210.098 146.768 210.149 147.634 210.149Z" fill="#F3F3F3"/>
<path d="M32.8588 212.696C32.2475 212.696 31.6362 212.747 31.0249 212.696C30.4135 212.645 29.3947 213.053 29.2928 212.187C29.2418 211.321 29.9041 210.455 30.8211 210.302C32.9098 209.945 34.9985 210.098 37.0871 210.2C37.7494 210.251 37.9022 210.71 37.5966 211.27C37.0871 212.187 36.4249 212.849 35.2532 212.747C34.489 212.645 33.6739 212.696 32.8588 212.696Z" fill="#F2F2F2"/>
<path d="M138.311 212.696C137.343 212.696 136.325 212.696 135.357 212.696C134.542 212.696 134.134 212.187 134.134 211.372C134.134 210.506 134.593 210.149 135.357 210.149C137.14 210.149 138.923 210.149 140.706 210.149C141.877 210.149 142.081 211.117 142.081 211.983C142.081 212.951 141.266 212.696 140.706 212.696C139.891 212.747 139.076 212.696 138.311 212.696Z" fill="#F2F2F2"/>
<path d="M24.7075 210.149C25.6755 210.149 26.3887 210.098 27.0509 210.149C27.5094 210.149 28.1208 209.945 28.3245 210.608C28.4774 211.066 28.0698 211.423 27.8151 211.728C27.3057 212.442 26.6434 212.747 25.7774 212.747C24.1981 212.747 22.5679 212.747 20.9887 212.747C20.5811 212.747 20.0717 212.849 19.817 212.391C19.5623 211.83 20.0717 211.474 20.3264 211.117C21.6509 209.487 23.4849 210.404 24.7075 210.149Z" fill="#F2F2F2"/>
<path d="M197.762 212.645C196.795 212.645 195.776 212.747 194.808 212.595C193.789 212.442 193.025 211.627 193.076 210.71C193.127 209.64 194.247 210.2 194.91 210.149C196.132 210.047 197.406 210.149 198.628 210.098C199.24 210.098 199.902 210.149 200.411 210.557C200.972 211.015 201.787 211.474 201.532 212.289C201.278 213.002 200.462 212.645 199.851 212.696C199.189 212.747 198.476 212.696 197.813 212.696C197.762 212.696 197.762 212.696 197.762 212.645Z" fill="#F2F2F2"/>
<path d="M188.083 212.696C187.166 212.696 186.249 212.747 185.332 212.696C184.313 212.594 183.753 211.83 183.702 210.964C183.702 209.843 184.721 210.2 185.383 210.149C186.759 210.098 188.083 210.149 189.459 210.149C190.07 210.149 190.732 210.149 191.191 210.659C191.598 211.117 192.108 211.626 191.904 212.238C191.7 212.951 190.987 212.696 190.477 212.747C189.662 212.747 188.847 212.696 188.083 212.696Z" fill="#F1F1F1"/>
<path d="M42.2831 212.696C41.468 212.696 40.7038 212.696 39.8888 212.696C39.4812 212.696 38.9718 212.798 38.768 212.238C38.6152 211.779 38.9718 211.423 39.2265 211.117C39.7359 210.455 40.3982 210.098 41.3152 210.098C42.8435 210.098 44.3718 210.098 45.951 210.098C46.4095 210.098 47.0208 209.945 47.1737 210.608C47.3265 211.117 46.9699 211.525 46.6642 211.932C46.0529 212.696 45.1869 212.747 44.3208 212.696C43.6586 212.696 42.9963 212.696 42.2831 212.696Z" fill="#F2F2F2"/>
<path d="M178.557 212.696C177.64 212.696 176.723 212.747 175.755 212.696C174.685 212.645 174.175 211.983 174.226 210.964C174.226 209.946 175.143 210.149 175.755 210.098C177.181 210.047 178.608 210.098 180.034 210.098C180.849 210.098 181.511 210.302 181.919 211.015C182.428 211.932 182.632 212.696 181.155 212.696C180.34 212.696 179.423 212.696 178.557 212.696Z" fill="#F2F2F2"/>
<path d="M137.598 209.283C136.732 209.283 135.866 209.283 135 209.283C134.083 209.283 133.727 208.723 133.676 207.857C133.676 206.94 134.236 206.736 135 206.736C136.681 206.736 138.312 206.736 139.993 206.736C140.859 206.736 141.368 207.144 141.419 208.061C141.47 209.079 140.808 209.283 139.993 209.283C139.229 209.334 138.414 209.334 137.598 209.283C137.598 209.334 137.598 209.334 137.598 209.283Z" fill="#F2F2F2"/>
<path d="M128.225 209.334C127.41 209.334 126.594 209.334 125.83 209.334C124.913 209.334 124.506 208.876 124.455 207.959C124.455 207.042 124.913 206.787 125.728 206.787C127.41 206.787 129.091 206.787 130.721 206.787C131.587 206.787 132.147 207.093 132.198 208.061C132.249 209.181 131.536 209.385 130.619 209.385C129.804 209.334 128.989 209.334 128.225 209.334Z" fill="#F1F1F1"/>
<path d="M110.038 206.736C110.853 206.736 111.617 206.736 112.432 206.736C113.247 206.736 113.706 207.093 113.655 207.959C113.604 208.774 113.298 209.283 112.432 209.283C110.649 209.334 108.866 209.334 107.083 209.283C106.37 209.283 105.912 208.927 105.912 208.162C105.912 207.347 106.319 206.838 107.083 206.787C108.051 206.736 109.07 206.787 110.038 206.736C110.038 206.787 110.038 206.736 110.038 206.736Z" fill="#F2F2F2"/>
<path d="M91.1888 209.334C90.3737 209.334 89.5586 209.334 88.7944 209.334C88.1831 209.334 87.4699 209.334 87.4189 208.468C87.4189 207.755 87.6737 206.991 88.4378 206.889C90.4755 206.583 92.5133 206.685 94.551 206.838C95.1114 206.889 95.3661 207.347 95.2133 207.959C95.0604 208.672 94.8567 209.334 93.9906 209.334C93.0737 209.334 92.1567 209.283 91.1888 209.334C91.1888 209.283 91.1888 209.334 91.1888 209.334Z" fill="#F2F2F2"/>
<path d="M81.7131 209.334C81.1018 209.334 80.4905 209.385 79.8791 209.334C79.1659 209.283 78.198 209.538 78.198 208.468C78.198 207.398 78.8093 206.787 79.981 206.787C81.5093 206.787 83.0376 206.736 84.5659 206.787C85.1772 206.787 86.0942 206.532 86.0942 207.602C86.0942 208.417 85.6867 209.232 84.7188 209.283C83.7508 209.334 82.732 209.283 81.764 209.283C81.7131 209.283 81.7131 209.283 81.7131 209.334Z" fill="#F2F2F2"/>
<path d="M156.855 210.2C157.823 210.2 158.841 210.098 159.809 210.251C160.777 210.353 161.134 211.168 161.032 212.034C160.981 212.9 160.166 212.747 159.555 212.747C158.026 212.747 156.498 212.747 154.97 212.747C153.849 212.747 153.187 212.238 153.085 211.168C152.983 209.843 154.104 210.251 154.817 210.149C155.479 210.098 156.141 210.149 156.855 210.149C156.855 210.149 156.855 210.149 156.855 210.2Z" fill="#F3F3F3"/>
<path d="M61.5906 212.696C60.9284 212.696 60.2152 212.747 59.5529 212.696C58.9925 212.645 58.1265 212.951 58.0246 212.085C57.9227 211.27 58.4322 210.404 59.2982 210.251C61.3869 209.895 63.4755 210.047 65.5642 210.149C65.9718 210.149 66.3284 210.404 66.2265 210.862C66.0227 211.678 65.6152 212.442 64.7491 212.544C63.7303 212.645 62.6605 212.595 61.6416 212.595C61.5906 212.645 61.5906 212.696 61.5906 212.696Z" fill="#F3F3F3"/>
<path d="M119.004 209.334C118.189 209.334 117.425 209.334 116.61 209.334C115.693 209.334 115.234 208.876 115.234 207.959C115.234 207.093 115.744 206.787 116.508 206.736C118.24 206.736 119.972 206.736 121.653 206.736C122.468 206.736 122.927 207.093 122.927 207.959C122.927 208.774 122.57 209.283 121.755 209.283C120.838 209.334 119.921 209.283 119.004 209.334Z" fill="#F2F2F2"/>
<path d="M63.17 209.334C62.4568 209.334 61.8964 209.385 61.336 209.334C60.7247 209.283 59.7058 209.589 59.7058 208.672C59.6549 207.857 60.2153 206.889 61.1832 206.838C63.119 206.736 65.1058 206.787 67.0926 206.787C67.5002 206.787 67.8058 206.991 67.7549 207.449C67.653 208.162 67.3983 208.723 66.6851 209.028C65.4624 209.487 64.1889 209.283 63.17 209.334Z" fill="#F2F2F2"/>
<path d="M44.4734 209.334C43.913 209.334 43.3526 209.385 42.7922 209.334C42.1809 209.283 41.162 209.64 41.0602 208.774C40.9073 207.857 41.7734 207.093 42.5885 206.94C44.5752 206.532 46.6639 206.736 48.7017 206.838C49.4149 206.889 49.3639 207.449 49.1092 207.959C48.6507 208.978 47.7847 209.385 46.7149 209.334C46.0017 209.334 45.2375 209.334 44.4734 209.334Z" fill="#F2F2F2"/>
<path d="M53.6943 209.334C53.1339 209.334 52.5735 209.385 52.0131 209.334C51.4018 209.283 50.383 209.691 50.2811 208.825C50.1792 207.908 50.8414 206.94 51.8603 206.838C53.7962 206.685 55.783 206.736 57.7697 206.787C58.5339 206.787 58.6867 207.246 58.3301 207.908C57.7188 208.927 56.8528 209.334 55.732 209.334C55.0697 209.334 54.3565 209.334 53.6943 209.334Z" fill="#F2F2F2"/>
<path d="M100.308 209.334C99.5437 209.334 98.8305 209.334 98.0664 209.334C97.4551 209.334 96.7419 209.334 96.6909 208.468C96.64 207.704 96.9456 206.889 97.8626 206.838C99.7475 206.736 101.683 206.787 103.568 206.787C104.332 206.787 104.383 207.449 104.332 208.01C104.281 208.723 103.976 209.232 103.263 209.283C102.295 209.334 101.327 209.283 100.308 209.334C100.308 209.283 100.308 209.334 100.308 209.334Z" fill="#F2F2F2"/>
<path d="M194.655 206.787C195.572 206.787 196.488 206.685 197.405 206.787C198.424 206.94 199.188 207.653 199.138 208.621C199.087 209.691 197.966 209.232 197.355 209.283C196.183 209.334 195.011 209.334 193.839 209.334C193.126 209.334 192.464 209.181 191.904 208.825C191.343 208.468 190.987 207.908 191.038 207.296C191.139 206.532 191.904 206.787 192.413 206.736C193.177 206.685 193.941 206.736 194.655 206.787C194.655 206.736 194.655 206.787 194.655 206.787Z" fill="#F1F1F1"/>
<path d="M176.417 206.787C177.283 206.787 178.149 206.736 179.015 206.787C180.085 206.889 180.747 207.704 180.747 208.621C180.696 209.742 179.626 209.232 178.964 209.283C177.741 209.334 176.519 209.334 175.296 209.283C174.685 209.232 174.074 209.13 173.513 208.876C172.953 208.57 172.647 207.959 172.8 207.296C172.953 206.685 173.513 206.736 174.023 206.736C174.838 206.736 175.602 206.736 176.417 206.787C176.417 206.736 176.417 206.736 176.417 206.787Z" fill="#F2F2F2"/>
<path d="M146.666 206.736C147.532 206.736 148.398 206.685 149.264 206.736C150.283 206.787 150.691 207.5 150.691 208.366C150.691 209.334 149.876 209.283 149.213 209.283C147.685 209.283 146.106 209.283 144.577 209.283C143.61 209.283 143.049 208.927 142.998 207.908C142.947 206.685 143.813 206.736 144.628 206.736C145.291 206.736 146.004 206.736 146.666 206.736Z" fill="#F2F2F2"/>
<path d="M73.3587 206.736C74.021 206.736 74.7342 206.736 75.3964 206.736C75.9059 206.736 76.6191 206.583 76.8229 207.296C77.0266 208.061 76.6191 208.774 75.9568 208.978C73.8172 209.691 71.5757 209.334 69.3851 209.181C68.9776 209.13 68.8247 208.723 68.9776 208.315C69.1813 207.551 69.5889 206.889 70.404 206.787C71.3719 206.685 72.3908 206.787 73.3587 206.787V206.736Z" fill="#F2F2F2"/>
<path d="M185.434 206.787C186.402 206.787 187.421 206.685 188.389 206.838C189.357 206.991 189.968 207.755 189.866 208.672C189.815 209.691 188.847 209.283 188.236 209.334C187.013 209.385 185.74 209.334 184.517 209.334C183.906 209.334 183.243 209.232 182.734 208.876C182.174 208.468 181.613 207.908 181.868 207.194C182.072 206.532 182.836 206.838 183.345 206.787C184.008 206.736 184.721 206.787 185.383 206.787C185.434 206.736 185.434 206.787 185.434 206.787Z" fill="#F1F1F1"/>
<path d="M119.004 202.304C118.24 202.304 117.527 202.304 116.762 202.304C115.947 202.304 115.489 201.998 115.489 201.132C115.489 200.317 115.845 199.808 116.66 199.757C118.342 199.706 119.972 199.706 121.653 199.757C122.468 199.757 122.825 200.266 122.825 201.081C122.825 201.947 122.315 202.304 121.551 202.304C120.736 202.304 119.87 202.304 119.004 202.304Z" fill="#F1F1F1"/>
<path d="M136.834 202.304C135.968 202.304 135.102 202.304 134.236 202.304C133.421 202.304 133.013 201.845 132.962 201.03C132.911 200.164 133.319 199.757 134.185 199.757C135.764 199.757 137.394 199.757 138.974 199.757C140.043 199.757 140.298 200.521 140.298 201.387C140.298 202.406 139.483 202.304 138.821 202.304C138.209 202.355 137.496 202.355 136.834 202.304Z" fill="#F1F1F1"/>
<path d="M75.2437 202.355C74.6833 202.355 74.1229 202.406 73.6135 202.355C73.0022 202.304 72.0342 202.711 71.9323 201.743C71.7795 200.827 72.3908 199.96 73.3078 199.859C75.0908 199.706 76.8738 199.757 78.6569 199.808C79.2172 199.808 79.5229 200.266 79.472 200.827C79.421 201.591 78.9625 202.151 78.2493 202.253C77.2814 202.355 76.3135 202.304 75.2946 202.304C75.2437 202.304 75.2437 202.304 75.2437 202.355Z" fill="#F1F1F1"/>
<path d="M191.445 202.253C190.477 202.253 189.458 202.355 188.491 202.202C187.523 202.049 186.962 201.234 187.013 200.368C187.064 199.4 188.083 199.808 188.643 199.757C189.764 199.706 190.834 199.757 191.955 199.757C192.668 199.757 193.33 199.859 193.84 200.317C194.298 200.725 194.96 201.081 194.808 201.795C194.655 202.661 193.84 202.304 193.279 202.355C192.668 202.406 192.057 202.355 191.445 202.355C191.445 202.304 191.445 202.253 191.445 202.253Z" fill="#F2F2F2"/>
<path d="M28.6812 205.717C28.019 205.717 27.3057 205.768 26.6435 205.717C26.185 205.666 25.5227 205.921 25.3699 205.259C25.268 204.749 25.6756 204.342 26.0322 203.985C26.8982 203.119 28.0699 203.272 29.1397 203.119C29.9039 203.017 30.719 203.017 31.5341 203.119C32.2473 203.17 33.4699 202.661 33.4699 203.832C33.4699 204.698 32.6039 205.513 31.6359 205.615C30.668 205.717 29.6491 205.615 28.6812 205.615C28.6812 205.666 28.6812 205.666 28.6812 205.717Z" fill="#F2F2F2"/>
<path d="M92.87 202.304C92.2077 202.304 91.4945 202.355 90.8323 202.304C90.2719 202.253 89.4059 202.559 89.3549 201.642C89.304 200.776 89.7625 199.91 90.6285 199.859C92.4115 199.706 94.1945 199.757 95.9775 199.808C96.5379 199.808 96.8436 200.215 96.7417 200.827C96.5889 201.489 96.5889 202.253 95.6209 202.304C94.704 202.304 93.787 202.304 92.87 202.304Z" fill="#F2F2F2"/>
<path d="M173.921 202.304C173.055 202.304 172.189 202.355 171.323 202.304C170.202 202.202 169.692 201.336 169.692 200.419C169.743 199.451 170.711 199.808 171.323 199.757C172.494 199.706 173.666 199.706 174.838 199.757C175.296 199.757 175.857 199.808 176.264 200.062C176.875 200.419 177.487 201.081 177.334 201.845C177.181 202.61 176.315 202.304 175.755 202.355C175.143 202.355 174.532 202.304 173.921 202.304Z" fill="#F1F1F1"/>
<path d="M101.479 202.304C100.817 202.304 100.104 202.304 99.4415 202.304C98.8302 202.304 98.117 202.355 98.066 201.438C98.0151 200.623 98.2698 199.859 99.1358 199.808C100.919 199.706 102.702 199.757 104.485 199.757C105.147 199.757 105.402 200.317 105.402 200.929C105.402 201.642 105.147 202.202 104.434 202.253C103.466 202.304 102.498 202.253 101.479 202.253C101.479 202.304 101.479 202.304 101.479 202.304Z" fill="#F1F1F1"/>
<path d="M48.7529 202.355C48.3454 202.355 47.8869 202.406 47.4794 202.355C46.8171 202.253 45.6963 202.762 45.5944 201.845C45.5435 200.979 46.3077 200.011 47.2756 199.909C49.0586 199.757 50.8416 199.808 52.6246 199.859C53.4397 199.859 53.4397 200.419 53.1341 201.03C52.6756 201.998 51.9624 202.457 50.9435 202.406C50.2303 202.304 49.5171 202.304 48.7529 202.355C48.7529 202.304 48.7529 202.355 48.7529 202.355Z" fill="#F2F2F2"/>
<path d="M73.919 205.717C73.2568 205.717 72.5435 205.768 71.8813 205.717C71.3209 205.666 70.4549 206.023 70.4039 205.106C70.353 204.392 70.7096 203.679 71.5756 203.425C73.3586 202.966 75.1417 203.068 76.8737 203.221C77.4851 203.272 78.1983 203.425 78.0454 204.291C77.9435 205.004 77.6888 205.615 76.8228 205.666C75.8549 205.666 74.8869 205.666 73.919 205.717C73.919 205.666 73.919 205.717 73.919 205.717Z" fill="#F2F2F2"/>
<path d="M82.8849 205.717C82.1208 205.717 81.4076 205.717 80.6434 205.717C80.134 205.717 79.5736 205.717 79.5227 205.055C79.4208 204.393 79.5736 203.73 80.2359 203.527C82.2736 202.915 84.3623 202.966 86.451 203.323C86.9604 203.425 87.1132 203.781 87.0114 204.291C86.8585 204.902 86.8076 205.615 85.9925 205.615C84.9227 205.666 83.9038 205.615 82.834 205.615C82.8849 205.666 82.8849 205.666 82.8849 205.717Z" fill="#F2F2F2"/>
<path d="M37.9526 205.717C37.1375 205.717 36.5262 205.768 35.9148 205.717C35.3545 205.666 34.4884 206.074 34.3356 205.208C34.2337 204.596 34.7431 203.985 35.3035 203.73C37.4941 202.762 39.7356 202.966 42.028 203.374C42.7922 203.526 42.4356 204.087 42.1809 204.494C41.0601 206.277 39.2771 205.513 37.9526 205.717Z" fill="#F1F1F1"/>
<path d="M155.123 205.666C154.257 205.666 153.391 205.666 152.525 205.666C151.709 205.615 151.353 205.106 151.251 204.342C151.149 203.425 151.811 203.374 152.423 203.272C154.155 203.017 155.836 202.966 157.568 203.323C158.383 203.476 158.943 203.985 158.892 204.851C158.841 205.87 157.975 205.615 157.364 205.666C156.6 205.717 155.836 205.717 155.123 205.666C155.123 205.717 155.123 205.666 155.123 205.666Z" fill="#F3F3F3"/>
<path d="M66.6341 202.304C66.0228 202.304 65.4115 202.355 64.8002 202.304C64.1888 202.253 63.2719 202.61 63.17 201.591C63.119 200.776 63.7303 200.062 64.3926 199.91C66.2775 199.502 68.2134 199.706 70.0983 199.808C70.5058 199.859 70.8115 200.164 70.7096 200.572C70.5568 201.336 70.2002 202.049 69.3851 202.202C68.519 202.355 67.5511 202.304 66.6341 202.304C66.6341 202.355 66.6341 202.355 66.6341 202.304Z" fill="#F2F2F2"/>
<path d="M55.885 205.717C55.2227 205.717 54.5095 205.768 53.8473 205.717C53.3378 205.666 52.5737 205.921 52.4718 205.157C52.3699 204.495 52.7775 203.73 53.4907 203.527C55.5284 202.966 57.6171 202.915 59.7058 203.323C60.1133 203.374 60.419 203.628 60.2661 204.087C60.0114 204.8 59.7058 205.564 58.8397 205.615C57.8718 205.717 56.8529 205.615 55.885 205.615C55.885 205.666 55.885 205.666 55.885 205.717Z" fill="#F1F1F1"/>
<path d="M40.3473 202.355C39.685 202.355 39.2774 202.406 38.819 202.355C38.1567 202.253 37.0359 202.762 36.9341 201.795C36.8322 200.827 37.7491 200.012 38.6152 199.91C40.3982 199.706 42.1812 199.706 43.9642 199.808C45.0341 199.859 44.8303 200.521 44.3718 201.234C43.251 202.813 41.5699 202.202 40.3473 202.355Z" fill="#F2F2F2"/>
<path d="M31.6357 202.304C30.9225 202.304 30.464 202.355 30.0564 202.304C29.3942 202.202 28.2734 202.712 28.1206 201.846C28.0187 201.03 28.9357 200.215 29.6998 200.012C31.6357 199.451 33.6225 199.706 35.6093 199.859C36.3734 199.91 36.0678 200.521 35.813 200.979C34.7942 202.915 32.9093 202.151 31.6357 202.304Z" fill="#F2F2F2"/>
<path d="M182.683 202.304C181.817 202.304 180.951 202.406 180.085 202.304C179.117 202.202 178.404 201.54 178.455 200.572C178.506 199.502 179.525 199.808 180.238 199.757C181.409 199.706 182.581 199.757 183.753 199.757C184.466 199.757 185.128 199.91 185.536 200.521C185.791 200.928 186.198 201.336 185.994 201.845C185.791 202.457 185.179 202.304 184.721 202.304C184.058 202.355 183.345 202.304 182.683 202.304Z" fill="#F1F1F1"/>
<path d="M145.444 202.253C144.578 202.253 143.712 202.304 142.846 202.253C141.979 202.151 141.572 201.54 141.623 200.674C141.674 199.859 142.285 199.757 142.947 199.757C144.374 199.757 145.8 199.757 147.176 199.757C148.195 199.757 148.857 200.164 148.908 201.234C149.01 202.559 147.991 202.304 147.227 202.304C146.615 202.355 146.004 202.304 145.393 202.304C145.444 202.304 145.444 202.304 145.444 202.253Z" fill="#F2F2F2"/>
<path d="M119.157 205.666C118.291 205.666 117.425 205.666 116.559 205.666C115.896 205.666 115.489 205.411 115.489 204.698C115.489 204.036 115.591 203.527 116.406 203.374C118.189 203.068 119.972 203.017 121.755 203.221C122.519 203.323 122.977 203.73 122.927 204.596C122.876 205.513 122.315 205.717 121.551 205.666C120.736 205.717 119.972 205.717 119.157 205.666C119.157 205.717 119.157 205.666 119.157 205.666Z" fill="#F2F2F2"/>
<path d="M92.0038 205.717C91.1887 205.717 90.4245 205.717 89.6094 205.717C89.0491 205.717 88.4377 205.717 88.4377 204.902C88.4377 204.24 88.6415 203.629 89.3547 203.476C91.2396 203.068 93.1245 203.017 95.0604 203.272C95.6717 203.374 96.1302 203.578 95.9774 204.342C95.8245 204.953 95.8245 205.615 94.9585 205.666C93.9906 205.666 92.9717 205.666 92.0038 205.717C92.0038 205.666 92.0038 205.666 92.0038 205.717Z" fill="#F2F2F2"/>
<path d="M83.9548 202.355C83.3435 202.355 82.7322 202.406 82.1209 202.355C81.5605 202.304 80.7454 202.508 80.6945 201.591C80.6435 200.827 81.0001 200.062 81.8152 199.91C83.6492 199.604 85.4831 199.655 87.3171 199.859C87.8775 199.91 88.0813 200.47 87.9794 200.979C87.8775 201.591 87.6228 202.202 86.8586 202.253C85.8907 202.304 84.8718 202.253 83.9039 202.253C83.9548 202.304 83.9548 202.304 83.9548 202.355Z" fill="#F2F2F2"/>
<path d="M127.97 202.304C127.155 202.304 126.34 202.304 125.576 202.304C124.709 202.304 124.404 201.794 124.404 200.979C124.404 200.164 124.709 199.706 125.626 199.706C127.155 199.706 128.734 199.706 130.262 199.706C131.179 199.706 131.536 200.266 131.536 201.132C131.536 202.049 130.976 202.253 130.211 202.253C129.447 202.304 128.683 202.304 127.97 202.304Z" fill="#F2F2F2"/>
<path d="M199.953 202.355C198.832 202.202 197.253 202.864 196.234 201.438C195.928 201.031 195.521 200.674 195.775 200.164C195.979 199.706 196.489 199.757 196.947 199.757C198.374 199.757 199.749 199.757 201.175 199.757C201.838 199.757 202.347 200.012 202.806 200.521C203.162 200.929 203.723 201.285 203.519 201.897C203.264 202.559 202.602 202.304 202.041 202.355C201.379 202.355 200.768 202.355 199.953 202.355Z" fill="#F2F2F2"/>
<path d="M64.8507 205.717C64.1884 205.717 63.4752 205.768 62.813 205.717C62.3035 205.666 61.4884 205.972 61.4375 205.208C61.4375 204.444 61.6922 203.527 62.7111 203.476C64.3413 203.323 66.0224 203.017 67.7035 203.221C68.2639 203.323 69.2828 203.119 69.13 204.189C69.0281 205.004 68.6205 205.717 67.6017 205.768C66.7356 205.666 65.7677 205.666 64.8507 205.717C64.8507 205.666 64.8507 205.717 64.8507 205.717Z" fill="#F3F3F3"/>
<path d="M164.191 205.666C163.274 205.666 162.357 205.717 161.44 205.666C160.472 205.615 160.268 204.851 160.217 204.087C160.166 203.272 160.879 203.374 161.389 203.272C162.968 203.017 164.547 203.017 166.178 203.272C167.196 203.425 167.808 204.036 167.808 204.953C167.757 206.074 166.738 205.615 166.076 205.666C165.464 205.768 164.853 205.717 164.191 205.666C164.191 205.717 164.191 205.666 164.191 205.666Z" fill="#F3F3F3"/>
<path d="M110.038 205.717C109.223 205.717 108.408 205.717 107.643 205.717C107.083 205.717 106.421 205.768 106.472 204.902C106.523 204.24 106.523 203.527 107.44 203.374C109.223 203.119 111.006 202.966 112.789 203.272C113.604 203.425 114.011 203.832 113.91 204.647C113.859 205.462 113.298 205.666 112.585 205.666C111.77 205.717 110.904 205.717 110.038 205.717Z" fill="#F2F2F2"/>
<path d="M101.021 205.717C100.205 205.717 99.4413 205.717 98.6262 205.717C98.0658 205.717 97.4036 205.717 97.4036 204.953C97.4036 204.24 97.5564 203.527 98.4224 203.425C100.256 203.272 102.09 202.864 103.924 203.272C104.485 203.425 105.045 203.578 104.994 204.291C104.943 205.055 104.688 205.615 103.822 205.666C102.905 205.717 101.988 205.666 101.021 205.717C101.021 205.666 101.021 205.717 101.021 205.717Z" fill="#F3F3F3"/>
<path d="M57.5661 202.304C56.9548 202.304 56.3434 202.355 55.7321 202.304C55.2227 202.253 54.5095 202.508 54.3566 201.794C54.2038 201.183 54.7642 200.827 55.1208 200.419C55.9359 199.502 57.0566 199.808 58.0246 199.757C58.7378 199.706 59.5019 199.706 60.2151 199.757C60.8774 199.808 61.8963 199.4 61.9472 200.521C61.9981 201.438 61.234 202.1 60.317 202.253C59.4 202.355 58.4831 202.304 57.5661 202.304Z" fill="#F2F2F2"/>
<path d="M110.445 202.304C109.732 202.304 108.968 202.304 108.255 202.304C107.491 202.304 106.93 202.1 106.981 201.183C106.981 200.419 107.236 199.808 108.102 199.757C109.783 199.706 111.413 199.706 113.094 199.757C113.859 199.757 114.113 200.317 114.113 201.03C114.113 201.845 113.757 202.304 112.891 202.304C112.025 202.304 111.26 202.304 110.445 202.304Z" fill="#F2F2F2"/>
<path d="M46.7151 205.717C46.1547 205.717 45.5944 205.768 45.034 205.717C44.4227 205.615 43.4038 206.074 43.3528 205.208C43.3019 204.393 43.9642 203.578 44.9321 203.425C46.5113 203.17 48.0906 202.966 49.7208 203.221C50.2811 203.323 51.351 203.068 51.2491 204.087C51.1981 204.851 50.6378 205.615 49.6698 205.666C48.7019 205.717 47.734 205.666 46.7151 205.717C46.7151 205.666 46.7151 205.717 46.7151 205.717Z" fill="#F3F3F3"/>
<path d="M137.191 205.666C136.324 205.666 135.458 205.666 134.592 205.666C133.777 205.666 133.319 205.31 133.319 204.444C133.319 203.629 133.726 203.425 134.44 203.323C136.172 203.17 137.853 202.915 139.585 203.272C140.4 203.425 140.757 203.832 140.757 204.647C140.757 205.615 140.043 205.666 139.381 205.666C138.668 205.717 137.904 205.717 137.191 205.666C137.191 205.717 137.191 205.666 137.191 205.666Z" fill="#F2F2F2"/>
<path d="M146.259 205.666C145.392 205.666 144.526 205.666 143.66 205.666C142.743 205.666 142.285 205.157 142.285 204.291C142.285 203.374 142.947 203.374 143.558 203.323C145.036 203.221 146.513 202.966 147.991 203.17C149.009 203.323 149.875 203.73 149.774 204.902C149.672 206.227 148.551 205.564 147.889 205.666C147.379 205.768 146.819 205.717 146.259 205.666C146.259 205.717 146.259 205.717 146.259 205.666Z" fill="#F4F4F4"/>
<path d="M128.123 205.666C127.206 205.666 126.289 205.666 125.372 205.666C124.659 205.666 124.455 205.208 124.455 204.545C124.455 203.934 124.608 203.476 125.321 203.374C127.053 203.221 128.734 202.915 130.466 203.221C131.383 203.374 131.944 203.781 131.893 204.8C131.791 205.819 131.027 205.666 130.364 205.666C129.6 205.717 128.836 205.717 128.123 205.666C128.123 205.717 128.123 205.666 128.123 205.666Z" fill="#F4F4F4"/>
<path d="M193.636 205.666C192.668 205.666 191.649 205.666 190.681 205.666C189.662 205.615 189.306 204.8 189.255 204.036C189.204 203.017 190.172 203.17 190.783 203.17C192.311 203.17 193.84 203.323 195.419 203.425C196.03 203.476 196.438 203.883 196.744 204.342C197.304 205.157 197.355 205.717 196.132 205.717C195.266 205.717 194.451 205.717 193.636 205.666Z" fill="#F4F4F4"/>
<path d="M184.619 205.666C183.651 205.666 182.632 205.717 181.664 205.666C180.747 205.615 180.339 204.953 180.238 204.189C180.085 203.119 181.104 203.221 181.664 203.221C183.243 203.221 184.873 203.272 186.453 203.425C187.472 203.527 188.032 204.393 188.032 205.208C187.981 205.972 187.013 205.615 186.453 205.666C185.841 205.768 185.23 205.717 184.619 205.666C184.619 205.717 184.619 205.666 184.619 205.666Z" fill="#F4F4F4"/>
<path d="M206.321 205.666C204.028 205.666 201.94 205.717 199.851 205.666C198.781 205.615 198.068 204.8 198.119 203.883C198.17 203.017 199.24 203.17 199.953 203.17C201.278 203.221 202.653 203.323 203.978 203.425C205.302 203.425 205.761 204.342 206.321 205.666Z" fill="#F2F2F2"/>
<path d="M175.551 205.666C174.583 205.666 173.564 205.717 172.596 205.666C171.628 205.615 171.221 204.749 171.17 203.985C171.068 203.119 172.087 203.272 172.596 203.272C174.226 203.221 175.907 203.323 177.538 203.425C178.556 203.476 178.913 204.342 178.862 205.106C178.811 206.023 177.945 205.615 177.385 205.717C176.773 205.768 176.162 205.717 175.551 205.717C175.551 205.666 175.551 205.666 175.551 205.666Z" fill="#F4F4F4"/>
<path d="M92.9718 223.445C83.802 223.445 74.6831 223.445 65.5133 223.445C63.3227 223.445 63.5265 223.445 64.2397 221.459C65.5133 218.147 67.7039 217.383 71.1171 217.434C87.5718 217.638 104.027 217.536 120.481 217.536C122.927 217.536 122.927 217.536 122.927 219.981C122.927 220.491 122.876 221 122.927 221.459C123.079 222.936 122.366 223.496 120.991 223.445C117.883 223.445 114.827 223.445 111.719 223.445C105.453 223.445 99.2378 223.445 92.9718 223.445Z" fill="#F4F4F4"/>
<path d="M95.8752 122.323C95.8752 109.587 95.8752 96.8001 95.8242 84.0643C95.8242 82.3322 96.3846 81.7718 98.0657 81.8737C99.3393 81.9756 100.664 81.8737 101.988 81.9247C102.956 81.9247 103.924 81.7209 104.637 82.7398C104.943 83.1982 105.656 83.0454 106.217 83.0454C113.349 83.0454 120.481 83.1982 127.562 82.9435C129.753 82.8416 131.943 81.7718 134.286 81.8737C136.12 81.9247 136.732 82.3831 136.732 84.2681C136.63 93.9473 136.681 103.576 136.681 113.255C136.681 114.121 136.528 114.987 136.986 115.802C137.037 117.025 137.088 118.247 137.139 119.47C137.394 120.234 137.954 121.049 136.936 121.711C133.268 121.151 129.549 120.591 125.881 119.979C123.639 119.623 122.875 120.132 122.468 122.374C121.653 123.291 120.532 122.985 119.513 122.985C116.151 122.832 112.788 123.087 109.426 123.036C108.56 123.036 107.694 123.036 106.93 122.527C103.313 122.425 99.594 122.374 95.8752 122.323Z" fill="#FDFDFD"/>
<path d="M122.621 123.189C126.136 124.412 129.651 125.736 133.217 126.806C134.643 127.213 135.611 127.774 135.968 129.302C136.121 130.066 136.732 130.678 137.089 131.391C138.056 133.785 137.7 136.23 137.394 138.676C137.241 139.796 136.121 139.847 135.204 139.287C126.645 139.287 118.087 139.287 109.426 139.287C109.579 138.115 110.343 138.064 110.802 137.759C112.126 136.995 113.094 136.129 112.89 134.396C112.738 133.276 113.655 133.123 114.419 132.868C115.081 132.359 115.845 132.461 116.558 132.461C120.379 132.461 124.2 132.461 128.021 132.461C124.404 132.461 120.736 132.461 117.119 132.461C116.456 132.461 115.743 132.715 115.234 132.053C115.132 129.353 114.826 128.996 112.024 129.098C107.694 129.2 103.415 129.455 99.0848 129.506C98.3206 129.506 96.8433 130.117 96.8433 128.844C96.8433 127.876 97.6583 126.653 99.0338 126.5C100.97 126.296 102.956 125.991 104.892 125.889C106.421 125.787 107.287 125.125 107.439 123.546C107.643 122.883 108.204 122.781 108.764 122.781C113.043 122.781 117.323 122.679 121.602 122.781C122.009 122.832 122.315 122.934 122.621 123.189Z" fill="#FDFDFD"/>
<path d="M141.215 142.038C139.738 143.566 137.904 143.974 135.815 143.974C126.747 143.923 117.628 143.923 108.561 143.923C107.644 143.923 106.676 143.974 105.81 143.617C106.472 143.057 107.185 142.649 108.051 142.445C108.611 142.14 109.172 141.783 109.274 141.172C109.477 139.745 110.394 139.695 111.566 139.695C118.902 139.745 126.238 139.695 133.574 139.695C134.083 139.695 134.542 139.745 135.051 139.695C137.089 139.542 137.191 139.44 137.191 137.402C137.191 137.3 137.191 137.147 137.191 137.045C137.242 136.587 136.936 135.976 137.598 135.772C138.362 135.517 138.413 136.332 138.719 136.74C139.636 137.759 139.687 139.083 140.044 140.255C140.451 140.815 140.859 141.427 141.215 142.038Z" fill="#2E4D48"/>
<path d="M140.095 140.204C139.432 138.778 139.127 137.198 137.853 136.027C137.14 136.485 137.395 137.198 137.446 137.708C137.547 139.338 136.834 139.847 135.255 139.847C127.715 139.796 120.176 139.847 112.636 139.796C111.21 139.796 109.732 139.593 109.325 141.58C109.223 142.089 108.663 142.446 108 142.446C108.408 141.732 109.121 141.172 109.274 140.255C109.478 139.083 110.446 139.389 111.21 139.389C118.596 139.389 125.932 139.389 133.319 139.389C133.93 139.389 134.542 139.338 135.153 139.287C136.478 139.491 137.038 138.981 136.987 137.606C136.936 135.568 137.038 133.48 137.038 131.442C137.802 131.544 138.006 132.155 138.006 132.817C137.955 134.6 138.566 136.18 139.534 137.657C140.095 138.37 140.196 139.287 140.095 140.204Z" fill="#2E4D48"/>
<path d="M64.6983 134.295C60.9794 133.072 57.2096 133.53 53.3379 133.785C55.7322 131.289 61.4888 131.493 64.6983 134.295Z" fill="#D7996D"/>
<path d="M115.183 132.053C120.634 132.053 126.085 132.053 131.536 132.053C131.536 132.308 131.536 132.562 131.536 132.868C125.83 132.868 120.125 132.868 114.419 132.868C114.674 132.562 114.928 132.308 115.183 132.053Z" fill="#C3C2C1"/>
<path d="M122.621 123.189C118.342 123.189 114.062 123.24 109.783 123.24C108.968 123.24 108.204 123.138 107.44 123.545C107.287 123.189 107.134 122.832 106.981 122.476C112.177 122.425 117.323 122.425 122.519 122.374C122.57 122.628 122.621 122.883 122.621 123.189Z" fill="#C3C2C2"/>
<path d="M109.223 53.2436C109.325 53.1417 109.477 52.887 109.579 52.887C113.247 53.6511 116.864 53.4983 120.532 52.9889C120.736 52.9889 120.94 53.1926 121.143 53.2945C117.934 55.8926 112.177 55.8417 109.223 53.2436Z" fill="#F9F3EE"/>
<path d="M154.919 123.851C155.479 123.444 155.989 122.934 156.753 122.832C160.064 125.176 162.713 128.181 165.209 131.34C165.922 132.257 166.483 132.512 167.655 132.002C173.717 129.506 178.913 130.678 183.09 135.313C183.498 135.772 183.956 136.23 184.058 137.096C182.581 136.129 181.409 134.957 180.034 134.142C176.57 132.053 172.851 132.053 169.285 133.123C166.177 134.04 164.394 132.613 162.815 130.678C160.573 127.876 158.23 125.278 154.919 123.851Z" fill="#D5986D"/>
<path d="M136.987 121.711C137.038 120.947 137.14 120.234 137.191 119.47C137.853 120.03 138.464 120.591 139.126 121.202C139.381 121.457 139.738 121.762 139.534 122.119C139.33 122.527 138.872 122.323 138.566 122.272C137.955 122.17 137.394 122.17 136.987 121.711Z" fill="#2E4D48"/>
<path d="M117.068 77.0851C120.583 77.0851 124.098 77.0851 127.613 77.0851C128.225 77.0851 129.142 76.8813 129.142 77.9002C129.142 78.8172 128.377 78.9191 127.664 78.9191C120.583 78.9191 113.502 78.9191 106.421 78.9191C105.657 78.9191 104.791 78.8681 104.892 77.8493C104.994 76.8304 105.911 77.1361 106.523 77.1361C109.987 77.0851 113.502 77.0851 117.068 77.0851Z" fill="#F4F5F4"/>
<path d="M100.664 98.6342C99.9511 98.889 100.053 99.6531 99.6964 100.163C99.136 99.6531 98.5756 99.1946 98.0152 98.7361C97.5567 98.3286 97.2001 97.8701 97.5058 97.3097C98.5756 95.0682 97.9134 92.6739 98.0662 90.3305C98.1681 88.904 98.0662 87.4776 98.0662 86.0512C98.0662 85.4399 97.9643 84.7267 98.8303 84.5739C99.4926 84.472 100.002 84.5739 100.359 85.2871C100.868 86.4078 101.225 86.3059 102.142 85.338C103.161 84.2173 104.893 83.8097 106.421 83.8097C113.349 83.8606 120.278 83.6569 127.206 83.8607C129.447 83.9116 131.536 84.7776 133.778 84.5229C135.204 84.3701 135.255 85.4908 135.255 86.5607C135.255 92.0116 135.255 97.4625 135.255 102.913C135.255 106.581 135.255 110.198 135.255 113.866C135.255 114.936 135.611 116.413 134.134 116.617C132.861 116.77 131.332 116.668 130.823 114.936C132.3 114.63 132.759 113.459 132.861 112.185C133.013 110.657 131.994 109.791 130.415 109.995C129.753 110.097 129.04 110.097 128.378 110.097C121.144 110.097 113.91 110.097 106.676 110.097C105.861 110.097 105.096 109.995 104.281 110.351C103.925 110.504 103.415 110.912 103.211 110.249C103.059 109.791 103.415 109.434 103.823 109.18C104.383 108.874 105.045 108.976 105.657 108.976C113.655 108.976 121.602 108.976 129.6 108.976C130.364 108.976 131.23 109.18 131.893 108.568C131.689 108.364 131.689 108.11 131.893 107.906C131.23 107.244 130.364 107.498 129.6 107.498C121.398 107.498 113.145 107.498 104.944 107.498C104.434 107.498 103.976 107.498 103.466 107.498C102.294 107.498 101.53 107.04 101.53 105.766C101.53 104.493 102.294 104.136 103.466 104.136C109.783 104.187 116.1 104.136 122.366 104.136C124.913 104.136 127.461 104.136 129.957 104.136C130.619 104.136 131.332 104.289 131.893 103.78C132.708 103.678 133.064 103.168 132.962 102.353C132.861 101.589 132.198 101.997 131.791 101.793C130.364 101.181 128.989 101.946 127.613 101.946C120.328 101.895 113.044 101.895 105.759 101.895C105.657 101.895 105.504 101.895 105.402 101.895C104.332 101.793 102.6 101.946 102.6 100.825C102.6 99.6531 104.281 99.2965 105.555 99.2965C113.196 99.2965 120.889 99.2965 128.53 99.2456C129.651 99.2456 130.874 99.6022 131.944 98.889C131.23 98.3795 130.415 98.5324 129.6 98.5324C119.921 98.6342 110.293 98.6342 100.664 98.6342Z" fill="#FDFDFD"/>
<path d="M130.721 114.987C129.396 115.344 128.021 115.395 127.053 116.77C126.391 117.738 125.117 116.923 124.404 116.362C122.774 115.191 121.398 114.783 119.819 116.362C119.055 117.127 118.189 116.261 117.323 116.312C113.757 116.413 110.14 116.413 106.574 116.464C105.249 116.464 103.975 116.21 102.804 115.649C102.294 115.395 101.785 114.987 101.938 114.376C102.091 113.764 102.753 113.866 103.211 113.866C111.872 113.866 120.532 113.866 129.192 113.866C130.008 113.866 130.772 113.917 130.721 114.987Z" fill="#FDFDFD"/>
<path d="M116.202 121.457C113.859 121.966 111.413 121.915 109.274 121.304C107.083 120.693 104.944 120.744 102.804 120.489C102.091 120.387 102.142 119.878 102.396 119.368C102.651 118.859 103.161 118.604 103.619 118.808C107.542 120.489 111.515 118.604 115.489 119.114C116.406 119.215 117.272 119.215 117.323 120.438C117.374 121.202 117.17 121.763 116.202 121.457Z" fill="#FDFDFD"/>
<path d="M131.841 108.008C131.841 108.212 131.841 108.466 131.841 108.67C121.551 108.67 111.311 108.67 101.021 108.67C101.071 107.855 101.53 107.957 101.836 107.957C111.821 107.957 121.856 107.957 131.841 108.008Z" fill="#C0C0C0"/>
<path d="M131.536 118.247C121.398 118.247 111.21 118.247 101.072 118.247C101.072 118.095 101.072 117.993 101.072 117.84C111.21 117.84 121.398 117.84 131.536 117.84C131.536 117.993 131.536 118.095 131.536 118.247Z" fill="#C0C0C0"/>
<path d="M100.664 98.6342C101.225 98.1248 101.938 98.2776 102.6 98.2776C111.719 98.2776 120.838 98.2776 130.008 98.2776C130.67 98.2776 131.536 97.9719 131.842 98.9908C121.908 99.0418 111.974 99.0417 102.04 99.0927C101.53 99.0927 101.021 99.0418 100.664 98.6342Z" fill="#C3C3C3"/>
<path d="M131.841 103.83C121.551 103.83 111.26 103.83 100.868 103.83C101.275 102.862 101.887 103.117 102.396 103.117C111.668 103.117 120.94 103.117 130.211 103.117C130.823 103.117 131.638 102.862 131.841 103.83Z" fill="#C1C1C1"/>
<path d="M101.072 112.898C111.21 112.898 121.347 112.898 131.485 112.898C131.485 113.051 131.485 113.153 131.485 113.306C121.347 113.306 111.21 113.306 101.072 113.306C101.072 113.153 101.072 113.051 101.072 112.898Z" fill="#C0C0C0"/>
<path d="M121.347 119.317C121.245 119.827 120.991 120.081 120.583 120.081C120.074 120.081 119.819 119.674 119.819 119.215C119.819 118.757 120.277 118.706 120.634 118.757C121.092 118.757 121.296 119.011 121.347 119.317Z" fill="#FDFDFD"/>
<path d="M131.638 127.621C130.975 128.283 130.262 128.028 129.6 128.028C121.5 128.028 113.4 128.028 105.3 128.028C104.179 128.028 103.058 128.181 101.989 128.232C101.53 128.232 100.97 128.232 100.97 127.723C100.919 127.06 101.581 127.213 101.938 127.213C103.568 127.162 105.147 127.213 106.777 127.213C114.521 127.213 122.264 127.213 129.957 127.213C130.466 127.264 131.077 127.06 131.638 127.621Z" fill="#C4C4C3"/>
<path d="M131.536 89.2605C121.347 89.2605 111.209 89.2605 101.021 89.2605C101.021 89.1587 101.021 89.0058 101.021 88.9039C111.209 88.9039 121.347 88.9039 131.536 88.9039C131.536 89.0058 131.536 89.1077 131.536 89.2605Z" fill="#C1C1C1"/>
<path d="M101.021 93.5907C111.209 93.5907 121.347 93.5907 131.536 93.5907C131.536 93.7435 131.536 93.8454 131.536 93.9982C121.347 93.9982 111.209 93.9982 101.021 93.9982C101.021 93.8454 101.021 93.7435 101.021 93.5907Z" fill="#C2C2C2"/>
<path d="M111.159 48.1492C110.802 47.7416 110.547 47.2322 110.344 46.6718C110.191 46.1624 110.14 45.4492 110.496 44.9398C110.802 44.4813 111.261 44.0737 111.617 43.6662C112.025 43.3096 112.381 42.902 112.738 42.4945C113.451 41.6794 113.91 40.7115 114.266 39.6926C114.47 39.1832 114.623 38.6737 114.776 38.1133C114.929 37.6039 115.03 37.0435 115.183 36.4832C115.132 37.6039 114.979 38.6737 114.674 39.7945C114.521 40.3549 114.317 40.8643 114.062 41.3737C113.808 41.8832 113.502 42.3416 113.146 42.8001C112.789 43.2586 112.381 43.6662 111.974 44.0228C111.566 44.3794 111.159 44.736 110.802 45.1435C110.496 45.5001 110.446 46.0605 110.547 46.5699C110.649 47.1303 110.904 47.6398 111.159 48.1492Z" fill="#DB915B"/>
</g>
<defs>
<clipPath id="clip0">
<rect width="229.5" height="230.57" fill="white" transform="translate(0 0.822754)"/>
</clipPath>
</defs>
</svg>
