<svg width="286" height="191" viewBox="0 0 286 191" fill="none" xmlns="http://www.w3.org/2000/svg">
<g clip-path="url(#clip0)">
<path d="M236.329 67.4023C236.329 67.4023 233.35 69.6505 233.35 72.6295V87.8652H255.566V71.9483C255.566 71.9483 255.256 68.0403 252.642 67.4023H236.329Z" fill="#F5F5F5"/>
<path d="M235.035 87.0353C234.84 85.4819 234.733 83.9187 234.713 82.3532C234.733 81.5788 234.994 80.8299 235.461 80.2114C235.927 79.5929 236.575 79.1356 237.314 78.9034C238.485 78.5814 239.711 79.0087 240.906 79.2069C242.864 79.5267 244.873 79.228 246.654 78.3522C248.159 77.6028 249.527 76.4385 251.193 76.2898C252.283 76.1846 253.547 76.6986 253.85 77.7515C253.952 78.2617 253.941 78.7879 253.819 79.2936C253.466 81.6471 253.925 84.5642 253.925 86.8186C247.731 87.1097 241.259 86.8991 235.035 87.0353Z" fill="#E0E0E0"/>
<path d="M231.945 90.0143L235.289 87.8652H255.56L258.818 90.0143H231.945Z" fill="#E0E0E0"/>
<path d="M231.319 40.4614V63.1415H258.818V90.0145H231.945V96.4618H278.308V40.4614C278.307 39.1812 277.797 37.9541 276.891 37.0494C275.986 36.1448 274.758 35.6367 273.478 35.6367H236.144C234.864 35.6367 233.637 36.145 232.732 37.0498C231.828 37.9546 231.319 39.1818 231.319 40.4614Z" fill="#F5F5F5"/>
<path d="M278.308 40.9814C278.308 41.0867 267.78 41.1796 254.811 41.1796C241.842 41.1796 231.319 41.0867 231.319 40.9814C231.319 40.8761 241.848 40.7832 254.811 40.7832C267.774 40.7832 278.308 40.8699 278.308 40.9814Z" fill="#E0E0E0"/>
<path d="M265.265 96.4616C265.154 96.4616 265.067 82.8795 265.067 66.1141C265.067 49.3487 265.154 35.7666 265.265 35.7666C265.377 35.7666 265.463 49.3487 265.463 66.1141C265.463 82.8795 265.377 96.4616 265.265 96.4616Z" fill="#E0E0E0"/>
<path d="M228.83 80.5138L228.551 73.6453C228.437 71.6656 228.96 69.7015 230.043 68.0403C230.929 66.7459 232.236 65.563 234.094 65.563H252.674V67.3777H234.466C234.466 67.3777 231.189 67.7183 230.75 72.2085C230.494 74.9627 230.494 77.7348 230.75 80.489L228.83 80.5138Z" fill="#E0E0E0"/>
<path d="M247.806 176.585H240.411V189.92H247.806V176.585Z" fill="#E0E0E0"/>
<path d="M280.489 176.585H273.094V189.92H280.489V176.585Z" fill="#E0E0E0"/>
<path d="M285.418 96.6538H224.16V176.592H285.418V96.6538Z" fill="#E0E0E0"/>
<path d="M272.604 96.6538H212.937V176.592H272.604V96.6538Z" fill="#F5F5F5"/>
<path d="M225.609 176.585H218.214V189.92H225.609V176.585Z" fill="#F5F5F5"/>
<path d="M268.133 176.585H260.738V189.92H268.133V176.585Z" fill="#F5F5F5"/>
<path d="M267.86 167.457C267.86 167.457 267.86 167.333 267.86 167.103C267.86 166.874 267.86 166.521 267.86 166.082C267.86 165.177 267.86 163.858 267.86 162.161C267.86 158.761 267.86 153.837 267.817 147.724L267.897 147.805L216.697 147.842L216.821 147.724C216.821 154.618 216.821 161.282 216.821 167.457L216.703 167.339L253.386 167.395L264.051 167.426H266.913H267.656H267.91H266.944H264.107L253.467 167.463L216.703 167.512H216.585V147.601H216.709L267.91 147.638H267.997V147.724C267.997 153.862 267.959 158.798 267.953 162.211C267.953 163.902 267.953 165.215 267.953 166.113C267.953 166.546 267.953 166.887 267.953 167.116C267.953 167.345 267.86 167.457 267.86 167.457Z" fill="#E0E0E0"/>
<path d="M243.805 157.59C243.805 157.59 243.805 157.448 243.712 157.219C243.613 156.9 243.413 156.622 243.143 156.426C242.946 156.285 242.718 156.194 242.478 156.161C242.239 156.129 241.994 156.156 241.768 156.24C241.576 156.314 241.402 156.428 241.258 156.575C241.113 156.722 241.002 156.898 240.931 157.091C240.861 157.284 240.832 157.49 240.848 157.695C240.863 157.901 240.922 158.1 241.021 158.28C241.12 158.461 241.256 158.618 241.421 158.741C241.586 158.865 241.775 158.952 241.976 158.996C242.177 159.04 242.385 159.041 242.586 158.998C242.787 158.956 242.977 158.871 243.143 158.749C243.413 158.553 243.613 158.275 243.712 157.956C243.78 157.727 243.78 157.584 243.805 157.59C243.843 157.716 243.843 157.849 243.805 157.974C243.738 158.335 243.542 158.658 243.254 158.885C243.038 159.055 242.782 159.168 242.51 159.214C242.238 159.259 241.96 159.236 241.699 159.145C241.384 159.027 241.113 158.815 240.921 158.539C240.729 158.262 240.626 157.933 240.626 157.597C240.626 157.26 240.729 156.931 240.921 156.655C241.113 156.378 241.384 156.166 241.699 156.048C241.96 155.958 242.238 155.934 242.51 155.98C242.782 156.025 243.038 156.138 243.254 156.308C243.541 156.536 243.736 156.859 243.805 157.219C243.839 157.34 243.839 157.469 243.805 157.59Z" fill="#E0E0E0"/>
<path d="M267.86 143.822C267.86 143.822 267.86 143.699 267.86 143.469C267.86 143.24 267.86 142.893 267.86 142.447C267.86 141.549 267.86 140.23 267.86 138.533C267.86 135.127 267.86 130.209 267.817 124.09L267.897 124.177L216.697 124.214L216.821 124.09C216.821 130.99 216.821 137.654 216.821 143.822L216.703 143.705L253.386 143.76L264.051 143.791H266.913H266.944H264.107L253.467 143.822L216.703 143.878H216.585V123.973H216.709L267.91 124.01H267.997V124.09C267.997 130.228 267.959 135.17 267.953 138.583C267.953 140.274 267.953 141.587 267.953 142.478C267.953 142.918 267.953 143.253 267.953 143.488C267.953 143.723 267.86 143.822 267.86 143.822Z" fill="#E0E0E0"/>
<path d="M243.805 133.956C243.805 133.956 243.805 133.82 243.712 133.591C243.614 133.271 243.414 132.993 243.143 132.798C242.947 132.656 242.719 132.564 242.479 132.53C242.239 132.497 241.995 132.523 241.768 132.606C241.493 132.71 241.257 132.894 241.09 133.135C240.923 133.377 240.834 133.663 240.834 133.956C240.834 134.249 240.923 134.536 241.09 134.777C241.257 135.018 241.493 135.203 241.768 135.306C241.994 135.391 242.239 135.418 242.478 135.385C242.718 135.353 242.946 135.262 243.143 135.121C243.413 134.922 243.613 134.642 243.712 134.322C243.78 134.092 243.78 133.956 243.805 133.956C243.843 134.084 243.843 134.219 243.805 134.346C243.736 134.706 243.541 135.029 243.254 135.257C243.038 135.427 242.782 135.54 242.51 135.586C242.238 135.631 241.96 135.608 241.699 135.517C241.384 135.399 241.113 135.187 240.921 134.911C240.729 134.634 240.626 134.305 240.626 133.969C240.626 133.632 240.729 133.303 240.921 133.027C241.113 132.75 241.384 132.538 241.699 132.42C241.959 132.328 242.238 132.303 242.51 132.349C242.782 132.394 243.038 132.509 243.254 132.68C243.54 132.906 243.736 133.227 243.805 133.585C243.84 133.706 243.84 133.835 243.805 133.956Z" fill="#E0E0E0"/>
<path d="M267.86 120.517C267.86 120.517 267.86 120.393 267.86 120.164C267.86 119.935 267.86 119.588 267.86 119.142C267.86 118.244 267.86 116.925 267.86 115.228C267.86 111.822 267.86 106.904 267.817 100.785L267.897 100.872L216.697 100.909L216.821 100.785C216.821 107.684 216.821 114.348 216.821 120.517L216.703 120.399L253.386 120.455L264.051 120.486H266.913H267.668H266.944H264.107H253.467L216.703 120.542H216.585V100.661H216.709L267.91 100.698H267.997V100.779C267.997 106.916 267.959 111.859 267.953 115.271C267.953 116.962 267.953 118.275 267.953 119.167C267.953 119.607 267.953 119.941 267.953 120.176C267.953 120.412 267.86 120.517 267.86 120.517Z" fill="#E0E0E0"/>
<path d="M243.805 110.645C243.805 110.645 243.805 110.509 243.712 110.28C243.614 109.96 243.414 109.682 243.143 109.487C242.947 109.344 242.719 109.252 242.479 109.22C242.239 109.187 241.994 109.215 241.768 109.301C241.493 109.403 241.255 109.587 241.088 109.828C240.921 110.069 240.831 110.355 240.831 110.648C240.831 110.942 240.921 111.228 241.088 111.469C241.255 111.709 241.493 111.893 241.768 111.995C241.994 112.08 242.239 112.107 242.478 112.074C242.718 112.042 242.946 111.951 243.143 111.81C243.415 111.613 243.615 111.332 243.712 111.011C243.78 110.781 243.78 110.645 243.805 110.645C243.843 110.773 243.843 110.908 243.805 111.035C243.736 111.395 243.541 111.718 243.254 111.946C243.038 112.116 242.782 112.229 242.51 112.275C242.238 112.32 241.96 112.296 241.699 112.206C241.384 112.088 241.113 111.876 240.921 111.599C240.729 111.323 240.626 110.994 240.626 110.658C240.626 110.321 240.729 109.992 240.921 109.716C241.113 109.439 241.384 109.227 241.699 109.109C241.959 109.017 242.238 108.992 242.51 109.038C242.782 109.083 243.038 109.197 243.254 109.369C243.54 109.595 243.736 109.916 243.805 110.274C243.84 110.395 243.84 110.524 243.805 110.645Z" fill="#E0E0E0"/>
<path d="M273.552 96.456C273.552 96.5799 262.404 96.679 248.617 96.679C234.831 96.679 223.689 96.5799 223.689 96.456C223.689 96.3322 234.837 96.2393 248.617 96.2393C262.398 96.2393 273.552 96.3631 273.552 96.456Z" fill="#E0E0E0"/>
<path d="M16.3412 51.021V65.8851H14.0063V67.5015H16.3412V77.4605H59.9549V68.4182H56.722V66.4425H59.9549V63.4821H61.3918V62.1319H59.6824V51.021H16.3412Z" fill="#F5F5F5"/>
<path d="M48.3672 51.0643V77.318H59.9488V68.2509H56.722V66.4425L59.9488 66.5044V63.544H61.4166L61.3856 62.0142L59.6825 61.9709V51.021L48.3672 51.0643Z" fill="#E0E0E0"/>
<path d="M49.197 67.3031C49.197 67.396 41.3066 67.4703 31.5707 67.4703C21.8347 67.4703 13.9443 67.396 13.9443 67.3031C13.9443 67.2102 21.8347 67.1421 31.5707 67.1421C41.3066 67.1421 49.197 67.2164 49.197 67.3031Z" fill="#E0E0E0"/>
<path d="M49.197 65.7919C49.197 65.8848 41.3066 65.9591 31.5707 65.9591C21.8347 65.9591 13.9443 65.8848 13.9443 65.7919C13.9443 65.699 21.8347 65.6309 31.5707 65.6309C41.3066 65.6309 49.197 65.699 49.197 65.7919Z" fill="#E0E0E0"/>
<path d="M51.4639 61.723C51.4639 61.8159 43.5674 61.8903 33.8376 61.8903C24.1078 61.8903 16.2236 61.8159 16.2236 61.723C16.2236 61.6301 24.114 61.562 33.8561 61.562C43.5983 61.562 51.4639 61.6301 51.4639 61.723Z" fill="#E0E0E0"/>
<path d="M51.6804 72.828C51.6804 72.9209 43.7838 72.9952 34.0541 72.9952C24.3243 72.9952 16.4277 72.9209 16.4277 72.828C16.4277 72.7351 24.3181 72.667 34.0541 72.667C43.79 72.667 51.6804 72.7227 51.6804 72.828Z" fill="#E0E0E0"/>
<path d="M225.825 51.1138C230.16 45.9423 232.668 44.5178 235.821 41.0124C238.472 38.052 241.172 35.0172 242.733 31.3569C244.293 27.6966 244.523 23.2312 242.324 19.9178C238.311 19.1072 234.253 18.5384 230.173 18.2146C224.989 17.9297 222.579 17.9731 222.579 17.9731L219.706 26.6438L224.896 28.7619L214.268 38.3802L205.876 48.141L210.075 60.249L215.723 60.7692L225.825 51.1138Z" fill="#FFBE9D"/>
<path d="M233.251 20.7598C232.83 21.2717 232.371 21.75 231.876 22.1904L228.469 25.5349C227.132 26.8417 225.905 28.0122 224.989 28.8235C224.517 29.2811 224.005 29.6957 223.459 30.0622C223.883 29.5551 224.342 29.0791 224.834 28.6377L228.24 25.2871C229.578 23.9803 230.804 22.8098 231.721 22.0046C232.194 21.5465 232.706 21.13 233.251 20.7598Z" fill="#EB996E"/>
<path d="M240.936 23.0514C240.893 23.0885 240.645 22.816 240.15 22.5249C239.512 22.1442 238.773 21.969 238.032 22.0233C237.292 22.1028 236.593 22.4027 236.025 22.8842C235.592 23.2558 235.406 23.5716 235.35 23.5468C235.294 23.5221 235.443 23.1629 235.87 22.7169C236.436 22.1324 237.193 21.7718 238.003 21.7012C238.814 21.6307 239.622 21.855 240.28 22.3329C240.775 22.6922 240.961 23.0328 240.936 23.0514Z" fill="#EB996E"/>
<path d="M222.034 22.0418C222.485 21.8885 222.901 21.6456 223.256 21.3278C223.611 21.0099 223.898 20.6237 224.099 20.1922C224.301 19.7607 224.414 19.2928 224.43 18.8167C224.447 18.3406 224.367 17.8661 224.196 17.4216C223.754 16.6388 223.238 15.9004 222.654 15.2168C222.366 14.7901 222.121 14.3358 221.923 13.8604L221.068 11.2344C220.492 9.02958 220.015 6.79997 218.3 5.40646C216.745 4.16779 214.584 3.95722 212.8 3.05918C211.493 2.40888 210.397 1.39316 209.115 0.693309C207.833 -0.00654161 206.192 -0.347178 204.947 0.420799C204.222 0.872915 203.708 1.65947 203.002 2.08682C201.485 3.00343 199.317 2.32216 197.93 3.41839C196.803 4.31642 196.691 5.98245 195.886 7.17158C195.007 8.4598 194.468 9.64891 193.068 10.3673C192.393 10.6956 191.826 11.2085 191.431 11.8466C191.036 12.4847 190.831 13.2217 190.838 13.9719C190.838 15.3468 190.64 15.9723 190.603 17.3473C190.468 18.376 190.144 19.3711 189.649 20.2829C189.253 21.1996 188.504 24.7793 189.321 25.3615L198.661 29.5668C201.615 32.4653 204.668 35.4381 208.496 36.9988L209.233 37.9898C208.353 38.1012 218.579 37.0793 220.288 30.9293C220.467 30.069 220.831 29.2576 221.353 28.5511C221.975 27.9147 222.518 27.2056 222.97 26.4391C223.303 25.7023 223.393 24.8781 223.224 24.0869C223.056 23.2957 222.639 22.5791 222.034 22.0418Z" fill="#263238"/>
<path d="M212.169 32.4036C214.153 30.1963 215.939 27.8193 217.508 25.2998C219.087 22.769 220.01 19.8849 220.196 16.9078C220.196 16.4618 220.053 13.3342 219.626 13.1917C219.316 13.0988 219.075 15.8549 218.814 16.0469C216.436 18.0163 214.709 20.6588 213.86 23.6276C212.979 26.4781 212.416 29.4171 212.181 32.3912" fill="#263238"/>
<path d="M193.7 51.4791C197.992 53.1389 206.644 45.8246 206.644 45.8246L216.746 22.0421C219.799 15.2294 218.393 7.79731 211.525 4.95456L210.905 4.7316C207.75 3.62456 204.293 3.74729 201.223 5.07532C198.154 6.40336 195.698 8.83918 194.344 11.8973C191.731 17.7934 188.919 24.346 187.817 27.6161C185.544 34.3854 191.917 37.798 191.917 37.798C191.917 37.798 191.328 39.3401 190.548 41.291C188.808 45.6636 191.966 50.9279 193.731 51.4791H193.7Z" fill="#FFBE9D"/>
<path d="M191.885 37.7979C195.003 38.8779 198.364 39.0412 201.572 38.2685C201.572 38.2685 197.72 42.4243 191.204 39.4639L191.885 37.7979Z" fill="#EB996E"/>
<path d="M214.448 26.8413C214.584 26.8413 219.564 27.0952 217.805 31.6536C216.046 36.2119 211.828 33.5116 211.871 33.3691C211.915 33.2267 214.448 26.8413 214.448 26.8413Z" fill="#FFBE9D"/>
<path d="M213.934 32.1801C213.934 32.1801 213.989 32.2668 214.101 32.3783C214.178 32.4553 214.27 32.5162 214.371 32.5577C214.472 32.5991 214.58 32.6202 214.689 32.6198C215.241 32.6198 215.928 32.0005 216.281 31.2077C216.444 30.8162 216.516 30.3926 216.492 29.9691C216.505 29.81 216.479 29.6501 216.417 29.5033C216.354 29.3565 216.256 29.2272 216.132 29.1268C216.05 29.0679 215.951 29.0394 215.85 29.0462C215.749 29.053 215.654 29.0946 215.581 29.1639C215.47 29.2692 215.463 29.3683 215.439 29.3683C215.414 29.3683 215.371 29.2568 215.476 29.0772C215.546 28.9758 215.649 28.9015 215.767 28.8667C215.847 28.8419 215.931 28.8336 216.014 28.8421C216.097 28.8506 216.177 28.8758 216.25 28.9162C216.42 29.0284 216.56 29.181 216.658 29.3603C216.755 29.5397 216.806 29.7403 216.807 29.9443C216.849 30.4134 216.774 30.8856 216.591 31.3192C216.207 32.2296 215.408 32.9047 214.677 32.8428C214.54 32.8308 214.408 32.7885 214.291 32.7188C214.173 32.6491 214.072 32.5539 213.996 32.4402C213.897 32.2916 213.915 32.1801 213.934 32.1801Z" fill="#EB996E"/>
<path d="M200.234 5.53638C199.658 4.84272 202.805 3.33154 204.935 3.23244C208.156 3.07142 212.627 3.96326 214.844 5.67263C217.532 7.73502 219.452 10.2433 219.886 13.6001C220.234 16.9875 219.678 20.4066 218.276 23.5095C217.932 24.4905 217.331 25.361 216.535 26.0302C215.501 26.7858 214.058 26.9345 213.538 28.3403C213.455 28.5982 213.322 28.8371 213.147 29.0433C212.971 29.2495 212.757 29.419 212.516 29.5419C211.339 30.0931 210.658 28.8606 210.509 27.8449C210.218 25.671 210.949 23.5095 211.667 21.4285C212.101 19.9273 212.777 18.5069 213.668 17.2233C214.188 16.5544 214.832 15.9846 215.315 15.2847C215.578 14.9505 215.766 14.5631 215.866 14.1494C215.965 13.7357 215.974 13.3053 215.891 12.8879C215.831 12.7086 215.757 12.5346 215.668 12.3677C215.255 11.5647 214.636 10.8862 213.874 10.4019C213.112 9.9175 212.235 9.64473 211.333 9.6116C208.416 9.50632 203.511 9.12233 202.718 7.80314C201.572 5.90797 201.479 4.93562 201.479 4.93562L200.234 5.53638Z" fill="#263238"/>
<path d="M214.869 4.96688C213.801 4.03153 212.558 3.31815 211.212 2.86835C209.866 2.41856 208.444 2.24135 207.028 2.34708C206.277 2.386 205.541 2.57673 204.865 2.90776C204.189 3.2388 203.587 3.70329 203.095 4.27322C202.185 5.46854 202.105 7.36991 203.188 8.39182L203.256 8.48471C204.935 9.90299 206.297 10.1445 208.496 10.2374C210.354 10.3241 212.212 9.89061 214.033 9.98351C216.013 10.0822 217.918 10.7726 219.502 11.9654C218.6 9.26549 217.002 6.85134 214.869 4.96688Z" fill="#263238"/>
<path d="M221.415 14.7524C221.194 15.1833 220.899 15.5713 220.542 15.8982C219.727 16.7393 218.771 17.431 217.718 17.942C216.667 18.4563 215.536 18.7852 214.373 18.9144C213.896 18.994 213.408 18.994 212.93 18.9144C216.189 18.6814 219.23 17.194 221.415 14.7648V14.7524Z" fill="#455A64"/>
<path d="M222.951 16.2387C222.92 16.4226 222.855 16.5991 222.759 16.759C222.543 17.2166 222.286 17.654 221.991 18.0658C221.02 19.4413 219.725 20.556 218.22 21.3111C216.708 22.0598 215.038 22.4296 213.352 22.3888C212.846 22.3725 212.343 22.3145 211.847 22.2153C211.661 22.1863 211.481 22.1277 211.314 22.0419C211.314 21.98 212.094 22.1534 213.358 22.1348C214.994 22.1166 216.605 21.7292 218.071 21.0014C219.524 20.2574 220.793 19.1997 221.787 17.9048C222.574 16.9324 222.902 16.2078 222.951 16.2387Z" fill="#455A64"/>
<path d="M162.826 66.6342L140.901 43.7188L136.188 51.1508L142.004 62.2617C142.004 62.2617 148.339 72.6418 151.603 76.2959C154.867 79.95 155.103 79.1634 155.103 79.1634L162.826 66.6342Z" fill="#FFBE9D"/>
<path d="M132.801 37.0918C132.727 37.0423 128.887 36.4725 127.357 36.2557C126.963 36.1956 126.562 36.2839 126.23 36.5035L123.926 38.0332L122.037 42.0403L122.6 42.4181L122.024 46.035C122.141 46.175 122.289 46.2851 122.457 46.3562C122.625 46.4274 122.807 46.4576 122.988 46.4442C123.17 46.4309 123.346 46.3745 123.501 46.2796C123.657 46.1848 123.787 46.0542 123.882 45.8988C124.529 45.0528 125.089 44.144 125.555 43.1861L128.032 43.1427L127.921 43.3719L125.363 44.0222L124.508 46.1961L125.27 48.4443L126.991 50.0174L127.735 49.9864L129.134 50.8287C129.134 50.8287 130.553 49.59 129.351 48.3514C129.351 48.3514 130.509 49.4909 131.147 49.045L136.35 51.4109L140.443 47.4595L141.552 44.3133C141.552 44.3133 135.03 37.9217 134.634 37.6183C134.051 37.3577 133.434 37.1805 132.801 37.0918Z" fill="#FFBE9D"/>
<path d="M129.375 48.3142C129.326 48.3142 129.375 47.9984 129.332 47.5277C129.248 46.9177 128.936 46.3622 128.459 45.9731L128.366 45.8988L128.273 45.8307L128.304 45.7192C128.484 45.1518 128.508 44.5462 128.372 43.9665C128.29 43.7254 128.224 43.4792 128.174 43.2295C128.205 43.2295 128.415 43.4339 128.583 43.9046C128.799 44.5225 128.809 45.1937 128.614 45.8183L128.552 45.6387L128.657 45.7192C128.928 45.934 129.149 46.2056 129.304 46.5147C129.459 46.8239 129.545 47.1633 129.555 47.5091C129.561 48.0541 129.406 48.3266 129.375 48.3142Z" fill="#EB996E"/>
<path d="M127.524 49.9866C127.719 49.7655 127.871 49.509 127.97 49.231C128.036 48.8839 128.021 48.5262 127.927 48.1857C127.832 47.8451 127.66 47.531 127.425 47.2677C127.288 47.0757 127.14 46.8961 126.997 46.7165L126.942 46.6484V46.5617C127.035 46.308 127.059 46.0338 127.01 45.7678C126.961 45.5019 126.841 45.2541 126.663 45.0505C126.39 44.7408 126.13 44.6479 126.149 44.6046C126.167 44.5612 126.446 44.6046 126.812 44.908C127.045 45.1298 127.21 45.4144 127.286 45.7275C127.362 46.0407 127.345 46.369 127.239 46.6732L127.208 46.5183C127.357 46.6917 127.505 46.8775 127.654 47.0757C127.919 47.4194 128.11 47.8135 128.217 48.2339C128.306 48.5891 128.284 48.9627 128.156 49.3053C127.951 49.9123 127.524 50.0238 127.524 49.9866Z" fill="#EB996E"/>
<path d="M128.273 45.8559C128.323 45.9302 128.094 46.1593 127.765 46.3637C127.437 46.5681 127.146 46.6796 127.09 46.5991C127.034 46.5186 127.27 46.2956 127.598 46.0912C127.926 45.8868 128.224 45.7815 128.273 45.8559Z" fill="#EB996E"/>
<path d="M129.097 48.6736C129.004 48.6736 128.868 48.2339 128.477 47.7942C128.087 47.3544 127.703 47.1253 127.734 47.0386C127.765 46.9519 128.31 47.0757 128.731 47.5898C129.152 48.1038 129.183 48.6736 129.097 48.6736Z" fill="#EB996E"/>
<path d="M130.695 48.6733C130.608 48.63 131.116 47.4842 131.314 45.9668C131.512 44.4495 131.314 43.217 131.401 43.2046C131.726 44.1025 131.808 45.0706 131.636 46.0102C131.562 46.9651 131.237 47.8836 130.695 48.6733Z" fill="#EB996E"/>
<path d="M125.399 39.8107C125.442 39.8107 125.399 40.0522 125.269 40.3991C125.105 40.8632 124.857 41.2934 124.538 41.6687C124.206 42.0564 123.748 42.3151 123.244 42.3995C122.847 42.4491 122.625 42.3314 122.625 42.2942C122.625 42.2571 122.86 42.2942 123.188 42.1766C123.617 42.0401 124 41.7896 124.297 41.4519C124.588 41.0965 124.844 40.7126 125.059 40.3062C125.226 40.0027 125.362 39.7921 125.399 39.8107Z" fill="#EB996E"/>
<path d="M128.13 42.6844C128.075 42.6163 128.205 42.4243 128.341 42.1951C128.477 41.966 128.595 41.7678 128.688 41.7864C128.781 41.8049 128.793 42.0836 128.62 42.3685C128.446 42.6534 128.18 42.7587 128.13 42.6844Z" fill="#EB996E"/>
<path d="M112.103 36.2493L112.164 45.6323C112.164 48.7847 124.861 48.6794 124.7 45.5455C124.7 45.3597 124.638 36.1626 124.638 36.1626L112.103 36.2493Z" fill="#455A64"/>
<path d="M124.328 37.8103C125.077 37.6895 125.84 37.6895 126.588 37.8103C127.142 37.8633 127.655 38.1272 128.019 38.5473C128.24 38.9231 128.357 39.3503 128.36 39.786C128.49 40.6046 128.407 41.4429 128.118 42.22C127.77 42.9056 127.181 43.439 126.465 43.7188C125.757 43.9924 124.997 44.1025 124.241 44.0408C124.241 43.5639 124.241 43.0871 124.241 42.6102C124.687 42.6329 125.133 42.6059 125.573 42.5296C126.018 42.4566 126.428 42.239 126.737 41.9103C127.17 41.3021 127.346 40.5477 127.226 39.8108C127.23 39.5172 127.148 39.229 126.991 38.9808C126.852 38.835 126.682 38.7225 126.493 38.6517C126.304 38.5809 126.102 38.5537 125.901 38.5721C125.37 38.5724 124.843 38.6776 124.353 38.8818" fill="#455A64"/>
<path d="M119.986 17.1183C119.911 17.1821 119.818 17.221 119.72 17.2298C119.577 17.236 119.434 17.2071 119.305 17.1455C119.175 17.084 119.063 16.9917 118.977 16.8767C118.841 16.7162 118.753 16.521 118.723 16.3131C118.703 16.1857 118.714 16.0555 118.753 15.9328C118.793 15.8102 118.861 15.6986 118.952 15.6071C119.177 15.3952 119.466 15.2644 119.773 15.2352C120.08 15.206 120.389 15.2803 120.649 15.4461C120.95 15.6606 121.183 15.958 121.318 16.3022C121.453 16.6464 121.485 17.0224 121.411 17.3846C121.242 18.187 120.854 18.9268 120.29 19.5213C119.698 20.1362 119.216 20.8485 118.865 21.6271C118.709 22.0435 118.671 22.4948 118.754 22.9316C118.837 23.3685 119.038 23.7742 119.336 24.1044C119.955 24.8042 120.785 25.2688 121.442 25.9624C121.781 26.3001 122.012 26.7314 122.104 27.2011C122.182 27.6567 122.106 28.1252 121.888 28.5327C121.472 29.2341 120.886 29.8197 120.185 30.2358C119.606 30.5897 119.079 31.021 118.618 31.5179C117.994 32.278 117.639 33.223 117.608 34.2058C117.611 34.568 117.634 34.9299 117.676 35.2896C117.632 35.204 117.6 35.1121 117.583 35.0171C117.521 34.7511 117.487 34.479 117.484 34.2058C117.464 33.1793 117.804 32.1781 118.444 31.3754C118.902 30.8467 119.436 30.3895 120.03 30.0191C120.685 29.6189 121.231 29.0638 121.621 28.4026C121.81 28.0521 121.873 27.6481 121.801 27.2568C121.717 26.8469 121.512 26.4715 121.213 26.1792C120.593 25.5598 119.757 25.0891 119.088 24.3212C118.757 23.9486 118.534 23.4932 118.441 23.0035C118.348 22.5138 118.39 22.0082 118.562 21.5403C118.931 20.7286 119.44 19.9884 120.067 19.3541C120.602 18.8028 120.974 18.115 121.144 17.366C121.217 17.0526 121.198 16.7248 121.088 16.4224C120.978 16.1201 120.782 15.8562 120.525 15.6628C120.307 15.5172 120.048 15.4469 119.786 15.4625C119.524 15.4782 119.275 15.579 119.076 15.7495C118.944 15.8954 118.87 16.0853 118.87 16.2822C118.87 16.4791 118.944 16.669 119.076 16.8148C119.144 16.9192 119.235 17.0065 119.343 17.0699C119.45 17.1332 119.571 17.171 119.695 17.1802C119.893 17.1554 119.974 17.0873 119.986 17.1183Z" fill="#263238"/>
<path d="M125.226 38.6338L130.181 38.3984L135.805 39.9963L142.822 45.9853C142.822 45.9853 137.465 49.9614 135.73 48.2273C133.996 46.4932 131.971 42.6533 131.971 42.6533L129.977 41.811C129.977 41.811 123.43 41.7924 125.226 38.6338Z" fill="#FFBE9D"/>
<path d="M139.595 43.223C139.495 43.1673 139.402 43.1009 139.316 43.0249L138.542 42.4055L135.755 40.0892H135.798L130.162 38.5223H130.181L125.226 38.7638L125.363 38.6833L125.319 38.7576C125.161 38.9858 125.076 39.257 125.076 39.5349C125.076 39.8127 125.161 40.084 125.319 40.3122C125.706 40.7234 126.203 41.0156 126.75 41.1545C127.8 41.4553 128.885 41.6136 129.977 41.6252H130.008L131.996 42.4798H132.039V42.5232C132.792 43.9693 133.634 45.3676 134.56 46.7099C134.894 47.1868 135.179 47.546 135.377 47.7876C135.491 47.9033 135.592 48.0298 135.681 48.1653C135.55 48.0705 135.43 47.9626 135.322 47.8433C135.008 47.5103 134.712 47.1609 134.436 46.7966C133.459 45.4769 132.579 44.088 131.804 42.6409L131.872 42.7028L129.871 41.8729H129.927C128.802 41.874 127.683 41.7177 126.601 41.4084C125.993 41.2535 125.443 40.9267 125.016 40.467C124.8 40.1971 124.69 39.8582 124.706 39.5132C124.733 39.1791 124.835 38.8553 125.003 38.5656L125.041 38.4789L125.084 38.4046H125.226L130.181 38.1816H130.231L135.842 39.8105L138.573 42.2073C138.864 42.4736 139.106 42.6966 139.304 42.87C139.502 43.0434 139.607 43.2107 139.595 43.223Z" fill="#EB996E"/>
<path d="M124.607 45.9354C124.607 45.9354 124.471 46.0531 124.186 46.2203C124.017 46.3216 123.841 46.4106 123.659 46.4866C123.422 46.6024 123.178 46.7038 122.928 46.7901C121.485 47.2982 119.962 47.5436 118.432 47.5147C116.905 47.5025 115.391 47.241 113.948 46.7406C113.513 46.5913 113.088 46.4112 112.678 46.2017C112.387 46.0531 112.232 45.9602 112.245 45.9354C112.257 45.9106 112.92 46.1955 114.016 46.5238C115.452 46.9502 116.94 47.1753 118.438 47.1927C119.933 47.2177 121.423 47.0087 122.854 46.5733C123.926 46.2327 124.557 45.8859 124.607 45.9354Z" fill="#263238"/>
<path d="M124.675 45.8552C124.504 44.2469 124.444 42.6286 124.496 41.012C124.433 39.3942 124.48 37.7739 124.638 36.1626C124.803 37.7714 124.863 39.3892 124.818 41.0058C124.874 42.6237 124.826 44.2434 124.675 45.8552Z" fill="#263238"/>
<path d="M118.457 35.5745C118.457 35.5745 118.413 35.5311 118.351 35.4196C118.277 35.2555 118.223 35.0829 118.19 34.9056C118.102 34.2402 118.233 33.5642 118.562 32.9794C119.066 32.1389 119.734 31.4081 120.525 30.8303C121.482 30.1757 122.248 29.2806 122.749 28.2353C122.969 27.7011 122.991 27.1058 122.811 26.5569C122.609 26.0502 122.293 25.5967 121.888 25.2315C121.126 24.5007 120.309 23.8628 119.956 23.0638C119.804 22.7592 119.732 22.4211 119.746 22.0811C119.76 21.7412 119.86 21.4102 120.036 21.1191C120.135 20.9665 120.269 20.8392 120.426 20.7475C120.538 20.6856 120.6 20.667 120.606 20.6794C120.424 20.8218 120.267 20.9934 120.141 21.1873C119.998 21.4614 119.922 21.7664 119.922 22.076C119.922 22.3856 119.998 22.6906 120.141 22.9648C120.494 23.6894 121.275 24.2716 122.08 25.021C122.523 25.413 122.869 25.9028 123.089 26.4516C123.3 27.0693 123.281 27.7426 123.034 28.3468C122.523 29.4431 121.724 30.3805 120.723 31.0595C119.949 31.6024 119.286 32.2901 118.773 33.0847C118.442 33.6277 118.284 34.2585 118.32 34.8932C118.358 35.3391 118.488 35.5621 118.457 35.5745Z" fill="#263238"/>
<path d="M36.9706 41.9719L24.8936 32.8491C24.8936 32.8491 30.1146 17.5205 28.0522 15.6191L9.52783 38.3798L27.7425 53.3615L36.9706 41.9719Z" fill="#FF725E"/>
<path d="M36.9706 41.9719L24.8936 32.8491C24.8936 32.8491 30.1146 17.5205 28.0522 15.6191L9.52783 38.3798L27.7425 53.3615L36.9706 41.9719Z" fill="#117BBC"/>
<path d="M20.1617 40.6902C19.9163 40.8544 19.6189 40.9225 19.3264 40.8813C19.034 40.8402 18.7669 40.6928 18.5762 40.4673C18.4026 40.2298 18.327 39.9346 18.3651 39.6429C18.4031 39.3512 18.5519 39.0854 18.7806 38.9004C19.0386 38.7196 19.3558 38.644 19.6676 38.6889C19.9794 38.7338 20.2624 38.8958 20.459 39.1419C20.6141 39.4094 20.6594 39.7267 20.5855 40.0269C20.5116 40.3272 20.3242 40.5872 20.0626 40.7522" fill="#E0E0E0"/>
<g opacity="0.6">
<path opacity="0.6" d="M9.52783 38.3798L11.423 39.8166L28.4795 17.4586C28.4795 17.4586 28.8635 16.0837 28.0584 15.6006L9.52783 38.3798Z" fill="white"/>
</g>
<path d="M25.3209 32.5703C25.2033 32.4836 24.7016 32.9976 23.8965 33.2516C23.0913 33.5055 22.3915 33.4188 22.3543 33.555C22.3172 33.6913 23.0913 34.0505 24.0575 33.7284C25.0237 33.4064 25.4386 32.6322 25.3209 32.5703Z" fill="#263238"/>
<path d="M26.2745 29.381C26.1878 29.2695 25.6056 29.5978 24.8315 29.5916C24.0573 29.5854 23.4689 29.2943 23.3822 29.4058C23.2955 29.5173 23.8653 30.0933 24.8315 30.0933C25.7976 30.0933 26.3798 29.4739 26.2745 29.381Z" fill="#263238"/>
<path d="M24.5221 25.7018C24.4168 25.7824 24.8441 26.3893 25.6864 26.5999C26.5287 26.8104 27.1914 26.4884 27.1357 26.3645C27.0799 26.2407 26.5163 26.3026 25.8103 26.1168C25.1043 25.931 24.6212 25.6027 24.5221 25.7018Z" fill="#263238"/>
<path d="M27.835 34.9615C27.6987 34.9243 27.4386 35.5808 26.8812 36.1506C26.3238 36.7204 25.7292 37.0734 25.7788 37.2097C25.8283 37.3459 26.6087 37.2097 27.2528 36.4912C27.8969 35.7728 27.9898 34.9739 27.835 34.9615Z" fill="#263238"/>
<path d="M42.898 33.1283L32.041 22.5995C32.041 22.5995 39.1386 8.02035 37.2806 5.87744L16.1055 26.1917L32.3259 43.2978L42.898 33.1283Z" fill="#4CA9EE"/>
<path d="M26.3737 29.7898C26.1098 29.9233 25.806 29.9548 25.5203 29.8782C25.2346 29.8017 24.9872 29.6224 24.8254 29.3748C24.6836 29.1164 24.6457 28.8137 24.7194 28.5283C24.793 28.2429 24.9727 27.9964 25.2218 27.8389C25.5007 27.6921 25.8251 27.6571 26.1288 27.7411C26.4326 27.8251 26.693 28.0217 26.8568 28.291C26.9741 28.579 26.975 28.9013 26.8595 29.1901C26.744 29.4788 26.521 29.7116 26.2375 29.8393" fill="#E0E0E0"/>
<g opacity="0.6">
<path opacity="0.6" d="M16.1055 26.1917L17.8086 27.8515L37.485 7.75401C37.485 7.75401 38.0362 6.44101 37.293 5.896L16.1055 26.1917Z" fill="white"/>
</g>
<path d="M32.4869 22.3702C32.3878 22.2711 31.8242 22.717 30.9942 22.8718C30.1643 23.0267 29.4831 22.8718 29.4273 22.9895C29.3716 23.1072 30.0962 23.5717 31.0933 23.3611C32.0905 23.1505 32.6045 22.4445 32.4869 22.3702Z" fill="#263238"/>
<path d="M33.8305 19.3228C33.7562 19.1989 33.1431 19.4529 32.3689 19.3228C31.5947 19.1927 31.0559 18.8521 30.9568 18.9574C30.8577 19.0627 31.3532 19.7068 32.3131 19.8183C33.2731 19.9298 33.9234 19.4219 33.8305 19.3228Z" fill="#263238"/>
<path d="M32.5421 15.4523C32.4244 15.5204 32.7775 16.1769 33.5888 16.4866C34.4001 16.7962 35.0938 16.5609 35.0566 16.4308C35.0195 16.3008 34.4373 16.2884 33.7684 16.022C33.0995 15.7557 32.6536 15.3656 32.5421 15.4523Z" fill="#263238"/>
<path d="M34.6977 25.0454C34.5614 24.9958 34.227 25.5904 33.6015 26.1106C32.9759 26.6309 32.3628 26.8848 32.3628 27.0273C32.3628 27.1697 33.1865 27.114 33.9111 26.4884C34.6358 25.8629 34.803 25.0763 34.6977 25.0454Z" fill="#263238"/>
<path d="M38.1599 27.7827C38.1599 27.7827 70.737 53.5162 76.8499 54.2779L83.7865 55.4051L97.7277 61.4065L140.765 84.068L154.261 93.4943L161.191 106.587L161.78 114.453C161.78 114.453 130.645 118.243 126.062 115.444C121.479 112.644 82.1948 83.3063 80.1571 81.0147C78.1195 78.7232 41.077 63.1902 26.312 37.7602L38.1599 27.7827Z" fill="#263238"/>
<path d="M21.3755 52.4513C21.3755 52.4513 45.0032 74.3944 61.5581 80.7611C71.8682 84.7753 81.8317 89.6286 91.3482 95.2722L119.113 110.39L154.781 94.2875L147.739 81.6592L89.8246 68.0338L31.0186 38.2251C31.0186 38.2251 21.6294 47.8682 21.3755 52.4513Z" fill="#263238"/>
<path d="M138.79 100.958C140.16 98.5511 142.179 96.5782 144.617 95.2641C147.055 93.95 149.813 93.3476 152.576 93.5257" fill="#263238"/>
<path d="M141.948 88.1001C142.434 89.6457 142.448 91.3009 141.988 92.8543C141.528 94.4077 140.615 95.7885 139.366 96.8203" fill="#263238"/>
<path d="M121.467 73.5703C121.697 73.6412 121.919 73.7368 122.129 73.8552C122.544 74.0596 123.139 74.363 123.87 74.7532C125.331 75.5274 127.32 76.6484 129.444 77.9676C131.568 79.2868 133.501 80.5502 134.851 81.504C135.526 81.9747 136.089 82.3649 136.436 82.6498C136.639 82.7803 136.826 82.9341 136.994 83.1081C136.774 83.0124 136.566 82.8919 136.374 82.7489L134.733 81.6898C133.346 80.7918 131.432 79.5593 129.283 78.2401C127.134 76.9209 125.17 75.7628 123.709 74.9514L122.018 73.9667C121.818 73.8581 121.633 73.7249 121.467 73.5703Z" fill="#455A64"/>
<path d="M127.704 114.726L127.425 114.552L126.626 114.007L123.529 111.883L112.282 104.036L95.6219 92.3615L85.7868 85.4559L80.5906 81.8018C78.844 80.5631 77.0356 79.3492 75.1652 78.1601C71.4182 75.8314 67.6526 73.7071 64.1534 71.4403C60.6541 69.1735 57.3407 66.9129 54.1882 64.7081C51.0358 62.5033 48.0878 60.4037 45.3627 58.3599C42.826 56.4689 40.3945 54.4407 38.0793 52.2842C34.7243 49.1632 31.6966 45.708 29.0432 41.9722C28.5725 41.3157 28.1699 40.7336 27.8045 40.1947C27.4391 39.6559 27.1852 39.2348 26.9498 38.8755C26.7145 38.5163 26.5596 38.2562 26.4358 38.0518C26.3119 37.8475 26.2686 37.7607 26.2686 37.7607C26.2686 37.7607 26.3429 37.8536 26.4605 38.0333L26.9994 38.8384C27.2347 39.1976 27.5258 39.6311 27.885 40.1452C28.2442 40.6592 28.6468 41.2476 29.1237 41.8979C31.8086 45.5949 34.852 49.0178 38.2094 52.117C40.53 54.2518 42.9611 56.2633 45.4928 58.1431C48.224 60.1745 51.2092 62.2555 54.3369 64.4665C57.4645 66.6776 60.7842 68.9319 64.2958 71.1739C67.8075 73.4159 71.5544 75.5527 75.3076 77.8876C77.1656 79.0581 79.0236 80.2844 80.7516 81.5417L85.9478 85.1957L95.7705 92.1137L112.387 103.85L123.579 111.784L126.613 113.952L127.394 114.521C127.501 114.583 127.604 114.652 127.704 114.726Z" fill="#455A64"/>
<path d="M190.38 41.3091C190.38 41.3091 179.04 47.4343 176.922 49.9798C174.953 52.358 153.003 74.3197 153.003 74.3197C153.003 74.3197 138.802 78.5436 139.378 79.7265C140.387 81.888 144.37 85.7713 146.5 87.7779C147.442 88.6529 148.297 89.6174 149.052 90.6578C150.848 93.1352 154.36 97.9846 157.258 102.029C159.766 105.733 161.315 110.002 161.767 114.453L171.782 108.947C176.891 106.884 179.678 101.298 185.296 98.4181L202.166 80.2592L207.307 69.7614L209.016 43.9289L206.582 44.1023L197.15 45.341C197.15 45.341 188.981 44.4491 190.38 41.3091Z" fill="#4CA9EE"/>
<path d="M199.46 48.1037L207.22 44.6726C209.178 42.7839 211.246 41.0136 213.414 39.3711C213.414 39.3711 203.733 51.4296 212.231 55.4738C220.728 59.5181 227.603 48.8593 227.603 48.8593C226.624 50.3753 225.722 51.9401 224.902 53.5477C223.911 55.6039 218.87 62.1627 218.87 62.1627C218.569 64.6168 217.503 66.9138 215.823 68.7277C212.924 72.0411 209.667 77.5284 207.078 78.9343C204.489 80.3402 198.704 82.9167 198.704 82.9167C197.53 76.6513 197.174 70.26 197.645 63.903C198.494 53.9689 199.46 48.1037 199.46 48.1037Z" fill="#4CA9EE"/>
<path d="M211.506 57.8213C211.27 57.6881 211.049 57.5281 210.85 57.3444C210.274 56.875 209.739 56.357 209.252 55.7961C208.515 54.9528 208.014 53.9291 207.802 52.8295C207.614 51.4787 207.697 50.104 208.044 48.7852C208.646 46.4084 209.663 44.1566 211.048 42.1335C211.562 41.3532 212.014 40.7462 212.336 40.3313C212.492 40.1071 212.67 39.8996 212.869 39.7119C212.752 39.9564 212.609 40.187 212.441 40.3994C212.15 40.8329 211.729 41.4584 211.24 42.2574C209.928 44.2875 208.956 46.5173 208.36 48.8595C208.022 50.1352 207.931 51.464 208.093 52.7737C208.284 53.8327 208.745 54.8246 209.431 55.6536C210.614 57.0719 211.556 57.7718 211.506 57.8213Z" fill="#263238"/>
<path d="M210.348 67.2039C210.253 67.2607 210.154 67.3083 210.05 67.3463C209.852 67.4268 209.555 67.5507 209.165 67.6931C208.058 68.0915 206.896 68.3131 205.721 68.3496C204.896 68.3598 204.081 68.1729 203.343 67.8046C202.493 67.3538 201.812 66.6386 201.404 65.767C200.525 63.9524 200.426 61.7104 200.612 59.4746C200.779 57.3504 201.218 55.2565 201.918 53.244C202.561 51.6259 203.392 50.0896 204.396 48.6671C205.232 47.4285 205.969 46.5056 206.483 45.8615C206.731 45.5704 206.929 45.3289 207.102 45.1307C207.276 44.9325 207.319 44.883 207.331 44.8892C207.282 44.9884 207.222 45.0818 207.152 45.1679L206.601 45.942C206.111 46.6047 205.405 47.5647 204.6 48.791C203.641 50.2155 202.847 51.7448 202.234 53.3493C201.562 55.3398 201.135 57.4052 200.965 59.4993C200.785 61.7104 200.884 63.909 201.708 65.637C202.081 66.4549 202.706 67.1321 203.492 67.5693C204.192 67.9268 204.966 68.1155 205.752 68.1205C206.906 68.1006 208.05 67.9171 209.152 67.5755L210.05 67.2844C210.146 67.246 210.246 67.219 210.348 67.2039Z" fill="#263238"/>
<path d="M207.208 44.3687C206.773 44.7659 206.316 45.1381 205.839 45.4835C204.745 46.3751 203.724 47.3527 202.786 48.4067C201.853 49.4662 201.004 50.5968 200.247 51.7883C199.962 52.3016 199.648 52.7979 199.305 53.2747C199.484 52.7097 199.736 52.1704 200.055 51.6706C200.756 50.4269 201.587 49.2603 202.532 48.19C203.482 47.1211 204.541 46.1538 205.691 45.3038C206.155 44.93 206.665 44.6158 207.208 44.3687Z" fill="#263238"/>
<g opacity="0.3">
<path opacity="0.3" d="M207.703 44.3687C202.625 49.3592 199.618 56.0839 199.287 63.1965C199.287 63.8158 199.454 64.6395 200.073 64.6519C200.261 64.6368 200.439 64.5581 200.576 64.4286C200.714 64.2991 200.803 64.1266 200.829 63.9397C200.85 63.5656 200.819 63.1903 200.736 62.8249C200.501 59.8459 201.151 56.328 202.185 53.1756C203.219 50.0232 205.74 47.0256 207.703 44.3687Z" fill="black"/>
</g>
<g opacity="0.3">
<path opacity="0.3" d="M212.094 40.4365C209.982 42.7962 208.006 45.3479 206.941 48.3269C205.876 51.3059 205.826 54.768 207.443 57.4869C207.889 58.2363 208.787 58.9919 209.542 58.5521C209.782 58.3707 209.955 58.1146 210.034 57.8242C210.112 57.5339 210.092 57.2256 209.976 56.948C209.727 56.3999 209.407 55.8875 209.022 55.4245C207.554 53.2878 207.505 50.4326 208.273 47.9553C209.041 45.4779 210.521 43.3041 211.989 41.1426" fill="black"/>
</g>
<g opacity="0.3">
<path opacity="0.3" d="M145.392 86.7378C149.005 89.0366 153.031 90.6101 157.246 91.3704C160.813 91.9278 164.449 91.3023 168.016 90.7511C177.306 89.2523 186.776 87.896 196.128 86.7626H145.392" fill="black"/>
</g>
<path d="M179.146 114.453C179.317 114.371 179.501 114.318 179.691 114.298C180.196 114.211 180.71 114.193 181.22 114.243C182.928 114.425 184.524 115.18 185.748 116.386C186.431 117.028 186.996 117.785 187.42 118.621C187.762 119.312 187.955 120.068 187.983 120.839C188.001 121.353 187.949 121.868 187.829 122.368C187.793 122.553 187.728 122.73 187.637 122.895C187.737 122.218 187.779 121.535 187.76 120.851C187.696 120.119 187.486 119.407 187.141 118.758C186.721 117.958 186.17 117.234 185.512 116.615C184.329 115.461 182.812 114.709 181.177 114.466C180.501 114.405 179.822 114.401 179.146 114.453Z" fill="#263238"/>
<path d="M181.406 114.459H122.47C118.936 114.459 116.072 117.324 116.072 120.857V121.941C116.072 125.474 118.936 128.339 122.47 128.339H181.406C184.939 128.339 187.803 125.474 187.803 121.941V120.857C187.803 117.324 184.939 114.459 181.406 114.459Z" fill="#455A64"/>
<path d="M225.606 55.4536L224.888 54.9781C222.55 53.4288 219.399 54.0682 217.85 56.4063L175.812 119.846C174.262 122.185 174.902 125.336 177.24 126.885L177.957 127.361C180.296 128.91 183.447 128.271 184.996 125.932L227.034 62.4924C228.583 60.1543 227.944 57.0029 225.606 55.4536Z" fill="#455A64"/>
<path d="M145.578 100.078C145.702 100.078 149.913 104.197 150.904 106.984C151.895 109.771 153.189 116.577 153.784 119.166C154.608 122.715 155.921 126.134 160.77 126.357L179.133 126.431C179.69 126.433 180.238 126.295 180.727 126.03C181.216 125.765 181.631 125.381 181.933 124.914L198.005 100.078H192.982L178.954 120.975H163.049C162.499 120.983 161.954 120.864 161.456 120.628C160.959 120.392 160.523 120.044 160.182 119.612C159.955 119.327 159.791 118.998 159.699 118.646C159.339 117.209 158.082 109.765 156.558 106.532C155.468 104.306 154.239 102.151 152.88 100.078H145.578Z" fill="#263238"/>
<path d="M162.319 123.706C162.32 123.931 162.254 124.15 162.13 124.338C162.006 124.525 161.829 124.671 161.622 124.758C161.414 124.844 161.186 124.867 160.966 124.824C160.745 124.78 160.543 124.672 160.384 124.513C160.225 124.355 160.117 124.152 160.073 123.932C160.03 123.711 160.053 123.483 160.139 123.275C160.226 123.068 160.372 122.891 160.559 122.767C160.747 122.643 160.967 122.577 161.191 122.579C161.49 122.579 161.777 122.697 161.988 122.909C162.2 123.12 162.319 123.407 162.319 123.706Z" fill="#455A64"/>
<path d="M180.081 123.706C180.082 123.931 180.017 124.15 179.893 124.338C179.769 124.525 179.592 124.671 179.384 124.758C179.177 124.844 178.949 124.867 178.728 124.824C178.508 124.78 178.305 124.672 178.146 124.513C177.988 124.355 177.879 124.152 177.836 123.932C177.792 123.711 177.815 123.483 177.902 123.275C177.988 123.068 178.135 122.891 178.322 122.767C178.509 122.643 178.729 122.577 178.954 122.579C179.252 122.58 179.538 122.7 179.749 122.911C179.96 123.122 180.08 123.407 180.081 123.706Z" fill="#455A64"/>
<path d="M201.286 96.6904H141.421C140.552 96.6904 139.848 97.3947 139.848 98.2636V98.5299C139.848 99.3987 140.552 100.103 141.421 100.103H201.286C202.155 100.103 202.859 99.3987 202.859 98.5299V98.2636C202.859 97.3947 202.155 96.6904 201.286 96.6904Z" fill="#263238"/>
<path d="M166.028 96.6841H165.867H165.409L163.613 96.7213L156.899 96.8018C154.032 96.8018 150.582 96.8575 146.686 96.8451H143.676C142.661 96.8451 141.546 96.6408 140.66 97.1672C140.447 97.2872 140.278 97.4722 140.178 97.695C140.078 97.9179 140.052 98.1669 140.103 98.4059C140.164 98.6542 140.286 98.8834 140.458 99.0727C140.63 99.262 140.846 99.4053 141.088 99.4897C142.143 99.8752 143.269 100.025 144.389 99.9294H156.565L187.971 99.979L197.491 100.029L200.079 100.06H200.748C200.824 100.051 200.901 100.051 200.977 100.06H200.748H200.079L197.491 100.09L187.971 100.14L156.565 100.19H144.426C143.255 100.297 142.075 100.136 140.976 99.7189C140.691 99.6152 140.436 99.442 140.235 99.2148C140.034 98.9877 139.893 98.7139 139.824 98.4183C139.824 98.2696 139.787 98.1272 139.793 97.9661C139.812 97.8141 139.854 97.6658 139.917 97.5264C140.055 97.252 140.27 97.0238 140.536 96.8699C141.03 96.6014 141.585 96.4648 142.147 96.4735C142.692 96.4735 143.2 96.5107 143.714 96.5169L146.717 96.5603H156.93H163.625H165.421H165.88L166.028 96.6841Z" fill="#455A64"/>
<path d="M153.003 115.561C152.909 115.353 152.838 115.135 152.793 114.911C152.663 114.422 152.508 113.821 152.328 113.115C151.87 111.127 151.299 109.167 150.619 107.244C150.225 106.2 149.748 105.189 149.194 104.221C148.722 103.442 148.19 102.701 147.603 102.004C146.581 100.821 145.825 100.208 145.868 100.146C146.065 100.264 146.25 100.401 146.42 100.555C146.904 100.946 147.356 101.377 147.77 101.843C148.397 102.526 148.959 103.266 149.448 104.054C150.029 105.031 150.522 106.056 150.922 107.12C151.612 109.052 152.156 111.033 152.551 113.047C152.712 113.815 152.836 114.44 152.917 114.874C152.974 115.098 153.004 115.329 153.003 115.561Z" fill="#455A64"/>
<path d="M155.153 128.332H151.158V178.678H155.153V128.332Z" fill="#263238"/>
<path d="M154.341 170.608L195.849 178.784V183.119L154.341 176.864V170.608Z" fill="#263238"/>
<path d="M192.17 189.919C194.202 189.919 195.849 188.272 195.849 186.24C195.849 184.209 194.202 182.562 192.17 182.562C190.138 182.562 188.491 184.209 188.491 186.24C188.491 188.272 190.138 189.919 192.17 189.919Z" fill="#263238"/>
<path d="M153.27 170.608L119.677 178.808V183.144L153.27 176.467V170.608Z" fill="#263238"/>
<path d="M123.356 189.919C125.387 189.919 127.034 188.272 127.034 186.24C127.034 184.209 125.387 182.562 123.356 182.562C121.324 182.562 119.677 184.209 119.677 186.24C119.677 188.272 121.324 189.919 123.356 189.919Z" fill="#263238"/>
<path d="M153.159 189.919C155.191 189.919 156.838 188.272 156.838 186.24C156.838 184.209 155.191 182.562 153.159 182.562C151.127 182.562 149.48 184.209 149.48 186.24C149.48 188.272 151.127 189.919 153.159 189.919Z" fill="#263238"/>
<path d="M157.351 182.561H149.015L149.102 151.074H157.432L157.351 182.561Z" fill="#263238"/>
<path d="M157.128 151.136C155.82 151.296 154.5 151.349 153.183 151.297C151.868 151.349 150.551 151.295 149.244 151.136C150.551 150.977 151.868 150.923 153.183 150.975C154.5 150.923 155.82 150.977 157.128 151.136Z" fill="#455A64"/>
<path d="M156.868 177.229C155.559 177.388 154.24 177.442 152.923 177.39C151.605 177.442 150.286 177.388 148.978 177.229C150.286 177.069 151.605 177.015 152.923 177.068C154.24 177.015 155.559 177.069 156.868 177.229Z" fill="#455A64"/>
<path d="M210.447 78.1104H13.1509V86.7377H210.447V78.1104Z" fill="#455A64"/>
<path d="M31.3035 190.142H28.5041L26.9062 86.0752H32.9014L31.3035 190.142Z" fill="#455A64"/>
<path d="M212.057 189.919H209.251L210.657 86.3726H216.653L212.057 189.919Z" fill="#263238"/>
<path d="M226.06 78.1104H201.045V86.7377H226.06V78.1104Z" fill="#263238"/>
<path d="M227.206 148.932C222.586 150.548 216.566 149.105 212.615 146.219C208.663 143.333 205.802 139.208 203.325 135.015C202.253 133.225 201.2 131.361 200.847 129.305C200.494 127.249 201.008 124.926 202.6 123.582C205.077 121.495 208.886 122.554 211.704 124.158C216.1 126.723 219.806 130.319 222.503 134.634C225.2 138.95 226.808 143.857 227.188 148.932" fill="#4CA9EE"/>
<path d="M222.245 159.981C219.477 163.641 214.714 165.27 210.131 165.48C205.548 165.691 201.014 164.428 196.729 162.78C195.174 162.161 193.471 161.368 192.938 159.789C192.77 159.179 192.757 158.537 192.898 157.921C193.04 157.305 193.332 156.734 193.75 156.258C194.601 155.321 195.662 154.6 196.846 154.153C201.142 152.44 205.88 152.183 210.335 153.422C214.77 154.574 218.647 157.138 222.245 159.981Z" fill="#4CA9EE"/>
<path d="M227.275 129.187C223.453 129.268 220.561 125.917 218.827 122.511C216.423 117.744 215.625 112.328 216.554 107.071C216.901 105.12 217.638 103.014 219.39 102.079C221.143 101.144 223.472 101.751 224.964 103.107C226.457 104.463 227.268 106.408 227.863 108.334C229.913 114.974 229.473 122.579 227.244 129.187" fill="#4CA9EE"/>
<path d="M239.803 150.294C233.288 139.202 232.204 125.639 236.05 113.363C236.669 111.375 237.852 109.096 239.933 108.966C242.243 108.817 243.686 111.388 244.324 113.611C246.56 121.402 246.083 129.683 245.563 137.765C245.26 142.751 243.55 147.012 239.778 150.288" fill="#4CA9EE"/>
<path d="M246.616 154.853C247.828 151.053 249.878 147.573 252.614 144.671C255.351 141.769 258.705 139.519 262.428 138.087C264.156 137.437 266.354 137.066 267.649 138.391C268.943 139.716 268.522 141.859 267.711 143.482C266.398 146.102 264.267 148.201 262.136 150.22C260.204 152.078 258.197 153.936 255.757 154.971C253.317 156.005 248.833 156.308 246.604 154.853" fill="#4CA9EE"/>
<path d="M206.205 126.37L206.316 126.469L206.669 126.741L208.038 127.763L209.029 128.494C209.382 128.766 209.753 129.113 210.162 129.417C210.967 130.092 211.921 130.816 212.881 131.727L214.417 133.126C214.95 133.616 215.457 134.161 216.015 134.712C217.136 135.79 218.22 137.047 219.39 138.347C224.349 144.1 228.367 150.601 231.294 157.609C231.913 159.238 232.576 160.774 233.04 162.26C233.282 162.997 233.548 163.703 233.746 164.397C233.945 165.09 234.124 165.753 234.304 166.391C234.694 167.63 234.923 168.837 235.159 169.859C235.27 170.367 235.388 170.844 235.481 171.284C235.574 171.724 235.623 172.132 235.691 172.522C235.815 173.235 235.92 173.792 235.995 174.201C235.995 174.38 236.057 174.523 236.075 174.634C236.083 174.686 236.098 174.736 236.119 174.783C236.124 174.734 236.124 174.684 236.119 174.634C236.119 174.517 236.081 174.374 236.057 174.195C236.001 173.78 235.914 173.216 235.815 172.504L235.629 171.265C235.549 170.819 235.437 170.342 235.332 169.828C235.103 168.8 234.898 167.617 234.521 166.341C234.347 165.722 234.168 165.028 233.976 164.335C233.784 163.641 233.524 162.923 233.288 162.18C232.836 160.687 232.198 159.145 231.566 157.51C230.089 154.001 228.354 150.606 226.376 147.353C224.352 144.126 222.09 141.056 219.607 138.168C218.43 136.867 217.334 135.61 216.201 134.539C215.643 133.994 215.123 133.442 214.584 132.959L213.03 131.572C212.057 130.668 211.091 129.949 210.274 129.287C209.859 128.965 209.481 128.667 209.122 128.382L208.112 127.67L206.706 126.71L206.335 126.462C206.256 126.396 206.213 126.365 206.205 126.37Z" fill="#263238"/>
<path d="M197.577 157.101C197.728 157.093 197.877 157.068 198.023 157.027C198.314 156.977 198.741 156.866 199.261 156.773C200.82 156.476 202.396 156.283 203.981 156.197C209.216 155.878 214.456 156.759 219.299 158.774C224.142 160.789 228.46 163.883 231.925 167.822C232.979 169.008 233.953 170.261 234.842 171.575C235.164 172.033 235.387 172.417 235.554 172.659C235.633 172.788 235.72 172.912 235.815 173.03C235.761 172.888 235.69 172.753 235.604 172.628C235.455 172.374 235.251 172.008 234.941 171.513C234.088 170.166 233.136 168.885 232.092 167.679C228.643 163.669 224.303 160.522 219.419 158.491C214.536 156.459 209.244 155.599 203.968 155.98C202.376 156.084 200.794 156.309 199.236 156.655C198.685 156.767 198.264 156.897 197.998 156.971C197.855 157.004 197.714 157.048 197.577 157.101Z" fill="#263238"/>
<path d="M221.638 106.47C221.632 106.528 221.632 106.586 221.638 106.644C221.669 106.774 221.7 106.935 221.744 107.145C221.849 107.597 221.991 108.242 222.171 109.053C222.549 110.706 223.119 113.097 223.837 116.051C225.274 121.954 227.361 130.079 229.535 139.084C230.612 143.593 231.591 147.898 232.433 151.824C233.276 155.751 233.963 159.3 234.49 162.291C234.768 163.777 234.979 165.14 235.183 166.329C235.388 167.518 235.542 168.54 235.666 169.382C235.79 170.225 235.895 170.85 235.97 171.315C235.97 171.519 236.032 171.686 236.056 171.816C236.061 171.874 236.074 171.93 236.094 171.984C236.099 171.926 236.099 171.868 236.094 171.81C236.094 171.68 236.056 171.513 236.038 171.302C235.976 170.838 235.895 170.188 235.79 169.364C235.685 168.54 235.549 167.506 235.357 166.298C235.165 165.09 234.979 163.746 234.706 162.254C234.211 159.256 233.53 155.701 232.718 151.768C231.907 147.836 230.916 143.525 229.838 139.016C227.664 130.005 225.546 121.886 224.054 115.996C223.317 113.066 222.716 110.694 222.295 109.022C222.09 108.217 221.923 107.585 221.812 107.127C221.756 106.929 221.713 106.761 221.675 106.637C221.67 106.58 221.658 106.524 221.638 106.47Z" fill="#263238"/>
<path d="M236.602 171.091C236.622 171.049 236.634 171.002 236.639 170.955L236.732 170.559C236.812 170.181 236.917 169.667 237.054 169.017C237.326 167.673 237.673 165.728 238.113 163.313C238.949 158.488 239.971 151.787 240.547 144.336C240.844 140.62 241.005 137.053 241.079 133.807C241.154 130.562 241.079 127.651 241.005 125.205C240.974 123.966 240.894 122.876 240.838 121.904C240.782 120.931 240.72 120.095 240.658 119.426C240.596 118.758 240.547 118.243 240.516 117.859C240.516 117.692 240.479 117.562 240.466 117.451C240.473 117.406 240.473 117.36 240.466 117.314C240.459 117.36 240.459 117.406 240.466 117.451C240.466 117.562 240.466 117.698 240.466 117.866C240.466 118.25 240.516 118.776 240.553 119.439C240.59 120.101 240.646 120.956 240.683 121.916C240.72 122.876 240.782 123.991 240.801 125.211C240.869 127.688 240.875 130.568 240.801 133.801C240.726 137.034 240.541 140.614 240.249 144.33C239.63 151.762 238.683 158.469 237.902 163.294C237.512 165.709 237.184 167.667 236.942 169.01C236.831 169.667 236.744 170.187 236.676 170.565C236.676 170.726 236.633 170.862 236.614 170.974C236.603 171.012 236.599 171.052 236.602 171.091Z" fill="#263238"/>
<path d="M236.119 172.504C236.187 172.382 236.243 172.253 236.286 172.12L236.719 171.005L237.023 170.193C237.153 169.908 237.289 169.574 237.444 169.258C237.599 168.942 237.748 168.565 237.921 168.181C238.094 167.797 238.305 167.413 238.54 167.004L239.184 165.728L239.977 164.365C240.497 163.405 241.172 162.458 241.835 161.424C243.352 159.242 244.989 157.148 246.74 155.15C248.52 153.175 250.401 151.293 252.376 149.514C253.311 148.727 254.166 147.934 255.033 147.272L256.272 146.293L257.442 145.426C258.186 144.869 258.879 144.398 259.492 143.989C260.106 143.58 260.626 143.221 261.072 142.949L262.081 142.329C262.204 142.263 262.318 142.181 262.422 142.088C262.292 142.139 262.167 142.204 262.05 142.28L261.01 142.868C260.551 143.122 260.013 143.488 259.393 143.865C258.774 144.243 258.068 144.72 257.319 145.271L256.129 146.12L254.891 147.092C254.017 147.749 253.15 148.535 252.203 149.322C250.212 151.1 248.319 152.983 246.53 154.964C244.769 156.97 243.129 159.08 241.618 161.281C240.968 162.328 240.299 163.288 239.76 164.254L238.98 165.635L238.361 166.942C238.162 167.363 237.946 167.753 237.785 168.137L237.326 169.227L236.93 170.181C236.831 170.478 236.732 170.751 236.645 170.999C236.49 171.469 236.366 171.847 236.273 172.138C236.21 172.255 236.158 172.377 236.119 172.504Z" fill="#263238"/>
<path d="M208.62 139.227C208.62 139.277 209.412 139.277 210.682 139.345C213.988 139.524 217.255 140.149 220.393 141.203C221.595 141.605 222.332 141.89 222.35 141.822C222.193 141.718 222.022 141.634 221.842 141.574C221.52 141.42 221.044 141.221 220.443 140.992C217.314 139.824 214.009 139.196 210.67 139.134C210.05 139.134 209.511 139.134 209.152 139.165C208.973 139.164 208.794 139.184 208.62 139.227Z" fill="#263238"/>
<path d="M203.708 163.251C204.423 161.792 205.325 160.433 206.39 159.207C207.532 158.052 208.821 157.053 210.224 156.234C209.754 156.357 209.307 156.553 208.899 156.816C207.884 157.404 206.961 158.139 206.161 158.996C205.362 159.855 204.698 160.831 204.192 161.888C203.954 162.312 203.79 162.772 203.708 163.251Z" fill="#263238"/>
<path d="M220.468 115.475C220.406 115.537 221.607 116.714 222.945 118.343C224.283 119.971 225.181 121.359 225.261 121.315C224.095 119.06 222.473 117.071 220.499 115.475H220.468Z" fill="#263238"/>
<path d="M224.4 108.675C224.108 109.507 223.911 110.369 223.812 111.245C223.61 112.106 223.513 112.987 223.521 113.871C223.824 113.04 224.032 112.178 224.14 111.301C224.332 110.439 224.419 109.557 224.4 108.675Z" fill="#263238"/>
<path d="M236.589 130.011C237.134 131.39 237.772 132.731 238.497 134.024C239.138 135.361 239.866 136.654 240.677 137.895C240.138 136.513 239.5 135.172 238.769 133.882C238.138 132.54 237.409 131.246 236.589 130.011Z" fill="#263238"/>
<path d="M243.848 122.765C243.219 123.68 242.678 124.653 242.231 125.669C241.692 126.64 241.242 127.658 240.887 128.71C242.054 126.823 243.045 124.833 243.848 122.765Z" fill="#263238"/>
<path d="M254.507 147.532C254.507 147.625 255.82 147.371 257.436 147.259C259.053 147.148 260.366 147.21 260.372 147.117C258.413 146.762 256.396 146.904 254.507 147.532Z" fill="#263238"/>
<path d="M247.236 169.444L243.606 188.52C243.49 189.131 243.164 189.682 242.684 190.079C242.205 190.476 241.602 190.693 240.98 190.694H230.266C229.632 190.695 229.019 190.471 228.536 190.061C228.052 189.651 227.73 189.083 227.627 188.458L224.469 169.444H247.236Z" fill="#263238"/>
<path d="M246.046 175.631H225.552L224.462 169.432H247.223L246.046 175.631Z" fill="#455A64"/>
<path d="M246.046 175.631L245.613 177.898H225.868L225.552 175.631H246.046Z" fill="#FAFAFA"/>
<path d="M81.0438 51.3924L92.4024 76.4755C92.7079 77.0213 93.1462 77.4811 93.6767 77.8124C94.2072 78.1437 94.8127 78.3357 95.4371 78.3707L147.759 78.3025C147.695 77.7717 147.442 77.2816 147.046 76.9222C146.65 76.5627 146.138 76.358 145.603 76.3454L125.747 75.9119L115.566 51.5224C115.408 51.1417 115.142 50.8158 114.801 50.5856C114.459 50.3553 114.058 50.231 113.646 50.228L81.9604 49.9865C81.7927 49.9836 81.6271 50.0234 81.4789 50.102C81.3308 50.1807 81.2051 50.2956 81.1135 50.4361C81.0219 50.5765 80.9675 50.738 80.9553 50.9052C80.9431 51.0725 80.9735 51.2401 81.0438 51.3924Z" fill="#E0E0E0"/>
<path d="M81.0429 51.3926C80.9916 51.3033 80.96 51.204 80.95 51.1015C80.9288 50.9491 80.9429 50.7939 80.9912 50.6479C81.0395 50.5018 81.1208 50.3688 81.2287 50.2592C81.3931 50.0894 81.6128 49.984 81.8481 49.9619C82.102 49.9619 82.3683 49.9619 82.6594 49.9619H84.6784L97.7217 50.0115L106.882 50.061L112.035 50.092H113.378C113.858 50.0567 114.337 50.1599 114.76 50.3893C115.187 50.6366 115.522 51.0173 115.713 51.4731L116.252 52.7675C119.169 59.7474 122.446 67.5139 125.889 75.844L125.753 75.7511L136.486 75.9802L142.06 76.1041L144.897 76.1661H145.615C146.001 76.1797 146.377 76.2866 146.713 76.4775C147.048 76.6684 147.332 76.9376 147.541 77.2623C147.734 77.5662 147.859 77.9086 147.907 78.2656V78.4452H147.727H115.137H96.0804C95.8141 78.4452 95.5602 78.4452 95.2877 78.4452C95.0181 78.4304 94.7516 78.3805 94.4949 78.2966C93.9941 78.1465 93.5305 77.8924 93.1345 77.5508C92.7386 77.2093 92.4192 76.7881 92.1972 76.3147C91.7843 75.4105 91.3879 74.5289 91.0081 73.6701C87.9114 66.7769 85.434 61.2091 83.6813 57.3444C82.8328 55.4245 82.1639 53.9319 81.7118 52.9038C81.4889 52.4021 81.3216 52.0181 81.204 51.7456C81.0863 51.4731 81.0429 51.3492 81.0429 51.3492C81.0429 51.3492 81.1111 51.4793 81.2349 51.7332L81.7676 52.879L83.799 57.2949L91.231 73.5772L92.4325 76.2156C92.6396 76.6614 92.9396 77.0578 93.3124 77.3783C93.6852 77.6987 94.1221 77.9358 94.594 78.0736C95.0833 78.2096 95.5929 78.2579 96.099 78.2161H100.973L115.175 78.1789L147.758 78.1231L147.597 78.3028C147.556 77.995 147.451 77.6995 147.287 77.4357C147.045 77.0585 146.686 76.7713 146.265 76.6182C146.057 76.5382 145.838 76.4943 145.615 76.4881H144.903L142.066 76.42L136.492 76.2961L125.765 76.0608H125.66L125.623 75.9679C122.161 67.6378 118.928 59.8651 116.023 52.879L115.484 51.5784C115.317 51.1761 115.024 50.8392 114.648 50.6184C114.269 50.4147 113.839 50.3224 113.409 50.3521H112.066L106.919 50.3087L97.7588 50.2158L84.7156 50.0734L82.6966 50.0424C82.4055 50.0424 82.133 50.0424 81.8976 50.0424C81.6811 50.0638 81.4782 50.1577 81.3216 50.3087C81.2169 50.412 81.1364 50.5372 81.086 50.6754C81.0357 50.8136 81.0167 50.9613 81.0305 51.1077C81.0266 51.2028 81.0307 51.2981 81.0429 51.3926Z" fill="#263238"/>
<path d="M124.755 78.5878C124.694 78.5042 124.644 78.4125 124.607 78.3153C124.502 78.0985 124.378 77.826 124.229 77.504L122.897 74.5002C121.795 71.9547 120.29 68.4307 118.674 64.5165C117.057 60.6023 115.633 57.0473 114.642 54.4523C114.152 53.1578 113.756 52.105 113.502 51.3556C113.391 51.0149 113.298 50.7362 113.217 50.5071C113.175 50.4105 113.148 50.3082 113.137 50.2036C113.198 50.289 113.246 50.3829 113.279 50.4823C113.372 50.7053 113.484 50.9778 113.626 51.306L114.865 54.3532C115.936 56.9606 117.379 60.4846 118.983 64.374C120.587 68.2635 122.043 71.8061 123.114 74.3949C123.622 75.6336 124.037 76.6741 124.353 77.4358L124.675 78.272C124.721 78.3715 124.748 78.4785 124.755 78.5878Z" fill="#455A64"/>
<path d="M104.237 63.5377C104.237 63.8589 104.142 64.1729 103.963 64.4399C103.785 64.7068 103.531 64.9148 103.234 65.0374C102.937 65.1601 102.61 65.1918 102.296 65.1287C101.981 65.0656 101.691 64.9105 101.465 64.6829C101.238 64.4553 101.084 64.1656 101.022 63.8505C100.96 63.5353 100.993 63.2088 101.117 62.9124C101.241 62.616 101.45 62.3631 101.717 62.1855C101.985 62.0079 102.299 61.9138 102.621 61.9151C102.833 61.915 103.044 61.9571 103.241 62.0387C103.437 62.1203 103.616 62.2399 103.766 62.3907C103.916 62.5414 104.035 62.7204 104.116 62.9172C104.197 63.1141 104.238 63.3249 104.237 63.5377Z" fill="white"/>
<path d="M275.106 190.137C275.106 190.23 213.68 190.298 137.929 190.298C62.1779 190.298 0.739746 190.23 0.739746 190.137C0.739746 190.044 62.1532 189.976 137.929 189.976C213.705 189.976 275.106 190.05 275.106 190.137Z" fill="#263238"/>
</g>
<defs>
<clipPath id="clip0">
<rect width="284.684" height="190.681" fill="white" transform="translate(0.733398)"/>
</clipPath>
</defs>
</svg>
