<svg width="323" height="283" viewBox="0 0 323 283" fill="none" xmlns="http://www.w3.org/2000/svg">
<g clip-path="url(#clip0)">
<path d="M283.771 0.106518L222.14 13.7585C219.622 14.3163 218.032 16.8101 218.59 19.3286L231.434 77.3127C231.992 79.8311 234.486 81.4205 237.004 80.8626L298.635 67.2107C301.154 66.6528 302.743 64.159 302.185 61.6406L289.341 3.65644C288.783 1.13801 286.289 -0.451343 283.771 0.106518Z" fill="#EBEBEB"/>
<path d="M274.476 47.9569C274.32 48.0112 274.162 48.0571 274.001 48.0945L272.625 48.4246L267.57 49.6146L250.566 53.4804H250.428L250.373 53.3497C250.05 52.4761 249.685 51.5544 249.348 50.5983C246.37 42.5985 243.715 35.4654 241.975 30.788L242.098 30.8499L237.552 31.8197L236.341 32.0674C236.203 32.0974 236.062 32.118 235.921 32.1293C236.054 32.0802 236.19 32.0389 236.327 32.0055L237.531 31.7097L242.05 30.6504H242.14L242.174 30.7329C243.935 35.3897 246.631 42.5159 249.658 50.502L250.683 53.2534L250.497 53.1502L267.522 49.3876L272.598 48.3008L273.974 48.0257C274.138 47.9843 274.306 47.9612 274.476 47.9569Z" fill="#FAFAFA"/>
<path d="M248.743 48.5073L248.86 48.4661L249.204 48.3766L250.579 48.0465L255.69 46.8496L273.334 42.8394L273.21 42.9976C273.065 39.9091 272.914 36.5661 272.756 33.1131C272.673 31.3315 272.598 29.5844 272.522 27.9197L272.715 28.0711L251.886 32.6866L245.696 34.021L244.031 34.365L243.598 34.4475C243.547 34.4553 243.496 34.4553 243.446 34.4475L243.591 34.3994L244.017 34.2893L245.675 33.8903L251.818 32.4734L272.618 27.7615L272.811 27.7134V27.9129C272.887 29.5775 272.969 31.3522 273.052 33.1062C273.203 36.5455 273.354 39.9022 273.492 42.9907V43.1283H273.361L255.69 47.0284L250.559 48.129L249.183 48.411L248.825 48.4729L248.743 48.5073Z" fill="#FAFAFA"/>
<path d="M258.008 58.4745C258.008 58.4745 257.932 58.2681 257.747 57.9311C257.483 57.4682 257.078 57.1019 256.591 56.8856C256.235 56.7328 255.847 56.6698 255.46 56.7022C255.074 56.7346 254.702 56.8613 254.376 57.0713C253.981 57.3277 253.674 57.6988 253.497 58.1348C253.319 58.5708 253.28 59.0507 253.383 59.51C253.486 59.9692 253.728 60.3858 254.075 60.7037C254.422 61.0215 254.859 61.2254 255.325 61.2879C255.707 61.3374 256.094 61.2924 256.454 61.1568C256.814 61.0213 257.135 60.7993 257.389 60.5106C257.739 60.1087 257.949 59.6043 257.987 59.0729C257.987 58.6946 257.987 58.4745 257.987 58.4745C258.076 58.661 258.116 58.8668 258.104 59.0729C258.117 59.6502 257.924 60.2131 257.561 60.6619C257.284 60.9952 256.928 61.2536 256.525 61.4134C256.123 61.5733 255.686 61.6294 255.256 61.5767C254.724 61.5129 254.224 61.2853 253.826 60.9254C253.428 60.5655 253.151 60.0909 253.034 59.5672C252.917 59.0434 252.965 58.4963 253.173 58.0012C253.38 57.5061 253.735 57.0875 254.19 56.803C254.557 56.5726 254.975 56.4391 255.407 56.4151C255.839 56.391 256.27 56.4772 256.66 56.6654C257.179 56.9133 257.593 57.3374 257.829 57.8623C257.939 58.0481 258.001 58.2587 258.008 58.4745Z" fill="#FAFAFA"/>
<path d="M273.382 55.0217C273.382 55.0217 273.307 54.8154 273.121 54.4852C272.858 54.019 272.45 53.6518 271.958 53.4396C271.567 53.2653 271.135 53.2031 270.71 53.2601C270.285 53.3172 269.885 53.4911 269.553 53.7626C269.222 54.0341 268.972 54.3924 268.833 54.7975C268.693 55.2026 268.669 55.6386 268.763 56.0567C268.856 56.4748 269.065 56.8586 269.364 57.1652C269.663 57.4718 270.042 57.6892 270.458 57.7931C270.873 57.8969 271.31 57.8832 271.718 57.7533C272.126 57.6235 272.491 57.3827 272.77 57.0578C273.124 56.6579 273.337 56.1528 273.375 55.6202C273.375 55.2418 273.375 55.0286 273.375 55.0217C273.464 55.2106 273.504 55.4187 273.492 55.627C273.502 56.203 273.307 56.7637 272.942 57.2091C272.67 57.5452 272.317 57.8068 271.917 57.9692C271.516 58.1317 271.081 58.1896 270.651 58.1377C270.118 58.075 269.617 57.8483 269.218 57.4888C268.819 57.1294 268.542 56.6549 268.424 56.1309C268.306 55.607 268.354 55.0594 268.561 54.5637C268.768 54.0681 269.123 53.6489 269.578 53.364C269.946 53.1336 270.366 53.0002 270.799 52.9761C271.232 52.9521 271.664 53.0382 272.055 53.2264C272.574 53.4742 272.988 53.8984 273.224 54.4233C273.324 54.6071 273.378 54.8124 273.382 55.0217Z" fill="#FAFAFA"/>
<path d="M277.653 24.2601C277.956 25.6101 277.851 27.0195 277.353 28.3101C276.854 29.6007 275.984 30.7144 274.853 31.5106C273.721 32.3068 272.379 32.7495 270.996 32.7829C269.613 32.8164 268.251 32.4389 267.082 31.6983C265.914 30.9577 264.991 29.8873 264.431 28.6223C263.871 27.3573 263.698 25.9546 263.935 24.5915C264.172 23.2284 264.808 21.9662 265.762 20.9645C266.716 19.9627 267.946 19.2664 269.296 18.9636C270.192 18.7625 271.12 18.7399 272.025 18.8973C272.93 19.0546 273.796 19.3888 274.572 19.8806C275.348 20.3725 276.019 21.0124 276.548 21.7638C277.077 22.5152 277.452 23.3635 277.653 24.2601Z" fill="#FAFAFA"/>
<path d="M273.959 22.4102C273.799 22.8676 273.584 23.3041 273.319 23.7102C272.893 24.4944 272.274 25.5605 271.579 26.7299L270.829 27.9749L270.754 28.1056L270.623 28.03C269.585 27.5094 268.587 26.9116 267.638 26.2415C268.721 26.6627 269.77 27.1687 270.774 27.7548L270.561 27.8098C270.795 27.4178 271.043 26.9982 271.297 26.5579C271.985 25.3886 272.638 24.343 273.12 23.5933C273.354 23.1685 273.636 22.7716 273.959 22.4102Z" fill="#E0E0E0"/>
<path d="M38.774 103.11C37.5084 98.6111 31.6685 99.0513 31.6685 99.0513L31.8267 102.174C35.204 101.59 37.3295 105.552 37.3295 105.552L38.774 103.11Z" fill="#E0E0E0"/>
<path d="M124.564 51.2178C131.339 53.2813 135.569 45.4604 135.569 45.4604L131.442 43.1079C129.427 47.9229 122.658 47.3451 122.658 47.3451L124.564 51.2178Z" fill="#E0E0E0"/>
<path d="M180.789 93.17C179.482 89.4281 174.557 90.109 174.557 90.109L174.86 92.7435C177.687 92.0557 179.675 95.3092 179.675 95.3092L180.789 93.17Z" fill="#E0E0E0"/>
<path d="M103.075 5.64031C101.768 1.90524 96.8433 2.58622 96.8433 2.58622L97.1459 5.22072C99.973 4.53286 101.961 7.78643 101.961 7.78643L103.075 5.64031Z" fill="#E0E0E0"/>
<path d="M44.3736 53.4531C43.0667 49.718 38.1416 50.3921 38.1416 50.3921L38.4443 53.0335C41.2714 52.3457 43.2593 55.5992 43.2593 55.5992L44.3736 53.4531Z" fill="#29E7CD"/>
<path d="M32.0397 18.5234C28.1327 19.1631 27.9126 24.1295 27.9126 24.1295L30.5677 24.2877C30.3958 21.3918 33.9314 19.9955 33.9314 19.9955L32.0397 18.5234Z" fill="#EBEBEB"/>
<path d="M3.90634 134.758C10.6817 136.821 14.9121 129 14.9121 129L10.7849 126.648C8.7695 131.463 2.00098 130.885 2.00098 130.885L3.90634 134.758Z" fill="#EBEBEB"/>
<path d="M196.926 51.6508C197.387 48.5142 193.645 47.166 193.645 47.166L192.875 49.147C195.131 49.7248 195.337 52.7583 195.337 52.7583L196.926 51.6508Z" fill="#E0E0E0"/>
<path d="M174.399 17.1895C171.757 18.9435 173.257 22.6304 173.257 22.6304L175.238 21.8806C174.165 19.8171 176.284 17.6366 176.284 17.6366L174.399 17.1895Z" fill="#EBEBEB"/>
<path d="M289.024 87.4199L279.875 114.363L306.928 119.736L308.483 91.2857L289.024 87.4199Z" fill="#F5F5F5"/>
<path d="M305.471 94.8623C305.505 94.8623 305.423 95.165 305.168 95.6327C304.799 96.2987 304.336 96.908 303.792 97.4418C302.989 98.2536 302.007 98.8661 300.924 99.2302C299.59 99.6596 298.168 99.7332 296.797 99.4435C295.414 99.2072 294.115 98.6225 293.021 97.7445C292.147 97.0118 291.481 96.0632 291.088 94.993C290.816 94.2815 290.659 93.5318 290.62 92.7712C290.58 92.4949 290.601 92.213 290.682 91.9458C290.813 92.9433 291.06 93.9221 291.418 94.8623C291.837 95.8526 292.491 96.7261 293.323 97.4074C294.367 98.207 295.59 98.7406 296.886 98.962C298.177 99.2382 299.516 99.1838 300.78 98.8037C301.801 98.4753 302.739 97.931 303.531 97.2079C304.26 96.4976 304.91 95.7113 305.471 94.8623Z" fill="white"/>
<path d="M315.149 281.808C315.149 281.905 244.602 281.987 157.588 281.987C70.5737 281.987 0.0131836 281.905 0.0131836 281.808C0.0131836 281.712 70.5462 281.629 157.588 281.629C244.629 281.629 315.149 281.691 315.149 281.808Z" fill="#263238"/>
<path d="M179.324 69.7207H11.5898V201.033H179.324V69.7207Z" fill="#FAFAFA"/>
<path d="M179.324 201.026C179.324 199.795 179.269 148.935 179.18 69.7212L179.324 69.8656H11.6036L11.7825 69.6868C11.7825 117.032 11.7825 161.812 11.7825 200.992L11.6243 200.834L179.358 200.992L11.5899 201.212H11.4248V201.047C11.4248 161.839 11.4248 117.087 11.4248 69.7418V69.563H11.6174H179.338H179.489V69.7143C179.386 148.935 179.324 199.795 179.324 201.026Z" fill="#263238"/>
<path d="M120.388 183.156H70.5254C67.7889 183.156 65.1645 182.069 63.2296 180.134C61.2946 178.199 60.2075 175.575 60.2075 172.838C60.2075 170.102 61.2946 167.478 63.2296 165.543C65.1645 163.608 67.7889 162.521 70.5254 162.521H120.388C123.125 162.521 125.749 163.608 127.684 165.543C129.619 167.478 130.706 170.102 130.706 172.838C130.706 175.575 129.619 178.199 127.684 180.134C125.749 182.069 123.125 183.156 120.388 183.156Z" fill="#4CA9EE"/>
<path d="M86.9243 170.451H88.6852C88.9849 170.39 89.2944 170.397 89.5913 170.47C89.8882 170.543 90.165 170.682 90.4018 170.875C90.6386 171.069 90.8294 171.313 90.9604 171.589C91.0915 171.865 91.1595 172.167 91.1595 172.473C91.1595 172.779 91.0915 173.081 90.9604 173.357C90.8294 173.634 90.6386 173.877 90.4018 174.071C90.165 174.265 89.8882 174.403 89.5913 174.476C89.2944 174.55 88.9849 174.556 88.6852 174.496H86.9243V170.451ZM88.6508 173.89C89.0157 173.89 89.3656 173.745 89.6236 173.487C89.8816 173.229 90.0266 172.879 90.0266 172.515C90.0266 172.15 89.8816 171.8 89.6236 171.542C89.3656 171.284 89.0157 171.139 88.6508 171.139H87.6741V173.89H88.6508Z" fill="white"/>
<path d="M91.3952 172.473C91.3718 172.038 91.4796 171.605 91.7045 171.232C91.9295 170.858 92.2613 170.56 92.6571 170.377C93.0529 170.194 93.4945 170.134 93.9249 170.204C94.3553 170.275 94.7546 170.473 95.0714 170.773C95.3882 171.072 95.6078 171.46 95.7018 171.886C95.7959 172.312 95.76 172.756 95.599 173.161C95.438 173.567 95.1591 173.914 94.7984 174.16C94.4378 174.405 94.0119 174.536 93.5757 174.537C93.2951 174.553 93.0141 174.511 92.7501 174.415C92.4861 174.318 92.2446 174.169 92.0404 173.975C91.8362 173.782 91.6737 173.549 91.5627 173.291C91.4518 173.033 91.3948 172.754 91.3952 172.473ZM94.9927 172.473C94.9941 172.191 94.9116 171.915 94.7556 171.68C94.5997 171.444 94.3774 171.261 94.1169 171.152C93.8565 171.044 93.5696 171.015 93.2928 171.07C93.0159 171.124 92.7616 171.26 92.5621 171.46C92.3625 171.659 92.2268 171.913 92.172 172.19C92.1173 172.467 92.1461 172.754 92.2547 173.014C92.3633 173.275 92.5469 173.497 92.7821 173.653C93.0173 173.809 93.2935 173.892 93.5757 173.89C93.7628 173.895 93.9489 173.862 94.1226 173.792C94.2963 173.722 94.4539 173.618 94.5859 173.485C94.7179 173.353 94.8214 173.195 94.8902 173.021C94.959 172.846 94.9915 172.66 94.9858 172.473H94.9927Z" fill="white"/>
<path d="M100.131 170.451V174.496H99.5121L97.2834 171.744V174.496H96.5405V170.451H97.1596L99.3883 173.203V170.451H100.131Z" fill="white"/>
<path d="M104.244 173.863V174.496H101.211V170.451H104.162V171.084H101.961V172.13H103.928V172.749H101.974V173.863H104.244Z" fill="white"/>
<path d="M96.8429 120.045C94.205 120.045 91.6263 119.263 89.433 117.797C87.2396 116.331 85.5301 114.248 84.5206 111.811C83.5112 109.374 83.247 106.692 83.7617 104.105C84.2763 101.518 85.5466 99.1414 87.4119 97.2761C89.2772 95.4108 91.6537 94.1405 94.2409 93.6259C96.8282 93.1113 99.5099 93.3754 101.947 94.3849C104.384 95.3944 106.467 97.1039 107.933 99.2972C109.398 101.491 110.181 104.069 110.181 106.707C110.177 110.243 108.771 113.634 106.27 116.134C103.77 118.635 100.379 120.041 96.8429 120.045ZM96.8429 94.7522C94.4768 94.7522 92.1638 95.454 90.1966 96.7686C88.2293 98.0833 86.6961 99.9519 85.791 102.138C84.8858 104.324 84.6493 106.73 85.1114 109.05C85.5736 111.371 86.7135 113.502 88.3871 115.175C90.0607 116.847 92.1927 117.986 94.5135 118.447C96.8343 118.908 99.2397 118.67 101.425 117.763C103.611 116.857 105.479 115.323 106.792 113.355C108.106 111.387 108.806 109.073 108.805 106.707C108.803 103.535 107.542 100.494 105.299 98.2509C103.056 96.008 100.015 94.7472 96.8429 94.7454V94.7522Z" fill="#4CA9EE"/>
<path d="M95.88 110.814C95.7128 110.814 95.5514 110.752 95.426 110.642C94.225 109.638 93.077 108.573 91.9867 107.45C91.8863 107.3 91.8492 107.116 91.8836 106.938C91.918 106.76 92.021 106.603 92.1703 106.501C92.3196 106.399 92.5032 106.359 92.6813 106.392C92.8594 106.424 93.0176 106.525 93.1217 106.673C93.3074 106.907 94.5731 108.049 95.8731 109.19L102.628 102.786C102.757 102.658 102.931 102.586 103.113 102.586C103.295 102.586 103.469 102.658 103.598 102.786C103.662 102.85 103.713 102.926 103.748 103.01C103.783 103.094 103.801 103.184 103.801 103.275C103.801 103.366 103.783 103.456 103.748 103.539C103.713 103.623 103.662 103.699 103.598 103.763L96.3615 110.621C96.2323 110.746 96.0595 110.815 95.88 110.814Z" fill="#4CA9EE"/>
<path d="M179.324 82.5426C179.324 82.6458 141.863 82.7215 95.6735 82.7215C49.4838 82.7215 12.0093 82.6458 12.0093 82.5426C12.0093 82.4394 49.4563 82.3638 95.6735 82.3638C141.891 82.3638 179.324 82.4463 179.324 82.5426Z" fill="#263238"/>
<path d="M17.5261 76.9301C18.0655 76.9301 18.5028 76.4928 18.5028 75.9533C18.5028 75.4139 18.0655 74.9766 17.5261 74.9766C16.9866 74.9766 16.5493 75.4139 16.5493 75.9533C16.5493 76.4928 16.9866 76.9301 17.5261 76.9301Z" fill="#263238"/>
<path d="M21.1579 76.9301C21.6974 76.9301 22.1347 76.4928 22.1347 75.9533C22.1347 75.4139 21.6974 74.9766 21.1579 74.9766C20.6185 74.9766 20.1812 75.4139 20.1812 75.9533C20.1812 76.4928 20.6185 76.9301 21.1579 76.9301Z" fill="#263238"/>
<path d="M25.705 75.9532C25.6844 76.1972 25.573 76.4246 25.3927 76.5903C25.2125 76.7561 24.9765 76.848 24.7316 76.848C24.4868 76.848 24.2508 76.7561 24.0706 76.5903C23.8903 76.4246 23.7789 76.1972 23.7583 75.9532C23.747 75.8185 23.7637 75.6829 23.8075 75.555C23.8513 75.4271 23.9211 75.3097 24.0126 75.2102C24.1041 75.1107 24.2152 75.0313 24.339 74.9769C24.4628 74.9226 24.5965 74.8945 24.7316 74.8945C24.8668 74.8945 25.0005 74.9226 25.1243 74.9769C25.2481 75.0313 25.3592 75.1107 25.4507 75.2102C25.5422 75.3097 25.612 75.4271 25.6558 75.555C25.6995 75.6829 25.7163 75.8185 25.705 75.9532Z" fill="#263238"/>
<path d="M28.7067 140.942V143.938H27.4809V140.917L24.0389 135.271H25.3637L28.1371 139.84L30.9229 135.271H32.1487L28.7067 140.942ZM35.3046 144.012C34.6525 144.012 34.0665 143.868 33.5465 143.579C33.0264 143.29 32.6178 142.894 32.3207 142.39C32.0318 141.879 31.8873 141.301 31.8873 140.657C31.8873 140.013 32.0318 139.439 32.3207 138.936C32.6178 138.424 33.0264 138.028 33.5465 137.747C34.0665 137.458 34.6525 137.314 35.3046 137.314C35.9567 137.314 36.5386 137.458 37.0504 137.747C37.5704 138.028 37.9749 138.424 38.2638 138.936C38.5609 139.439 38.7095 140.013 38.7095 140.657C38.7095 141.301 38.5609 141.879 38.2638 142.39C37.9749 142.894 37.5704 143.29 37.0504 143.579C36.5386 143.868 35.9567 144.012 35.3046 144.012ZM35.3046 142.972C35.7256 142.972 36.1012 142.877 36.4313 142.687C36.7698 142.489 37.0339 142.217 37.2237 141.87C37.4136 141.515 37.5085 141.111 37.5085 140.657C37.5085 140.203 37.4136 139.803 37.2237 139.456C37.0339 139.101 36.7698 138.829 36.4313 138.639C36.1012 138.449 35.7256 138.354 35.3046 138.354C34.8836 138.354 34.5039 138.449 34.1655 138.639C33.8354 138.829 33.5712 139.101 33.3731 139.456C33.1833 139.803 33.0883 140.203 33.0883 140.657C33.0883 141.111 33.1833 141.515 33.3731 141.87C33.5712 142.217 33.8354 142.489 34.1655 142.687C34.5039 142.877 34.8836 142.972 35.3046 142.972ZM46.4698 137.376V143.938H45.3431V142.947C45.1037 143.286 44.7859 143.55 44.3897 143.74C44.0017 143.921 43.5766 144.012 43.1144 144.012C42.2395 144.012 41.5502 143.773 41.0467 143.294C40.5432 142.807 40.2914 142.093 40.2914 141.152V137.376H41.4801V141.016C41.4801 141.652 41.6328 142.134 41.9382 142.465C42.2436 142.787 42.6811 142.947 43.2506 142.947C43.8779 142.947 44.3732 142.758 44.7364 142.378C45.0996 141.998 45.2812 141.462 45.2812 140.768V137.376H46.4698ZM49.8717 138.478C50.078 138.098 50.3834 137.809 50.7879 137.611C51.1924 137.413 51.6835 137.314 52.2613 137.314V138.465C52.1953 138.457 52.1045 138.453 51.9889 138.453C51.3451 138.453 50.8374 138.647 50.466 139.035C50.1028 139.415 49.9212 139.959 49.9212 140.669V143.938H48.7326V137.376H49.8717V138.478ZM59.8352 144.037C59.1831 144.037 58.5516 143.938 57.9408 143.74C57.3382 143.534 56.8636 143.269 56.5169 142.947L56.9751 141.982C57.3052 142.279 57.7262 142.522 58.238 142.712C58.758 142.894 59.2904 142.985 59.8352 142.985C60.5533 142.985 61.0898 142.865 61.4448 142.626C61.7997 142.378 61.9772 142.052 61.9772 141.647C61.9772 141.35 61.8781 141.111 61.68 140.929C61.4902 140.739 61.2508 140.595 60.9619 140.496C60.6812 140.397 60.2809 140.285 59.7609 140.162C59.1088 140.005 58.5805 139.848 58.1761 139.691C57.7798 139.534 57.4373 139.295 57.1484 138.973C56.8677 138.643 56.7274 138.201 56.7274 137.648C56.7274 137.186 56.8471 136.769 57.0865 136.398C57.3341 136.026 57.7056 135.729 58.2008 135.506C58.6961 135.283 59.311 135.172 60.0457 135.172C60.5574 135.172 61.0609 135.238 61.5562 135.37C62.0514 135.502 62.4765 135.692 62.8315 135.94L62.4229 136.93C62.0597 136.699 61.6717 136.526 61.259 136.41C60.8463 136.286 60.4419 136.224 60.0457 136.224C59.344 136.224 58.8158 136.352 58.4608 136.608C58.1141 136.864 57.9408 137.194 57.9408 137.599C57.9408 137.896 58.0399 138.139 58.238 138.329C58.4361 138.511 58.6796 138.655 58.9685 138.763C59.2656 138.862 59.666 138.969 60.1695 139.084C60.8216 139.241 61.3457 139.398 61.7419 139.555C62.1381 139.712 62.4765 139.951 62.7572 140.273C63.0461 140.595 63.1905 141.028 63.1905 141.573C63.1905 142.027 63.0667 142.444 62.8191 142.824C62.5715 143.195 62.1959 143.492 61.6924 143.715C61.1889 143.93 60.5698 144.037 59.8352 144.037ZM70.7568 140.694C70.7568 140.785 70.7485 140.905 70.732 141.053H65.408C65.4823 141.631 65.734 142.097 66.1632 142.452C66.6007 142.799 67.1414 142.972 67.7852 142.972C68.5694 142.972 69.2008 142.708 69.6796 142.18L70.3358 142.947C70.0386 143.294 69.6672 143.558 69.2215 143.74C68.784 143.921 68.2929 144.012 67.7481 144.012C67.0547 144.012 66.4398 143.872 65.9032 143.591C65.3667 143.302 64.9499 142.902 64.6527 142.39C64.3638 141.879 64.2194 141.301 64.2194 140.657C64.2194 140.021 64.3597 139.448 64.6403 138.936C64.9292 138.424 65.3213 138.028 65.8166 137.747C66.3201 137.458 66.8855 137.314 67.5128 137.314C68.1401 137.314 68.6973 137.458 69.1843 137.747C69.6796 138.028 70.0634 138.424 70.3358 138.936C70.6164 139.448 70.7568 140.034 70.7568 140.694ZM67.5128 138.317C66.9433 138.317 66.4645 138.49 66.0766 138.837C65.6969 139.184 65.474 139.637 65.408 140.199H69.6177C69.5516 139.646 69.3246 139.196 68.9367 138.849C68.557 138.494 68.0824 138.317 67.5128 138.317ZM74.2892 144.012C73.7527 144.012 73.2368 143.942 72.7416 143.802C72.2463 143.653 71.8584 143.467 71.5777 143.245L72.073 142.304C72.3619 142.51 72.7127 142.675 73.1254 142.799C73.5381 142.923 73.9549 142.985 74.3759 142.985C75.416 142.985 75.936 142.687 75.936 142.093C75.936 141.895 75.8658 141.738 75.7255 141.623C75.5852 141.507 75.4077 141.425 75.1931 141.375C74.9867 141.317 74.6896 141.255 74.3016 141.189C73.7734 141.107 73.34 141.012 73.0016 140.905C72.6714 140.797 72.3866 140.616 72.1473 140.36C71.9079 140.104 71.7882 139.745 71.7882 139.283C71.7882 138.688 72.0358 138.214 72.5311 137.859C73.0263 137.496 73.6908 137.314 74.5245 137.314C74.962 137.314 75.3995 137.368 75.8369 137.475C76.2744 137.582 76.6335 137.727 76.9141 137.908L76.4065 138.849C75.8699 138.503 75.2385 138.329 74.5121 138.329C74.0086 138.329 73.6248 138.412 73.3606 138.577C73.0965 138.742 72.9644 138.961 72.9644 139.233C72.9644 139.448 73.0387 139.617 73.1873 139.741C73.3359 139.864 73.5175 139.955 73.7321 140.013C73.9549 140.071 74.2645 140.137 74.6607 140.211C75.189 140.302 75.6141 140.401 75.936 140.508C76.2662 140.607 76.5468 140.781 76.7779 141.028C77.009 141.276 77.1246 141.623 77.1246 142.068C77.1246 142.663 76.8687 143.137 76.3569 143.492C75.8534 143.839 75.1642 144.012 74.2892 144.012ZM80.4921 144.012C79.9555 144.012 79.4396 143.942 78.9444 143.802C78.4491 143.653 78.0612 143.467 77.7805 143.245L78.2758 142.304C78.5647 142.51 78.9155 142.675 79.3282 142.799C79.7409 142.923 80.1578 142.985 80.5787 142.985C81.6188 142.985 82.1388 142.687 82.1388 142.093C82.1388 141.895 82.0686 141.738 81.9283 141.623C81.788 141.507 81.6105 141.425 81.3959 141.375C81.1896 141.317 80.8924 141.255 80.5044 141.189C79.9762 141.107 79.5428 141.012 79.2044 140.905C78.8742 140.797 78.5894 140.616 78.3501 140.36C78.1107 140.104 77.991 139.745 77.991 139.283C77.991 138.688 78.2386 138.214 78.7339 137.859C79.2292 137.496 79.8936 137.314 80.7273 137.314C81.1648 137.314 81.6023 137.368 82.0397 137.475C82.4772 137.582 82.8363 137.727 83.1169 137.908L82.6093 138.849C82.0728 138.503 81.4413 138.329 80.7149 138.329C80.2114 138.329 79.8276 138.412 79.5635 138.577C79.2993 138.742 79.1672 138.961 79.1672 139.233C79.1672 139.448 79.2415 139.617 79.3901 139.741C79.5387 139.864 79.7203 139.955 79.9349 140.013C80.1578 140.071 80.4673 140.137 80.8635 140.211C81.3918 140.302 81.8169 140.401 82.1388 140.508C82.469 140.607 82.7496 140.781 82.9807 141.028C83.2119 141.276 83.3274 141.623 83.3274 142.068C83.3274 142.663 83.0715 143.137 82.5598 143.492C82.0563 143.839 81.367 144.012 80.4921 144.012ZM84.8129 137.376H86.0015V143.938H84.8129V137.376ZM85.4072 136.113C85.1761 136.113 84.9821 136.039 84.8253 135.89C84.6767 135.741 84.6024 135.56 84.6024 135.345C84.6024 135.131 84.6767 134.949 84.8253 134.8C84.9821 134.644 85.1761 134.565 85.4072 134.565C85.6383 134.565 85.8282 134.64 85.9768 134.788C86.1336 134.928 86.212 135.106 86.212 135.321C86.212 135.543 86.1336 135.733 85.9768 135.89C85.8282 136.039 85.6383 136.113 85.4072 136.113ZM91.0816 144.012C90.4295 144.012 89.8434 143.868 89.3234 143.579C88.8034 143.29 88.3948 142.894 88.0977 142.39C87.8088 141.879 87.6643 141.301 87.6643 140.657C87.6643 140.013 87.8088 139.439 88.0977 138.936C88.3948 138.424 88.8034 138.028 89.3234 137.747C89.8434 137.458 90.4295 137.314 91.0816 137.314C91.7337 137.314 92.3156 137.458 92.8274 137.747C93.3474 138.028 93.7519 138.424 94.0408 138.936C94.3379 139.439 94.4865 140.013 94.4865 140.657C94.4865 141.301 94.3379 141.879 94.0408 142.39C93.7519 142.894 93.3474 143.29 92.8274 143.579C92.3156 143.868 91.7337 144.012 91.0816 144.012ZM91.0816 142.972C91.5026 142.972 91.8781 142.877 92.2083 142.687C92.5467 142.489 92.8109 142.217 93.0007 141.87C93.1906 141.515 93.2855 141.111 93.2855 140.657C93.2855 140.203 93.1906 139.803 93.0007 139.456C92.8109 139.101 92.5467 138.829 92.2083 138.639C91.8781 138.449 91.5026 138.354 91.0816 138.354C90.6606 138.354 90.2809 138.449 89.9425 138.639C89.6123 138.829 89.3482 139.101 89.1501 139.456C88.9602 139.803 88.8653 140.203 88.8653 140.657C88.8653 141.111 88.9602 141.515 89.1501 141.87C89.3482 142.217 89.6123 142.489 89.9425 142.687C90.2809 142.877 90.6606 142.972 91.0816 142.972ZM99.6343 137.314C100.468 137.314 101.128 137.557 101.615 138.044C102.111 138.523 102.358 139.229 102.358 140.162V143.938H101.17V140.298C101.17 139.662 101.017 139.184 100.711 138.862C100.406 138.54 99.9686 138.379 99.399 138.379C98.7552 138.379 98.2475 138.569 97.8761 138.948C97.5047 139.32 97.3189 139.856 97.3189 140.558V143.938H96.1303V137.376H97.2694V138.366C97.5088 138.028 97.8307 137.768 98.2352 137.586C98.6479 137.405 99.1142 137.314 99.6343 137.314ZM107.883 137.376H109.072V143.938H107.883V137.376ZM108.477 136.113C108.246 136.113 108.052 136.039 107.895 135.89C107.747 135.741 107.673 135.56 107.673 135.345C107.673 135.131 107.747 134.949 107.895 134.8C108.052 134.644 108.246 134.565 108.477 134.565C108.708 134.565 108.898 134.64 109.047 134.788C109.204 134.928 109.282 135.106 109.282 135.321C109.282 135.543 109.204 135.733 109.047 135.89C108.898 136.039 108.708 136.113 108.477 136.113ZM113.223 144.012C112.687 144.012 112.171 143.942 111.675 143.802C111.18 143.653 110.792 143.467 110.512 143.245L111.007 142.304C111.296 142.51 111.647 142.675 112.059 142.799C112.472 142.923 112.889 142.985 113.31 142.985C114.35 142.985 114.87 142.687 114.87 142.093C114.87 141.895 114.8 141.738 114.659 141.623C114.519 141.507 114.342 141.425 114.127 141.375C113.921 141.317 113.623 141.255 113.235 141.189C112.707 141.107 112.274 141.012 111.935 140.905C111.605 140.797 111.32 140.616 111.081 140.36C110.842 140.104 110.722 139.745 110.722 139.283C110.722 138.688 110.97 138.214 111.465 137.859C111.96 137.496 112.625 137.314 113.458 137.314C113.896 137.314 114.333 137.368 114.771 137.475C115.208 137.582 115.567 137.727 115.848 137.908L115.34 138.849C114.804 138.503 114.172 138.329 113.446 138.329C112.942 138.329 112.559 138.412 112.294 138.577C112.03 138.742 111.898 138.961 111.898 139.233C111.898 139.448 111.973 139.617 112.121 139.741C112.27 139.864 112.451 139.955 112.666 140.013C112.889 140.071 113.198 140.137 113.595 140.211C114.123 140.302 114.548 140.401 114.87 140.508C115.2 140.607 115.481 140.781 115.712 141.028C115.943 141.276 116.058 141.623 116.058 142.068C116.058 142.663 115.803 143.137 115.291 143.492C114.787 143.839 114.098 144.012 113.223 144.012ZM126.874 139.444C127.378 139.584 127.774 139.84 128.063 140.211C128.352 140.574 128.496 141.037 128.496 141.598C128.496 142.349 128.211 142.927 127.642 143.331C127.08 143.736 126.259 143.938 125.178 143.938H121.042V135.271H124.93C125.921 135.271 126.684 135.469 127.221 135.865C127.765 136.261 128.038 136.81 128.038 137.512C128.038 137.966 127.931 138.358 127.716 138.688C127.51 139.018 127.229 139.27 126.874 139.444ZM122.281 136.274V139.047H124.819C125.454 139.047 125.941 138.932 126.28 138.701C126.626 138.461 126.8 138.115 126.8 137.661C126.8 137.207 126.626 136.864 126.28 136.633C125.941 136.394 125.454 136.274 124.819 136.274H122.281ZM125.128 142.935C125.83 142.935 126.358 142.82 126.713 142.588C127.068 142.357 127.245 141.994 127.245 141.499C127.245 140.533 126.54 140.05 125.128 140.05H122.281V142.935H125.128ZM133.05 144.012C132.398 144.012 131.812 143.868 131.292 143.579C130.772 143.29 130.364 142.894 130.066 142.39C129.778 141.879 129.633 141.301 129.633 140.657C129.633 140.013 129.778 139.439 130.066 138.936C130.364 138.424 130.772 138.028 131.292 137.747C131.812 137.458 132.398 137.314 133.05 137.314C133.702 137.314 134.284 137.458 134.796 137.747C135.316 138.028 135.721 138.424 136.01 138.936C136.307 139.439 136.455 140.013 136.455 140.657C136.455 141.301 136.307 141.879 136.01 142.39C135.721 142.894 135.316 143.29 134.796 143.579C134.284 143.868 133.702 144.012 133.05 144.012ZM133.05 142.972C133.471 142.972 133.847 142.877 134.177 142.687C134.515 142.489 134.78 142.217 134.969 141.87C135.159 141.515 135.254 141.111 135.254 140.657C135.254 140.203 135.159 139.803 134.969 139.456C134.78 139.101 134.515 138.829 134.177 138.639C133.847 138.449 133.471 138.354 133.05 138.354C132.629 138.354 132.25 138.449 131.911 138.639C131.581 138.829 131.317 139.101 131.119 139.456C130.929 139.803 130.834 140.203 130.834 140.657C130.834 141.111 130.929 141.515 131.119 141.87C131.317 142.217 131.581 142.489 131.911 142.687C132.25 142.877 132.629 142.972 133.05 142.972ZM140.91 144.012C140.258 144.012 139.672 143.868 139.151 143.579C138.631 143.29 138.223 142.894 137.926 142.39C137.637 141.879 137.492 141.301 137.492 140.657C137.492 140.013 137.637 139.439 137.926 138.936C138.223 138.424 138.631 138.028 139.151 137.747C139.672 137.458 140.258 137.314 140.91 137.314C141.562 137.314 142.144 137.458 142.655 137.747C143.175 138.028 143.58 138.424 143.869 138.936C144.166 139.439 144.315 140.013 144.315 140.657C144.315 141.301 144.166 141.879 143.869 142.39C143.58 142.894 143.175 143.29 142.655 143.579C142.144 143.868 141.562 144.012 140.91 144.012ZM140.91 142.972C141.331 142.972 141.706 142.877 142.036 142.687C142.375 142.489 142.639 142.217 142.829 141.87C143.019 141.515 143.114 141.111 143.114 140.657C143.114 140.203 143.019 139.803 142.829 139.456C142.639 139.101 142.375 138.829 142.036 138.639C141.706 138.449 141.331 138.354 140.91 138.354C140.489 138.354 140.109 138.449 139.771 138.639C139.44 138.829 139.176 139.101 138.978 139.456C138.788 139.803 138.693 140.203 138.693 140.657C138.693 141.111 138.788 141.515 138.978 141.87C139.176 142.217 139.44 142.489 139.771 142.687C140.109 142.877 140.489 142.972 140.91 142.972ZM148.509 140.88L147.147 142.143V143.938H145.958V134.751H147.147V140.645L150.725 137.376H152.161L149.4 140.087L152.434 143.938H150.973L148.509 140.88ZM159.241 140.694C159.241 140.785 159.232 140.905 159.216 141.053H153.892C153.966 141.631 154.218 142.097 154.647 142.452C155.085 142.799 155.625 142.972 156.269 142.972C157.053 142.972 157.685 142.708 158.163 142.18L158.82 142.947C158.522 143.294 158.151 143.558 157.705 143.74C157.268 143.921 156.777 144.012 156.232 144.012C155.539 144.012 154.924 143.872 154.387 143.591C153.851 143.302 153.434 142.902 153.137 142.39C152.848 141.879 152.703 141.301 152.703 140.657C152.703 140.021 152.844 139.448 153.124 138.936C153.413 138.424 153.805 138.028 154.3 137.747C154.804 137.458 155.369 137.314 155.997 137.314C156.624 137.314 157.181 137.458 157.668 137.747C158.163 138.028 158.547 138.424 158.82 138.936C159.1 139.448 159.241 140.034 159.241 140.694ZM155.997 138.317C155.427 138.317 154.948 138.49 154.56 138.837C154.181 139.184 153.958 139.637 153.892 140.199H158.101C158.035 139.646 157.808 139.196 157.421 138.849C157.041 138.494 156.566 138.317 155.997 138.317ZM167.082 134.751V143.938H165.943V142.898C165.679 143.261 165.344 143.538 164.94 143.728C164.535 143.917 164.09 144.012 163.603 144.012C162.967 144.012 162.397 143.872 161.894 143.591C161.39 143.311 160.994 142.919 160.705 142.415C160.425 141.903 160.284 141.317 160.284 140.657C160.284 139.997 160.425 139.415 160.705 138.911C160.994 138.408 161.39 138.016 161.894 137.735C162.397 137.454 162.967 137.314 163.603 137.314C164.073 137.314 164.506 137.405 164.903 137.586C165.299 137.76 165.629 138.02 165.893 138.366V134.751H167.082ZM163.702 142.972C164.114 142.972 164.49 142.877 164.828 142.687C165.167 142.489 165.431 142.217 165.621 141.87C165.811 141.515 165.906 141.111 165.906 140.657C165.906 140.203 165.811 139.803 165.621 139.456C165.431 139.101 165.167 138.829 164.828 138.639C164.49 138.449 164.114 138.354 163.702 138.354C163.281 138.354 162.901 138.449 162.563 138.639C162.232 138.829 161.968 139.101 161.77 139.456C161.58 139.803 161.485 140.203 161.485 140.657C161.485 141.111 161.58 141.515 161.77 141.87C161.968 142.217 162.232 142.489 162.563 142.687C162.901 142.877 163.281 142.972 163.702 142.972Z" fill="black"/>
<path d="M289.595 157.932C289.595 157.932 297.938 152.855 299.823 154.348C302.54 156.501 303.441 160.14 303.441 160.14C303.441 160.14 307.851 143.321 312.06 143.961C314.475 144.326 313.291 146.204 312.205 148.57C311.2 150.757 309.453 158.805 309.453 158.805C309.453 158.805 317.432 149.34 319.771 149.512C321.587 149.643 321.835 151.239 319.235 153.798C316.634 156.356 312.349 164.418 312.349 164.418C312.349 164.418 317.935 159.204 320.246 159.177C322.089 159.177 323.279 160.435 320.892 162.499C318.505 164.563 314.901 166.124 312.982 169.866C310.609 174.481 305.553 185.976 305.553 185.976L287.861 179.716C287.861 179.716 284.979 167.974 284.862 165.12C284.862 165.12 285.103 159.094 285.069 158.021C285.034 156.948 287.882 156.645 288.749 158.709C289.615 160.772 289.216 162.932 289.567 164.301C289.918 165.67 290.544 166.936 291.548 167.555C292.553 168.174 295.098 168.208 295.751 167.452C296.589 166.143 297.138 164.67 297.361 163.132C297.449 161.966 297.433 160.794 297.313 159.631C297.313 159.631 289.952 162.643 289.595 157.932Z" fill="#FFBE9D"/>
<path d="M90.7763 212.706L78.4774 208.09C78.4774 208.09 65.9583 200.765 63.6403 203.365C63.3127 203.202 62.9541 203.111 62.5886 203.098C62.223 203.084 61.8588 203.149 61.5203 203.288C61.1818 203.427 60.8767 203.636 60.6255 203.902C60.3743 204.168 60.1827 204.484 60.0634 204.83C59.4237 206.357 61.5285 208.579 61.5285 208.579C61.5285 208.579 60.8407 209.267 61.9137 211.488C62.9868 213.71 74.8317 220.823 74.8317 220.823C74.8317 220.823 90.281 229.249 96.5268 233.273L107.306 218.614L105.806 218.057C105.806 218.057 104.919 210.752 101.926 208.806C98.6729 206.68 94.7452 200.95 93.8854 198.701C93.0256 196.452 88.8709 197.49 89.5656 202.14C90.2604 206.79 93.8854 208.021 93.5415 211.131C93.1975 214.24 90.7763 212.706 90.7763 212.706Z" fill="#FFBE9D"/>
<path d="M71.9217 214.412C70.0869 213.587 68.3023 212.654 66.577 211.619C64.7897 210.688 63.06 209.65 61.3975 208.51C63.2325 209.34 65.0192 210.272 66.749 211.303C68.5337 212.235 70.261 213.274 71.9217 214.412Z" fill="#EB996E"/>
<path d="M77.9267 210.952C77.1693 210.718 76.4311 210.426 75.7187 210.078C74.343 209.494 72.527 208.648 70.5322 207.63C68.825 206.768 67.1628 205.82 65.5521 204.789C64.94 204.383 64.4516 204.046 64.1283 203.791C63.805 203.537 63.6261 203.392 63.6399 203.372C63.6537 203.351 64.4309 203.826 65.7035 204.569C66.976 205.311 68.7232 206.295 70.7111 207.32C72.699 208.345 74.5218 209.212 75.8356 209.851C76.5594 210.165 77.2584 210.533 77.9267 210.952Z" fill="#EB996E"/>
<path d="M80.5411 217.72C80.1622 217.551 79.7966 217.353 79.4474 217.129L76.5515 215.402V215.361C75.9388 213.991 75.2498 212.657 74.4879 211.365C74.0592 210.612 73.5343 209.918 72.9265 209.301C72.6005 209.006 72.1852 208.828 71.7466 208.795C71.308 208.763 70.8711 208.878 70.5052 209.122C70.3532 209.213 70.22 209.332 70.1131 209.473C70.1182 209.5 70.1182 209.528 70.1131 209.556L70.1613 209.707C70.1613 209.81 70.2301 209.913 70.2645 210.016C70.4158 210.429 70.5809 210.828 70.7391 211.227L71.6815 213.525C72.2868 214.983 72.8508 216.324 73.3392 217.493V217.452L75.7261 220.334C75.9943 220.651 76.2076 220.919 76.4139 221.139C76.4973 221.228 76.569 221.328 76.6272 221.435C76.5274 221.364 76.4372 221.281 76.3589 221.187L75.671 220.431C74.9832 219.743 74.1509 218.766 73.1053 217.617C72.5894 216.475 72.0116 215.141 71.3857 213.676L70.4227 211.378C70.2645 210.979 70.0994 210.581 69.9481 210.161C69.9068 210.058 69.8655 209.955 69.8311 209.838L69.783 209.673C69.7608 209.594 69.747 209.513 69.7417 209.432C69.7896 209.288 69.878 209.162 69.9962 209.067C70.0622 208.964 70.1383 208.867 70.2232 208.778C70.6532 208.492 71.1667 208.359 71.6816 208.399C72.1965 208.438 72.6832 208.65 73.0641 208.998C73.7027 209.638 74.247 210.365 74.6805 211.158C75.4558 212.467 76.1451 213.825 76.7441 215.224L76.6959 215.162L79.5299 216.991C79.8849 217.209 80.2229 217.452 80.5411 217.72Z" fill="#EB996E"/>
<path d="M92.84 217.844C92.3242 217.773 91.8171 217.648 91.3267 217.473C90.147 217.111 88.9271 216.896 87.6948 216.833C86.4685 216.79 85.2542 217.088 84.1867 217.693C83.3819 218.175 83.0242 218.67 82.9761 218.622C83.2175 218.146 83.5898 217.75 84.0491 217.48C85.1346 216.778 86.4099 216.427 87.7017 216.476C88.9667 216.537 90.2147 216.792 91.4023 217.232C91.9049 217.376 92.3878 217.582 92.84 217.844Z" fill="#EB996E"/>
<path d="M91.918 214.597C91.9937 214.659 91.691 215.189 91.3952 215.877C91.0995 216.565 90.9069 217.142 90.8037 217.122C90.7278 216.647 90.8202 216.16 91.0651 215.746C91.3815 215.003 91.8423 214.535 91.918 214.597Z" fill="#EB996E"/>
<path d="M162.781 156.143C163.634 150.344 170.382 142.035 176.352 142.028C174.677 139.523 173.772 136.583 173.749 133.57C173.726 130.557 174.585 127.603 176.222 125.072C178.526 121.633 182.247 119.095 183.788 115.27C185.57 110.944 184.201 106.06 184.373 101.396C184.62 94.5728 188.17 88.327 191.63 82.4183C194.794 76.9911 198.653 71.0411 204.885 69.7067C208.826 68.8606 212.912 70.1056 216.613 71.6808C234.325 79.2473 248.096 95.123 252.822 113.475C253.957 117.871 254.713 122.624 257.774 126.022C261.014 129.612 266.716 131.566 267.672 136.271C268.36 139.641 266.2 143.032 266.524 146.465C266.799 149.333 272.178 157.704 273.402 160.318C275.535 164.824 274.778 169.687 272.591 174.172C270.403 178.657 264.88 183.031 259.968 184.249L205.077 165.959C199.912 168.903 194.76 180.273 188.837 180.975C182.915 181.676 175.678 184.249 169.976 178.01C164.04 171.468 161.935 161.935 162.781 156.143Z" fill="#263238"/>
<path d="M253.805 101.548C253.186 106.136 254.445 113.73 256.955 117.658C258.641 120.292 261.454 122.005 264.233 123.512C267.012 125.018 269.908 126.463 272.013 128.794C274.117 131.126 275.245 134.607 273.835 137.393C278.781 139.236 281.003 145.537 279.187 150.414C277.371 155.291 272.398 158.558 267.204 159.535L244.56 152.725L239.587 123.835L252.656 101.548" fill="#263238"/>
<path d="M256.584 131.002C256.737 131.052 256.884 131.117 257.024 131.195C257.449 131.385 257.862 131.598 258.262 131.835C259.75 132.723 261.09 133.839 262.231 135.143C263.967 137.104 265.252 139.421 265.994 141.933C266.96 145.067 266.982 148.416 266.056 151.563L265.973 151.349C267.321 152.111 268.56 153.053 269.653 154.149C272.382 156.863 274.121 160.414 274.592 164.233C274.921 167.345 274.358 170.487 272.969 173.292C272.047 175.172 270.788 176.867 269.254 178.293C268.837 178.678 268.396 179.036 267.934 179.366C267.779 179.487 267.615 179.597 267.445 179.696C267.581 179.553 267.731 179.424 267.892 179.311C268.195 179.077 268.628 178.692 269.158 178.19C270.637 176.743 271.85 175.048 272.742 173.182C274.08 170.404 274.607 167.304 274.262 164.24C273.771 160.524 272.061 157.076 269.399 154.438C268.332 153.36 267.121 152.434 265.801 151.686L265.671 151.618L265.719 151.48C266.638 148.399 266.638 145.117 265.719 142.036C265.005 139.557 263.764 137.262 262.08 135.308C260.971 134.003 259.67 132.873 258.221 131.959C257.726 131.615 257.292 131.429 257.024 131.271C256.869 131.195 256.722 131.105 256.584 131.002Z" fill="#455A64"/>
<path d="M189.607 160.917C189.607 160.917 179.489 163.992 175.946 169.171C173.436 172.824 147.744 228.444 147.744 228.444L108.756 216.75L94.8135 235.164L138.197 259.205C142.151 261.399 146.603 262.541 151.126 262.521C155.648 262.502 160.09 261.322 164.026 259.095C168.463 256.584 172.08 252.843 174.44 248.323L185.446 227.185L189.607 160.917Z" fill="#4CA9EE"/>
<path d="M179.255 282.07L185.343 255.828L180.727 236.774C177.762 226.966 175.224 210.98 178.443 198.11L189.222 161.096L201.074 155.642L228.21 150.999C229.256 151.342 256.584 159.06 256.584 159.06C258.379 159.439 260.149 159.933 261.881 160.539L265.017 180.803L255.594 214.206L251.466 247.478L260.477 282.091L179.255 282.07Z" fill="#4CA9EE"/>
<path d="M194.932 158.469L202.801 154.947L238.26 155.442L246.645 160.312C246.645 160.312 217.356 192.641 210.003 193.714C191.506 196.397 194.932 158.469 194.932 158.469Z" fill="#FFBE9D"/>
<path d="M261.11 160.244C261.11 160.244 266.427 161.441 270.974 171.153C275.521 180.866 282.888 207.892 282.888 207.892L286.038 179.249L311.674 182.069L306.708 250.532C306.708 250.532 297.642 263.691 282.461 262.473C267.28 261.256 248.02 213.291 248.02 213.291L261.11 160.244Z" fill="#4CA9EE"/>
<path d="M278.892 242.875C278.884 242.821 278.884 242.765 278.892 242.71C278.892 242.58 278.892 242.415 278.892 242.222C278.892 241.768 278.954 241.142 279.002 240.358C279.098 238.741 279.291 236.403 279.559 233.521C280.096 227.749 281.072 219.763 282.269 211.041C283.466 202.319 284.484 194.34 285.083 188.576C285.385 185.694 285.619 183.362 285.771 181.752C285.846 180.968 285.908 180.377 285.949 179.895C285.949 179.703 285.991 179.537 286.004 179.414C286.006 179.357 286.017 179.301 286.039 179.249C286.046 179.303 286.046 179.359 286.039 179.414V179.895C286.039 180.356 285.97 180.975 285.922 181.759C285.826 183.376 285.633 185.714 285.365 188.603C284.828 194.375 283.851 202.326 282.655 211.089C281.458 219.853 280.44 227.784 279.841 233.541C279.539 236.423 279.312 238.755 279.153 240.372C279.078 241.156 279.023 241.747 278.975 242.229C278.975 242.421 278.933 242.58 278.919 242.71C278.918 242.766 278.908 242.822 278.892 242.875Z" fill="#263238"/>
<path d="M148.192 243.171C148.075 243.015 147.98 242.844 147.91 242.662C147.686 242.18 147.489 241.687 147.318 241.183C146.156 237.854 145.81 234.295 146.307 230.804C146.41 230.116 146.513 229.607 146.61 229.242C146.643 229.049 146.703 228.862 146.788 228.685C146.85 228.685 146.692 229.51 146.561 230.838C146.394 232.561 146.394 234.295 146.561 236.018C146.735 237.743 147.074 239.447 147.573 241.108C147.951 242.408 148.247 243.171 148.192 243.171Z" fill="#263238"/>
<path d="M152.505 243.859C152.505 243.859 152.326 243.694 152.058 243.35C151.673 242.863 151.315 242.355 150.984 241.83C149.885 240.105 148.989 238.259 148.316 236.327C147.639 234.392 147.193 232.383 146.988 230.343C146.912 229.566 146.878 228.933 146.878 228.493C146.86 228.262 146.874 228.031 146.919 227.805C146.981 227.805 147.022 228.768 147.236 230.308C147.518 232.314 147.993 234.288 148.653 236.203C149.327 238.113 150.179 239.956 151.198 241.706C151.989 243.013 152.553 243.797 152.505 243.859Z" fill="#263238"/>
<path d="M182.86 182.64C182.827 182.828 182.783 183.014 182.729 183.197C182.619 183.582 182.474 184.105 182.289 184.765C181.897 186.141 181.339 188.129 180.652 190.536C178.799 196.862 177.437 203.322 176.579 209.858C176.123 213.452 176.072 217.086 176.428 220.692C176.751 223.649 177.35 226.569 178.217 229.414C178.939 231.835 179.627 233.768 180.094 235.103L180.638 236.643C180.711 236.818 180.767 237 180.803 237.187C180.713 237.02 180.635 236.848 180.569 236.671L179.964 235.151C179.455 233.83 178.732 231.911 177.969 229.49C177.066 226.653 176.432 223.737 176.077 220.781C175.701 217.15 175.743 213.487 176.201 209.865C177.056 203.31 178.457 196.837 180.39 190.516C181.078 188.081 181.711 186.127 182.137 184.772C182.344 184.125 182.516 183.61 182.639 183.217C182.691 183.017 182.765 182.823 182.86 182.64Z" fill="#263238"/>
<path d="M254.569 227.777C254.529 227.724 254.497 227.667 254.473 227.605L254.232 227.096C254.019 226.621 253.723 225.968 253.338 225.129C252.953 224.289 252.478 223.223 251.962 221.999L250.277 217.782C249.672 216.221 249.094 214.474 248.427 212.61C248.131 211.667 247.828 210.69 247.519 209.686C247.361 209.184 247.209 208.668 247.051 208.152C246.893 207.636 246.769 207.1 246.631 206.563C245.333 201.911 244.519 197.137 244.203 192.318C243.85 187.482 244.353 182.623 245.689 177.962C246.748 174.127 248.692 170.593 251.364 167.644C253.161 165.666 255.339 164.07 257.768 162.953C258.426 162.653 259.104 162.4 259.797 162.196L260.34 162.045L260.526 162.011L260.347 162.086L259.818 162.265C259.138 162.497 258.472 162.768 257.823 163.077C255.444 164.235 253.313 165.844 251.55 167.816C248.938 170.748 247.041 174.244 246.005 178.031C244.697 182.657 244.208 187.475 244.561 192.27C244.879 197.063 245.679 201.813 246.948 206.446C247.085 206.983 247.223 207.513 247.361 208.035L247.821 209.569C248.124 210.574 248.42 211.55 248.709 212.493C249.362 214.35 249.926 216.097 250.518 217.665C251.109 219.234 251.667 220.644 252.148 221.889C252.63 223.134 253.111 224.179 253.469 225.046L254.301 227.041L254.507 227.564C254.542 227.63 254.563 227.702 254.569 227.777Z" fill="#263238"/>
<g opacity="0.3">
<path opacity="0.3" d="M244.774 196.762C241.424 212.617 241.383 228.926 247.147 244.073C247.484 244.953 248.812 248.076 249.747 248.117C250.937 248.179 251.501 246.693 251.708 245.524C252.134 243.11 252.396 239.141 252.815 236.726C253.345 233.7 254.067 226.704 254.067 226.704C254.067 226.704 251.316 220.362 250.078 216.964C247.815 210.65 245.902 204.624 244.843 197.264" fill="black"/>
</g>
<path d="M242.036 258.187C241.967 258.335 241.879 258.474 241.774 258.6C241.561 258.889 241.293 259.288 240.949 259.748L240.344 260.574C240.117 260.87 239.842 261.165 239.56 261.496C238.928 262.259 238.258 262.989 237.551 263.683L236.32 264.887C235.886 265.299 235.391 265.685 234.903 266.104C233.85 266.992 232.752 267.825 231.615 268.601C226.371 272.155 220.395 274.482 214.129 275.411C212.685 275.583 211.316 275.782 210.002 275.803C209.356 275.803 208.73 275.879 208.131 275.865L206.405 275.81C205.417 275.782 204.432 275.699 203.454 275.562C203.021 275.507 202.615 275.473 202.25 275.411L201.246 275.212L199.87 274.929C199.708 274.903 199.549 274.859 199.396 274.799C199.559 274.805 199.723 274.823 199.884 274.854L201.26 275.074L202.264 275.246C202.635 275.294 203.034 275.322 203.468 275.363C204.445 275.479 205.428 275.543 206.412 275.555L208.124 275.59C208.716 275.59 209.335 275.528 209.975 275.507C211.261 275.507 212.616 275.267 214.047 275.088C220.255 274.125 226.178 271.817 231.402 268.326C232.578 267.487 233.72 266.723 234.683 265.877C235.171 265.465 235.673 265.086 236.106 264.68C236.54 264.275 236.953 263.876 237.345 263.497C238.069 262.823 238.758 262.111 239.408 261.365C239.697 261.042 239.979 260.753 240.213 260.464L240.811 259.68L241.685 258.572C241.793 258.436 241.91 258.307 242.036 258.187Z" fill="#263238"/>
<path d="M236.444 247.697C236.448 247.95 236.418 248.202 236.355 248.447C236.233 249.123 236.072 249.792 235.873 250.449C235.226 252.638 234.267 254.723 233.025 256.64C231.782 258.548 230.277 260.273 228.554 261.764C228.036 262.216 227.489 262.634 226.917 263.016C226.721 263.176 226.503 263.308 226.271 263.408C226.236 263.36 227.11 262.72 228.389 261.572C231.717 258.522 234.211 254.672 235.632 250.387C236.176 248.736 236.382 247.684 236.444 247.697Z" fill="#263238"/>
<path d="M223.959 65.3188C228.783 65.3537 233.514 66.6399 237.691 69.0515C241.868 71.4631 245.347 74.9176 247.789 79.0771C250.231 83.2366 251.551 87.9587 251.62 92.7813C251.69 97.604 250.506 102.362 248.186 106.59C246.611 109.459 244.341 112.176 241.225 113.173C241.702 104.922 240.393 96.6647 237.386 88.966C234.379 81.2674 229.745 74.3087 223.801 68.5655" fill="#4CA9EE"/>
<path d="M235.192 67.8088C233.768 64.8442 235.288 61.1366 237.833 59.0455C240.378 56.9544 243.687 56.1221 246.886 55.3517C250.084 54.5813 253.393 53.7972 255.993 51.7817C255.621 56.9338 254.335 62.2372 251.006 66.1786C247.677 70.12 241.892 72.3212 237.132 70.3058" fill="#4CA9EE"/>
<path d="M238.494 71.2068C236.306 72.1285 233.679 71.5507 231.739 70.2094C229.834 68.7747 228.289 66.9167 227.227 64.7822C225.744 62.253 224.752 59.4665 224.303 56.5691C223.869 53.6618 224.378 50.6919 225.755 48.0947C229.517 52.1049 233.665 55.4754 235.818 60.5381C237.084 63.5096 236.925 68.2834 235.57 71.2136" fill="#4CA9EE"/>
<path d="M249.163 87.8804C249.252 88.1931 249.314 88.513 249.348 88.8365C249.396 89.146 249.451 89.5243 249.486 89.9715C249.52 90.4186 249.589 90.9207 249.603 91.4847C249.664 92.7988 249.639 94.1154 249.527 95.4262C249.389 97.0334 249.136 98.6286 248.771 100.2C248.388 101.769 247.896 103.309 247.298 104.809C246.801 106.028 246.229 107.216 245.586 108.365C245.324 108.86 245.035 109.28 244.802 109.658C244.608 109.986 244.397 110.303 244.169 110.607C243.992 110.881 243.792 111.139 243.57 111.378C243.702 111.08 243.864 110.797 244.052 110.532C244.217 110.27 244.416 109.947 244.63 109.555C244.843 109.163 245.118 108.743 245.359 108.241C245.969 107.088 246.514 105.9 246.989 104.685C248.638 100.486 249.44 96.0019 249.348 91.4916C249.348 90.9345 249.307 90.4323 249.286 89.9852C249.266 89.5381 249.238 89.1667 249.211 88.8502C249.161 88.5295 249.145 88.2045 249.163 87.8804Z" fill="#263238"/>
<path d="M247.002 69.4318C246.769 69.6585 246.513 69.8613 246.239 70.0371C245.469 70.492 244.631 70.8173 243.756 71.0001C240.828 71.5085 237.822 71.3367 234.972 70.498H234.875V70.4017C234.834 70.1953 234.786 69.9683 234.731 69.7482C234.372 68.0668 234.295 66.3372 234.504 64.6305C234.662 63.2261 235.157 61.8808 235.948 60.7097C236.503 59.9308 237.204 59.2673 238.012 58.7562C238.307 58.5765 238.618 58.4245 238.941 58.3022C238.662 58.5011 238.368 58.6759 238.06 58.825C237.315 59.3676 236.671 60.0356 236.155 60.7992C235.42 61.9554 234.965 63.2674 234.827 64.6305C234.64 66.2999 234.724 67.9886 235.075 69.6313C235.123 69.8445 235.171 70.0646 235.219 70.2641L235.096 70.1334C237.895 70.9572 240.841 71.1637 243.728 70.7387C244.587 70.5784 245.419 70.2958 246.198 69.8995C246.451 69.7196 246.72 69.563 247.002 69.4318Z" fill="#263238"/>
<path d="M249.83 60.5177C249.83 60.5864 248.825 60.7309 247.243 61.2055C246.325 61.4859 245.425 61.8212 244.547 62.2098C243.474 62.6934 242.44 63.2568 241.451 63.895C240.472 64.5493 239.541 65.2735 238.666 66.0618C237.956 66.7049 237.29 67.3942 236.671 68.1254C235.612 69.3841 235.075 70.2577 235.02 70.1889C235.102 69.9611 235.216 69.7458 235.357 69.5492C235.69 68.9846 236.062 68.4444 236.471 67.9328C237.075 67.1667 237.732 66.4449 238.439 65.7729C240.182 64.1263 242.204 62.8013 244.409 61.859C245.301 61.4757 246.221 61.1606 247.161 60.9166C247.793 60.7461 248.437 60.6197 249.087 60.5383C249.333 60.5037 249.582 60.4967 249.83 60.5177Z" fill="#263238"/>
<path d="M238.349 71.117C238.36 71.1854 238.36 71.255 238.349 71.3234C238.307 71.5195 238.244 71.7108 238.163 71.8943C237.856 72.5736 237.383 73.1648 236.787 73.614C235.907 74.299 234.814 74.6521 233.699 74.6113C233.019 74.5473 232.362 74.3346 231.774 73.9883C231.185 73.6421 230.68 73.1707 230.295 72.6076C229.909 72.0445 229.651 71.4034 229.541 70.7298C229.43 70.0562 229.469 69.3665 229.654 68.7095C230.021 67.6499 230.752 66.7551 231.718 66.1851C232.342 65.8029 233.051 65.5808 233.781 65.5385C233.982 65.5288 234.182 65.5403 234.38 65.5729C234.511 65.5729 234.579 65.6073 234.579 65.621C234.579 65.6348 234.29 65.621 233.788 65.6761C232.92 65.7862 232.1 66.138 231.421 66.6913C230.742 67.2446 230.233 67.9772 229.95 68.8058C229.786 69.4169 229.755 70.0563 229.861 70.6803C229.967 71.3042 230.206 71.8979 230.563 72.4206C230.92 72.9433 231.385 73.3827 231.928 73.7086C232.47 74.0345 233.077 74.2392 233.706 74.3087C234.749 74.3602 235.779 74.0518 236.622 73.4351C237.194 73.0203 237.664 72.4818 237.998 71.8599C238.246 71.3853 238.308 71.1101 238.349 71.117Z" fill="#263238"/>
<path d="M230.005 71.2891C229.971 71.2891 229.771 70.9176 230.094 70.3811C230.284 70.0784 230.573 69.8519 230.913 69.7414C231.308 69.6138 231.725 69.5693 232.137 69.6107C233.174 69.6278 234.185 69.9301 235.061 70.4843C235.019 70.5806 233.754 70.0853 232.117 69.9684C231.792 69.9017 231.455 69.9178 231.138 70.0151C230.82 70.1125 230.532 70.288 230.301 70.5256C230.147 70.755 230.046 71.0158 230.005 71.2891Z" fill="#263238"/>
<path d="M225.782 48.0947C225.248 48.998 224.89 49.9948 224.729 51.0319C224.579 52.1717 224.524 53.3221 224.564 54.4712C224.561 55.8554 224.685 57.237 224.936 58.5983C225.477 61.0802 226.473 63.4403 227.873 65.5594C228.43 66.3642 228.919 66.9833 229.249 67.4029C229.445 67.6092 229.629 67.8274 229.799 68.0564C228.961 67.394 228.234 66.6021 227.646 65.7108C226.156 63.5938 225.108 61.1982 224.564 58.6671C224.305 57.2725 224.187 55.8551 224.214 54.4368C224.189 53.2852 224.272 52.1338 224.461 50.9975C224.593 50.2217 224.859 49.4747 225.245 48.7895C225.378 48.5256 225.56 48.2898 225.782 48.0947Z" fill="#263238"/>
<path d="M229.345 56.2529C229.722 56.5959 230.046 56.9922 230.308 57.4292C231.014 58.4324 231.627 59.4985 232.138 60.614C232.648 61.7318 233.054 62.8947 233.348 64.0876C233.497 64.5763 233.575 65.0834 233.582 65.594C233.472 65.594 233.005 63.3447 231.815 60.779C230.625 58.2133 229.249 56.3217 229.345 56.2529Z" fill="#263238"/>
<path d="M228.183 60.538C228.251 60.4761 229.414 61.6454 230.934 63.0074C231.894 63.7892 232.782 64.6547 233.589 65.5937C232.545 64.925 231.574 64.148 230.693 63.2757C229.723 62.4951 228.876 61.5721 228.183 60.538Z" fill="#263238"/>
<path d="M246.184 76.71C246.155 76.7472 246.12 76.7796 246.081 76.8063L245.778 77.0677C245.517 77.2878 245.09 77.5904 244.609 77.9412C241.914 79.745 238.776 80.7751 235.536 80.9196C234.917 80.9196 234.415 80.9196 234.071 80.9196H233.679H233.541C233.587 80.9139 233.633 80.9139 233.679 80.9196H234.078C234.421 80.9196 234.917 80.9197 235.529 80.8784C238.742 80.6824 241.85 79.6613 244.554 77.9137C245.07 77.5835 245.475 77.2946 245.744 77.0814L246.067 76.8475C246.095 76.7937 246.135 76.7468 246.184 76.71Z" fill="#FAFAFA"/>
<path d="M250.235 84.9985C250.206 85.0357 250.171 85.0682 250.132 85.0948L249.829 85.3493C249.561 85.5763 249.142 85.8721 248.646 86.2229C247.306 87.122 245.86 87.8521 244.34 88.3966C242.821 88.9437 241.241 89.304 239.635 89.4696C239.151 89.5243 238.664 89.5518 238.177 89.5522H237.641C237.641 89.5522 237.682 89.5522 237.778 89.5522H238.17C238.514 89.5522 239.016 89.4971 239.622 89.4215C242.81 89.0417 245.869 87.9357 248.564 86.1885C249.08 85.8584 249.492 85.5695 249.768 85.3631L250.091 85.1292L250.235 84.9985Z" fill="#FAFAFA"/>
<path d="M249.107 97.146C249.019 97.2268 248.922 97.2983 248.818 97.3592C248.626 97.4899 248.337 97.6619 247.972 97.8682C247.014 98.3832 245.998 98.7826 244.946 99.0582C243.892 99.3339 242.809 99.4817 241.72 99.4985C241.392 99.515 241.064 99.515 240.736 99.4985L240.378 99.4572C240.497 99.4427 240.617 99.4427 240.736 99.4572C240.97 99.4572 241.307 99.4572 241.72 99.4572C242.797 99.4129 243.867 99.2538 244.911 98.9826C245.953 98.7059 246.963 98.3209 247.924 97.8339C248.296 97.6481 248.612 97.4899 248.791 97.373C248.884 97.2808 248.99 97.2042 249.107 97.146Z" fill="#FAFAFA"/>
<path d="M251.446 95.2818C251.149 95.4074 250.837 95.4908 250.517 95.5294C250.206 95.6164 249.884 95.6536 249.561 95.6395C249.857 95.5115 250.17 95.4281 250.49 95.3919C250.8 95.3046 251.123 95.2675 251.446 95.2818Z" fill="#FAFAFA"/>
<path d="M244.615 109.561C244.101 109.675 243.571 109.702 243.047 109.644C242.52 109.628 241.999 109.523 241.506 109.334C241.506 109.293 242.194 109.438 243.061 109.5C243.928 109.561 244.615 109.52 244.615 109.561Z" fill="#FAFAFA"/>
<path d="M231.567 73.5938C231.285 73.8265 230.976 74.0229 230.645 74.1784C230.339 74.3747 230.008 74.5297 229.662 74.6393C229.94 74.4056 230.247 74.2091 230.576 74.0546C230.885 73.859 231.218 73.7041 231.567 73.5938Z" fill="#FAFAFA"/>
<path d="M228.149 66.3921C227.44 66.6933 226.761 67.0595 226.119 67.4858C225.506 67.9501 224.937 68.4705 224.42 69.0403C224.525 68.8356 224.659 68.6477 224.819 68.4832C225.539 67.6401 226.456 66.988 227.488 66.5847C227.699 66.4911 227.921 66.4264 228.149 66.3921Z" fill="#FAFAFA"/>
<path d="M234.346 74.3705C234.421 73.6847 234.421 72.9927 234.346 72.3069C234.23 71.6192 234.041 70.9458 233.782 70.2983C233.913 70.4584 234.015 70.6399 234.084 70.8349C234.494 71.7611 234.627 72.7856 234.47 73.7858C234.457 73.9857 234.415 74.1826 234.346 74.3705Z" fill="#FAFAFA"/>
<path d="M255.628 51.9468C255.393 52.2311 255.141 52.5 254.871 52.7516C254.141 53.4394 253.344 54.0524 252.491 54.5813C251.225 55.3655 249.903 56.0552 248.536 56.6449C247.009 57.3327 245.289 58.0206 243.549 58.8322C241.901 59.5846 240.366 60.564 238.989 61.7419C237.88 62.721 236.972 63.9052 236.313 65.2293C235.868 66.1227 235.59 67.0903 235.494 68.0839C235.432 68.7718 235.494 69.1776 235.494 69.1776C235.494 69.1776 235.494 69.0813 235.494 68.8956C235.477 68.623 235.477 68.3496 235.494 68.0771C235.573 67.0743 235.836 66.0948 236.272 65.188C236.927 63.8439 237.838 62.6405 238.954 61.6456C240.337 60.4532 241.882 59.462 243.542 58.7016C245.289 57.8624 246.982 57.1951 248.543 56.5279C249.905 55.9528 251.224 55.2816 252.491 54.5194C253.346 53.9998 254.15 53.401 254.892 52.7309C255.146 52.4902 255.346 52.3045 255.477 52.1669L255.628 51.9468Z" fill="#FAFAFA"/>
<path d="M253.764 60.0977C253.74 60.1533 253.71 60.2063 253.675 60.2559C253.585 60.3866 253.496 60.531 253.386 60.6823C253.145 61.0607 252.753 61.5834 252.251 62.2163C249.605 65.4952 246.233 68.1138 242.401 69.8652C241.665 70.1954 241.059 70.443 240.633 70.5531L240.145 70.7251C240.089 70.7474 240.032 70.7636 239.973 70.7732C240.023 70.7396 240.079 70.7141 240.138 70.6975L240.612 70.4981C241.032 70.3399 241.63 70.0785 242.353 69.7345C246.144 67.942 249.497 65.3405 252.175 62.1131C252.684 61.5009 253.083 60.985 253.345 60.6204L253.654 60.2008L253.764 60.0977Z" fill="#FAFAFA"/>
<path d="M225.053 50.4331C225.772 50.7372 226.463 51.1055 227.116 51.5337C230.349 53.6103 232.801 56.7026 234.084 60.3245C234.35 61.0667 234.551 61.8309 234.683 62.6082C234.66 62.5573 234.641 62.5043 234.628 62.45L234.511 62.0029C234.365 61.4462 234.191 60.8974 233.988 60.3589C232.665 56.7835 230.236 53.7233 227.054 51.6231C226.58 51.3028 226.089 51.0088 225.582 50.7426L225.17 50.5156C225.128 50.4929 225.088 50.4651 225.053 50.4331Z" fill="#FAFAFA"/>
<path d="M190.557 76.2969C190.825 79.9425 188.418 83.1755 185.996 85.9269C183.575 88.6783 180.872 91.5123 180.342 95.1304C179.414 101.548 185.694 107.512 184.401 113.847C183.713 117.252 180.92 119.983 180.425 123.415C179.943 126.744 181.725 129.998 183.933 132.529C186.141 135.061 188.7 134.689 190.646 137.42C192.919 140.49 195.805 143.055 199.121 144.952C206.157 148.804 214.604 143.225 217.996 142.201" fill="#263238"/>
<path d="M243.762 91.2441C247.002 89.8271 247.256 78.2092 239.126 76.8679C235.859 76.3245 233.142 74.7355 230.397 72.8852C227.969 71.255 227.247 67.1003 225.19 65.0161C222.653 62.4441 219.476 60.5937 215.988 59.6547C212.499 58.7157 208.823 58.722 205.337 59.6729C201.852 60.6237 198.682 62.485 196.153 65.0655C193.625 67.6461 191.828 70.853 190.948 74.3572C189.765 79.069 190.57 84.6338 194.285 87.7636C198.591 91.3954 204.981 90.5906 210.497 89.4626C216.014 88.3345 222.239 87.2133 226.875 90.4668C229.627 92.4203 231.25 95.5983 232.949 98.5423C234.648 101.486 236.78 104.492 239.993 105.593C239.993 105.593 242.435 111.343 240.44 115.347C238.445 119.35 242.785 112.526 242.785 112.526C242.785 112.526 250.71 98.4391 243.762 91.251" fill="#263238"/>
<path d="M202.546 172.811C202.505 165.244 202.546 143.92 202.546 143.955C202.546 143.989 190.495 141.926 188.032 126.187C186.808 118.36 187.228 105.552 187.915 95.055C188.528 85.6176 194.794 74.0547 204.211 75.0659L233.555 82.5567C234.935 82.6984 236.21 83.3561 237.126 84.3981C238.042 85.4402 238.53 86.7897 238.494 88.1765L236.705 161.089L202.546 172.811Z" fill="#FFBE9D"/>
<path d="M202.546 143.954C209.954 144.082 217.252 142.153 223.629 138.383C223.45 138.417 217.831 149.313 202.753 147.669L202.546 143.954Z" fill="#EB996E"/>
<path d="M240.214 135.178C235.887 136.051 235.502 133.85 232.269 130.844C230.66 129.324 229.43 127.449 228.675 125.368C227.92 123.288 227.662 121.059 227.922 118.862C228.41 114.996 230.494 111.068 229.153 107.409C227.385 102.594 220.61 101.087 218.835 96.2654C217.789 93.459 218.732 90.1779 217.542 87.4333C216.427 84.847 213.71 83.3612 211.062 82.4051C208.414 81.449 205.559 80.7817 203.358 79.0552C201.157 77.3287 199.754 74.0682 201.184 71.647C212.94 73.0555 224.486 75.8611 235.577 80.0044C238.15 80.9606 240.846 82.1162 242.36 84.393C243.969 86.8074 243.894 89.9302 243.735 92.8261C243.075 106.95 242.417 121.074 241.761 135.198" fill="#263238"/>
<path d="M250.235 129.902C250.235 129.902 250.304 129.84 250.407 129.702C250.568 129.505 250.713 129.296 250.84 129.076C251.348 128.228 251.699 127.297 251.879 126.325C252.175 124.78 252.087 123.186 251.625 121.682C251.033 119.656 249.734 117.909 247.965 116.757C246.101 115.443 243.666 114.521 242.125 112.43C241.736 111.907 241.46 111.308 241.313 110.673C241.166 110.037 241.152 109.378 241.272 108.736C241.587 107.33 242.048 105.961 242.648 104.651C243.262 103.156 243.561 101.55 243.526 99.9344C243.49 98.3187 243.121 96.7277 242.442 95.2613C241.731 93.6912 240.633 92.3277 239.25 91.2993C237.805 90.2989 236.164 89.6167 234.435 89.2976C232.729 88.9055 231.03 88.6854 229.455 88.2039C227.896 87.8019 226.462 87.0196 225.28 85.9271C224.234 84.7909 223.598 83.3386 223.471 81.7999C223.327 80.2605 223.081 78.7324 222.735 77.2257C222.033 74.3996 220.561 71.8233 218.484 69.7831C216.651 68.0178 214.319 66.8601 211.804 66.4676C209.731 66.1233 207.602 66.446 205.724 67.3893C204.319 68.0997 203.11 69.1436 202.202 70.4296C201.637 71.2385 201.222 72.1426 200.978 73.0985C200.884 73.4303 200.831 73.7721 200.819 74.1166C201.12 72.8476 201.664 71.6492 202.422 70.5879C203.482 69.176 204.914 68.0875 206.558 67.4447C208.202 66.8019 209.993 66.6303 211.729 66.9491C214.13 67.3614 216.349 68.4936 218.091 70.1958C220.064 72.1828 221.451 74.6744 222.102 77.3976C222.43 78.885 222.66 80.3924 222.79 81.91C222.932 83.5898 223.629 85.1746 224.771 86.4155C226.03 87.5918 227.562 88.4379 229.228 88.878C230.879 89.3801 232.585 89.6003 234.256 89.9855C235.893 90.2844 237.449 90.9241 238.824 91.8633C240.112 92.828 241.139 94.1003 241.809 95.564C242.455 96.9493 242.808 98.4531 242.846 99.9811C242.884 101.509 242.606 103.029 242.029 104.444C241.428 105.799 240.967 107.212 240.653 108.661C240.527 109.38 240.551 110.118 240.723 110.828C240.894 111.538 241.21 112.205 241.651 112.788C243.363 115.044 245.867 115.925 247.676 117.183C249.378 118.257 250.643 119.9 251.246 121.82C251.714 123.264 251.837 124.797 251.604 126.297C251.372 127.573 250.908 128.794 250.235 129.902Z" fill="#455A64"/>
<path d="M229.806 114.267C226.238 122.553 225.588 131.805 227.963 140.508C228.65 143.081 229.662 145.75 229.056 148.35C228.368 151.163 226.043 153.199 224.324 155.524C222.84 157.533 221.798 159.833 221.265 162.273C220.733 164.713 220.723 167.239 221.235 169.683C221.748 172.127 222.772 174.436 224.239 176.456C225.707 178.477 227.585 180.165 229.751 181.408C230.205 178.815 232.612 177.054 234.986 175.906C237.359 174.757 239.986 173.945 241.795 172.04C243.604 170.134 244.12 166.647 242.015 165.079C248.069 163.497 251.501 156.302 250.228 150.173C248.956 144.044 243.969 139.201 238.301 136.553" fill="#263238"/>
<path d="M236.224 175.355C235.144 175.947 234.091 176.477 233.961 177.708C233.803 179.146 235.185 181.677 235.68 183.039C236.168 184.38 236.258 185.832 235.94 187.223C235.621 188.613 234.908 189.883 233.886 190.878C232.864 191.873 231.577 192.552 230.178 192.833C228.779 193.114 227.329 192.985 226.002 192.463C227.935 192.614 229.579 190.722 229.758 188.782C229.937 186.843 228.988 184.979 227.832 183.417C226.676 181.856 225.28 180.466 224.303 178.788C222.308 175.349 219.344 166.069 221.621 160.862" fill="#263238"/>
<path d="M241.734 165.34C241.847 165.224 241.971 165.121 242.105 165.03C242.359 164.838 242.724 164.542 243.185 164.157C244.488 163.064 245.673 161.837 246.72 160.497C248.282 158.521 249.422 156.245 250.07 153.811C250.85 150.827 250.697 147.675 249.63 144.78C249.042 143.305 248.199 141.945 247.14 140.763C246.129 139.6 245.021 138.582 243.99 137.599C242.989 136.677 242.045 135.696 241.163 134.661C240.406 133.737 239.784 132.711 239.312 131.614C238.568 130.039 238.355 128.265 238.707 126.558C238.823 126.105 238.996 125.668 239.223 125.258C239.297 125.112 239.387 124.973 239.491 124.846C239.212 125.403 238.995 125.989 238.845 126.593C238.551 128.264 238.791 129.985 239.532 131.511C240.008 132.579 240.631 133.574 241.383 134.469C242.264 135.488 243.205 136.453 244.203 137.358C245.242 138.335 246.356 139.353 247.388 140.529C248.481 141.74 249.348 143.138 249.947 144.656C251.045 147.618 251.196 150.849 250.38 153.901C249.706 156.372 248.522 158.675 246.906 160.662C245.833 162 244.61 163.209 243.261 164.267C242.779 164.645 242.401 164.955 242.132 165.092C242.01 165.19 241.876 165.274 241.734 165.34Z" fill="#455A64"/>
<path d="M44.0427 247.498C45.783 249.678 48.8577 248.729 50.1853 247.243C51.5129 245.757 52.0219 243.708 52.4484 241.74C53.4389 237.262 54.4225 232.578 53.205 228.162C52.8909 226.818 52.2154 225.586 51.2515 224.599C50.763 224.117 50.1567 223.771 49.4929 223.596C48.8291 223.421 48.131 223.423 47.4683 223.601C45.9275 224.111 45.0539 225.706 44.4417 227.206C42.6443 231.638 41.8571 236.415 42.1374 241.19C42.268 243.412 42.6739 245.723 44.0427 247.477" fill="#E8505B"/>
<path d="M44.0427 247.498C45.783 249.678 48.8577 248.729 50.1853 247.243C51.5129 245.757 52.0219 243.708 52.4484 241.74C53.4389 237.262 54.4225 232.578 53.205 228.162C52.8909 226.818 52.2154 225.586 51.2515 224.599C50.763 224.117 50.1567 223.771 49.4929 223.596C48.8291 223.421 48.131 223.423 47.4683 223.601C45.9275 224.111 45.0539 225.706 44.4417 227.206C42.6443 231.638 41.8571 236.415 42.1374 241.19C42.268 243.412 42.6739 245.723 44.0427 247.477" fill="#1474AF"/>
<path d="M50.7494 258.662C53.3469 257.241 56.3305 256.686 59.2651 257.08C60.8334 257.238 62.4911 257.603 63.6192 258.703C64.7473 259.804 65.0844 261.854 63.9288 262.933C63.1775 263.529 62.2389 263.839 61.2805 263.807C59.0106 263.924 56.4655 263.683 54.7459 265.183C53.7553 266.029 53.15 267.363 51.9394 267.824C51.33 268.005 50.6783 267.982 50.0828 267.76C49.4872 267.538 48.98 267.128 48.6377 266.593C47.9739 265.496 47.7595 264.185 48.0392 262.933C48.1267 262.059 48.4173 261.218 48.8879 260.476C49.3584 259.735 49.9959 259.113 50.7494 258.662Z" fill="#4CA9EE"/>
<path d="M39.8676 251.04C41.4703 248.88 41.6147 245.861 40.6792 243.329C39.6408 240.826 37.9348 238.656 35.7473 237.056C33.2506 235.103 30.3981 233.655 27.3485 232.791C26.1667 232.397 24.9132 232.266 23.6754 232.406C23.0531 232.482 22.4591 232.71 21.9458 233.07C21.4324 233.43 21.0153 233.911 20.7313 234.47C19.9885 236.148 20.9239 238.067 21.9076 239.622C23.6465 242.354 25.5944 244.949 27.7337 247.381C29.4603 249.334 31.4138 251.246 33.9245 252.024C36.4351 252.801 38.9252 252.533 40.1152 250.765" fill="#4CA9EE"/>
<path d="M46.0996 281.884C46.1614 281.539 46.189 281.189 46.1821 280.838C46.1821 280.082 46.2371 279.125 46.2784 277.997C46.3291 276.595 46.4531 275.197 46.6499 273.808C46.9188 272.117 47.3189 270.45 47.8467 268.821C48.3689 267.198 49.1168 265.656 50.0685 264.24C50.8431 263.087 51.8653 262.121 53.0607 261.413C53.8735 260.944 54.7558 260.607 55.6746 260.416C56.0201 260.378 56.3611 260.307 56.6926 260.202C56.3411 260.18 55.9882 260.196 55.6402 260.251C54.6764 260.383 53.7444 260.689 52.8887 261.152C51.6268 261.845 50.5436 262.822 49.7246 264.006C48.7283 265.443 47.9495 267.019 47.4134 268.684C46.8762 270.337 46.4805 272.033 46.2303 273.753C46.0494 275.156 45.9552 276.569 45.9482 277.984C45.9482 279.194 45.9482 280.164 45.9482 280.838C45.9611 281.191 46.0118 281.542 46.0996 281.884Z" fill="#263238"/>
<path d="M46.1478 279.697C46.163 279.536 46.163 279.375 46.1478 279.215C46.1478 278.851 46.0928 278.397 46.0584 277.839C45.9828 276.649 45.8727 274.923 45.8039 272.784C45.6388 268.519 45.6388 262.61 45.9346 256.103C46.2304 249.596 46.8219 243.722 47.4273 239.478C47.5648 238.418 47.7093 237.469 47.8537 236.63C47.9982 235.791 48.0945 235.068 48.2114 234.484C48.3284 233.899 48.3834 233.486 48.4453 233.108C48.485 232.951 48.5035 232.789 48.5003 232.626C48.4377 232.775 48.3915 232.929 48.3628 233.087C48.2802 233.438 48.177 233.885 48.0463 234.429C47.9156 234.972 47.7712 235.729 47.613 236.568C47.4548 237.407 47.2828 238.356 47.1246 239.416C46.2887 244.931 45.7491 250.488 45.5081 256.062C45.2055 262.583 45.2605 268.505 45.5081 272.777C45.6182 274.916 45.7695 276.643 45.9002 277.833C45.969 278.39 46.024 278.844 46.0722 279.208C46.0712 279.374 46.0967 279.539 46.1478 279.697Z" fill="#263238"/>
<path d="M45.4599 268.313C45.4584 267.834 45.4239 267.356 45.3568 266.882C45.1923 265.583 44.9627 264.292 44.6689 263.016C44.2386 261.125 43.6989 259.26 43.0524 257.431C42.2757 255.183 41.3425 252.993 40.2597 250.875C38.3663 246.975 35.7764 243.452 32.6176 240.482C32.0753 239.967 31.501 239.487 30.898 239.044C30.6366 238.852 30.4027 238.652 30.162 238.501L29.4741 238.102C29.0742 237.838 28.6531 237.608 28.2153 237.414C29.6777 238.418 31.0746 239.514 32.3975 240.695C35.4689 243.699 38.0026 247.208 39.8883 251.068C40.9706 253.168 41.9127 255.337 42.7085 257.561C43.4583 259.625 43.9948 261.496 44.4075 263.064C44.8202 264.633 45.0954 265.967 45.2192 266.875C45.2578 267.36 45.3383 267.841 45.4599 268.313Z" fill="#263238"/>
<path d="M150.421 110.937C149.148 106.439 143.308 106.879 143.308 106.879L143.466 110.002C146.844 109.424 148.969 113.379 148.969 113.379L150.421 110.937Z" fill="#4CA9EE"/>
<path d="M92.9223 58.6465C89.765 58.9835 89.3867 62.9456 89.3867 62.9456L91.4984 63.1932C91.4984 60.8683 94.3875 59.919 94.3875 59.919L92.9223 58.6465Z" fill="#4CA9EE"/>
<path d="M122.308 16.7079C124.234 21.6055 130.734 20.4705 130.734 20.4705L130.204 16.9762C126.483 18.008 123.69 13.8052 123.69 13.8052L122.308 16.7079Z" fill="#29E7CD"/>
<path d="M48.954 99.4985C45.8036 99.8356 45.4253 103.791 45.4253 103.791L47.537 104.045C47.537 101.72 50.426 100.764 50.426 100.764L48.954 99.4985Z" fill="#4CA9EE"/>
<path d="M61.9686 32.3633C62.4088 29.2473 58.6669 27.8716 58.6669 27.8716L57.8965 29.8595C60.1527 30.4304 60.359 33.4639 60.359 33.4639L61.9686 32.3633Z" fill="#4CA9EE"/>
<path d="M60.4111 185.903C62.3371 190.8 68.8374 189.665 68.8374 189.665L68.3077 186.171C64.5864 187.203 61.7937 183 61.7937 183L60.4111 185.903Z" fill="#29E7CD"/>
<path d="M0.0721192 201.558C0.512348 198.442 -3.2296 197.066 -3.2296 197.066L-4 199.054C-1.74383 199.625 -1.53747 202.659 -1.53747 202.659L0.0721192 201.558Z" fill="#29E7CD"/>
<path d="M8.04048 80.527C7.47644 85.4452 13.9905 86.6352 13.9905 86.6352L15.1942 83.416C11.2872 83.0652 10.7231 78.4565 10.7231 78.4565L8.04048 80.527Z" fill="#4CA9EE"/>
<path d="M162.933 56.7617C166.097 56.9405 167.108 53.0954 167.108 53.0954L165.044 52.5107C164.666 54.8082 161.66 55.2622 161.66 55.2622L162.933 56.7617Z" fill="#4CA9EE"/>
</g>
<defs>
<clipPath id="clip0">
<rect width="322.2" height="282.07" fill="white" transform="translate(0.012207)"/>
</clipPath>
</defs>
</svg>
